#N canvas 482 33 367 511 10;
#X msg 37 337 0;
#X obj 249 306 loadbang;
#X obj 231 406 bng 15 250 50 0 empty empty empty 17 7 0 10 #fcfcfc
#000000 #000000;
#X text 35 318 stop!;
#X obj 167 249 bng 15 250 50 0 empty empty motivated! 17 7 0 10 #fcfcfc
#000000 #000000;
#X msg 251 406 0;
#X obj 251 429 v \$0-STATE;
#X msg 164 44 1;
#X obj 164 67 v \$0-STATE;
#N canvas 296 33 533 644 world 0;
#X floatatom 16 94 5 0 0 0 - - - 0;
#X obj 16 293 t a b;
#X obj 16 372 spigot;
#X obj 67 357 tgl 15 0 empty empty free_:) 17 7 0 10 #fcfcfc #000000
#000000 0 1;
#X obj 67 334 == 0;
#X obj 16 316 sel 1;
#X text 41 402 think;
#X obj 16 428 gauss 1 0;
#X floatatom 16 474 5 0 0 0 - - - 0;
#X obj 16 544 sel 1;
#X obj 65 562 tgl 15 0 empty empty empty 17 7 0 10 #fcfcfc #000000
#000000 0 1;
#X floatatom 110 504 5 0 0 0 stress - - 0;
#X obj 238 555 +;
#X obj 238 502 t a b;
#X obj 238 326 tgl 15 0 empty empty empty 17 7 0 10 #fcfcfc #000000
#000000 0 1;
#X floatatom 238 480 8 0 0 0 - - - 0;
#X obj 16 521 >;
#X floatatom 16 137 5 0 0 0 - - - 0;
#X obj 238 375 t b b;
#X obj 285 416 sel 1 0;
#X obj 64 164 bng 15 250 50 0 empty empty listen 17 7 0 10 #b8b8b8
#f8fc00 #000000;
#X obj 238 578 max 0;
#X text 109 114 listening speed;
#X text 56 93 speed of happenings;
#X text 69 210 world is quiet?;
#X text 90 285 status of me;
#X obj 147 329 tgl 15 0 empty empty busy. 17 7 0 10 #fcfcfc #000000
#000000 0 1;
#X obj 16 451 abs;
#N canvas 0 50 450 250 (subpatch) 0;
#X array \$0-stress 100 float 2;
#X coords 0 100 100 0 200 150 1 0 0;
#X restore 295 45 graph;
#X obj 238 303 loadbang;
#X text 78 227 condition of state change;
#X obj 238 346 metro 100;
#N canvas 1 89 319 212 (subpatch) 0;
#X obj 12 54 metro 100;
#X obj 12 34 tgl 15 0 empty empty empty 17 7 0 10 #fcfcfc #000000 #000000
0 1;
#X obj 12 100 t a b;
#X obj 117 77 f;
#X obj 144 77 + 1;
#X obj 117 100 mod 100;
#X obj 12 11 loadbang;
#X obj 12 77 v \$0-STRESS;
#X obj 12 123 tabwrite \$0-stress;
#X msg 78 11 0;
#X connect 0 0 7 0;
#X connect 1 0 0 0;
#X connect 2 0 8 0;
#X connect 2 1 3 0;
#X connect 3 0 4 0;
#X connect 3 0 5 0;
#X connect 4 0 3 1;
#X connect 5 0 8 1;
#X connect 6 0 1 0;
#X connect 7 0 2 0;
#X connect 9 0 7 0;
#X restore 473 200 pd;
#X obj 285 393 v \$0-STATE;
#X obj 265 525 v \$0-STRESS;
#X obj 238 601 v \$0-STRESS;
#X obj 67 311 v \$0-STATE;
#X obj 16 597 outlet;
#X obj 373 235 tgl 15 0 empty empty empty 17 7 0 10 #fcfcfc #000000
#000000 0 1;
#X obj 373 255 metro 50;
#X obj 373 212 loadbang;
#X obj 373 278 v \$0-STATE;
#X obj 373 301 s \$0-status-now;
#X obj 16 39 r WORLD_ENERGY;
#X text 378 440 working stress;
#X text 378 460 resting relax;
#X obj 16 66 +;
#X obj 16 114 resample 100;
#X msg 304 462 -0.05;
#X obj 49 66 tgl 15 0 empty \$0-SLEEP r:0-SLEEP 17 7 0 10 #fcfcfc #000000
#000000 0 1;
#X obj 158 31 tgl 15 0 empty WORLD_SLEEP r:WORLD_SLEEP 17 7 0 10 #fcfcfc
#000000 #000000 0 1;
#X obj 158 51 s \$0-SLEEP;
#X obj 16 210 < 0.65;
#X msg 285 439 0.2;
#X connect 0 0 47 0;
#X connect 1 0 5 0;
#X connect 1 1 36 0;
#X connect 2 0 7 0;
#X connect 3 0 2 1;
#X connect 4 0 3 0;
#X connect 5 0 2 0;
#X connect 7 0 27 0;
#X connect 8 0 16 0;
#X connect 9 0 37 0;
#X connect 11 0 16 1;
#X connect 12 0 21 0;
#X connect 13 0 12 0;
#X connect 13 1 34 0;
#X connect 14 0 31 0;
#X connect 15 0 13 0;
#X connect 16 0 9 0;
#X connect 16 0 10 0;
#X connect 17 0 20 0;
#X connect 17 0 52 0;
#X connect 18 0 15 0;
#X connect 18 1 33 0;
#X connect 19 0 53 0;
#X connect 19 1 48 0;
#X connect 21 0 11 0;
#X connect 21 0 35 0;
#X connect 27 0 8 0;
#X connect 29 0 14 0;
#X connect 31 0 18 0;
#X connect 33 0 19 0;
#X connect 34 0 12 1;
#X connect 36 0 4 0;
#X connect 36 0 26 0;
#X connect 38 0 39 0;
#X connect 39 0 41 0;
#X connect 40 0 38 0;
#X connect 41 0 42 0;
#X connect 43 0 46 0;
#X connect 46 0 0 0;
#X connect 47 0 17 0;
#X connect 48 0 15 0;
#X connect 49 0 46 1;
#X connect 50 0 51 0;
#X connect 52 0 1 0;
#X connect 53 0 15 0;
#X restore 167 226 pd world and me;
#N canvas 640 51 697 398 expressions 0;
#X obj 42 195 inlet;
#X obj 42 276 outlet;
#X obj 42 247 t b a;
#X obj 244 242 s \$0-word;
#X obj 161 333 bng 15 250 50 0 \$0-reload empty s:reload 17 7 0 10
#fcfcfc #000000 #000000;
#X obj 161 265 + 1;
#X floatatom 161 288 5 0 0 0 - - - 0;
#X obj 42 224 count 4;
#X obj 67 351 t b b;
#X msg 94 372 0;
#X obj 67 331 bng 15 250 50 0 empty ACT0 r:ACT0 17 7 0 10 #fcfcfc #000000
#000000;
#X obj 175 172 loadbang;
#X obj 175 214 s \$0-word-max;
#X obj 81 183 r \$0-word-max;
#X floatatom 81 204 5 0 0 0 - - - 0;
#N canvas 0 23 450 278 (subpatch) 0;
#X array chimeS2 50 float 3;
#A 0 0.809524 0.809524 0.819048 0.819048 0.819048 0.809524 0.7 0.695239
0.695239 0.695239 0.695239 0.438095 0.695239 0.690477 0.685715 0.447619
0.680952 0.680952 0.680952 0.680952 0.680952 0.82381 0.82381 0.666666
0.666666 0.671429 0.671429 0.814286 0.814286 0.657142 0.657142 0.657142
0.642856 0.623807 0.623807 0.623807 0.809524 0.361905 0.809524 0.361905
0.714285 0.714285 0.723809 0.761905 0.761905 0.771429 0.771429 0.771429
0.771429 0.800001;
#X coords 0 1 50 0 150 105 1 0 0;
#X restore 198 35 graph;
#N canvas 0 23 450 278 (subpatch) 0;
#X array chimeS1 10 float 3;
#A 0 0.4 0.133332 -0.180956 0.142857 -0.257145 0.295238 0.104762 -0.161906
-0.361908 0.466668;
#X coords 0 1 10 0 150 105 1 0 0;
#X restore 38 35 graph;
#X obj 161 310 array_copier chimeS;
#N canvas 0 23 450 278 (subpatch) 0;
#X array chimeS0 10 float 3;
#A 0 0.4 0.133332 -0.180956 0.142857 -0.257145 0.295238 0.104762 -0.161906
-0.361908 0.466668;
#X coords 0 1 10 0 150 105 1 0 0;
#X restore 478 255 graph;
#X msg 175 193 2;
#X connect 0 0 7 0;
#X connect 2 0 1 0;
#X connect 2 1 5 0;
#X connect 5 0 6 0;
#X connect 6 0 17 0;
#X connect 7 0 2 0;
#X connect 7 0 3 0;
#X connect 8 0 1 0;
#X connect 8 1 9 0;
#X connect 9 0 17 0;
#X connect 10 0 8 0;
#X connect 11 0 19 0;
#X connect 13 0 14 0;
#X connect 14 0 7 1;
#X connect 17 0 4 0;
#X connect 19 0 12 0;
#X restore 48 256 pd expressions;
#N canvas 0 23 450 278 (subpatch) 0;
#X array chimeS 50 float 3;
#A 0 0.809524 0.809524 0.819048 0.819048 0.819048 0.809524 0.7 0.695239
0.695239 0.695239 0.695239 0.438095 0.695239 0.690477 0.685715 0.447619
0.680952 0.680952 0.680952 0.680952 0.680952 0.82381 0.82381 0.666666
0.666666 0.671429 0.671429 0.814286 0.814286 0.657142 0.657142 0.657142
0.642856 0.623807 0.623807 0.623807 0.809524 0.361905 0.809524 0.361905
0.714285 0.714285 0.723809 0.761905 0.761905 0.771429 0.771429 0.771429
0.771429 0.800001;
#X coords 0 1 50 0 50 50 1 0 0;
#X restore 29 46 graph;
#X obj 9 136 hradio 15 1 0 2 empty \$0-word empty 0 -8 0 10 #e3c6ff
#c6feff #000000 0;
#X obj 88 7 bng 15 250 50 0 empty empty empty 17 7 0 10 #e3c6ff #00faff
#000000;
#X obj 88 24 tgl 15 0 empty \$0-status-now empty 17 7 0 10 #e3c6ff
#00faff #000000 0 1;
#X obj 88 429 s NOTE;
#X obj 88 406 spigot;
#X obj 7 420 tgl 15 0 empty empty empty 17 7 0 10 #fcfcfc #000000 #000000
0 1;
#X obj 7 397 loadbang;
#X obj 269 352 bng 15 250 50 0 empty \$0-reload r:reload 17 7 0 10
#fcfcfc #000000 #000000;
#X obj 233 129 v \$0-STRESS;
#X obj 233 175 v \$0-STRESS;
#X obj 233 109 bng 15 250 50 0 empty WORLD_evt_half r:WORLD_evt_half
17 7 0 10 #fcfcfc #000000 #000000;
#X obj 233 152 * 0.5;
#X floatatom 9 118 5 0 0 0 - \$0-word - 0;
#X obj 72 119 nbx 2 14 -1e+37 1e+37 0 0 \$0-word-max \$0-word-max-set
w 0 -8 0 10 #b8b8b8 #202020 #000000 0 256;
#X obj 114 98 r \$0-word-max;
#X obj 114 139 s \$0-word-max-set;
#X msg 114 118 set \$1;
#X obj 9 66 tgl 15 0 \$0-SLEEP \$0-SLEEP-set s 3 -7 0 10 #404040 #f8fc00
#000000 0 1;
#X msg 5 178 set \$1;
#X obj 5 158 r \$0-SLEEP;
#X obj 5 199 s \$0-SLEEP-set;
#X obj 164 21 r CHIME_S;
#X obj 231 452 s CHIME_S_DONE;
#X obj 167 269 s CHIME_S;
#X obj 48 218 r CHIME_S;
#X msg 249 329 chimeS;
#X obj 88 306 riff1 600 4200 2000;
#X connect 0 0 38 0;
#X connect 1 0 37 0;
#X connect 2 0 5 0;
#X connect 2 0 34 0;
#X connect 4 0 35 0;
#X connect 5 0 6 0;
#X connect 7 0 8 0;
#X connect 9 0 4 0;
#X connect 10 0 38 0;
#X connect 13 0 4 0;
#X connect 16 0 15 0;
#X connect 17 0 16 1;
#X connect 18 0 17 0;
#X connect 19 0 37 0;
#X connect 20 0 23 0;
#X connect 22 0 20 0;
#X connect 23 0 21 0;
#X connect 26 0 28 0;
#X connect 28 0 27 0;
#X connect 30 0 32 0;
#X connect 31 0 30 0;
#X connect 33 0 7 0;
#X connect 36 0 10 0;
#X connect 37 0 38 1;
#X connect 38 0 16 0;
#X connect 38 3 2 0;
#X coords 0 -1 1 1 100 150 2 5 5;
