#N canvas 190 33 702 505 10;
#X msg 37 337 0;
#X obj 249 306 loadbang;
#X obj 231 406 bng 15 250 50 0 empty empty empty 17 7 0 10 #fcfcfc
#000000 #000000;
#X text 35 318 stop!;
#X obj 167 249 bng 15 250 50 0 empty empty motivated! 17 7 0 10 #fcfcfc
#000000 #000000;
#X msg 251 406 0;
#X obj 251 429 v \$0-STATE;
#X msg 164 44 1;
#X obj 164 67 v \$0-STATE;
#N canvas 747 95 533 644 world 0;
#X floatatom 16 94 5 0 0 0 - - - 0;
#X obj 16 293 t a b;
#X obj 16 372 spigot;
#X obj 67 357 tgl 15 0 empty empty free_:) 17 7 0 10 #fcfcfc #000000
#000000 0 1;
#X obj 67 334 == 0;
#X obj 16 316 sel 1;
#X text 41 402 think;
#X obj 16 428 gauss 1 0;
#X floatatom 16 474 5 0 0 0 - - - 0;
#X obj 16 544 sel 1;
#X obj 65 562 tgl 15 0 empty empty empty 17 7 0 10 #fcfcfc #000000
#000000 0 1;
#X floatatom 110 504 5 0 0 0 stress - - 0;
#X obj 238 555 +;
#X obj 238 502 t a b;
#X obj 238 326 tgl 15 0 empty empty empty 17 7 0 10 #fcfcfc #000000
#000000 0 1;
#X floatatom 238 480 8 0 0 0 - - - 0;
#X obj 16 521 >;
#X floatatom 16 137 5 0 0 0 - - - 0;
#X obj 238 375 t b b;
#X obj 285 416 sel 1 0;
#X obj 64 164 bng 15 250 50 0 empty empty listen 17 7 0 10 #b8b8b8
#f8fc00 #000000;
#X obj 238 578 max 0;
#X text 109 114 listening speed;
#X text 56 93 speed of happenings;
#X text 69 210 world is quiet?;
#X text 90 285 status of me;
#X obj 147 329 tgl 15 0 empty empty busy. 17 7 0 10 #fcfcfc #000000
#000000 0 1;
#X obj 16 451 abs;
#N canvas 0 50 450 250 (subpatch) 0;
#X array \$0-stress 100 float 2;
#X coords 0 100 100 0 200 150 1 0 0;
#X restore 295 45 graph;
#X obj 238 303 loadbang;
#X text 78 227 condition of state change;
#X obj 238 346 metro 100;
#N canvas 1 89 319 212 (subpatch) 0;
#X obj 12 54 metro 100;
#X obj 12 34 tgl 15 0 empty empty empty 17 7 0 10 #fcfcfc #000000 #000000
0 1;
#X obj 12 100 t a b;
#X obj 117 77 f;
#X obj 144 77 + 1;
#X obj 117 100 mod 100;
#X obj 12 11 loadbang;
#X obj 12 77 v \$0-STRESS;
#X obj 12 123 tabwrite \$0-stress;
#X msg 78 11 0;
#X connect 0 0 7 0;
#X connect 1 0 0 0;
#X connect 2 0 8 0;
#X connect 2 1 3 0;
#X connect 3 0 4 0;
#X connect 3 0 5 0;
#X connect 4 0 3 1;
#X connect 5 0 8 1;
#X connect 6 0 1 0;
#X connect 7 0 2 0;
#X connect 9 0 7 0;
#X restore 473 200 pd;
#X obj 285 393 v \$0-STATE;
#X obj 265 525 v \$0-STRESS;
#X obj 238 601 v \$0-STRESS;
#X obj 67 311 v \$0-STATE;
#X obj 16 597 outlet;
#X obj 373 235 tgl 15 0 empty empty empty 17 7 0 10 #fcfcfc #000000
#000000 0 1;
#X obj 373 255 metro 50;
#X obj 373 212 loadbang;
#X obj 373 278 v \$0-STATE;
#X obj 373 301 s \$0-status-now;
#X obj 16 39 r WORLD_ENERGY;
#X text 378 440 working stress;
#X text 378 460 resting relax;
#X obj 16 66 +;
#X obj 16 114 resample 100;
#X msg 304 462 -0.05;
#X obj 16 210 < 0.75;
#X obj 49 66 tgl 15 0 empty \$0-SLEEP r:0-SLEEP 17 7 0 10 #fcfcfc #000000
#000000 0 1;
#X obj 158 31 tgl 15 0 empty WORLD_SLEEP r:WORLD_SLEEP 17 7 0 10 #fcfcfc
#000000 #000000 0 1;
#X obj 158 51 s \$0-SLEEP;
#X msg 285 439 0.2;
#X connect 0 0 47 0;
#X connect 1 0 5 0;
#X connect 1 1 36 0;
#X connect 2 0 7 0;
#X connect 3 0 2 1;
#X connect 4 0 3 0;
#X connect 5 0 2 0;
#X connect 7 0 27 0;
#X connect 8 0 16 0;
#X connect 9 0 37 0;
#X connect 11 0 16 1;
#X connect 12 0 21 0;
#X connect 13 0 12 0;
#X connect 13 1 34 0;
#X connect 14 0 31 0;
#X connect 15 0 13 0;
#X connect 16 0 9 0;
#X connect 16 0 10 0;
#X connect 17 0 20 0;
#X connect 17 0 49 0;
#X connect 18 0 15 0;
#X connect 18 1 33 0;
#X connect 19 0 53 0;
#X connect 19 1 48 0;
#X connect 21 0 11 0;
#X connect 21 0 35 0;
#X connect 27 0 8 0;
#X connect 29 0 14 0;
#X connect 31 0 18 0;
#X connect 33 0 19 0;
#X connect 34 0 12 1;
#X connect 36 0 4 0;
#X connect 36 0 26 0;
#X connect 38 0 39 0;
#X connect 39 0 41 0;
#X connect 40 0 38 0;
#X connect 41 0 42 0;
#X connect 43 0 46 0;
#X connect 46 0 0 0;
#X connect 47 0 17 0;
#X connect 48 0 15 0;
#X connect 49 0 1 0;
#X connect 50 0 46 1;
#X connect 51 0 52 0;
#X connect 53 0 15 0;
#X restore 167 226 pd world and me;
#N canvas 617 115 697 398 expressions 0;
#X obj 42 195 inlet;
#X obj 42 276 outlet;
#X obj 42 247 t b a;
#X obj 244 242 s \$0-word;
#N canvas 0 23 450 278 (subpatch) 0;
#X array hose011 40 float 3;
#A 0 0.114286 0.161905 0.190476 0.209524 0.24762 0.276191 0.342858
0.400002 0.466669 0.0666667 0.0666667 0.0666667 0.0666667 0.0666667
0.0666667 0.0857144 0.133334 0.238096 0.266667 0.333334 0.390478 0.428573
0.466669 0.104762 0.0571423 0.0476184 0.0285707 0.0285707 0.0285707
0.0285707 0.0476184 0.0666661 0.133333 0.171429 0.342858 0.447621 0.361906
0.295239 0.2 0.2;
#X coords 0 1 40 0 150 105 1 0 0;
#X restore 38 35 graph;
#N canvas 0 23 450 278 (subpatch) 0;
#X array hose012 50 float 3;
#A 0 0.0285714 0.619048 0.35238 0.295237 0.238094 0.219046 0.114283
0.076188 0.0285686 -0.00952685 -0.0190507 0.266667 0.152381 0.438095
0.380952 0.323809 0.266666 0.238094 0.209522 0.180951 0.152379 0.142855
0.123808 0.0952359 0.0761882 0.0761882 0.0571405 0.380952 -0.152382
0.571429 0.485714 0.438094 0.35238 0.295236 0.276189 0.238093 0.209522
0.199998 0.190474 0.171426 0.142855 0.123807 0.123807 0.114283 0.0857146
0.0666669 0.447619 0.342856 0.285713 0.161903;
#X coords 0 1 50 0 150 105 1 0 0;
#X restore 198 35 graph;
#N canvas 0 23 450 278 (subpatch) 0;
#X array hose013 40 float 3;
#A 0 0.352381 0.333333 0.00952363 0.00952363 0.390476 0.380952 0.00952363
0.514286 0.514286 0.00952363 0.00952363 0.514286 0.514286 0.00952363
0.00952363 0.00952363 0.514286 0.380952 0.514286 0.0285684 0.0285684
0.0285684 0.352381 0.514286 0.00952363 0.00952363 0.00952363 0.380952
0.514286 0.00952363 0.00952363 0.390476 0.390476 0.390476 0.0142856
0.0190475 0.514286 0.514286 0.0380952 0.0380952;
#X coords 0 1 40 0 150 105 1 0 0;
#X restore 358 35 graph;
#N canvas 0 23 450 278 (subpatch) 0;
#X array hose014 30 float 3;
#A 0 0.409524 0.390476 0.352381 0.257143 0.219048 0.0857136 0.104761
0.152381 0.161905 0.2 0.057142 0.0952375 0.152381 0.161905 0.180952
0.228572 0.219048 0.238096 0.0190465 0.057142 0.0761898 0.114285 0.0857136
0.0952375 0.152381 0.104761 0.266667 0.266667 0.190476 0.361906;
#X coords 0 1 30 0 150 105 1 0 0;
#X restore 518 35 graph;
#X obj 161 333 bng 15 250 50 0 \$0-reload empty s:reload 17 7 0 10
#fcfcfc #000000 #000000;
#X obj 161 265 + 1;
#X floatatom 161 288 5 0 0 0 - - - 0;
#X obj 42 224 count 4;
#X obj 175 172 loadbang;
#X obj 175 214 s \$0-word-max;
#X obj 81 183 r \$0-word-max;
#X floatatom 81 204 5 0 0 0 - - - 0;
#X msg 175 193 4;
#X obj 161 310 array_copier hose01;
#X connect 0 0 11 0;
#X connect 2 0 1 0;
#X connect 2 1 9 0;
#X connect 9 0 10 0;
#X connect 10 0 17 0;
#X connect 11 0 2 0;
#X connect 11 0 3 0;
#X connect 12 0 16 0;
#X connect 14 0 15 0;
#X connect 15 0 11 1;
#X connect 16 0 13 0;
#X connect 17 0 8 0;
#X restore 48 256 pd expressions;
#N canvas 0 23 450 278 (subpatch) 0;
#X array hose01 40 float 3;
#A 0 0.352381 0.333333 0.00952363 0.00952363 0.390476 0.380952 0.00952363
0.514286 0.514286 0.00952363 0.00952363 0.514286 0.514286 0.00952363
0.00952363 0.00952363 0.514286 0.380952 0.514286 0.0285684 0.0285684
0.0285684 0.352381 0.514286 0.00952363 0.00952363 0.00952363 0.380952
0.514286 0.00952363 0.00952363 0.390476 0.390476 0.390476 0.0142856
0.0190475 0.514286 0.514286 0.0380952 0.0380952;
#X coords 0 1 40 0 50 50 1 0 0;
#X restore 29 46 graph;
#X obj 9 136 hradio 15 1 0 4 empty \$0-word empty 0 -8 0 10 #fcfcc4
#7c7c7c #000000 0;
#X obj 88 7 bng 15 250 50 0 empty empty empty 17 7 0 10 #fcfcc4 #000000
#000000;
#X obj 88 24 tgl 15 0 empty \$0-status-now empty 17 7 0 10 #fcfcc4
#000000 #000000 0 1;
#X obj 88 429 s NOTE;
#X obj 88 406 spigot;
#X obj 7 420 tgl 15 0 empty empty empty 17 7 0 10 #fcfcfc #000000 #000000
0 1;
#X obj 7 397 loadbang;
#X obj 269 352 bng 15 250 50 0 empty \$0-reload r:reload 17 7 0 10
#fcfcfc #000000 #000000;
#X obj 233 129 v \$0-STRESS;
#X obj 233 175 v \$0-STRESS;
#X obj 233 109 bng 15 250 50 0 empty WORLD_evt_half r:WORLD_evt_half
17 7 0 10 #fcfcfc #000000 #000000;
#X obj 233 152 * 0.5;
#X floatatom 9 118 5 0 0 0 - \$0-word - 0;
#X obj 72 119 nbx 2 14 -1e+37 1e+37 0 0 \$0-word-max \$0-word-max-set
w 0 -8 0 10 #b8b8b8 #202020 #000000 0 256;
#X obj 114 98 r \$0-word-max;
#X obj 114 139 s \$0-word-max-set;
#X msg 114 118 set \$1;
#X obj 9 66 tgl 15 0 \$0-SLEEP \$0-SLEEP-set s 3 -7 0 10 #404040 #f8fc00
#000000 0 1;
#X msg 5 178 set \$1;
#X obj 5 158 r \$0-SLEEP;
#X obj 5 199 s \$0-SLEEP-set;
#X obj 231 452 s paper01_DONE;
#X msg 249 329 hose01;
#X obj 167 269 s hose01;
#X obj 164 21 r hose01;
#X obj 48 218 r hose01;
#X msg 368 325 0;
#X obj 580 294 loadbang;
#X obj 562 394 bng 15 250 50 0 empty empty empty 17 7 0 10 #fcfcfc
#000000 #000000;
#X text 366 306 stop!;
#X msg 582 394 0;
#X obj 582 417 v \$0-STATE;
#X obj 419 417 s NOTE;
#X obj 419 394 spigot;
#X obj 338 408 tgl 15 0 empty empty empty 17 7 0 10 #fcfcfc #000000
#000000 0 1;
#X obj 338 385 loadbang;
#X obj 600 340 bng 15 250 50 0 empty \$0-reload r:reload 17 7 0 10
#fcfcfc #000000 #000000;
#X obj 562 440 s paper01_DONE;
#X msg 580 317 hose01;
#X obj 498 257 s hose01;
#X msg 638 264 1;
#X msg 307 276 0;
#X obj 88 306 riff1 700 4823 500;
#X obj 419 294 riff1 600 4823 500;
#X connect 0 0 54 0;
#X connect 1 0 34 0;
#X connect 2 0 5 0;
#X connect 2 0 33 0;
#X connect 4 0 35 0;
#X connect 5 0 6 0;
#X connect 7 0 8 0;
#X connect 9 0 4 0;
#X connect 10 0 54 0;
#X connect 10 0 55 0;
#X connect 13 0 4 0;
#X connect 16 0 15 0;
#X connect 17 0 16 1;
#X connect 18 0 17 0;
#X connect 19 0 34 0;
#X connect 20 0 23 0;
#X connect 22 0 20 0;
#X connect 23 0 21 0;
#X connect 26 0 28 0;
#X connect 28 0 27 0;
#X connect 30 0 32 0;
#X connect 31 0 30 0;
#X connect 34 0 54 1;
#X connect 36 0 7 0;
#X connect 37 0 10 0;
#X connect 38 0 55 0;
#X connect 39 0 50 0;
#X connect 40 0 42 0;
#X connect 40 0 49 0;
#X connect 42 0 43 0;
#X connect 45 0 44 0;
#X connect 46 0 45 1;
#X connect 47 0 46 0;
#X connect 48 0 50 0;
#X connect 50 0 55 1;
#X connect 52 0 55 2;
#X connect 53 0 54 2;
#X connect 54 0 16 0;
#X connect 54 3 2 0;
#X connect 55 0 45 0;
#X connect 55 3 40 0;
#X coords 0 -1 1 1 100 150 2 5 5;
