#N canvas 569 94 829 496 10;
#X obj 283 80 bng 15 250 50 0 empty empty motivated! 17 7 0 10 #fcfcfc
#000000 #000000;
#X msg 164 44 1;
#X obj 164 67 v \$0-STATE;
#N canvas 747 95 533 644 world 0;
#X floatatom 16 94 5 0 0 0 - - - 0;
#X obj 16 293 t a b;
#X obj 16 372 spigot;
#X obj 67 357 tgl 15 0 empty empty free_:) 17 7 0 10 #fcfcfc #000000
#000000 0 1;
#X obj 67 334 == 0;
#X obj 16 316 sel 1;
#X text 41 402 think;
#X obj 16 428 gauss 1 0;
#X floatatom 16 474 5 0 0 0 - - - 0;
#X obj 16 544 sel 1;
#X obj 65 562 tgl 15 0 empty empty empty 17 7 0 10 #fcfcfc #000000
#000000 0 1;
#X floatatom 110 504 5 0 0 0 stress - - 0;
#X obj 238 555 +;
#X obj 238 502 t a b;
#X obj 238 326 tgl 15 0 empty empty empty 17 7 0 10 #fcfcfc #000000
#000000 0 1;
#X floatatom 238 480 8 0 0 0 - - - 0;
#X obj 16 521 >;
#X floatatom 16 137 5 0 0 0 - - - 0;
#X obj 238 375 t b b;
#X obj 285 416 sel 1 0;
#X obj 64 164 bng 15 250 50 0 empty empty listen 17 7 0 10 #b8b8b8
#f8fc00 #000000;
#X obj 238 578 max 0;
#X text 109 114 listening speed;
#X text 56 93 speed of happenings;
#X text 69 210 world is quiet?;
#X text 90 285 status of me;
#X obj 147 329 tgl 15 0 empty empty busy. 17 7 0 10 #fcfcfc #000000
#000000 0 1;
#X obj 16 451 abs;
#N canvas 0 50 450 250 (subpatch) 0;
#X array \$0-stress 100 float 2;
#X coords 0 100 100 0 200 150 1 0 0;
#X restore 295 45 graph;
#X obj 238 303 loadbang;
#X text 78 227 condition of state change;
#X obj 238 346 metro 100;
#N canvas 84 95 319 212 (subpatch) 0;
#X obj 12 54 metro 100;
#X obj 12 34 tgl 15 0 empty empty empty 17 7 0 10 #fcfcfc #000000 #000000
0 1;
#X obj 12 100 t a b;
#X obj 117 77 f;
#X obj 144 77 + 1;
#X obj 117 100 mod 100;
#X obj 12 11 loadbang;
#X obj 12 77 v \$0-STRESS;
#X obj 12 123 tabwrite \$0-stress;
#X msg 78 11 0;
#X connect 0 0 7 0;
#X connect 1 0 0 0;
#X connect 2 0 8 0;
#X connect 2 1 3 0;
#X connect 3 0 4 0;
#X connect 3 0 5 0;
#X connect 4 0 3 1;
#X connect 5 0 8 1;
#X connect 6 0 1 0;
#X connect 7 0 2 0;
#X connect 9 0 7 0;
#X restore 473 200 pd;
#X obj 285 393 v \$0-STATE;
#X obj 265 525 v \$0-STRESS;
#X obj 238 601 v \$0-STRESS;
#X obj 67 311 v \$0-STATE;
#X obj 16 597 outlet;
#X obj 373 235 tgl 15 0 empty empty empty 17 7 0 10 #fcfcfc #000000
#000000 0 1;
#X obj 373 255 metro 50;
#X obj 373 212 loadbang;
#X obj 373 278 v \$0-STATE;
#X obj 373 301 s \$0-status-now;
#X obj 16 39 r WORLD_ENERGY;
#X text 378 440 working stress;
#X text 378 460 resting relax;
#X obj 16 66 +;
#X obj 16 114 resample 100;
#X msg 304 462 -0.05;
#X msg 285 439 0.15;
#X obj 16 210 < 0.73;
#X obj 49 66 tgl 15 0 empty \$0-SLEEP r:0-SLEEP 17 7 0 10 #fcfcfc #000000
#000000 0 1;
#X obj 158 31 tgl 15 0 empty WORLD_SLEEP r:WORLD_SLEEP 17 7 0 10 #fcfcfc
#000000 #000000 0 1;
#X obj 158 51 s \$0-SLEEP;
#X connect 0 0 47 0;
#X connect 1 0 5 0;
#X connect 1 1 36 0;
#X connect 2 0 7 0;
#X connect 3 0 2 1;
#X connect 4 0 3 0;
#X connect 5 0 2 0;
#X connect 7 0 27 0;
#X connect 8 0 16 0;
#X connect 9 0 37 0;
#X connect 11 0 16 1;
#X connect 12 0 21 0;
#X connect 13 0 12 0;
#X connect 13 1 34 0;
#X connect 14 0 31 0;
#X connect 15 0 13 0;
#X connect 16 0 9 0;
#X connect 16 0 10 0;
#X connect 17 0 20 0;
#X connect 17 0 50 0;
#X connect 18 0 15 0;
#X connect 18 1 33 0;
#X connect 19 0 49 0;
#X connect 19 1 48 0;
#X connect 21 0 11 0;
#X connect 21 0 35 0;
#X connect 27 0 8 0;
#X connect 29 0 14 0;
#X connect 31 0 18 0;
#X connect 33 0 19 0;
#X connect 34 0 12 1;
#X connect 36 0 4 0;
#X connect 36 0 26 0;
#X connect 38 0 39 0;
#X connect 39 0 41 0;
#X connect 40 0 38 0;
#X connect 41 0 42 0;
#X connect 43 0 46 0;
#X connect 46 0 0 0;
#X connect 47 0 17 0;
#X connect 48 0 15 0;
#X connect 49 0 15 0;
#X connect 50 0 1 0;
#X connect 51 0 46 1;
#X connect 52 0 53 0;
#X restore 283 57 pd world and me;
#N canvas 240 25 392 534 expressions 0;
#X obj 55 312 inlet;
#X obj 55 393 outlet;
#X obj 55 364 t b a;
#X obj 243 400 s \$0-word;
#X obj 165 493 bng 15 250 50 0 \$0-reload empty s:reload 17 7 0 10
#fcfcfc #000000 #000000;
#X obj 165 425 + 1;
#X floatatom 165 448 5 0 0 0 - - - 0;
#X obj 165 382 t a a;
#X obj 188 289 loadbang;
#X obj 188 331 s \$0-word-max;
#X obj 94 300 r \$0-word-max;
#X floatatom 94 321 5 0 0 0 - - - 0;
#X obj 55 341 count 1;
#X msg 188 310 1;
#N canvas 0 50 450 250 (subpatch) 0;
#X array flagA1 20 float 3;
#A 0 0.471429 0.521429 0.378571 0.364285 0.414286 0.428573 0.535714
0.335712 0.678571 0.707143 0.514286 0.321429 0.578571 0.371429 0.492857
0.407143 0.514286 0.435715 0.471429 0.600005;
#X coords 0 1 20 0 150 105 1 0 0;
#X restore 45 52 graph;
#X obj 165 470 array_copier flagA;
#X connect 0 0 12 0;
#X connect 2 0 1 0;
#X connect 2 1 7 0;
#X connect 5 0 6 0;
#X connect 6 0 15 0;
#X connect 7 0 5 0;
#X connect 7 1 3 0;
#X connect 8 0 13 0;
#X connect 10 0 11 0;
#X connect 11 0 12 1;
#X connect 12 0 2 0;
#X connect 13 0 9 0;
#X connect 15 0 4 0;
#X restore 68 256 pd expressions;
#N canvas 0 23 450 278 (subpatch) 0;
#X array flagA 20 float 3;
#A 0 0.471429 0.521429 0.378571 0.364285 0.414286 0.428573 0.535714
0.335712 0.678571 0.707143 0.514286 0.321429 0.578571 0.371429 0.492857
0.407143 0.514286 0.435715 0.471429 0.600005;
#X coords 0 1 20 0 25 25 1 0 0;
#X restore 38 58 graph;
#X obj 9 136 hradio 15 1 0 6 empty \$0-word empty 0 -8 0 10 #7c7c7c
#00fc04 #000000 0;
#X obj 88 7 bng 15 250 50 0 empty empty empty 17 7 0 10 #7c7c7c #00fc04
#000000;
#X obj 88 24 tgl 15 0 empty \$0-status-now empty 17 7 0 10 #7c7c7c
#00fc04 #000000 0 1;
#X msg 37 341 0;
#X obj 316 310 loadbang;
#X obj 302 410 bng 15 250 50 0 empty empty empty 17 7 0 10 #fcfcfc
#000000 #000000;
#X text 35 322 stop!;
#X msg 322 410 0;
#X obj 322 433 v \$0-STATE;
#X obj 88 453 s NOTE;
#X obj 339 356 bng 15 250 50 0 empty \$0-reload r:reload 17 7 0 10
#fcfcfc #000000 #000000;
#X obj 427 120 v \$0-STRESS;
#X obj 427 166 v \$0-STRESS;
#X obj 427 100 bng 15 250 50 0 empty WORLD_evt_half r:WORLD_evt_half
17 7 0 10 #fcfcfc #000000 #000000;
#X obj 427 143 * 0.5;
#X floatatom 9 118 5 0 0 0 - \$0-word - 0;
#X obj 72 119 nbx 2 14 -1e+37 1e+37 0 0 \$0-word-max \$0-word-max-set
w 0 -8 0 10 #b8b8b8 #202020 #000000 0 256;
#X obj 114 98 r \$0-word-max;
#X obj 114 139 s \$0-word-max-set;
#X msg 114 118 set \$1;
#X obj 9 66 tgl 15 0 \$0-SLEEP \$0-SLEEP-set s 3 -7 0 10 #404040 #f8fc00
#000000 0 1;
#X msg 5 178 set \$1;
#X obj 5 158 r \$0-SLEEP;
#X obj 5 199 s \$0-SLEEP-set;
#X obj 607 407 s NOTE;
#X obj 607 77 tgl 15 0 empty empty empty 17 7 0 10 #fcfcfc #000000
#000000 0 1;
#X obj 634 342 s X1;
#X obj 607 132 f;
#X obj 657 135 + 1;
#X obj 607 155 mod 2;
#X floatatom 607 178 5 0 0 0 - - - 0;
#X obj 607 109 metro 500;
#X floatatom 658 59 5 0 0 0 - - - 0;
#X obj 607 291 t a b;
#X obj 607 200 * 2;
#X obj 607 223 - 1;
#X floatatom 607 269 5 0 0 0 - - - 0;
#X msg 607 378 4998 0 \$1 2;
#X obj 607 246 * 100;
#X obj 634 319 f 300;
#X obj 164 20 r FLAGA;
#X obj 68 227 r FLAGA;
#X obj 302 456 s FLAGA_DONE;
#X msg 316 333 flagA;
#X obj 283 110 s FLAGA;
#X obj 88 310 riff1_random 500 4998 1000 1300;
#X obj 68 285 t b b;
#X msg 168 285 1;
#X connect 0 0 50 0;
#X connect 1 0 2 0;
#X connect 3 0 0 0;
#X connect 4 0 52 0;
#X connect 7 0 0 0;
#X connect 9 0 51 0;
#X connect 10 0 49 0;
#X connect 11 0 13 0;
#X connect 11 0 48 0;
#X connect 13 0 14 0;
#X connect 13 0 31 0;
#X connect 16 0 49 0;
#X connect 17 0 20 0;
#X connect 19 0 17 0;
#X connect 20 0 18 0;
#X connect 23 0 25 0;
#X connect 25 0 24 0;
#X connect 27 0 29 0;
#X connect 28 0 27 0;
#X connect 31 0 37 0;
#X connect 33 0 34 0;
#X connect 33 0 35 0;
#X connect 34 0 33 1;
#X connect 35 0 36 0;
#X connect 36 0 40 0;
#X connect 37 0 33 0;
#X connect 38 0 37 1;
#X connect 39 0 43 0;
#X connect 39 1 45 0;
#X connect 40 0 41 0;
#X connect 41 0 44 0;
#X connect 42 0 39 0;
#X connect 43 0 30 0;
#X connect 44 0 42 0;
#X connect 45 0 32 0;
#X connect 46 0 1 0;
#X connect 47 0 4 0;
#X connect 49 0 51 1;
#X connect 51 2 38 0;
#X connect 51 3 11 0;
#X connect 52 0 51 0;
#X connect 52 1 53 0;
#X connect 53 0 31 0;
#X coords 0 -1 1 1 100 150 2 5 5;
