#N canvas 371 300 364 384 12;
#X obj 43 181 del;
#X obj 43 231 spigot;
#X obj 139 72 tgl 15 0 empty empty empty 17 7 0 10 #0400fc #f8fc00
#000000 0 1;
#X obj 234 86 expr \$2-\$1;
#X obj 145 186 random;
#X obj 234 36 loadbang;
#X obj 82 205 tgl 15 0 empty empty empty 17 7 0 10 #fcfcfc #000000
#000000 0 1;
#X obj 50 47 inlet;
#X obj 43 256 outlet;
#X obj 30 114 t b f;
#X obj 113 161 t b b;
#X obj 158 72 bng 10 250 50 0 empty empty empty 17 7 0 10 #f8fc00 #0400fc
#000000;
#X text 2 7 <<<;
#X text 322 7 >>>;
#X text 2 347 <<<;
#X text 322 347 >>>;
#X obj 118 255 inlet;
#X obj 118 305 unpack f f;
#X obj 150 330 expr $f2-$f1;
#X floatatom 234 167 5 0 0 0 range - - 0;
#X floatatom 289 193 5 0 0 0 start - - 0;
#X obj 289 117 f \$1;
#X obj 145 212 +;
#X obj 234 61 t b b;
#X floatatom 171 69 5 0 0 1 r - - 0;
#X obj 288 248 outlet;
#X obj 118 280 t a a;
#X obj 86 124 tgl 15 0 empty empty empty 17 7 0 10 #fcfcfc #000000
#000000 0 1;
#X obj 30 139 spigot;
#N canvas 809 272 450 300 safety 0;
#X obj 95 26 inlet;
#X obj 165 31 inlet;
#X obj 33 151 outlet;
#X obj 165 56 != 0;
#X obj 95 51 != 0;
#X obj 95 76 ||;
#X obj 95 101 sel 0;
#X obj 95 151 print [retro];
#X msg 95 126 inlet blocked (start=0 & range=0);
#X connect 0 0 4 0;
#X connect 1 0 3 0;
#X connect 3 0 5 1;
#X connect 4 0 5 0;
#X connect 5 0 6 0;
#X connect 5 0 2 0;
#X connect 6 0 8 0;
#X connect 8 0 7 0;
#X restore 195 125 pd safety;
#X text 88 355 delay 200ms -> dirty hack;
#X connect 0 0 1 0;
#X connect 1 0 8 0;
#X connect 1 0 11 0;
#X connect 2 0 9 0;
#X connect 3 0 19 0;
#X connect 4 0 22 0;
#X connect 5 0 23 0;
#X connect 6 0 1 1;
#X connect 7 0 2 0;
#X connect 9 0 28 0;
#X connect 9 1 6 0;
#X connect 10 0 0 0;
#X connect 10 1 4 0;
#X connect 11 0 10 0;
#X connect 16 0 26 0;
#X connect 17 0 20 0;
#X connect 18 0 19 0;
#X connect 19 0 4 1;
#X connect 19 0 29 0;
#X connect 20 0 22 1;
#X connect 20 0 29 1;
#X connect 21 0 20 0;
#X connect 22 0 0 1;
#X connect 22 0 24 0;
#X connect 22 0 25 0;
#X connect 23 0 3 0;
#X connect 23 1 21 0;
#X connect 26 0 17 0;
#X connect 26 1 18 0;
#X connect 27 0 28 1;
#X connect 28 0 11 0;
#X connect 29 0 27 0;
#X coords 0 -1 1 1 85 40 1 135 50;
