#N canvas 0 33 891 478 12;
#X floatatom 313 230 5 0 0 0 - - - 0;
#X floatatom 313 289 5 0 0 0 - - - 0;
#X floatatom 313 338 5 0 0 0 - - - 0;
#X obj 28 68 hsl 110 20 0 10 0 0 empty \$0-val empty -2 -8 0 10 #fcfcc4
#000000 #000000 0 1;
#X obj 313 18 inlet;
#X obj 107 204 bng 15 250 50 0 empty empty empty 17 7 0 10 #fcfcfc
#000000 #000000;
#X obj 25 46 bng 14 250 50 0 empty empty empty 17 7 0 10 #00fc04 #fcc4c4
#000000;
#X floatatom 142 46 3 0 0 0 i \$0-i - 0;
#X floatatom 50 91 7 0 0 0 val \$0-val - 0;
#X floatatom 529 124 5 0 0 0 - - - 0;
#X obj 484 307 pack f f f f;
#X floatatom 129 91 5 0 0 0 key \$0-key - 0;
#X obj 506 18 inlet;
#X obj 313 264 tabread;
#X obj 529 99 array size;
#X msg 506 154 set \$1;
#X obj 506 68 t a b a;
#X obj 345 387 s \$0-val;
#X text 552 18 2-array name;
#X obj 145 68 tgl 20 0 empty \$0-onoff empty 17 7 0 8 #f8fc00 #000000
#000000 0 1;
#X obj 651 288 s \$0-onoff;
#X symbolatom 42 46 12 0 0 0 - - - 0;
#X msg 42 264 symbol no-array;
#X obj 42 239 loadbang;
#X obj 108 149 s \$0-i;
#X obj 313 362 t a a;
#X obj 506 43 list split 1;
#X obj 313 180 f;
#X text 321 38 1-cmd for scan;
#X obj 313 65 route bang;
#X obj 380 90 route 0;
#X msg 380 115 0;
#X obj 313 92 t b b;
#X msg 586 217 1;
#X obj 377 244 t b b;
#X msg 586 242 0;
#X msg 25 378 range 0 \$1;
#X obj 70 4 r \$0-an;
#X obj 25 353 r \$0-range;
#X floatatom 42 24 4 0 0 0 id \$0-id - 0;
#X floatatom 85 24 4 0 0 0 r \$0-range - 0;
#X floatatom 136 24 4 0 0 0 d1 \$0-sdelay-rstart - 0;
#X floatatom 186 24 4 0 0 0 d2 \$0-sdelay-rend - 0;
#X obj 646 71 inlet;
#X obj 646 121 s \$0-id;
#X text 692 71 3-parameters;
#X obj 653 146 s \$0-key;
#X obj 700 121 s \$0-range;
#X obj 646 96 unpack f f f f f;
#X obj 755 171 s \$0-sdelay-rend;
#X obj 727 146 s \$0-sdelay-rstart;
#X obj 663 171 pack f f;
#X obj 313 313 *;
#X obj 444 30 s \$0-an;
#X obj 377 269 del;
#X obj 359 180 r \$0-sdelay-rstart;
#X obj 504 407 outlet;
#X obj 484 357 outlet;
#X obj 439 407 r \$0-val;
#X text 533 356 1#msg;
#X msg 484 332 \$4 \$2 \$1 \$3;
#X obj 494 382 outlet;
#X obj 443 382 r \$0-i;
#X text 553 408 3#val;
#X text 543 382 2#idx;
#X obj 514 432 outlet;
#X text 563 433 4#done;
#X obj 586 287 r \$0-id;
#X obj 487 213 r \$0-key;
#X obj 259 262 bng 15 250 50 0 empty empty empty 17 7 0 10 #fcfcfc
#000000 #000000;
#X obj 313 205 rscan2;
#X connect 0 0 13 0;
#X connect 0 0 24 0;
#X connect 0 0 5 0;
#X connect 1 0 52 0;
#X connect 2 0 25 0;
#X connect 4 0 29 0;
#X connect 5 0 6 0;
#X connect 9 0 27 1;
#X connect 10 0 60 0;
#X connect 12 0 26 0;
#X connect 13 0 1 0;
#X connect 14 0 9 0;
#X connect 15 0 13 0;
#X connect 16 0 15 0;
#X connect 16 1 14 0;
#X connect 16 2 14 1;
#X connect 22 0 21 0;
#X connect 23 0 22 0;
#X connect 25 0 10 0;
#X connect 25 1 17 0;
#X connect 26 0 16 0;
#X connect 26 0 53 0;
#X connect 27 0 70 0;
#X connect 29 0 32 0;
#X connect 29 1 30 0;
#X connect 30 0 31 0;
#X connect 31 0 70 0;
#X connect 32 0 27 0;
#X connect 32 1 33 0;
#X connect 33 0 10 2;
#X connect 33 0 20 0;
#X connect 34 0 54 0;
#X connect 34 1 35 0;
#X connect 35 0 10 2;
#X connect 35 0 20 0;
#X connect 36 0 3 0;
#X connect 37 0 21 0;
#X connect 38 0 36 0;
#X connect 38 0 52 1;
#X connect 43 0 48 0;
#X connect 48 0 44 0;
#X connect 48 1 46 0;
#X connect 48 2 47 0;
#X connect 48 3 50 0;
#X connect 48 3 51 0;
#X connect 48 4 49 0;
#X connect 48 4 51 1;
#X connect 51 0 70 1;
#X connect 52 0 2 0;
#X connect 54 0 10 0;
#X connect 54 0 65 0;
#X connect 55 0 54 1;
#X connect 58 0 56 0;
#X connect 60 0 57 0;
#X connect 62 0 61 0;
#X connect 67 0 10 3;
#X connect 68 0 10 1;
#X connect 70 0 0 0;
#X connect 70 1 34 0;
#X connect 70 1 69 0;
#X coords 0 -1 1 1 200 95 2 20 20;
