#N canvas 510 530 450 300 12;
#X obj 22 143 until;
#X obj 22 99 f;
#X obj 104 163 f;
#X obj 134 163 + 1;
#X obj 104 188 mod;
#X msg 122 99 0;
#X obj 22 23 inlet;
#X obj 104 226 outlet;
#X obj 22 58 t b b a a;
#X connect 0 0 2 0;
#X connect 1 0 0 0;
#X connect 2 0 3 0;
#X connect 2 0 4 0;
#X connect 3 0 2 1;
#X connect 4 0 7 0;
#X connect 5 0 2 1;
#X connect 6 0 8 0;
#X connect 8 0 1 0;
#X connect 8 1 5 0;
#X connect 8 2 1 1;
#X connect 8 3 4 1;
