#N canvas 530 426 374 320 10;
#X obj 50 18 inlet;
#X obj 50 280 outlet;
#X obj 166 18 inlet;
#X obj 50 41 slipenc 65536;
#X obj 50 253 slipdec 65536;
#X msg 219 137 info;
#X obj 107 192 route open;
#X obj 166 41 t a a;
#X obj 219 93 bng 15 250 50 0 empty empty empty 17 7 0 10 #fcfcfc #000000
#000000;
#X obj 170 266 outlet;
#X obj 196 235 print info;
#X obj 50 104 spigot;
#X obj 154 120 tgl 15 0 empty empty empty 17 7 0 10 #fcfcfc #000000
#000000 0 1;
#X obj 166 64 route open devicename close;
#X obj 219 114 del 200;
#X obj 50 169 comport 99;
#X connect 0 0 3 0;
#X connect 2 0 7 0;
#X connect 3 0 11 0;
#X connect 4 0 1 0;
#X connect 5 0 15 0;
#X connect 6 0 9 0;
#X connect 6 0 12 0;
#X connect 6 1 10 0;
#X connect 7 0 13 0;
#X connect 7 1 15 0;
#X connect 8 0 14 0;
#X connect 11 0 15 0;
#X connect 12 0 11 1;
#X connect 13 0 8 0;
#X connect 13 1 8 0;
#X connect 13 2 8 0;
#X connect 14 0 5 0;
#X connect 15 0 4 0;
#X connect 15 1 6 0;
