#N canvas 224 48 872 555 12;
#X obj 168 19 inlet;
#X floatatom 168 44 5 0 0 0 - - - 0;
#X obj 742 182 tgl 15 0 empty empty set\\\ to\\\ sleep 17 7 0 10 #fcfcfc
#000000 #000000 0 1;
#X obj 45 168 change;
#X obj 45 191 sel 1;
#X obj 45 145 > 10;
#X obj 45 281 bng 15 250 50 0 empty empty empty 17 7 0 10 #fcfcfc #000000
#000000;
#X obj 63 254 del;
#X obj 742 56 loadbang;
#X msg 742 81 1;
#X obj 355 168 change;
#X obj 355 191 sel 1;
#X obj 145 168 change;
#X obj 145 191 sel 1;
#X obj 163 254 del;
#X msg 163 231 10000;
#X msg 45 301 1;
#X msg 63 231 4000;
#X obj 145 281 bng 15 250 50 0 empty empty empty 17 7 0 10 #fcfcfc
#000000 #000000;
#X msg 145 301 0;
#X obj 614 271 bng 15 250 50 0 empty empty empty 17 7 0 10 #fcfcfc
#000000 #000000;
#X obj 602 158 change;
#X obj 632 244 del;
#X obj 602 181 sel 1;
#X msg 632 221 10000;
#X obj 602 135 > 28;
#X msg 614 291 1;
#X text 144 402 compressor;
#X text 382 461 pingpong;
#X obj 446 504 s NOTE;
#X obj 220 445 s NOTE;
#X obj 220 402 tgl 15 0 empty empty empty 17 7 0 10 #fcfcfc #000000
#000000 0 1;
#X msg 220 422 1999 0 0 \$1;
#X obj 652 474 outlet;
#X obj 334 270 mod 10;
#X obj 334 295 int;
#X floatatom 334 320 5 0 0 0 - - - 0;
#X obj 334 344 change;
#X obj 334 369 == 9;
#X obj 652 447 bng 15 250 50 0 empty empty RESET 17 7 0 10 #fcfcfc
#000000 #000000;
#X obj 145 145 > 15;
#X obj 355 145 > 16;
#X msg 446 479 1238 0 0 \$1;
#X obj 446 459 tgl 15 0 empty empty empty 17 7 0 10 #fcfcfc #000000
#000000 0 1;
#X obj 388 411 del 500;
#X obj 416 368 bng 15 250 50 0 empty empty empty 17 7 0 10 #fcfcfc
#000000 #000000;
#X msg 446 411 1;
#X msg 388 436 0;
#X obj 334 394 sel 1;
#X obj 22 463 tgl 15 0 empty WORLD_SLEEP r:WORLD_SLEEP 17 7 0 10 #fc0400
#fcfcfc #fc0400 0 1;
#X obj 22 483 sel 1;
#X msg 22 508 0;
#X connect 0 0 1 0;
#X connect 1 0 5 0;
#X connect 1 0 25 0;
#X connect 1 0 34 0;
#X connect 1 0 40 0;
#X connect 1 0 41 0;
#X connect 3 0 4 0;
#X connect 4 0 17 0;
#X connect 4 0 6 0;
#X connect 5 0 3 0;
#X connect 6 0 16 0;
#X connect 7 0 6 0;
#X connect 8 0 9 0;
#X connect 9 0 2 0;
#X connect 10 0 11 0;
#X connect 11 0 39 0;
#X connect 12 0 13 0;
#X connect 13 0 15 0;
#X connect 13 0 18 0;
#X connect 14 0 18 0;
#X connect 15 0 14 0;
#X connect 16 0 31 0;
#X connect 17 0 7 0;
#X connect 18 0 19 0;
#X connect 19 0 31 0;
#X connect 20 0 26 0;
#X connect 21 0 23 0;
#X connect 22 0 20 0;
#X connect 23 0 20 0;
#X connect 23 0 24 0;
#X connect 24 0 22 0;
#X connect 25 0 21 0;
#X connect 26 0 2 0;
#X connect 31 0 32 0;
#X connect 32 0 30 0;
#X connect 34 0 35 0;
#X connect 35 0 36 0;
#X connect 36 0 37 0;
#X connect 37 0 38 0;
#X connect 38 0 48 0;
#X connect 39 0 33 0;
#X connect 40 0 12 0;
#X connect 41 0 10 0;
#X connect 42 0 29 0;
#X connect 43 0 42 0;
#X connect 44 0 47 0;
#X connect 45 0 46 0;
#X connect 45 0 44 0;
#X connect 46 0 43 0;
#X connect 47 0 43 0;
#X connect 48 0 45 0;
#X connect 49 0 50 0;
#X connect 50 0 51 0;
#X connect 51 0 31 0;
#X connect 51 0 43 0;
