#N canvas 310 409 364 373 12;
#X obj 43 211 del;
#X obj 43 261 spigot;
#X obj 139 72 tgl 15 0 empty empty empty 17 7 0 10 -4160 -257985 -1
1 1;
#X obj 234 86 expr \$2-\$1;
#X obj 145 216 random;
#X obj 234 36 loadbang;
#X obj 82 235 tgl 15 0 empty empty empty 17 7 0 10 -262144 -1 -1 1
1;
#X obj 50 47 inlet;
#X obj 43 286 outlet;
#X obj 50 104 t b f;
#X obj 113 191 t b b;
#X obj 158 72 bng 10 250 50 0 empty empty empty 17 7 0 10 -257985 -4160
-1;
#X text 2 7 <<<;
#X text 322 7 >>>;
#X text 2 337 <<<;
#X text 322 337 >>>;
#X obj 118 285 inlet;
#X obj 118 310 unpack f f;
#X obj 204 305 expr $f2-$f1;
#X floatatom 234 197 5 0 0 0 range - -;
#X floatatom 289 223 5 0 0 0 start - -;
#X obj 289 117 f \$1;
#X obj 145 242 +;
#X obj 234 61 t b b;
#X floatatom 171 69 5 0 0 1 r - -;
#X obj 288 278 outlet;
#X connect 0 0 1 0;
#X connect 1 0 8 0;
#X connect 1 0 11 0;
#X connect 2 0 9 0;
#X connect 3 0 19 0;
#X connect 4 0 22 0;
#X connect 5 0 23 0;
#X connect 6 0 1 1;
#X connect 7 0 2 0;
#X connect 9 0 11 0;
#X connect 9 1 6 0;
#X connect 10 0 0 0;
#X connect 10 1 4 0;
#X connect 11 0 10 0;
#X connect 16 0 17 0;
#X connect 16 0 18 0;
#X connect 17 0 20 0;
#X connect 18 0 19 0;
#X connect 19 0 4 1;
#X connect 20 0 22 1;
#X connect 21 0 20 0;
#X connect 22 0 0 1;
#X connect 22 0 24 0;
#X connect 22 0 25 0;
#X connect 23 0 3 0;
#X connect 23 1 21 0;
#X coords 0 -1 1 1 85 40 1 135 50;
