#N canvas 291 138 413 608 12;
#X obj 120 465 f;
#X obj 84 465 + 1;
#X obj 218 440 sel 1;
#X msg 138 440 0;
#X obj 218 415 ==;
#X obj 236 305 - 1;
#X obj 39 81 inlet;
#X msg 179 325 0;
#X msg 106 324 1;
#X obj 106 165 t b b a;
#X msg 39 325 0;
#X obj 236 330 max 0;
#X text 5 4 <<<;
#X text 345 4 >>>;
#X text 5 554 <<<;
#X text 375 554 >>>;
#X text 39 22 generate numbers from 0 to given (inlet-1);
#X text 84 82 1-command:;
#X text 124 98 - number-> target value;
#X text 124 112 - if <= 0 \, stop immediately;
#X obj 39 135 moses 1;
#X obj 278 485 outlet;
#X text 278 464 2#end bng;
#X msg 39 410 bang;
#X obj 120 490 t a a;
#X floatatom 152 515 5 0 0 0 - - - 0;
#X obj 152 539 outlet;
#X text 202 539 1#values;
#X text 39 38 arguments: random range => \$1 \, random offset => \$2
;
#X obj 91 371 retro \$1 \$2;
#X obj 169 275 inlet;
#X text 154 219 2-delay list (rstart rend) (ms);
#X connect 0 0 1 0;
#X connect 0 0 24 0;
#X connect 1 0 0 1;
#X connect 2 0 7 0;
#X connect 2 0 21 0;
#X connect 3 0 0 1;
#X connect 4 0 2 0;
#X connect 5 0 11 0;
#X connect 6 0 20 0;
#X connect 7 0 29 0;
#X connect 8 0 29 0;
#X connect 9 0 8 0;
#X connect 9 1 3 0;
#X connect 9 2 5 0;
#X connect 10 0 23 0;
#X connect 10 0 29 0;
#X connect 11 0 4 1;
#X connect 20 0 10 0;
#X connect 20 1 9 0;
#X connect 23 0 21 0;
#X connect 24 0 4 0;
#X connect 24 1 25 0;
#X connect 25 0 26 0;
#X connect 29 0 0 0;
#X connect 30 0 29 1;
