#N canvas 278 33 475 493 10;
#X obj 88 54 tgl 15 0 empty \$0-status-now empty 17 7 0 10 #f8fc00
#000000 #000000 0 1;
#X obj 114 211 bng 15 250 50 0 empty empty motivated! 17 7 0 10 #fcfcfc
#000000 #000000;
#X msg 197 244 1;
#X obj 197 267 v \$0-STATE;
#N canvas 1385 373 533 644 world 0;
#X floatatom 16 94 5 0 0 0 - - - 0;
#X obj 16 293 t a b;
#X obj 16 372 spigot;
#X obj 67 357 tgl 15 0 empty empty free_:) 17 7 0 10 #fcfcfc #000000
#000000 0 1;
#X obj 67 334 == 0;
#X obj 16 316 sel 1;
#X text 41 402 think;
#X obj 16 428 gauss 1 0;
#X floatatom 16 474 5 0 0 0 - - - 0;
#X obj 16 544 sel 1;
#X obj 65 562 tgl 15 0 empty empty empty 17 7 0 10 #fcfcfc #000000
#000000 0 1;
#X floatatom 110 504 5 0 0 0 stress - - 0;
#X obj 238 555 +;
#X obj 238 502 t a b;
#X obj 238 326 tgl 15 0 empty empty empty 17 7 0 10 #fcfcfc #000000
#000000 0 1;
#X floatatom 238 480 8 0 0 0 - - - 0;
#X obj 16 521 >;
#X floatatom 16 137 5 0 0 0 - - - 0;
#X obj 238 375 t b b;
#X obj 285 416 sel 1 0;
#X obj 64 164 bng 15 250 50 0 empty empty listen 17 7 0 10 #b8b8b8
#f8fc00 #000000;
#X obj 238 578 max 0;
#X text 109 114 listening speed;
#X text 56 93 speed of happenings;
#X text 69 210 world is quiet?;
#X text 90 285 status of me;
#X obj 147 329 tgl 15 0 empty empty busy. 17 7 0 10 #fcfcfc #000000
#000000 0 1;
#X obj 16 451 abs;
#N canvas 0 50 450 250 (subpatch) 0;
#X array \$0-stress 100 float 2;
#X coords 0 100 100 0 200 150 1 0 0;
#X restore 295 45 graph;
#X obj 238 303 loadbang;
#X text 78 227 condition of state change;
#X obj 238 346 metro 100;
#N canvas 84 95 319 212 (subpatch) 0;
#X obj 12 54 metro 100;
#X obj 12 34 tgl 15 0 empty empty empty 17 7 0 10 #fcfcfc #000000 #000000
0 1;
#X obj 12 100 t a b;
#X obj 117 77 f;
#X obj 144 77 + 1;
#X obj 117 100 mod 100;
#X obj 12 11 loadbang;
#X obj 12 77 v \$0-STRESS;
#X obj 12 123 tabwrite \$0-stress;
#X msg 78 11 0;
#X connect 0 0 7 0;
#X connect 1 0 0 0;
#X connect 2 0 8 0;
#X connect 2 1 3 0;
#X connect 3 0 4 0;
#X connect 3 0 5 0;
#X connect 4 0 3 1;
#X connect 5 0 8 1;
#X connect 6 0 1 0;
#X connect 7 0 2 0;
#X connect 9 0 7 0;
#X restore 473 200 pd;
#X obj 285 393 v \$0-STATE;
#X obj 265 525 v \$0-STRESS;
#X obj 238 601 v \$0-STRESS;
#X obj 67 311 v \$0-STATE;
#X obj 16 597 outlet;
#X obj 373 235 tgl 15 0 empty empty empty 17 7 0 10 #fcfcfc #000000
#000000 0 1;
#X obj 373 255 metro 50;
#X obj 373 212 loadbang;
#X obj 373 278 v \$0-STATE;
#X obj 373 301 s \$0-status-now;
#X obj 16 39 r WORLD_ENERGY;
#X text 378 440 working stress;
#X text 378 460 resting relax;
#X obj 16 66 +;
#X msg 285 439 0.1;
#X obj 16 114 resample 100;
#X msg 304 462 -0.05;
#X obj 49 66 tgl 15 0 empty \$0-SLEEP r:0-SLEEP 17 7 0 10 #fcfcfc #000000
#000000 0 1;
#X obj 158 31 tgl 15 0 empty WORLD_SLEEP r:WORLD_SLEEP 17 7 0 10 #fcfcfc
#000000 #000000 0 1;
#X obj 158 51 s \$0-SLEEP;
#X obj 16 210 < 0.7;
#X connect 0 0 48 0;
#X connect 1 0 5 0;
#X connect 1 1 36 0;
#X connect 2 0 7 0;
#X connect 3 0 2 1;
#X connect 4 0 3 0;
#X connect 5 0 2 0;
#X connect 7 0 27 0;
#X connect 8 0 16 0;
#X connect 9 0 37 0;
#X connect 11 0 16 1;
#X connect 12 0 21 0;
#X connect 13 0 12 0;
#X connect 13 1 34 0;
#X connect 14 0 31 0;
#X connect 15 0 13 0;
#X connect 16 0 9 0;
#X connect 16 0 10 0;
#X connect 17 0 20 0;
#X connect 17 0 53 0;
#X connect 18 0 15 0;
#X connect 18 1 33 0;
#X connect 19 0 47 0;
#X connect 19 1 49 0;
#X connect 21 0 11 0;
#X connect 21 0 35 0;
#X connect 27 0 8 0;
#X connect 29 0 14 0;
#X connect 31 0 18 0;
#X connect 33 0 19 0;
#X connect 34 0 12 1;
#X connect 36 0 4 0;
#X connect 36 0 26 0;
#X connect 38 0 39 0;
#X connect 39 0 41 0;
#X connect 40 0 38 0;
#X connect 41 0 42 0;
#X connect 43 0 46 0;
#X connect 46 0 0 0;
#X connect 47 0 15 0;
#X connect 48 0 17 0;
#X connect 49 0 15 0;
#X connect 50 0 46 1;
#X connect 51 0 52 0;
#X connect 53 0 1 0;
#X restore 164 168 pd world and me;
#N canvas 70 224 717 437 expressions 0;
#X obj 24 211 inlet;
#X obj 24 292 outlet;
#X obj 24 263 t b a;
#X obj 226 258 s \$0-word;
#X obj 134 392 bng 15 250 50 0 \$0-reload empty s:reload 17 7 0 10
#fcfcfc #000000 #000000;
#X obj 134 324 + 1;
#X floatatom 134 347 5 0 0 0 - - - 0;
#X obj 134 281 t a a;
#X obj 24 240 count 4;
#X obj 157 188 loadbang;
#X obj 157 230 s \$0-word-max;
#X obj 63 199 r \$0-word-max;
#X floatatom 63 220 5 0 0 0 - - - 0;
#X msg 157 209 4;
#X obj 134 369 array_copier \$0-sign;
#N canvas 0 23 450 278 (subpatch) 0;
#X array \$0-sign1 40 float 2;
#X coords 0 1 40 0 150 105 1 0 0;
#X restore 196 45 graph;
#N canvas 0 23 450 278 (subpatch) 0;
#X array \$0-sign3 40 float 2;
#X coords 0 1 40 0 150 105 1 0 0;
#X restore 536 45 graph;
#N canvas 84 25 450 278 (subpatch) 0;
#X array \$0-sign2 40 float 2;
#X coords 0 1 40 0 150 105 1 0 0;
#X restore 366 45 graph;
#N canvas 0 23 450 278 (subpatch) 0;
#X array \$0-sign0 40 float 2;
#X coords 0 1 40 0 150 105 1 0 0;
#X restore 26 45 graph;
#X connect 0 0 8 0;
#X connect 2 0 1 0;
#X connect 2 1 7 0;
#X connect 5 0 6 0;
#X connect 6 0 14 0;
#X connect 7 0 5 0;
#X connect 8 0 2 0;
#X connect 8 0 3 0;
#X connect 9 0 13 0;
#X connect 11 0 12 0;
#X connect 12 0 8 1;
#X connect 13 0 10 0;
#X connect 14 0 4 0;
#X restore 88 267 pd expressions;
#N canvas 0 23 450 278 (subpatch) 0;
#X array \$0-sign 30 float 3;
#A 0 0 0 0 0 0 0 0 0 0 0 0 0 0 0 0 0 0 0 0 0 0 0 0 0 0 0 0 0 0 0;
#X coords 0 1 30 0 25 25 1 0 0;
#X restore 31 67 graph;
#X obj 9 136 hradio 15 1 0 4 empty \$0-word empty 0 -8 0 10 #f8fc00
#7c7c7c #000000 0;
#X obj 88 37 bng 15 250 50 0 empty empty empty 17 7 0 10 #f8fc00 #000000
#000000;
#X msg 37 337 0;
#X obj 249 306 loadbang;
#X obj 231 406 bng 15 250 50 0 empty empty empty 17 7 0 10 #fcfcfc
#000000 #000000;
#X text 35 318 stop!;
#X msg 251 406 0;
#X obj 251 429 v \$0-STATE;
#X obj 88 429 s NOTE;
#X obj 288 329 bng 15 250 50 0 empty \$0-reload r:reload 17 7 0 10
#fcfcfc #000000 #000000;
#X obj 337 216 v \$0-STRESS;
#X obj 337 262 v \$0-STRESS;
#X obj 337 196 bng 15 250 50 0 empty WORLD_evt_half r:WORLD_evt_half
17 7 0 10 #fcfcfc #000000 #000000;
#X obj 337 239 * 0.5;
#X floatatom 9 118 5 0 0 0 - \$0-word - 0;
#X obj 72 119 nbx 2 14 -1e+37 1e+37 0 0 \$0-word-max \$0-word-max-set
w 0 -8 0 10 #b8b8b8 #202020 #000000 0 256;
#X obj 337 106 r \$0-word-max;
#X obj 337 147 s \$0-word-max-set;
#X msg 337 126 set \$1;
#X obj 9 66 tgl 15 0 \$0-SLEEP \$0-SLEEP-set s 3 -7 0 10 #404040 #f8fc00
#000000 0 1;
#X msg 337 46 set \$1;
#X obj 337 26 r \$0-SLEEP;
#X obj 337 67 s \$0-SLEEP-set;
#X obj 249 329 f \$0;
#X obj 231 451 outlet;
#X obj 114 237 outlet;
#X obj 88 306 riff1 900 4501 500;
#X obj 249 352 makefilename %d-sign;
#N canvas 0 0 450 300 statesave 0;
#X obj 60 72 savestate;
#X obj 241 194 makefilename %s%%d;
#X msg 241 217 set \$1;
#X obj 241 171 symbol \$0-sign;
#X obj 241 240 s \$0-signname_set;
#X obj 111 95 t b b b;
#X obj 60 48 list store;
#X obj 60 25 r \$0-save;
#X obj 241 151 bng 15 250 50 0 empty empty empty 17 7 0 10 #fcfcfc
#000000 #000000;
#X obj 60 95 t a b;
#X obj 241 128 loadbang;
#N canvas 0 0 426 370 save-sign 0;
#X obj 58 168 makefilename;
#X obj 27 73 until;
#X obj 27 96 f, f 8;
#X obj 90 106 + 1;
#X obj 27 50 t a b, f 8;
#X msg 72 73 0;
#X obj 36 220 array get;
#X obj 58 191 t b a b a;
#X obj 105 220 array size;
#X obj 77 279 list prepend append;
#X obj 77 302 list trim;
#X obj 58 145 r \$0-signname_set;
#X obj 77 325 s \$0-save;
#X obj 27 27 inlet;
#X connect 0 0 7 0;
#X connect 1 0 2 0;
#X connect 2 0 3 0;
#X connect 2 0 0 0;
#X connect 3 0 2 1;
#X connect 4 0 1 0;
#X connect 4 1 5 0;
#X connect 5 0 2 1;
#X connect 6 0 9 0;
#X connect 7 0 6 0;
#X connect 7 1 6 2;
#X connect 7 2 8 0;
#X connect 7 3 8 1;
#X connect 8 0 9 0;
#X connect 9 0 10 0;
#X connect 10 0 12 0;
#X connect 11 0 0 0;
#X connect 13 0 4 0;
#X restore 130 161 pd save-sign;
#X msg 130 138 4;
#N canvas 552 329 448 396 load-sign 0;
#X obj 190 276 array size;
#X obj 301 244 makefilename;
#X obj 301 221 r \$0-signname_set;
#X obj 234 192 + 1;
#X obj 267 192 v \$0-signname_idx;
#X obj 158 362 array set;
#X obj 106 235 array get \$0-loaded;
#X obj 51 309 array get \$0-loaded;
#X msg 161 189 1;
#X obj 73 212 + 1;
#X obj 18 277 +;
#X obj 267 156 bng 15 250 50 0 empty empty empty 17 7 0 10 #fcfcfc
#000000 #000000;
#X obj 51 138 t b b b b;
#X obj 51 103 until;
#X obj 307 33 table \$0-loaded;
#X obj 191 90 array size \$0-loaded;
#X obj 191 67 list length;
#X obj 120 129 array set \$0-loaded;
#X obj 120 49 t a a;
#X obj 51 26 inlet;
#X msg 310 323 0;
#X obj 310 300 loadbang;
#X obj 120 26 inlet;
#X obj 330 140 v \$0-signname_idx;
#X msg 330 117 0;
#X obj 330 94 loadbang;
#X obj 106 212 v \$0-loaded-idx;
#X obj 51 277 v \$0-loaded-idx;
#X obj 310 346 v \$0-loaded-idx;
#X connect 1 0 5 2;
#X connect 1 0 0 1;
#X connect 2 0 1 0;
#X connect 3 0 4 0;
#X connect 4 0 3 0;
#X connect 4 0 1 0;
#X connect 6 0 10 1;
#X connect 6 0 0 0;
#X connect 6 0 7 1;
#X connect 7 0 5 0;
#X connect 8 0 6 1;
#X connect 9 0 26 0;
#X connect 10 0 27 0;
#X connect 11 0 4 0;
#X connect 12 0 27 0;
#X connect 12 1 26 0;
#X connect 12 2 8 0;
#X connect 12 3 11 0;
#X connect 13 0 12 0;
#X connect 16 0 15 0;
#X connect 18 0 17 0;
#X connect 18 1 16 0;
#X connect 19 0 13 0;
#X connect 20 0 28 0;
#X connect 21 0 20 0;
#X connect 22 0 18 0;
#X connect 24 0 23 0;
#X connect 25 0 24 0;
#X connect 26 0 9 0;
#X connect 26 0 6 0;
#X connect 27 0 10 0;
#X connect 27 0 7 0;
#X restore 60 200 pd load-sign;
#X obj 60 154 t b a;
#X msg 60 177 4;
#X connect 0 0 9 0;
#X connect 0 1 5 0;
#X connect 1 0 2 0;
#X connect 2 0 4 0;
#X connect 3 0 1 0;
#X connect 5 0 6 0;
#X connect 5 1 12 0;
#X connect 5 2 6 1;
#X connect 6 0 0 0;
#X connect 7 0 6 0;
#X connect 8 0 3 0;
#X connect 9 0 14 0;
#X connect 9 1 8 0;
#X connect 10 0 8 0;
#X connect 12 0 11 0;
#X connect 14 0 15 0;
#X connect 14 1 13 1;
#X connect 15 0 13 0;
#X restore 205 26 pd statesave;
#X connect 1 0 5 0;
#X connect 1 0 2 0;
#X connect 1 0 32 0;
#X connect 2 0 3 0;
#X connect 5 0 33 0;
#X connect 8 0 1 0;
#X connect 9 0 33 0;
#X connect 10 0 30 0;
#X connect 11 0 13 0;
#X connect 11 0 31 0;
#X connect 13 0 14 0;
#X connect 16 0 30 0;
#X connect 17 0 20 0;
#X connect 19 0 17 0;
#X connect 20 0 18 0;
#X connect 23 0 25 0;
#X connect 25 0 24 0;
#X connect 27 0 29 0;
#X connect 28 0 27 0;
#X connect 30 0 34 0;
#X connect 33 0 15 0;
#X connect 33 3 11 0;
#X connect 34 0 33 1;
#X coords 0 -1 1 1 100 150 1 5 5;
