#N canvas 1 89 358 397 12;
#X floatatom 57 234 5 0 0 0 - - -;
#X floatatom 57 123 5 0 0 0 - - -;
#X obj 57 211 tabread;
#X obj 57 98 array size;
#X msg 142 98 set \$1;
#X obj 57 20 inlet;
#X obj 57 145 hooop;
#X obj 57 282 pack f f s;
#X msg 57 313 add \$2 \$3 \$1;
#X text 107 19 1-array-name;
#X text 105 345 1#qlist;
#X obj 57 342 outlet;
#X obj 57 53 t b a a;
#X obj 222 237 loadbang;
#X obj 222 262 symbol \$2;
#X obj 133 190 sel 0;
#X msg 133 215 0;
#X obj 165 240 f \$1;
#X msg 165 215 bang;
#X obj 57 170 t a a;
#X connect 0 0 7 0;
#X connect 1 0 6 0;
#X connect 2 0 0 0;
#X connect 3 0 1 0;
#X connect 4 0 2 0;
#X connect 5 0 12 0;
#X connect 6 0 19 0;
#X connect 7 0 8 0;
#X connect 8 0 11 0;
#X connect 12 0 3 0;
#X connect 12 1 3 1;
#X connect 12 2 4 0;
#X connect 13 0 14 0;
#X connect 14 0 7 2;
#X connect 15 0 16 0;
#X connect 15 1 18 0;
#X connect 16 0 7 1;
#X connect 17 0 7 1;
#X connect 18 0 17 0;
#X connect 19 0 2 0;
#X connect 19 1 15 0;
