#N canvas 536 421 374 320 10;
#X obj 50 18 inlet;
#X obj 50 280 outlet;
#X obj 166 18 inlet;
#X obj 50 169 comport;
#X obj 50 41 slipenc 65536;
#X obj 50 253 slipdec 65536;
#X msg 206 131 info;
#X obj 109 187 route open;
#X obj 166 41 t a a;
#X obj 206 111 bng 15 250 50 0 empty empty empty 17 7 0 10 -262144
-1 -1;
#X obj 170 266 outlet;
#X obj 264 120 loadbang;
#X obj 196 235 print info;
#X obj 50 104 spigot;
#X obj 144 150 tgl 15 0 empty empty empty 17 7 0 10 -262144 -1 -1 1
1;
#X obj 186 74 route open devicename close;
#X connect 0 0 4 0;
#X connect 2 0 8 0;
#X connect 3 0 5 0;
#X connect 3 1 7 0;
#X connect 4 0 13 0;
#X connect 5 0 1 0;
#X connect 6 0 3 0;
#X connect 7 0 10 0;
#X connect 7 0 14 0;
#X connect 7 1 12 0;
#X connect 8 0 15 0;
#X connect 8 1 3 0;
#X connect 9 0 6 0;
#X connect 11 0 9 0;
#X connect 13 0 3 0;
#X connect 14 0 13 1;
#X connect 15 0 9 0;
#X connect 15 1 9 0;
#X connect 15 2 9 0;
