#N canvas 226 215 450 300 12;
#X obj 297 54 loadbang;
#X obj 297 104 print;
#X msg 297 79 4;
#X obj 227 54 loadbang;
#X obj 227 104 print;
#X msg 227 79 3;
#X obj 157 54 loadbang;
#X obj 157 104 print;
#X msg 157 79 2;
#X obj 87 54 loadbang;
#X msg 87 79 1;
#X obj 87 104 print;
#X text 85 180 loadbang is banged in 'creation order';
#X text 87 233 try cut paste to modify creation order;
#X connect 0 0 2 0;
#X connect 2 0 1 0;
#X connect 3 0 5 0;
#X connect 5 0 4 0;
#X connect 6 0 8 0;
#X connect 8 0 7 0;
#X connect 9 0 10 0;
#X connect 10 0 11 0;
