#N canvas 535 119 391 254 10;
#X obj 296 131 tgl 15 0 WORLD_SLEEP empty WORLD_SLEEP 0 -9 0 10 #ffc7c6 #ff0400 #202020 0 1;
#N canvas 0 33 700 321 wireless 0;
#X obj 338 235 spigot;
#X obj 371 199 tgl 15 0 empty empty empty 17 7 0 10 #fcfcfc #000000 #000000 0 1;
#X obj 123 161 o.io.slipserial;
#X msg 249 182 devices;
#X msg 249 205 close;
#X obj 123 120 packOSC;
#X obj 123 95 r OSC;
#X obj 123 184 unpackOSC;
#X obj 123 207 routeOSC /hello;
#X obj 123 230 s HELLO;
#X obj 40 160 print OSC;
#X obj 40 133 spigot;
#X obj 89 98 tgl 15 0 empty empty empty 17 7 0 10 #fcfcfc #000000 #000000 0 1;
#X obj 418 258 s OSC;
#X obj 418 195 r NOTE;
#X obj 338 258 print NOTE;
#X text 424 216 /id /pitch /velocity /onoff;
#X floatatom 610 89 5 0 0 0 - - - 0;
#X obj 610 111 s PS;
#X obj 610 43 tgl 18 0 empty empty hello 0 -9 0 10 #9c00fc #f8fc00 #9c00fc 0 1;
#X obj 40 203 spigot;
#X obj 89 188 tgl 15 0 empty empty empty 17 7 0 10 #fcfcfc #000000 #000000 0 1;
#X obj 40 230 print HELLO;
#X obj 249 25 loadbang;
#X obj 231 234 tgl 15 0 empty empty connected? 17 7 0 10 #fcfcfc #000000 #000000 0 1;
#X msg 249 138 devicename /dev/ttyUSB0 \, baud 57600 \, pollintervall 1 \, verbose 1;
#X obj 249 48 del 1000;
#X msg 210 98 devicename /dev/tty.SLAB_USBtoUART \, baud 57600 \, pollintervall 1 \, verbose 1;
#N canvas 676 408 512 395 bundler 0;
#X obj 319 66 t a b;
#X msg 456 84 [;
#X msg 34 327 ];
#X obj 68 236 r X1;
#X obj 98 236 r X2;
#X obj 128 236 r X3;
#X obj 158 236 r X4;
#X obj 53 266 f;
#X obj 34 126 t b b a;
#X obj 254 345 outlet;
#X obj 140 17 inlet;
#X obj 188 236 r PS;
#X obj 88 284 pack f f f f f;
#X msg 319 112 sendtyped /note/onoff f \$1;
#X msg 254 141 sendtyped /note/velocity f \$1;
#X msg 88 307 sendtyped /note/x fffff \$1 \$2 \$3 \$4 \$5;
#X msg 73 199 sendtyped /note/id i \$1;
#X msg 167 170 sendtyped /note/pitch f \$1;
#X obj 140 39 unpack f f f f;
#X connect 0 0 13 0;
#X connect 0 1 1 0;
#X connect 1 0 9 0;
#X connect 2 0 9 0;
#X connect 3 0 7 1;
#X connect 4 0 12 1;
#X connect 5 0 12 2;
#X connect 6 0 12 3;
#X connect 7 0 12 0;
#X connect 8 0 2 0;
#X connect 8 1 7 0;
#X connect 8 2 16 0;
#X connect 10 0 18 0;
#X connect 11 0 12 4;
#X connect 12 0 15 0;
#X connect 13 0 9 0;
#X connect 14 0 9 0;
#X connect 15 0 9 0;
#X connect 16 0 9 0;
#X connect 17 0 9 0;
#X connect 18 0 8 0;
#X connect 18 1 17 0;
#X connect 18 2 14 0;
#X connect 18 3 0 0;
#X restore 418 235 pd bundler;
#X obj 610 66 * 2000;
#X obj 339 49 inlet;
#X obj 231 254 outlet;
#X obj 339 72 sel 1 0;
#X connect 0 0 15 0;
#X connect 1 0 0 1;
#X connect 2 0 7 0;
#X connect 2 1 24 0;
#X connect 3 0 2 1;
#X connect 4 0 2 1;
#X connect 5 0 2 0;
#X connect 6 0 5 0;
#X connect 6 0 11 0;
#X connect 7 0 8 0;
#X connect 8 0 9 0;
#X connect 8 0 20 0;
#X connect 11 0 10 0;
#X connect 12 0 11 1;
#X connect 14 0 0 0;
#X connect 14 0 28 0;
#X connect 17 0 18 0;
#X connect 19 0 29 0;
#X connect 20 0 22 0;
#X connect 21 0 20 1;
#X connect 23 0 26 0;
#X connect 23 0 19 0;
#X connect 24 0 31 0;
#X connect 25 0 2 1;
#X connect 26 0 25 0;
#X connect 27 0 2 1;
#X connect 28 0 13 0;
#X connect 29 0 17 0;
#X connect 30 0 32 0;
#X connect 32 0 25 0;
#X connect 32 1 4 0;
#X restore 36 81 pd wireless;
#X obj 36 104 tgl 15 0 empty empty connected? 17 7 0 10 #c7c6ff #000000 #000000 0 1;
#X obj 36 61 tgl 15 0 empty empty open/close 0 -9 0 10 #c6ffc7 #000000 #000000 0 1;
#X obj 154 111 forest/crickets;
#X text 13 9 <<< . . . . . wireless network - RF/[ESP-NOW] ' ' ' ' ' >>>;
#X text 13 219 <<< . . . . . wireless network - RF/[ESP-NOW] ' ' ' ' ' >>>;
#X obj 296 171 tgl 15 0 RELAXED-set empty RELAXED 0 -9 0 10 #9c00ff #faff00 #000000 0 1;
#X connect 1 0 2 0;
#X connect 3 0 1 0;
