#N canvas 272 257 410 322 10;
#X obj 123 152 array size;
#X floatatom 123 176 5 0 0 0 - - -;
#X obj 123 198 array size;
#X obj 56 239 array get;
#X obj 56 262 array set;
#X obj 76 129 t b b a b a;
#X obj 197 223 loadbang;
#X obj 76 13 inlet;
#X obj 197 246 symbol \$1;
#X obj 26 147 outlet;
#X obj 246 76 symbol \$1;
#X obj 246 97 makefilename %s%%d;
#X obj 76 95 makefilename;
#X msg 246 118 set \$1;
#X obj 76 38 t a b;
#X obj 197 159 loadbang;
#X obj 197 182 symbol \$1;
#X text 117 14 <-- [inlet] is faster than [loadbang] !?;
#X text 155 55 a quick patch.;
#X obj 246 54 lbang;
#X connect 0 0 1 0;
#X connect 1 0 2 0;
#X connect 3 0 4 0;
#X connect 5 0 9 0;
#X connect 5 1 3 0;
#X connect 5 2 3 2;
#X connect 5 3 0 0;
#X connect 5 4 0 1;
#X connect 6 0 8 0;
#X connect 7 0 14 0;
#X connect 8 0 4 2;
#X connect 10 0 11 0;
#X connect 11 0 13 0;
#X connect 12 0 5 0;
#X connect 13 0 12 0;
#X connect 14 0 12 0;
#X connect 14 1 19 0;
#X connect 15 0 16 0;
#X connect 16 0 2 1;
#X connect 19 0 10 0;
