#N canvas 1 89 404 298 10;
#X obj 123 148 array size;
#X floatatom 123 172 5 0 0 0 - - -;
#X obj 123 194 array size;
#X obj 200 153 loadbang;
#X obj 56 235 array get;
#X obj 56 258 array set;
#X obj 76 125 t b b a b a;
#X obj 127 217 loadbang;
#X obj 76 23 inlet;
#X obj 200 176 symbol \$1;
#X obj 127 240 symbol \$1;
#X obj 26 143 outlet;
#X obj 265 14 loadbang;
#X obj 265 37 symbol \$1;
#X obj 265 60 makefilename %s%%d;
#X obj 76 101 makefilename;
#X msg 265 83 set \$1;
#X connect 0 0 1 0;
#X connect 1 0 2 0;
#X connect 3 0 9 0;
#X connect 4 0 5 0;
#X connect 6 0 11 0;
#X connect 6 1 4 0;
#X connect 6 2 4 2;
#X connect 6 3 0 0;
#X connect 6 4 0 1;
#X connect 7 0 10 0;
#X connect 8 0 15 0;
#X connect 9 0 2 1;
#X connect 10 0 5 2;
#X connect 12 0 13 0;
#X connect 13 0 14 0;
#X connect 14 0 16 0;
#X connect 15 0 6 0;
#X connect 16 0 15 0;
