#N canvas 678 548 450 300 12;
#X obj 73 204 s NOTE;
#X obj 73 142 pack f f;
#X floatatom 73 112 5 0 0 0 - - -;
#X obj 94 81 t b a;
#X obj 94 55 tgl 15 0 empty empty empty 17 7 0 10 -262144 -1 -1 0 1
;
#X obj 202 50 tgl 15 0 empty empty empty 17 7 0 10 -262144 -1 -1 0
1;
#X obj 232 141 r HELLO;
#X obj 232 166 print HELLO;
#X msg 202 75 5002 1 127 \$1;
#X msg 73 173 10001 \$1 127 \$2;
#X obj 220 9 tgl 15 0 empty empty empty 17 7 0 10 -262144 -1 -1 0 1
;
#X obj 115 6 metro 5000;
#X connect 1 0 9 0;
#X connect 2 0 1 0;
#X connect 3 0 2 0;
#X connect 3 1 1 1;
#X connect 4 0 3 0;
#X connect 5 0 8 0;
#X connect 6 0 7 0;
#X connect 8 0 0 0;
#X connect 9 0 0 0;
#X connect 10 0 11 0;
#X connect 11 0 4 0;
