#N canvas 1 89 1308 582 10;
#X obj 20 126 unpackOSC;
#X obj 107 18 loadbang;
#X msg 147 91 devices;
#X obj 20 147 routeOSC /note;
#X floatatom 20 189 5 0 0 0 - - -;
#X floatatom 77 189 5 0 0 0 - - -;
#X floatatom 135 189 5 0 0 0 - - -;
#X obj 20 105 o.io.slipserial;
#X msg 215 108 close;
#X obj 20 209 pack f f f;
#X obj 20 230 s NOTE;
#X obj 20 168 routeOSC /pitch /velocity /onoff /oncnt;
#X floatatom 193 189 5 0 0 0 - - -;
#X obj 451 140 o.io.slipserial;
#X msg 480 89 devices;
#X msg 567 94 close;
#X obj 1057 228 tgl 15 0 empty empty empty 17 7 0 10 -262144 -1 -1
0 1;
#X text 958 32 NOTE! -->;
#X obj 1021 24 cnv 15 100 60 empty empty empty 20 12 0 14 -261234 -66577
0;
#X msg 1028 47 /note 60 100 1;
#X text 1027 27 well.. if we do like..;
#X text 1027 67 w/o bundling.. why not?;
#X obj 1010 251 t a b;
#X msg 1037 272 [;
#X obj 451 63 packOSC;
#X msg 941 272 ];
#X obj 941 251 t b a;
#X obj 941 203 r NOTE;
#X obj 941 224 unpack f f f;
#X text 987 202 /pitch /velocity /onoff;
#X msg 975 318 /note/velocity \$1;
#X msg 968 339 /note/pitch \$1;
#X obj 902 308 s OSC;
#X obj 451 38 r OSC;
#X obj 86 245 tgl 125 0 empty empty empty 17 7 0 10 -262144 -1 -1 0
1;
#N canvas 0 23 255 233 midi-in 0;
#X obj 17 14 notein 1;
#X floatatom 17 35 5 0 0 0 - - -;
#X floatatom 55 35 5 0 0 0 - - -;
#X obj 55 55 t a a;
#X floatatom 17 113 5 0 0 0 - - -;
#X floatatom 55 113 5 0 0 0 - - -;
#X floatatom 89 113 5 0 0 0 - - -;
#X obj 17 133 pack f f f;
#X obj 17 154 s NOTE;
#X obj 89 76 != 0;
#X obj 89 154 outlet;
#X connect 0 0 1 0;
#X connect 0 1 2 0;
#X connect 1 0 4 0;
#X connect 2 0 3 0;
#X connect 3 0 5 0;
#X connect 3 1 9 0;
#X connect 4 0 7 0;
#X connect 5 0 7 1;
#X connect 6 0 7 2;
#X connect 6 0 10 0;
#X connect 7 0 8 0;
#X connect 9 0 6 0;
#X restore 156 222 pd midi-in;
#X obj 976 104 r NOTE;
#X msg 1010 297 /note/onoff \$1;
#X floatatom 975 272 5 0 0 0 - - -;
#X obj 1090 119 loadbang;
#X msg 1090 144 127;
#X obj 979 246 bng 15 250 50 0 empty empty empty 17 7 0 10 -262144
-1 -1;
#X obj 1129 470 s NOTE;
#X msg 1129 444 68 100 1;
#X obj 976 154 print NOTE;
#X obj 510 267 print CTRL;
#X obj 510 209 r CTRL;
#N canvas 328 89 875 805 crickets 0;
#X obj 89 492 pack f f;
#X obj 134 466 tgl 15 0 empty \$0-c-tgl r:0-c-tgl 17 7 0 10 -262144
-1 -1 0 1;
#X obj 92 420 hsl 128 15 50 300 0 0 empty empty empty -2 -8 0 10 -262144
-1 -1 0 1;
#X floatatom 99 440 5 0 0 0 - - -;
#X msg 89 521 120 \$1 \$2;
#X obj 239 492 pack f f;
#X obj 284 466 tgl 15 0 empty \$0-c-tgl r:0-c-tgl 17 7 0 10 -262144
-1 -1 0 1;
#X obj 242 420 hsl 128 15 50 300 0 0 empty empty empty -2 -8 0 10 -262144
-1 -1 0 1;
#X floatatom 249 440 5 0 0 0 - - -;
#X msg 239 521 121 \$1 \$2;
#X obj 747 58 tgl 15 0 empty empty empty 17 7 0 10 -262144 -1 -1 0
1;
#X obj 747 82 t b a;
#X msg 695 69 0;
#X obj 389 492 pack f f;
#X obj 434 466 tgl 15 0 empty \$0-c-tgl r:0-c-tgl 17 7 0 10 -262144
-1 -1 0 1;
#X obj 392 420 hsl 128 15 50 300 0 0 empty empty empty -2 -8 0 10 -262144
-1 -1 0 1;
#X floatatom 399 440 5 0 0 0 - - -;
#X msg 389 521 122 \$1 \$2;
#X obj 539 492 pack f f;
#X obj 584 466 tgl 15 0 empty \$0-c-tgl r:0-c-tgl 17 7 0 10 -262144
-1 -1 0 1;
#X obj 542 420 hsl 128 15 50 300 0 0 empty empty empty -2 -8 0 10 -262144
-1 -1 0 1;
#X floatatom 549 440 5 0 0 0 - - -;
#X msg 539 521 123 \$1 \$2;
#X obj 539 702 pack f f;
#X obj 584 676 tgl 15 0 empty \$0-c-tgl r:0-c-tgl 17 7 0 10 -262144
-1 -1 0 1;
#X obj 542 630 hsl 128 15 0 255 0 0 empty empty empty -2 -8 0 10 -262144
-1 -1 0 1;
#X obj 539 763 s CTRL;
#X floatatom 549 650 5 0 0 0 - - -;
#X msg 539 731 127 \$1 \$2;
#X text 605 598 fishing-fly;
#X obj 689 492 pack f f;
#X obj 734 466 tgl 15 0 empty \$0-c-tgl r:0-c-tgl 17 7 0 10 -262144
-1 -1 0 1;
#X obj 692 420 hsl 128 15 50 300 0 0 empty empty empty -2 -8 0 10 -262144
-1 -1 0 1;
#X obj 689 553 s CTRL;
#X floatatom 699 440 5 0 0 0 - - -;
#X obj 271 709 metro 1000;
#X obj 271 687 tgl 15 0 empty empty empty 17 7 0 10 -262144 -1 -1 0
1;
#X text 270 657 auto play;
#X msg 134 711 100 100 1;
#X msg 136 766 101 100 1;
#X text 145 690 gastank;
#X text 140 741 float;
#X msg 313 637 0;
#X msg 355 659 1000;
#X obj 704 705 metro 1000;
#X obj 704 683 tgl 15 0 empty empty empty 17 7 0 10 -262144 -1 -1 0
1;
#X floatatom 783 690 5 0 0 0 - - -;
#X text 703 653 auto play;
#X msg 746 633 0;
#X msg 788 655 1000;
#X msg 704 727 101 127 1;
#X msg 271 731 100 127 1;
#X msg 350 630 500;
#X msg 386 628 2000;
#X msg 374 604 300;
#X msg 404 584 3000;
#X obj 271 755 s CTRL;
#X obj 704 751 s CTRL;
#X text 717 23 cricket drummers;
#X obj 784 111 tgl 15 0 \$0-c-tgl empty s:0-c-tgl 17 7 0 10 -262144
-1 -1 0 1;
#X floatatom 539 389 5 0 0 0 r:0-c-sld #0-c-sld -;
#X floatatom 389 389 5 0 0 0 r:0-c-sld #0-c-sld -;
#X floatatom 239 389 5 0 0 0 r:0-c-sld #0-c-sld -;
#X floatatom 89 389 5 0 0 0 r:0-c-sld #0-c-sld -;
#X floatatom 689 389 5 0 0 0 r:0-c-sld #0-c-sld -;
#X floatatom 747 111 5 0 0 0 s:0-c-sld - #0-c-sld;
#X floatatom 539 599 5 0 0 0 r:0-c-sld #0-c-sld -;
#X obj 20 50 arduino;
#X msg 147 51 devices;
#X msg 215 68 close;
#X msg 20 12 devicename /dev/tty.HC-06-DevB \, baud 57600 \, pollintervall
1 \, verbose 1;
#X obj 20 71 route analog;
#X obj 20 92 route 0 1 2 3 4 5;
#X floatatom 20 113 5 0 0 0 - - -;
#X floatatom 120 133 5 0 0 0 - - -;
#X floatatom 220 153 5 0 0 0 - - -;
#X floatatom 320 113 5 0 0 0 - - -;
#X floatatom 605 74 5 0 0 0 - - -;
#X floatatom 420 153 5 0 0 0 - - -;
#X obj 20 204 * -1;
#X floatatom 20 225 5 0 0 0 - - -;
#X obj 20 183 - 1;
#X obj 120 204 * -1;
#X floatatom 120 225 5 0 0 0 - - -;
#X obj 120 183 - 1;
#X obj 220 204 * -1;
#X floatatom 220 225 5 0 0 0 - - -;
#X obj 220 183 - 1;
#X obj 320 204 * -1;
#X floatatom 320 225 5 0 0 0 - - -;
#X obj 320 183 - 1;
#X obj 605 145 * -1;
#X floatatom 605 166 5 0 0 0 - - -;
#X obj 605 124 - 1;
#X obj 420 204 * -1;
#X floatatom 420 225 5 0 0 0 - - -;
#X obj 420 183 - 1;
#X floatatom 20 287 5 0 0 0 - - -;
#X floatatom 120 287 5 0 0 0 - - -;
#X floatatom 220 287 5 0 0 0 - - -;
#X floatatom 320 287 5 0 0 0 - - -;
#X floatatom 605 228 5 0 0 0 - - -;
#X floatatom 420 287 5 0 0 0 - - -;
#X obj 320 245 * 300;
#X obj 420 245 * 300;
#X text 288 91 broken!! right/bottom;
#X text 35 135 top/right;
#X text 135 153 top/center;
#X text 259 155 top/left;
#X text 341 156 bottom/left;
#X obj 20 266 resample 2000;
#X obj 120 266 resample 2000;
#X obj 220 266 resample 2000;
#X obj 320 266 resample 2000;
#X obj 420 266 resample 2000;
#X obj 605 207 resample 2000;
#X obj 120 307 pipe 1000;
#X obj 220 307 pipe 2000;
#X obj 320 307 pipe 3000;
#X obj 420 307 pipe 4000;
#X obj 20 245 * 100;
#X obj 220 245 * 200;
#X obj 120 245 * 200;
#X floatatom 605 275 5 0 0 0 s:0-vol - #0-vol;
#X obj 605 248 pipe 500;
#X msg 719 521 105 100 1;
#X obj 605 186 * 0;
#X text 22 585 manually send 'play stop' messages;
#X obj 89 553 s CTRL;
#X obj 239 553 s CTRL;
#X obj 389 553 s CTRL;
#X obj 539 553 s CTRL;
#X text 52 537 disconnected for TESTING;
#X text 212 537 disconnected for TESTING;
#X text 372 537 disconnected for TESTING;
#X text 532 537 disconnected for TESTING;
#X text 554 262 disconnected for TESTING;
#X text 489 300 resample always send messages!! --> plz fix / or change
controller will be patched --> no more jittering. i hope. we use only
[change] to limit \, net broadcast then net stability will become better.
i wish.;
#X text 564 142 still there is issue about non-linearity cut off lower
region stretch range etc.;
#X connect 0 0 4 0;
#X connect 1 0 0 1;
#X connect 2 0 0 0;
#X connect 2 0 3 0;
#X connect 5 0 9 0;
#X connect 6 0 5 1;
#X connect 7 0 5 0;
#X connect 7 0 8 0;
#X connect 10 0 11 0;
#X connect 11 0 65 0;
#X connect 11 1 59 0;
#X connect 12 0 10 0;
#X connect 13 0 17 0;
#X connect 14 0 13 1;
#X connect 15 0 13 0;
#X connect 15 0 16 0;
#X connect 18 0 22 0;
#X connect 19 0 18 1;
#X connect 20 0 18 0;
#X connect 20 0 21 0;
#X connect 23 0 28 0;
#X connect 24 0 23 1;
#X connect 25 0 23 0;
#X connect 25 0 27 0;
#X connect 28 0 26 0;
#X connect 31 0 30 1;
#X connect 32 0 30 0;
#X connect 32 0 34 0;
#X connect 35 0 51 0;
#X connect 36 0 35 0;
#X connect 38 0 56 0;
#X connect 39 0 56 0;
#X connect 42 0 35 0;
#X connect 43 0 35 1;
#X connect 44 0 50 0;
#X connect 45 0 44 0;
#X connect 46 0 44 1;
#X connect 48 0 44 0;
#X connect 49 0 44 1;
#X connect 50 0 57 0;
#X connect 51 0 56 0;
#X connect 52 0 35 1;
#X connect 53 0 35 1;
#X connect 54 0 35 1;
#X connect 55 0 35 1;
#X connect 60 0 20 0;
#X connect 61 0 15 0;
#X connect 62 0 7 0;
#X connect 63 0 2 0;
#X connect 64 0 32 0;
#X connect 66 0 25 0;
#X connect 67 0 71 0;
#X connect 68 0 67 0;
#X connect 69 0 67 0;
#X connect 70 0 67 0;
#X connect 71 0 72 0;
#X connect 72 0 73 0;
#X connect 72 1 74 0;
#X connect 72 2 75 0;
#X connect 72 3 76 0;
#X connect 72 4 77 0;
#X connect 72 5 78 0;
#X connect 73 0 81 0;
#X connect 74 0 84 0;
#X connect 75 0 87 0;
#X connect 77 0 93 0;
#X connect 78 0 96 0;
#X connect 79 0 80 0;
#X connect 80 0 120 0;
#X connect 81 0 79 0;
#X connect 82 0 83 0;
#X connect 83 0 122 0;
#X connect 84 0 82 0;
#X connect 85 0 86 0;
#X connect 86 0 121 0;
#X connect 87 0 85 0;
#X connect 88 0 89 0;
#X connect 89 0 103 0;
#X connect 90 0 88 0;
#X connect 91 0 92 0;
#X connect 92 0 126 0;
#X connect 93 0 91 0;
#X connect 94 0 95 0;
#X connect 95 0 104 0;
#X connect 96 0 94 0;
#X connect 97 0 2 0;
#X connect 98 0 116 0;
#X connect 99 0 117 0;
#X connect 101 0 124 0;
#X connect 102 0 119 0;
#X connect 103 0 113 0;
#X connect 104 0 114 0;
#X connect 110 0 97 0;
#X connect 111 0 98 0;
#X connect 112 0 99 0;
#X connect 113 0 100 0;
#X connect 114 0 102 0;
#X connect 115 0 101 0;
#X connect 116 0 7 0;
#X connect 117 0 15 0;
#X connect 119 0 20 0;
#X connect 120 0 110 0;
#X connect 121 0 112 0;
#X connect 122 0 111 0;
#X connect 125 0 33 0;
#X connect 126 0 115 0;
#X restore 10 426 pd crickets ctrl;
#X obj 896 154 print OSC;
#X obj 1207 92 s NOTE;
#X msg 1207 66 62 100 1;
#X msg 20 52 devicename /dev/tty.HC-06-DevB-1 \, baud 57600 \, pollintervall
1 \, verbose 1;
#X obj 510 230 spigot;
#X obj 559 215 tgl 15 0 empty empty empty 17 7 0 10 -262144 -1 -1 0
1;
#X obj 896 127 spigot;
#X obj 945 112 tgl 15 0 empty empty empty 17 7 0 10 -262144 -1 -1 0
1;
#X msg 558 52 devicename /dev/tty.usbmodem48710501 \, baud 57600 \,
pollintervall 1 \, verbose 1;
#X obj 976 127 spigot;
#X obj 1025 112 tgl 15 0 empty empty empty 17 7 0 10 -262144 -1 -1
0 1;
#X floatatom 1135 232 5 0 0 0 r:0-vol #0-vol -;
#X obj 238 516 o.io.slipserial;
#X msg 267 465 devices;
#X msg 344 470 close;
#X obj 238 439 packOSC;
#X msg 325 428 devicename /dev/tty.usbmodem32177401 \, baud 57600 \,
pollintervall 1 \, verbose 1;
#X obj 238 414 r OSC2;
#X msg 538 12 devicename /dev/portD \, baud 57600 \, pollintervall
1 \, verbose 1;
#X text 1180 167 vol. override;
#X msg 1208 321 0;
#X msg 1208 300 10;
#X msg 1208 279 25;
#X msg 1208 258 50;
#X msg 1208 217 255;
#X msg 1208 197 500;
#X msg 1208 237 127;
#X text 1233 197 BIG;
#X text 1234 321 SMALL;
#X msg 1208 146 180;
#X floatatom 1168 343 5 0 0 0 s:0-vol - #0-vol;
#X obj 430 230 spigot;
#X obj 479 215 tgl 15 0 empty empty empty 17 7 0 10 -262144 -1 -1 1
1;
#X obj 430 209 r OSC2;
#X obj 430 267 print OSC2;
#X obj 896 104 r OSC;
#X msg 1135 254 set \$1;
#X obj 1199 470 s NOTE;
#X msg 1199 444 68 100 0;
#X text 943 370 vol. control knob 'on' the keyboard is needed. instead
of get/set it by other devivce this is quite messy!;
#N canvas 383 142 875 805 crickets 0;
#X obj 89 492 pack f f;
#X obj 134 466 tgl 15 0 empty \$0-c-tgl r:0-c-tgl 17 7 0 10 -262144
-1 -1 0 1;
#X obj 92 420 hsl 128 15 50 300 0 0 empty empty empty -2 -8 0 10 -262144
-1 -1 0 1;
#X floatatom 99 440 5 0 0 0 - - -;
#X msg 89 521 120 \$1 \$2;
#X obj 239 492 pack f f;
#X obj 284 466 tgl 15 0 empty \$0-c-tgl r:0-c-tgl 17 7 0 10 -262144
-1 -1 0 1;
#X obj 242 420 hsl 128 15 50 300 0 0 empty empty empty -2 -8 0 10 -262144
-1 -1 0 1;
#X floatatom 249 440 5 0 0 0 - - -;
#X msg 239 521 121 \$1 \$2;
#X obj 747 58 tgl 15 0 empty empty empty 17 7 0 10 -262144 -1 -1 0
1;
#X obj 747 82 t b a;
#X msg 695 69 0;
#X obj 389 492 pack f f;
#X obj 434 466 tgl 15 0 empty \$0-c-tgl r:0-c-tgl 17 7 0 10 -262144
-1 -1 0 1;
#X obj 392 420 hsl 128 15 50 300 0 0 empty empty empty -2 -8 0 10 -262144
-1 -1 0 1;
#X floatatom 399 440 5 0 0 0 - - -;
#X msg 389 521 122 \$1 \$2;
#X obj 539 492 pack f f;
#X obj 584 466 tgl 15 0 empty \$0-c-tgl r:0-c-tgl 17 7 0 10 -262144
-1 -1 0 1;
#X obj 542 420 hsl 128 15 50 300 0 0 empty empty empty -2 -8 0 10 -262144
-1 -1 0 1;
#X floatatom 549 440 5 0 0 0 - - -;
#X msg 539 521 123 \$1 \$2;
#X obj 539 702 pack f f;
#X obj 584 676 tgl 15 0 empty \$0-c-tgl r:0-c-tgl 17 7 0 10 -262144
-1 -1 0 1;
#X obj 542 630 hsl 128 15 0 255 0 0 empty empty empty -2 -8 0 10 -262144
-1 -1 0 1;
#X obj 539 763 s CTRL;
#X floatatom 549 650 5 0 0 0 - - -;
#X msg 539 731 127 \$1 \$2;
#X text 605 598 fishing-fly;
#X obj 689 492 pack f f;
#X obj 734 466 tgl 15 0 empty \$0-c-tgl r:0-c-tgl 17 7 0 10 -262144
-1 -1 0 1;
#X obj 692 420 hsl 128 15 50 300 0 0 empty empty empty -2 -8 0 10 -262144
-1 -1 0 1;
#X obj 689 553 s CTRL;
#X floatatom 699 440 5 0 0 0 - - -;
#X obj 271 709 metro 1000;
#X obj 271 687 tgl 15 0 empty empty empty 17 7 0 10 -262144 -1 -1 0
1;
#X text 270 657 auto play;
#X msg 134 711 100 100 1;
#X msg 136 766 101 100 1;
#X text 145 690 gastank;
#X text 140 741 float;
#X msg 313 637 0;
#X msg 355 659 1000;
#X obj 704 705 metro 1000;
#X obj 704 683 tgl 15 0 empty empty empty 17 7 0 10 -262144 -1 -1 0
1;
#X floatatom 783 690 5 0 0 0 - - -;
#X text 703 653 auto play;
#X msg 746 633 0;
#X msg 788 655 1000;
#X msg 704 727 101 127 1;
#X msg 271 731 100 127 1;
#X msg 350 630 500;
#X msg 386 628 2000;
#X msg 374 604 300;
#X msg 404 584 3000;
#X obj 271 755 s CTRL;
#X obj 704 751 s CTRL;
#X text 717 23 cricket drummers;
#X obj 784 111 tgl 15 0 \$0-c-tgl empty s:0-c-tgl 17 7 0 10 -262144
-1 -1 0 1;
#X floatatom 539 389 5 0 0 0 r:0-c-sld #0-c-sld -;
#X floatatom 389 389 5 0 0 0 r:0-c-sld #0-c-sld -;
#X floatatom 239 389 5 0 0 0 r:0-c-sld #0-c-sld -;
#X floatatom 89 389 5 0 0 0 r:0-c-sld #0-c-sld -;
#X floatatom 689 389 5 0 0 0 r:0-c-sld #0-c-sld -;
#X floatatom 747 111 5 0 0 0 s:0-c-sld - #0-c-sld;
#X floatatom 539 599 5 0 0 0 r:0-c-sld #0-c-sld -;
#X obj 20 50 arduino;
#X msg 147 51 devices;
#X msg 215 68 close;
#X msg 20 12 devicename /dev/tty.HC-06-DevB \, baud 57600 \, pollintervall
1 \, verbose 1;
#X obj 20 71 route analog;
#X obj 20 92 route 0 1 2 3 4 5;
#X floatatom 20 113 5 0 0 0 - - -;
#X floatatom 120 133 5 0 0 0 - - -;
#X floatatom 220 153 5 0 0 0 - - -;
#X floatatom 320 113 5 0 0 0 - - -;
#X floatatom 605 74 5 0 0 0 - - -;
#X floatatom 420 153 5 0 0 0 - - -;
#X obj 20 204 * -1;
#X floatatom 20 225 5 0 0 0 - - -;
#X obj 20 183 - 1;
#X obj 120 204 * -1;
#X floatatom 120 225 5 0 0 0 - - -;
#X obj 120 183 - 1;
#X obj 220 204 * -1;
#X floatatom 220 225 5 0 0 0 - - -;
#X obj 220 183 - 1;
#X obj 320 204 * -1;
#X floatatom 320 225 5 0 0 0 - - -;
#X obj 320 183 - 1;
#X obj 605 145 * -1;
#X floatatom 605 166 5 0 0 0 - - -;
#X obj 605 124 - 1;
#X obj 420 204 * -1;
#X floatatom 420 225 5 0 0 0 - - -;
#X obj 420 183 - 1;
#X floatatom 20 287 5 0 0 0 - - -;
#X floatatom 120 287 5 0 0 0 - - -;
#X floatatom 220 287 5 0 0 0 - - -;
#X floatatom 320 287 5 0 0 0 - - -;
#X floatatom 605 228 5 0 0 0 - - -;
#X floatatom 420 287 5 0 0 0 - - -;
#X obj 320 245 * 300;
#X obj 420 245 * 300;
#X text 288 91 broken!! right/bottom;
#X text 35 135 top/right;
#X text 135 153 top/center;
#X text 259 155 top/left;
#X text 341 156 bottom/left;
#X obj 20 245 * 100;
#X obj 220 245 * 200;
#X obj 120 245 * 200;
#X floatatom 605 275 5 0 0 0 s:0-vol - #0-vol;
#X msg 719 521 105 100 1;
#X obj 605 186 * 0;
#X text 22 585 manually send 'play stop' messages;
#X obj 89 553 s CTRL;
#X obj 239 553 s CTRL;
#X obj 389 553 s CTRL;
#X obj 539 553 s CTRL;
#X text 52 537 disconnected for TESTING;
#X text 212 537 disconnected for TESTING;
#X text 372 537 disconnected for TESTING;
#X text 532 537 disconnected for TESTING;
#X text 489 300 resample always send messages!! --> plz fix / or change
controller will be patched --> no more jittering. i hope. we use only
[change] to limit \, net broadcast then net stability will become better.
i wish.;
#X text 564 142 still there is issue about non-linearity cut off lower
region stretch range etc.;
#X connect 0 0 4 0;
#X connect 1 0 0 1;
#X connect 2 0 0 0;
#X connect 2 0 3 0;
#X connect 5 0 9 0;
#X connect 6 0 5 1;
#X connect 7 0 5 0;
#X connect 7 0 8 0;
#X connect 10 0 11 0;
#X connect 11 0 65 0;
#X connect 11 1 59 0;
#X connect 12 0 10 0;
#X connect 13 0 17 0;
#X connect 14 0 13 1;
#X connect 15 0 13 0;
#X connect 15 0 16 0;
#X connect 18 0 22 0;
#X connect 19 0 18 1;
#X connect 20 0 18 0;
#X connect 20 0 21 0;
#X connect 23 0 28 0;
#X connect 24 0 23 1;
#X connect 25 0 23 0;
#X connect 25 0 27 0;
#X connect 28 0 26 0;
#X connect 31 0 30 1;
#X connect 32 0 30 0;
#X connect 32 0 34 0;
#X connect 35 0 51 0;
#X connect 36 0 35 0;
#X connect 38 0 56 0;
#X connect 39 0 56 0;
#X connect 42 0 35 0;
#X connect 43 0 35 1;
#X connect 44 0 50 0;
#X connect 45 0 44 0;
#X connect 46 0 44 1;
#X connect 48 0 44 0;
#X connect 49 0 44 1;
#X connect 50 0 57 0;
#X connect 51 0 56 0;
#X connect 52 0 35 1;
#X connect 53 0 35 1;
#X connect 54 0 35 1;
#X connect 55 0 35 1;
#X connect 60 0 20 0;
#X connect 61 0 15 0;
#X connect 62 0 7 0;
#X connect 63 0 2 0;
#X connect 64 0 32 0;
#X connect 66 0 25 0;
#X connect 67 0 71 0;
#X connect 68 0 67 0;
#X connect 69 0 67 0;
#X connect 70 0 67 0;
#X connect 71 0 72 0;
#X connect 72 0 73 0;
#X connect 72 1 74 0;
#X connect 72 2 75 0;
#X connect 72 3 76 0;
#X connect 72 4 77 0;
#X connect 72 5 78 0;
#X connect 73 0 81 0;
#X connect 74 0 84 0;
#X connect 75 0 87 0;
#X connect 77 0 93 0;
#X connect 78 0 96 0;
#X connect 79 0 80 0;
#X connect 80 0 110 0;
#X connect 81 0 79 0;
#X connect 82 0 83 0;
#X connect 83 0 112 0;
#X connect 84 0 82 0;
#X connect 85 0 86 0;
#X connect 86 0 111 0;
#X connect 87 0 85 0;
#X connect 88 0 89 0;
#X connect 89 0 103 0;
#X connect 90 0 88 0;
#X connect 91 0 92 0;
#X connect 92 0 115 0;
#X connect 93 0 91 0;
#X connect 94 0 95 0;
#X connect 95 0 104 0;
#X connect 96 0 94 0;
#X connect 97 0 2 0;
#X connect 114 0 33 0;
#X restore 10 448 pd crickets new;
#N canvas 44 89 1298 805 crickets 0;
#X obj 83 492 pack f f;
#X obj 128 466 tgl 15 0 empty \$0-c-tgl r:0-c-tgl 17 7 0 10 -262144
-1 -1 0 1;
#X obj 86 420 hsl 128 15 0 300 0 0 empty empty empty -2 -8 0 10 -262144
-1 -1 0 1;
#X floatatom 93 440 5 0 0 0 - - -;
#X msg 83 513 120 \$1 \$2;
#X obj 233 492 pack f f;
#X obj 278 466 tgl 15 0 empty \$0-c-tgl r:0-c-tgl 17 7 0 10 -262144
-1 -1 0 1;
#X obj 236 420 hsl 128 15 0 300 0 0 empty empty empty -2 -8 0 10 -262144
-1 -1 0 1;
#X floatatom 243 440 5 0 0 0 - - -;
#X msg 233 513 121 \$1 \$2;
#X obj 756 558 tgl 15 0 empty empty empty 17 7 0 10 -262144 -1 -1 0
1;
#X obj 756 582 t b a;
#X msg 803 542 0;
#X obj 383 492 pack f f;
#X obj 428 466 tgl 15 0 empty \$0-c-tgl r:0-c-tgl 17 7 0 10 -262144
-1 -1 0 1;
#X obj 386 420 hsl 128 15 0 300 0 0 empty empty empty -2 -8 0 10 -262144
-1 -1 0 1;
#X floatatom 393 440 5 0 0 0 - - -;
#X msg 383 513 122 \$1 \$2;
#X obj 533 492 pack f f;
#X obj 578 466 tgl 15 0 empty \$0-c-tgl r:0-c-tgl 17 7 0 10 -262144
-1 -1 0 1;
#X obj 536 420 hsl 128 15 0 300 0 0 empty empty empty -2 -8 0 10 -262144
-1 -1 0 1;
#X floatatom 543 440 5 0 0 0 - - -;
#X msg 533 513 123 \$1 \$2;
#X obj 461 705 pack f f;
#X obj 506 679 tgl 15 0 empty \$0-c-tgl r:0-c-tgl 17 7 0 10 -262144
-1 -1 0 1;
#X obj 464 633 hsl 128 15 0 255 0 0 empty empty empty -2 -8 0 10 -262144
-1 -1 0 1;
#X obj 461 758 s CTRL;
#X floatatom 471 653 5 0 0 0 - - -;
#X msg 461 726 127 \$1 \$2;
#X text 527 601 fishing-fly;
#X obj 437 115 s CTRL;
#X text 646 579 cricket drummers;
#X obj 793 611 tgl 15 0 \$0-c-tgl empty s:0-c-tgl 17 7 0 10 -262144
-1 -1 0 1;
#X floatatom 533 389 5 0 0 0 r:0-c-sld #0-c-sld -;
#X floatatom 383 389 5 0 0 0 r:0-c-sld #0-c-sld -;
#X floatatom 233 389 5 0 0 0 r:0-c-sld #0-c-sld -;
#X floatatom 83 389 5 0 0 0 r:0-c-sld #0-c-sld -;
#X floatatom 756 611 5 0 0 0 s:0-c-sld - #0-c-sld;
#X floatatom 461 602 5 0 0 0 r:0-c-sld #0-c-sld -;
#X msg 437 94 105 100 1;
#X obj 83 545 s CTRL;
#X obj 233 545 s CTRL;
#X obj 383 545 s CTRL;
#X obj 533 545 s CTRL;
#X floatatom 107 152 5 0 0 3 knob - -;
#X floatatom 167 152 5 0 0 3 slider - -;
#X obj 228 152 tgl 15 0 empty empty empty 17 7 0 10 -262144 -1 -1 0
1;
#X obj 288 152 tgl 15 0 empty empty empty 17 7 0 10 -262144 -1 -1 0
1;
#X obj 349 152 tgl 15 0 empty empty empty 17 7 0 10 -262144 -1 -1 0
1;
#X floatatom 355 319 5 0 0 0 - - -;
#X floatatom 415 319 5 0 0 0 - - -;
#X obj 476 319 tgl 15 0 empty empty empty 17 7 0 10 -262144 -1 -1 0
1;
#X obj 536 319 tgl 15 0 empty empty empty 17 7 0 10 -262144 -1 -1 0
1;
#X obj 597 319 tgl 15 0 empty empty empty 17 7 0 10 -262144 -1 -1 0
1;
#X floatatom 620 149 5 0 0 0 - - -;
#X floatatom 680 149 5 0 0 0 - - -;
#X obj 741 149 tgl 15 0 empty empty empty 17 7 0 10 -262144 -1 -1 0
1;
#X obj 801 149 tgl 15 0 empty empty empty 17 7 0 10 -262144 -1 -1 0
1;
#X obj 862 149 tgl 15 0 empty empty empty 17 7 0 10 -262144 -1 -1 0
1;
#X floatatom 722 431 5 0 0 0 - - -;
#X floatatom 782 431 5 0 0 0 - - -;
#X obj 843 431 tgl 15 0 empty empty empty 17 7 0 10 -262144 -1 -1 0
1;
#X obj 903 431 tgl 15 0 empty empty empty 17 7 0 10 -262144 -1 -1 0
1;
#X obj 964 431 tgl 15 0 empty empty empty 17 7 0 10 -262144 -1 -1 0
1;
#X obj 722 300 nanokontrol2-channel 4 13 3 13 3 23;
#X obj 107 21 nanokontrol2-channel 1 10 0 10 0 20;
#X obj 355 188 nanokontrol2-channel 2 11 1 11 1 21;
#X obj 620 18 nanokontrol2-channel 3 12 2 12 2 22;
#X obj 437 54 bng 35 250 50 0 empty empty BELL 4 7 0 10 -260097 -262144
-262144;
#X obj 437 34 sel 1;
#X obj 58 42 sel 1;
#X obj 58 21 sel 1;
#X obj 306 209 sel 1;
#X obj 306 188 sel 1;
#X obj 571 39 sel 1;
#X obj 571 18 sel 1;
#X obj 673 321 sel 1;
#X obj 673 300 sel 1;
#X obj 22 79 tgl 15 0 empty empty empty 17 7 0 10 -262144 -1 -1 0 1
;
#X obj 270 246 tgl 15 0 empty empty empty 17 7 0 10 -262144 -1 -1 0
1;
#X obj 535 76 tgl 15 0 empty empty empty 17 7 0 10 -262144 -1 -1 0
1;
#X obj 637 358 tgl 15 0 empty empty empty 17 7 0 10 -262144 -1 -1 0
1;
#X msg 22 58 1;
#X msg 22 37 0;
#X msg 270 225 1;
#X msg 270 204 0;
#X msg 535 55 1;
#X msg 535 34 0;
#X msg 637 337 1;
#X msg 637 316 0;
#X obj 83 351 * 300;
#X obj 233 351 * 300;
#X obj 383 351 * 300;
#X obj 533 351 * 300;
#X obj 167 188 skip 500;
#X obj 680 185 skip 500;
#X obj 298 351 skip 500;
#X obj 726 458 skip 500;
#X floatatom 115 734 5 0 0 0 - - -;
#X floatatom 175 734 5 0 0 0 - - -;
#X obj 236 734 tgl 15 0 empty empty empty 17 7 0 10 -262144 -1 -1 0
1;
#X obj 296 734 tgl 15 0 empty empty empty 17 7 0 10 -262144 -1 -1 0
1;
#X obj 357 734 tgl 15 0 empty empty empty 17 7 0 10 -262144 -1 -1 0
1;
#X obj 66 624 sel 1;
#X obj 66 603 sel 1;
#X obj 30 661 tgl 15 0 empty empty empty 17 7 0 10 -262144 -1 -1 0
1;
#X msg 30 640 1;
#X msg 30 619 0;
#X obj 119 761 skip 500;
#X obj 115 603 nanokontrol2-channel 5 14 4 14 4 24;
#X obj 461 564 * 127;
#X floatatom 983 150 5 0 0 0 - - -;
#X floatatom 1043 150 5 0 0 0 - - -;
#X obj 1104 150 tgl 15 0 empty empty empty 17 7 0 10 -262144 -1 -1
0 1;
#X obj 1164 150 tgl 15 0 empty empty empty 17 7 0 10 -262144 -1 -1
0 1;
#X obj 1225 150 tgl 15 0 empty empty empty 17 7 0 10 -262144 -1 -1
0 1;
#X obj 1013 324 sel 1;
#X obj 1150 324 sel 1;
#X obj 1193 216 skip 500;
#X obj 1108 278 tgl 15 0 empty \$0-c-tgl r:0-c-tgl 17 7 0 10 -262144
-1 -1 0 1;
#X obj 1043 386 metro 1000;
#X floatatom 1100 366 5 0 0 0 - - -;
#X text 1094 227 auto play;
#X obj 1043 432 s CTRL;
#X obj 1013 345 f;
#X obj 1043 345 == 0;
#X obj 1150 345 f;
#X obj 1180 345 == 0;
#X obj 1043 366 tgl 15 0 empty empty empty 17 7 0 10 -262144 -1 -1
0 1;
#X obj 1180 366 tgl 15 0 empty empty empty 17 7 0 10 -262144 -1 -1
0 1;
#X obj 1023 226 skip 500;
#X obj 1023 247 * 3000;
#X obj 1023 268 + 1000;
#X obj 1193 237 * 3000;
#X obj 1193 258 + 1000;
#X obj 1180 386 metro 1000;
#X floatatom 1237 366 5 0 0 0 - - -;
#X obj 1180 432 s CTRL;
#X msg 1180 408 101 127 1;
#X msg 1043 408 100 127 1;
#X obj 983 170 - 1;
#X obj 983 191 * -1;
#X obj 1043 170 - 1;
#X obj 1043 191 * -1;
#X text 907 678 to use nanokontrol2's led \, set 'LED external' -->
save scene @ korg kontrol editor + pd midi out to nanokontrol2 + send
noteout to the button.;
#X obj 983 19 nanokontrol2-channel 8 17 7 17 7 27;
#X obj 969 625 safeguard-mixer-forest-all;
#X obj 949 483 nanokontrol2v2 nanokontrol2v2;
#X connect 0 0 4 0;
#X connect 1 0 0 1;
#X connect 1 0 65 0;
#X connect 2 0 0 0;
#X connect 2 0 3 0;
#X connect 4 0 40 0;
#X connect 5 0 9 0;
#X connect 6 0 5 1;
#X connect 6 0 66 0;
#X connect 7 0 5 0;
#X connect 7 0 8 0;
#X connect 9 0 41 0;
#X connect 10 0 11 0;
#X connect 11 0 37 0;
#X connect 11 1 32 0;
#X connect 12 0 10 0;
#X connect 13 0 17 0;
#X connect 14 0 13 1;
#X connect 14 0 67 0;
#X connect 15 0 13 0;
#X connect 15 0 16 0;
#X connect 17 0 42 0;
#X connect 18 0 22 0;
#X connect 19 0 18 1;
#X connect 19 0 64 0;
#X connect 20 0 18 0;
#X connect 20 0 21 0;
#X connect 22 0 43 0;
#X connect 23 0 28 0;
#X connect 24 0 23 1;
#X connect 24 0 109 0;
#X connect 25 0 23 0;
#X connect 25 0 27 0;
#X connect 28 0 26 0;
#X connect 33 0 20 0;
#X connect 34 0 15 0;
#X connect 35 0 7 0;
#X connect 36 0 2 0;
#X connect 38 0 25 0;
#X connect 39 0 30 0;
#X connect 45 0 94 0;
#X connect 46 0 70 0;
#X connect 47 0 71 0;
#X connect 48 0 69 0;
#X connect 48 0 65 2;
#X connect 50 0 96 0;
#X connect 51 0 72 0;
#X connect 52 0 73 0;
#X connect 55 0 95 0;
#X connect 56 0 74 0;
#X connect 57 0 75 0;
#X connect 60 0 97 0;
#X connect 61 0 76 0;
#X connect 62 0 77 0;
#X connect 64 0 59 0;
#X connect 64 1 60 0;
#X connect 64 2 61 0;
#X connect 64 3 62 0;
#X connect 64 4 63 0;
#X connect 65 0 44 0;
#X connect 65 1 45 0;
#X connect 65 2 46 0;
#X connect 65 3 47 0;
#X connect 65 4 48 0;
#X connect 66 0 49 0;
#X connect 66 1 50 0;
#X connect 66 2 51 0;
#X connect 66 3 52 0;
#X connect 66 4 53 0;
#X connect 67 0 54 0;
#X connect 67 1 55 0;
#X connect 67 2 56 0;
#X connect 67 3 57 0;
#X connect 67 4 58 0;
#X connect 68 0 39 0;
#X connect 69 0 68 0;
#X connect 70 0 82 0;
#X connect 71 0 83 0;
#X connect 72 0 84 0;
#X connect 73 0 85 0;
#X connect 74 0 86 0;
#X connect 75 0 87 0;
#X connect 76 0 88 0;
#X connect 77 0 89 0;
#X connect 78 0 1 0;
#X connect 79 0 6 0;
#X connect 80 0 14 0;
#X connect 81 0 19 0;
#X connect 82 0 78 0;
#X connect 83 0 78 0;
#X connect 84 0 79 0;
#X connect 85 0 79 0;
#X connect 86 0 80 0;
#X connect 87 0 80 0;
#X connect 88 0 81 0;
#X connect 89 0 81 0;
#X connect 90 0 2 0;
#X connect 91 0 7 0;
#X connect 92 0 15 0;
#X connect 93 0 20 0;
#X connect 94 0 90 0;
#X connect 95 0 92 0;
#X connect 96 0 91 0;
#X connect 97 0 93 0;
#X connect 99 0 108 0;
#X connect 100 0 103 0;
#X connect 101 0 104 0;
#X connect 103 0 106 0;
#X connect 104 0 107 0;
#X connect 105 0 24 0;
#X connect 106 0 105 0;
#X connect 107 0 105 0;
#X connect 108 0 110 0;
#X connect 109 0 98 0;
#X connect 109 1 99 0;
#X connect 109 2 100 0;
#X connect 109 3 101 0;
#X connect 109 4 102 0;
#X connect 110 0 25 0;
#X connect 111 0 140 0;
#X connect 112 0 142 0;
#X connect 113 0 116 0;
#X connect 114 0 117 0;
#X connect 116 0 124 0;
#X connect 117 0 126 0;
#X connect 118 0 133 0;
#X connect 119 0 128 0;
#X connect 119 0 129 0;
#X connect 120 0 139 0;
#X connect 121 0 120 1;
#X connect 124 0 125 0;
#X connect 125 0 124 1;
#X connect 125 0 128 0;
#X connect 126 0 127 0;
#X connect 127 0 126 1;
#X connect 127 0 129 0;
#X connect 128 0 120 0;
#X connect 128 0 145 0;
#X connect 129 0 135 0;
#X connect 129 0 145 1;
#X connect 130 0 131 0;
#X connect 131 0 132 0;
#X connect 132 0 121 0;
#X connect 133 0 134 0;
#X connect 134 0 136 0;
#X connect 135 0 138 0;
#X connect 136 0 135 1;
#X connect 138 0 137 0;
#X connect 139 0 123 0;
#X connect 140 0 141 0;
#X connect 141 0 130 0;
#X connect 142 0 143 0;
#X connect 143 0 118 0;
#X connect 145 0 111 0;
#X connect 145 1 112 0;
#X connect 145 2 113 0;
#X connect 145 3 114 0;
#X connect 145 4 115 0;
#X connect 147 1 146 0;
#X connect 147 3 146 1;
#X connect 147 5 146 2;
#X connect 147 7 146 3;
#X connect 147 9 146 4;
#X connect 147 11 146 5;
#X restore 374 333 pd crickets nanokontrol2;
#X text 16 404 NOT USED;
#X obj 789 419 r NOTE;
#X obj 789 440 unpack f f f;
#X text 835 418 /pitch /velocity /onoff;
#X obj 858 468 tgl 15 0 empty empty empty 17 7 0 10 -262144 -1 -1 0
1;
#X obj 789 483 spigot;
#X floatatom 789 546 5 0 0 0 s:0-vol - #0-vol;
#X text 803 392 volume control;
#X text 857 497 keys for volume control: vol+ / vol-;
#N canvas 207 197 551 351 volume 0;
#X obj 105 160 f;
#X obj 135 160 +;
#X obj 105 88 bng 15 250 50 0 empty empty v+ 17 7 0 10 -262144 -1 -1
;
#X obj 152 48 bng 15 250 50 0 empty empty v- 17 7 0 10 -262144 -1 -1
;
#X obj 105 108 t b b;
#X msg 150 129 1;
#X obj 152 68 t b b;
#X msg 179 89 -1;
#X floatatom 135 187 5 0 0 0 - - -;
#X floatatom 174 267 5 0 0 0 - - -;
#X obj 135 213 moses 0;
#X msg 24 120 0;
#X obj 277 246 hradio 15 1 0 8 empty empty empty 0 -8 0 10 -262144
-1 -1 1;
#X obj 174 240 moses 8;
#X msg 227 120 7;
#N canvas 0 23 450 278 (subpatch) 0;
#X array \$0-voltable 8 float 3;
#A 0 10 25 50 100 127 180 255 500;
#X coords 0 550 8 -50 100 140 1 0 0;
#X restore 427 29 graph;
#X obj 280 137 loadbang;
#X obj 280 158 f \$0;
#X obj 349 143 bng 15 250 50 0 empty empty empty 17 7 0 10 -262144
-1 -1;
#X obj 277 268 tabread \$0-voltable;
#X floatatom 277 289 5 0 0 0 - - -;
#X obj 353 304 print vol;
#X obj 105 11 inlet;
#X obj 152 11 inlet;
#X obj 277 309 outlet;
#X msg 280 179 \; \$1-voltable 0 10 25 50 100 127 180 255 500;
#X connect 0 0 1 0;
#X connect 1 0 0 1;
#X connect 1 0 8 0;
#X connect 2 0 4 0;
#X connect 3 0 6 0;
#X connect 4 0 0 0;
#X connect 4 1 5 0;
#X connect 5 0 1 1;
#X connect 6 0 0 0;
#X connect 6 1 7 0;
#X connect 7 0 1 1;
#X connect 8 0 10 0;
#X connect 9 0 12 0;
#X connect 10 0 11 0;
#X connect 10 1 13 0;
#X connect 11 0 0 1;
#X connect 12 0 19 0;
#X connect 13 0 9 0;
#X connect 13 1 14 0;
#X connect 14 0 0 1;
#X connect 16 0 17 0;
#X connect 17 0 25 0;
#X connect 18 0 17 0;
#X connect 19 0 20 0;
#X connect 20 0 24 0;
#X connect 20 0 21 0;
#X connect 22 0 2 0;
#X connect 23 0 3 0;
#X restore 789 525 pd volume;
#X obj 789 504 sel 40 38;
#X text 689 196 /pitch /velocity /onoff;
#X obj 643 196 r CTRL;
#X obj 643 242 s OSC2;
#N canvas 458 205 443 395 buildOSC 1;
#X obj 239 76 t a b;
#X msg 376 94 [;
#X msg 34 327 ];
#X msg 174 166 /note/velocity \$1;
#X msg 73 147 /note/pitch \$1;
#X msg 239 122 /note/onoff \$1;
#X floatatom 174 121 5 0 0 0 - - -;
#X obj 174 143 int;
#X obj 140 39 unpack f f f;
#X msg 108 297 /note/x \$1 \$2 \$3 \$4 \$5 \$6 \$7 \$8;
#X obj 108 274 pack f f f f f f f f;
#X obj 68 226 r X1;
#X obj 98 226 r X2;
#X obj 128 226 r X3;
#X obj 158 226 r X4;
#X obj 188 226 r X5;
#X obj 218 226 r X6;
#X obj 248 226 r X7;
#X obj 278 226 r X8;
#X obj 53 256 f;
#X obj 34 126 t b b a;
#X obj 174 345 outlet;
#X obj 140 17 inlet;
#X connect 0 0 5 0;
#X connect 0 1 1 0;
#X connect 1 0 21 0;
#X connect 2 0 21 0;
#X connect 3 0 21 0;
#X connect 4 0 21 0;
#X connect 5 0 21 0;
#X connect 6 0 7 0;
#X connect 7 0 3 0;
#X connect 8 0 20 0;
#X connect 8 1 6 0;
#X connect 8 2 0 0;
#X connect 9 0 21 0;
#X connect 10 0 9 0;
#X connect 11 0 19 1;
#X connect 12 0 10 1;
#X connect 13 0 10 2;
#X connect 14 0 10 3;
#X connect 15 0 10 4;
#X connect 16 0 10 5;
#X connect 17 0 10 6;
#X connect 18 0 10 7;
#X connect 19 0 10 0;
#X connect 20 0 2 0;
#X connect 20 1 19 0;
#X connect 20 2 4 0;
#X connect 22 0 8 0;
#X restore 643 219 pd buildOSC;
#X text 723 218 <-- also mix-in /x;
#X obj 642 302 s X1;
#X obj 672 302 s X2;
#X floatatom 638 273 5 0 0 0 - - -;
#X floatatom 678 273 5 0 0 0 - - -;
#X text 726 262 some extra. values! X1 \, X2: 4 digits X3 \, X4: 3
digits X5~ X8: 2 digits;
#X connect 0 0 3 0;
#X connect 2 0 7 1;
#X connect 3 0 11 0;
#X connect 4 0 9 0;
#X connect 5 0 9 1;
#X connect 6 0 9 2;
#X connect 6 0 34 0;
#X connect 7 0 0 0;
#X connect 8 0 7 1;
#X connect 9 0 10 0;
#X connect 11 0 4 0;
#X connect 11 1 5 0;
#X connect 11 2 6 0;
#X connect 11 3 12 0;
#X connect 14 0 13 1;
#X connect 15 0 13 1;
#X connect 22 0 16 0;
#X connect 22 0 37 0;
#X connect 22 1 23 0;
#X connect 23 0 32 0;
#X connect 24 0 13 0;
#X connect 25 0 32 0;
#X connect 26 0 25 0;
#X connect 26 1 31 0;
#X connect 27 0 28 0;
#X connect 28 0 26 0;
#X connect 28 1 41 0;
#X connect 28 2 22 0;
#X connect 30 0 32 0;
#X connect 31 0 32 0;
#X connect 33 0 24 0;
#X connect 35 0 34 0;
#X connect 36 0 57 0;
#X connect 37 0 32 0;
#X connect 38 0 30 0;
#X connect 39 0 40 0;
#X connect 40 0 38 0;
#X connect 41 0 38 0;
#X connect 43 0 42 0;
#X connect 46 0 52 0;
#X connect 50 0 49 0;
#X connect 51 0 7 1;
#X connect 52 0 45 0;
#X connect 53 0 52 1;
#X connect 54 0 48 0;
#X connect 55 0 54 1;
#X connect 56 0 13 1;
#X connect 57 0 44 0;
#X connect 58 0 57 1;
#X connect 59 0 84 0;
#X connect 61 0 60 1;
#X connect 62 0 60 1;
#X connect 63 0 60 0;
#X connect 64 0 60 1;
#X connect 65 0 63 0;
#X connect 66 0 13 1;
#X connect 68 0 78 0;
#X connect 69 0 78 0;
#X connect 70 0 78 0;
#X connect 71 0 78 0;
#X connect 72 0 78 0;
#X connect 73 0 78 0;
#X connect 74 0 78 0;
#X connect 77 0 78 0;
#X connect 79 0 82 0;
#X connect 80 0 79 1;
#X connect 81 0 79 0;
#X connect 83 0 54 0;
#X connect 84 0 38 0;
#X connect 86 0 85 0;
#X connect 91 0 92 0;
#X connect 92 0 95 0;
#X connect 92 2 94 0;
#X connect 94 0 95 1;
#X connect 95 0 100 0;
#X connect 99 0 96 0;
#X connect 100 0 99 0;
#X connect 100 1 99 1;
#X connect 102 0 104 0;
#X connect 104 0 103 0;
#X connect 108 0 106 0;
#X connect 109 0 107 0;
