#N canvas 1 89 1285 589 10;
#X obj 20 126 unpackOSC;
#X obj 107 18 loadbang;
#X msg 147 91 devices;
#X obj 20 147 routeOSC /note;
#X floatatom 20 189 5 0 0 0 - - -;
#X floatatom 77 189 5 0 0 0 - - -;
#X floatatom 135 189 5 0 0 0 - - -;
#X obj 20 105 o.io.slipserial;
#X msg 215 108 close;
#X obj 20 209 pack f f f;
#X obj 20 230 s NOTE;
#X obj 20 168 routeOSC /pitch /velocity /onoff /oncnt;
#X floatatom 193 189 5 0 0 0 - - -;
#X obj 451 140 o.io.slipserial;
#X msg 480 89 devices;
#X msg 567 94 close;
#X obj 1057 228 tgl 15 0 empty empty empty 17 7 0 10 -262144 -1 -1
0 1;
#X text 958 32 NOTE! -->;
#X obj 1021 24 cnv 15 100 60 empty empty empty 20 12 0 14 -261234 -66577
0;
#X msg 1028 47 /note 60 100 1;
#X text 1027 27 well.. if we do like..;
#X text 1027 67 w/o bundling.. why not?;
#X obj 1010 251 t a b;
#X msg 1037 272 [;
#X obj 451 63 packOSC;
#X msg 941 272 ];
#X obj 941 251 t b a;
#X obj 941 203 r NOTE;
#X obj 941 224 unpack f f f;
#X text 987 202 /pitch /velocity /onoff;
#X msg 975 318 /note/velocity \$1;
#X msg 968 339 /note/pitch \$1;
#X obj 902 308 s OSC;
#X obj 451 38 r OSC;
#X obj 86 245 tgl 125 0 empty empty empty 17 7 0 10 -262144 -1 -1 0
1;
#N canvas 0 23 255 233 midi-in 0;
#X obj 17 14 notein 1;
#X floatatom 17 35 5 0 0 0 - - -;
#X floatatom 55 35 5 0 0 0 - - -;
#X obj 55 55 t a a;
#X floatatom 17 113 5 0 0 0 - - -;
#X floatatom 55 113 5 0 0 0 - - -;
#X floatatom 89 113 5 0 0 0 - - -;
#X obj 17 133 pack f f f;
#X obj 17 154 s NOTE;
#X obj 89 76 != 0;
#X obj 89 154 outlet;
#X connect 0 0 1 0;
#X connect 0 1 2 0;
#X connect 1 0 4 0;
#X connect 2 0 3 0;
#X connect 3 0 5 0;
#X connect 3 1 9 0;
#X connect 4 0 7 0;
#X connect 5 0 7 1;
#X connect 6 0 7 2;
#X connect 6 0 10 0;
#X connect 7 0 8 0;
#X connect 9 0 6 0;
#X restore 156 222 pd midi-in;
#X obj 976 104 r NOTE;
#X msg 1010 297 /note/onoff \$1;
#X floatatom 975 272 5 0 0 0 - - -;
#X obj 1090 119 loadbang;
#X msg 1090 144 127;
#X obj 979 246 bng 15 250 50 0 empty empty empty 17 7 0 10 -262144
-1 -1;
#X obj 1129 470 s NOTE;
#X msg 1129 444 68 100 1;
#X obj 976 154 print NOTE;
#X obj 733 252 t a b;
#X msg 760 273 [;
#X msg 664 273 ];
#X obj 664 252 t b a;
#X obj 664 225 unpack f f f;
#X text 710 203 /pitch /velocity /onoff;
#X msg 698 349 /note/velocity \$1;
#X msg 691 370 /note/pitch \$1;
#X msg 733 298 /note/onoff \$1;
#X floatatom 698 273 5 0 0 0 - - -;
#X obj 510 267 print CTRL;
#X obj 510 209 r CTRL;
#X obj 664 203 r CTRL;
#N canvas 328 89 875 805 crickets 0;
#X obj 89 492 pack f f;
#X obj 134 466 tgl 15 0 empty \$0-c-tgl r:0-c-tgl 17 7 0 10 -262144
-1 -1 0 1;
#X obj 92 420 hsl 128 15 50 300 0 0 empty empty empty -2 -8 0 10 -262144
-1 -1 0 1;
#X floatatom 99 440 5 0 0 0 - - -;
#X msg 89 521 120 \$1 \$2;
#X obj 239 492 pack f f;
#X obj 284 466 tgl 15 0 empty \$0-c-tgl r:0-c-tgl 17 7 0 10 -262144
-1 -1 0 1;
#X obj 242 420 hsl 128 15 50 300 0 0 empty empty empty -2 -8 0 10 -262144
-1 -1 0 1;
#X floatatom 249 440 5 0 0 0 - - -;
#X msg 239 521 121 \$1 \$2;
#X obj 747 58 tgl 15 0 empty empty empty 17 7 0 10 -262144 -1 -1 0
1;
#X obj 747 82 t b a;
#X msg 695 69 0;
#X obj 389 492 pack f f;
#X obj 434 466 tgl 15 0 empty \$0-c-tgl r:0-c-tgl 17 7 0 10 -262144
-1 -1 0 1;
#X obj 392 420 hsl 128 15 50 300 0 0 empty empty empty -2 -8 0 10 -262144
-1 -1 0 1;
#X floatatom 399 440 5 0 0 0 - - -;
#X msg 389 521 122 \$1 \$2;
#X obj 539 492 pack f f;
#X obj 584 466 tgl 15 0 empty \$0-c-tgl r:0-c-tgl 17 7 0 10 -262144
-1 -1 0 1;
#X obj 542 420 hsl 128 15 50 300 0 0 empty empty empty -2 -8 0 10 -262144
-1 -1 0 1;
#X floatatom 549 440 5 0 0 0 - - -;
#X msg 539 521 123 \$1 \$2;
#X obj 539 702 pack f f;
#X obj 584 676 tgl 15 0 empty \$0-c-tgl r:0-c-tgl 17 7 0 10 -262144
-1 -1 0 1;
#X obj 542 630 hsl 128 15 0 255 0 0 empty empty empty -2 -8 0 10 -262144
-1 -1 0 1;
#X obj 539 763 s CTRL;
#X floatatom 549 650 5 0 0 0 - - -;
#X msg 539 731 127 \$1 \$2;
#X text 605 598 fishing-fly;
#X obj 689 492 pack f f;
#X obj 734 466 tgl 15 0 empty \$0-c-tgl r:0-c-tgl 17 7 0 10 -262144
-1 -1 0 1;
#X obj 692 420 hsl 128 15 50 300 0 0 empty empty empty -2 -8 0 10 -262144
-1 -1 0 1;
#X obj 689 553 s CTRL;
#X floatatom 699 440 5 0 0 0 - - -;
#X obj 271 709 metro 1000;
#X obj 271 687 tgl 15 0 empty empty empty 17 7 0 10 -262144 -1 -1 0
1;
#X text 270 657 auto play;
#X msg 134 711 100 100 1;
#X msg 136 766 101 100 1;
#X text 145 690 gastank;
#X text 140 741 float;
#X msg 313 637 0;
#X msg 355 659 1000;
#X obj 704 705 metro 1000;
#X obj 704 683 tgl 15 0 empty empty empty 17 7 0 10 -262144 -1 -1 0
1;
#X floatatom 783 690 5 0 0 0 - - -;
#X text 703 653 auto play;
#X msg 746 633 0;
#X msg 788 655 1000;
#X msg 704 727 101 127 1;
#X msg 271 731 100 127 1;
#X msg 350 630 500;
#X msg 386 628 2000;
#X msg 374 604 300;
#X msg 404 584 3000;
#X obj 271 755 s CTRL;
#X obj 704 751 s CTRL;
#X text 717 23 cricket drummers;
#X obj 784 111 tgl 15 0 \$0-c-tgl empty s:0-c-tgl 17 7 0 10 -262144
-1 -1 0 1;
#X floatatom 539 389 5 0 0 0 r:0-c-sld #0-c-sld -;
#X floatatom 389 389 5 0 0 0 r:0-c-sld #0-c-sld -;
#X floatatom 239 389 5 0 0 0 r:0-c-sld #0-c-sld -;
#X floatatom 89 389 5 0 0 0 r:0-c-sld #0-c-sld -;
#X floatatom 689 389 5 0 0 0 r:0-c-sld #0-c-sld -;
#X floatatom 747 111 5 0 0 0 s:0-c-sld - #0-c-sld;
#X floatatom 539 599 5 0 0 0 r:0-c-sld #0-c-sld -;
#X obj 20 50 arduino;
#X msg 147 51 devices;
#X msg 215 68 close;
#X msg 20 12 devicename /dev/tty.HC-06-DevB \, baud 57600 \, pollintervall
1 \, verbose 1;
#X obj 20 71 route analog;
#X obj 20 92 route 0 1 2 3 4 5;
#X floatatom 20 113 5 0 0 0 - - -;
#X floatatom 120 133 5 0 0 0 - - -;
#X floatatom 220 153 5 0 0 0 - - -;
#X floatatom 320 113 5 0 0 0 - - -;
#X floatatom 605 74 5 0 0 0 - - -;
#X floatatom 420 153 5 0 0 0 - - -;
#X obj 20 204 * -1;
#X floatatom 20 225 5 0 0 0 - - -;
#X obj 20 183 - 1;
#X obj 120 204 * -1;
#X floatatom 120 225 5 0 0 0 - - -;
#X obj 120 183 - 1;
#X obj 220 204 * -1;
#X floatatom 220 225 5 0 0 0 - - -;
#X obj 220 183 - 1;
#X obj 320 204 * -1;
#X floatatom 320 225 5 0 0 0 - - -;
#X obj 320 183 - 1;
#X obj 605 145 * -1;
#X floatatom 605 166 5 0 0 0 - - -;
#X obj 605 124 - 1;
#X obj 420 204 * -1;
#X floatatom 420 225 5 0 0 0 - - -;
#X obj 420 183 - 1;
#X floatatom 20 287 5 0 0 0 - - -;
#X floatatom 120 287 5 0 0 0 - - -;
#X floatatom 220 287 5 0 0 0 - - -;
#X floatatom 320 287 5 0 0 0 - - -;
#X floatatom 605 228 5 0 0 0 - - -;
#X floatatom 420 287 5 0 0 0 - - -;
#X obj 320 245 * 300;
#X obj 420 245 * 300;
#X text 288 91 broken!! right/bottom;
#X text 35 135 top/right;
#X text 135 153 top/center;
#X text 259 155 top/left;
#X text 341 156 bottom/left;
#X obj 20 266 resample 2000;
#X obj 120 266 resample 2000;
#X obj 220 266 resample 2000;
#X obj 320 266 resample 2000;
#X obj 420 266 resample 2000;
#X obj 605 207 resample 2000;
#X obj 120 307 pipe 1000;
#X obj 220 307 pipe 2000;
#X obj 320 307 pipe 3000;
#X obj 420 307 pipe 4000;
#X obj 20 245 * 100;
#X obj 220 245 * 200;
#X obj 120 245 * 200;
#X floatatom 605 275 5 0 0 0 s:0-vol - #0-vol;
#X obj 605 248 pipe 500;
#X msg 719 521 105 100 1;
#X obj 605 186 * 0;
#X text 22 585 manually send 'play stop' messages;
#X obj 89 553 s CTRL;
#X obj 239 553 s CTRL;
#X obj 389 553 s CTRL;
#X obj 539 553 s CTRL;
#X text 52 537 disconnected for TESTING;
#X text 212 537 disconnected for TESTING;
#X text 372 537 disconnected for TESTING;
#X text 532 537 disconnected for TESTING;
#X text 554 262 disconnected for TESTING;
#X text 489 300 resample always send messages!! --> plz fix / or change
controller will be patched --> no more jittering. i hope. we use only
[change] to limit \, net broadcast then net stability will become better.
i wish.;
#X text 564 142 still there is issue about non-linearity cut off lower
region stretch range etc.;
#X connect 0 0 4 0;
#X connect 1 0 0 1;
#X connect 2 0 0 0;
#X connect 2 0 3 0;
#X connect 5 0 9 0;
#X connect 6 0 5 1;
#X connect 7 0 5 0;
#X connect 7 0 8 0;
#X connect 10 0 11 0;
#X connect 11 0 65 0;
#X connect 11 1 59 0;
#X connect 12 0 10 0;
#X connect 13 0 17 0;
#X connect 14 0 13 1;
#X connect 15 0 13 0;
#X connect 15 0 16 0;
#X connect 18 0 22 0;
#X connect 19 0 18 1;
#X connect 20 0 18 0;
#X connect 20 0 21 0;
#X connect 23 0 28 0;
#X connect 24 0 23 1;
#X connect 25 0 23 0;
#X connect 25 0 27 0;
#X connect 28 0 26 0;
#X connect 31 0 30 1;
#X connect 32 0 30 0;
#X connect 32 0 34 0;
#X connect 35 0 51 0;
#X connect 36 0 35 0;
#X connect 38 0 56 0;
#X connect 39 0 56 0;
#X connect 42 0 35 0;
#X connect 43 0 35 1;
#X connect 44 0 50 0;
#X connect 45 0 44 0;
#X connect 46 0 44 1;
#X connect 48 0 44 0;
#X connect 49 0 44 1;
#X connect 50 0 57 0;
#X connect 51 0 56 0;
#X connect 52 0 35 1;
#X connect 53 0 35 1;
#X connect 54 0 35 1;
#X connect 55 0 35 1;
#X connect 60 0 20 0;
#X connect 61 0 15 0;
#X connect 62 0 7 0;
#X connect 63 0 2 0;
#X connect 64 0 32 0;
#X connect 66 0 25 0;
#X connect 67 0 71 0;
#X connect 68 0 67 0;
#X connect 69 0 67 0;
#X connect 70 0 67 0;
#X connect 71 0 72 0;
#X connect 72 0 73 0;
#X connect 72 1 74 0;
#X connect 72 2 75 0;
#X connect 72 3 76 0;
#X connect 72 4 77 0;
#X connect 72 5 78 0;
#X connect 73 0 81 0;
#X connect 74 0 84 0;
#X connect 75 0 87 0;
#X connect 77 0 93 0;
#X connect 78 0 96 0;
#X connect 79 0 80 0;
#X connect 80 0 120 0;
#X connect 81 0 79 0;
#X connect 82 0 83 0;
#X connect 83 0 122 0;
#X connect 84 0 82 0;
#X connect 85 0 86 0;
#X connect 86 0 121 0;
#X connect 87 0 85 0;
#X connect 88 0 89 0;
#X connect 89 0 103 0;
#X connect 90 0 88 0;
#X connect 91 0 92 0;
#X connect 92 0 126 0;
#X connect 93 0 91 0;
#X connect 94 0 95 0;
#X connect 95 0 104 0;
#X connect 96 0 94 0;
#X connect 97 0 2 0;
#X connect 98 0 116 0;
#X connect 99 0 117 0;
#X connect 101 0 124 0;
#X connect 102 0 119 0;
#X connect 103 0 113 0;
#X connect 104 0 114 0;
#X connect 110 0 97 0;
#X connect 111 0 98 0;
#X connect 112 0 99 0;
#X connect 113 0 100 0;
#X connect 114 0 102 0;
#X connect 115 0 101 0;
#X connect 116 0 7 0;
#X connect 117 0 15 0;
#X connect 119 0 20 0;
#X connect 120 0 110 0;
#X connect 121 0 112 0;
#X connect 122 0 111 0;
#X connect 125 0 33 0;
#X connect 126 0 115 0;
#X restore 292 299 pd crickets ctrl;
#X obj 896 154 print OSC;
#X obj 698 295 int;
#X obj 1207 92 s NOTE;
#X msg 1207 66 62 100 1;
#X msg 20 52 devicename /dev/tty.HC-06-DevB-1 \, baud 57600 \, pollintervall
1 \, verbose 1;
#X obj 510 230 spigot;
#X obj 559 215 tgl 15 0 empty empty empty 17 7 0 10 -262144 -1 -1 0
1;
#X obj 896 127 spigot;
#X obj 945 112 tgl 15 0 empty empty empty 17 7 0 10 -262144 -1 -1 0
1;
#X msg 558 52 devicename /dev/tty.usbmodem48710501 \, baud 57600 \,
pollintervall 1 \, verbose 1;
#X obj 976 127 spigot;
#X obj 1025 112 tgl 15 0 empty empty empty 17 7 0 10 -262144 -1 -1
0 1;
#X floatatom 1135 232 5 0 0 0 r:0-vol #0-vol -;
#X obj 238 516 o.io.slipserial;
#X msg 267 465 devices;
#X msg 344 470 close;
#X obj 238 439 packOSC;
#X msg 325 428 devicename /dev/tty.usbmodem32177401 \, baud 57600 \,
pollintervall 1 \, verbose 1;
#X obj 238 414 r OSC2;
#X obj 625 309 s OSC2;
#X msg 538 12 devicename /dev/portD \, baud 57600 \, pollintervall
1 \, verbose 1;
#X text 1180 167 vol. override;
#X msg 1208 321 0;
#X msg 1208 300 10;
#X msg 1208 279 25;
#X msg 1208 258 50;
#X msg 1208 217 255;
#X msg 1208 197 500;
#X msg 1208 237 127;
#X text 1233 197 BIG;
#X text 1234 321 SMALL;
#X msg 1208 146 180;
#X floatatom 1168 343 5 0 0 0 s:0-vol - #0-vol;
#X obj 430 230 spigot;
#X obj 479 215 tgl 15 0 empty empty empty 17 7 0 10 -262144 -1 -1 0
1;
#X obj 430 209 r OSC2;
#X obj 430 267 print OSC2;
#X obj 896 104 r OSC;
#X msg 1135 254 set \$1;
#X obj 1199 470 s NOTE;
#X msg 1199 444 68 100 0;
#X text 943 370 vol. control knob 'on' the keyboard is needed. instead
of get/set it by other devivce this is quite messy!;
#N canvas 328 89 875 805 crickets 0;
#X obj 89 492 pack f f;
#X obj 134 466 tgl 15 0 empty \$0-c-tgl r:0-c-tgl 17 7 0 10 -262144
-1 -1 0 1;
#X obj 92 420 hsl 128 15 50 300 0 0 empty empty empty -2 -8 0 10 -262144
-1 -1 0 1;
#X floatatom 99 440 5 0 0 0 - - -;
#X msg 89 521 120 \$1 \$2;
#X obj 239 492 pack f f;
#X obj 284 466 tgl 15 0 empty \$0-c-tgl r:0-c-tgl 17 7 0 10 -262144
-1 -1 0 1;
#X obj 242 420 hsl 128 15 50 300 0 0 empty empty empty -2 -8 0 10 -262144
-1 -1 0 1;
#X floatatom 249 440 5 0 0 0 - - -;
#X msg 239 521 121 \$1 \$2;
#X obj 747 58 tgl 15 0 empty empty empty 17 7 0 10 -262144 -1 -1 0
1;
#X obj 747 82 t b a;
#X msg 695 69 0;
#X obj 389 492 pack f f;
#X obj 434 466 tgl 15 0 empty \$0-c-tgl r:0-c-tgl 17 7 0 10 -262144
-1 -1 0 1;
#X obj 392 420 hsl 128 15 50 300 0 0 empty empty empty -2 -8 0 10 -262144
-1 -1 0 1;
#X floatatom 399 440 5 0 0 0 - - -;
#X msg 389 521 122 \$1 \$2;
#X obj 539 492 pack f f;
#X obj 584 466 tgl 15 0 empty \$0-c-tgl r:0-c-tgl 17 7 0 10 -262144
-1 -1 0 1;
#X obj 542 420 hsl 128 15 50 300 0 0 empty empty empty -2 -8 0 10 -262144
-1 -1 0 1;
#X floatatom 549 440 5 0 0 0 - - -;
#X msg 539 521 123 \$1 \$2;
#X obj 539 702 pack f f;
#X obj 584 676 tgl 15 0 empty \$0-c-tgl r:0-c-tgl 17 7 0 10 -262144
-1 -1 0 1;
#X obj 542 630 hsl 128 15 0 255 0 0 empty empty empty -2 -8 0 10 -262144
-1 -1 0 1;
#X obj 539 763 s CTRL;
#X floatatom 549 650 5 0 0 0 - - -;
#X msg 539 731 127 \$1 \$2;
#X text 605 598 fishing-fly;
#X obj 689 492 pack f f;
#X obj 734 466 tgl 15 0 empty \$0-c-tgl r:0-c-tgl 17 7 0 10 -262144
-1 -1 0 1;
#X obj 692 420 hsl 128 15 50 300 0 0 empty empty empty -2 -8 0 10 -262144
-1 -1 0 1;
#X obj 689 553 s CTRL;
#X floatatom 699 440 5 0 0 0 - - -;
#X obj 271 709 metro 1000;
#X obj 271 687 tgl 15 0 empty empty empty 17 7 0 10 -262144 -1 -1 0
1;
#X text 270 657 auto play;
#X msg 134 711 100 100 1;
#X msg 136 766 101 100 1;
#X text 145 690 gastank;
#X text 140 741 float;
#X msg 313 637 0;
#X msg 355 659 1000;
#X obj 704 705 metro 1000;
#X obj 704 683 tgl 15 0 empty empty empty 17 7 0 10 -262144 -1 -1 0
1;
#X floatatom 783 690 5 0 0 0 - - -;
#X text 703 653 auto play;
#X msg 746 633 0;
#X msg 788 655 1000;
#X msg 704 727 101 127 1;
#X msg 271 731 100 127 1;
#X msg 350 630 500;
#X msg 386 628 2000;
#X msg 374 604 300;
#X msg 404 584 3000;
#X obj 271 755 s CTRL;
#X obj 704 751 s CTRL;
#X text 717 23 cricket drummers;
#X obj 784 111 tgl 15 0 \$0-c-tgl empty s:0-c-tgl 17 7 0 10 -262144
-1 -1 0 1;
#X floatatom 539 389 5 0 0 0 r:0-c-sld #0-c-sld -;
#X floatatom 389 389 5 0 0 0 r:0-c-sld #0-c-sld -;
#X floatatom 239 389 5 0 0 0 r:0-c-sld #0-c-sld -;
#X floatatom 89 389 5 0 0 0 r:0-c-sld #0-c-sld -;
#X floatatom 689 389 5 0 0 0 r:0-c-sld #0-c-sld -;
#X floatatom 747 111 5 0 0 0 s:0-c-sld - #0-c-sld;
#X floatatom 539 599 5 0 0 0 r:0-c-sld #0-c-sld -;
#X obj 20 50 arduino;
#X msg 147 51 devices;
#X msg 215 68 close;
#X msg 20 12 devicename /dev/tty.HC-06-DevB \, baud 57600 \, pollintervall
1 \, verbose 1;
#X obj 20 71 route analog;
#X obj 20 92 route 0 1 2 3 4 5;
#X floatatom 20 113 5 0 0 0 - - -;
#X floatatom 120 133 5 0 0 0 - - -;
#X floatatom 220 153 5 0 0 0 - - -;
#X floatatom 320 113 5 0 0 0 - - -;
#X floatatom 605 74 5 0 0 0 - - -;
#X floatatom 420 153 5 0 0 0 - - -;
#X obj 20 204 * -1;
#X floatatom 20 225 5 0 0 0 - - -;
#X obj 20 183 - 1;
#X obj 120 204 * -1;
#X floatatom 120 225 5 0 0 0 - - -;
#X obj 120 183 - 1;
#X obj 220 204 * -1;
#X floatatom 220 225 5 0 0 0 - - -;
#X obj 220 183 - 1;
#X obj 320 204 * -1;
#X floatatom 320 225 5 0 0 0 - - -;
#X obj 320 183 - 1;
#X obj 605 145 * -1;
#X floatatom 605 166 5 0 0 0 - - -;
#X obj 605 124 - 1;
#X obj 420 204 * -1;
#X floatatom 420 225 5 0 0 0 - - -;
#X obj 420 183 - 1;
#X floatatom 20 287 5 0 0 0 - - -;
#X floatatom 120 287 5 0 0 0 - - -;
#X floatatom 220 287 5 0 0 0 - - -;
#X floatatom 320 287 5 0 0 0 - - -;
#X floatatom 605 228 5 0 0 0 - - -;
#X floatatom 420 287 5 0 0 0 - - -;
#X obj 320 245 * 300;
#X obj 420 245 * 300;
#X text 288 91 broken!! right/bottom;
#X text 35 135 top/right;
#X text 135 153 top/center;
#X text 259 155 top/left;
#X text 341 156 bottom/left;
#X obj 20 245 * 100;
#X obj 220 245 * 200;
#X obj 120 245 * 200;
#X floatatom 605 275 5 0 0 0 s:0-vol - #0-vol;
#X msg 719 521 105 100 1;
#X obj 605 186 * 0;
#X text 22 585 manually send 'play stop' messages;
#X obj 89 553 s CTRL;
#X obj 239 553 s CTRL;
#X obj 389 553 s CTRL;
#X obj 539 553 s CTRL;
#X text 52 537 disconnected for TESTING;
#X text 212 537 disconnected for TESTING;
#X text 372 537 disconnected for TESTING;
#X text 532 537 disconnected for TESTING;
#X text 489 300 resample always send messages!! --> plz fix / or change
controller will be patched --> no more jittering. i hope. we use only
[change] to limit \, net broadcast then net stability will become better.
i wish.;
#X text 564 142 still there is issue about non-linearity cut off lower
region stretch range etc.;
#X connect 0 0 4 0;
#X connect 1 0 0 1;
#X connect 2 0 0 0;
#X connect 2 0 3 0;
#X connect 5 0 9 0;
#X connect 6 0 5 1;
#X connect 7 0 5 0;
#X connect 7 0 8 0;
#X connect 10 0 11 0;
#X connect 11 0 65 0;
#X connect 11 1 59 0;
#X connect 12 0 10 0;
#X connect 13 0 17 0;
#X connect 14 0 13 1;
#X connect 15 0 13 0;
#X connect 15 0 16 0;
#X connect 18 0 22 0;
#X connect 19 0 18 1;
#X connect 20 0 18 0;
#X connect 20 0 21 0;
#X connect 23 0 28 0;
#X connect 24 0 23 1;
#X connect 25 0 23 0;
#X connect 25 0 27 0;
#X connect 28 0 26 0;
#X connect 31 0 30 1;
#X connect 32 0 30 0;
#X connect 32 0 34 0;
#X connect 35 0 51 0;
#X connect 36 0 35 0;
#X connect 38 0 56 0;
#X connect 39 0 56 0;
#X connect 42 0 35 0;
#X connect 43 0 35 1;
#X connect 44 0 50 0;
#X connect 45 0 44 0;
#X connect 46 0 44 1;
#X connect 48 0 44 0;
#X connect 49 0 44 1;
#X connect 50 0 57 0;
#X connect 51 0 56 0;
#X connect 52 0 35 1;
#X connect 53 0 35 1;
#X connect 54 0 35 1;
#X connect 55 0 35 1;
#X connect 60 0 20 0;
#X connect 61 0 15 0;
#X connect 62 0 7 0;
#X connect 63 0 2 0;
#X connect 64 0 32 0;
#X connect 66 0 25 0;
#X connect 67 0 71 0;
#X connect 68 0 67 0;
#X connect 69 0 67 0;
#X connect 70 0 67 0;
#X connect 71 0 72 0;
#X connect 72 0 73 0;
#X connect 72 1 74 0;
#X connect 72 2 75 0;
#X connect 72 3 76 0;
#X connect 72 4 77 0;
#X connect 72 5 78 0;
#X connect 73 0 81 0;
#X connect 74 0 84 0;
#X connect 75 0 87 0;
#X connect 77 0 93 0;
#X connect 78 0 96 0;
#X connect 79 0 80 0;
#X connect 80 0 110 0;
#X connect 81 0 79 0;
#X connect 82 0 83 0;
#X connect 83 0 112 0;
#X connect 84 0 82 0;
#X connect 85 0 86 0;
#X connect 86 0 111 0;
#X connect 87 0 85 0;
#X connect 88 0 89 0;
#X connect 89 0 103 0;
#X connect 90 0 88 0;
#X connect 91 0 92 0;
#X connect 92 0 115 0;
#X connect 93 0 91 0;
#X connect 94 0 95 0;
#X connect 95 0 104 0;
#X connect 96 0 94 0;
#X connect 97 0 2 0;
#X connect 114 0 33 0;
#X restore 320 321 pd crickets new;
#N canvas 81 89 1282 797 crickets 1;
#X obj 89 492 pack f f;
#X obj 134 466 tgl 15 0 empty \$0-c-tgl r:0-c-tgl 17 7 0 10 -262144
-1 -1 0 1;
#X obj 92 420 hsl 128 15 0 300 0 0 empty empty empty -2 -8 0 10 -262144
-1 -1 0 1;
#X floatatom 99 440 5 0 0 0 - - -;
#X msg 89 521 120 \$1 \$2;
#X obj 239 492 pack f f;
#X obj 284 466 tgl 15 0 empty \$0-c-tgl r:0-c-tgl 17 7 0 10 -262144
-1 -1 0 1;
#X obj 242 420 hsl 128 15 0 300 0 0 empty empty empty -2 -8 0 10 -262144
-1 -1 0 1;
#X floatatom 249 440 5 0 0 0 - - -;
#X msg 239 521 121 \$1 \$2;
#X obj 797 65 tgl 15 0 empty empty empty 17 7 0 10 -262144 -1 -1 0
1;
#X obj 797 89 t b a;
#X msg 745 76 0;
#X obj 389 492 pack f f;
#X obj 434 466 tgl 15 0 empty \$0-c-tgl r:0-c-tgl 17 7 0 10 -262144
-1 -1 0 1;
#X obj 392 420 hsl 128 15 0 300 0 0 empty empty empty -2 -8 0 10 -262144
-1 -1 0 1;
#X floatatom 399 440 5 0 0 0 - - -;
#X msg 389 521 122 \$1 \$2;
#X obj 539 492 pack f f;
#X obj 584 466 tgl 15 0 empty \$0-c-tgl r:0-c-tgl 17 7 0 10 -262144
-1 -1 0 1;
#X obj 542 420 hsl 128 15 0 300 0 0 empty empty empty -2 -8 0 10 -262144
-1 -1 0 1;
#X floatatom 549 440 5 0 0 0 - - -;
#X msg 539 521 123 \$1 \$2;
#X obj 539 702 pack f f;
#X obj 584 676 tgl 15 0 empty \$0-c-tgl r:0-c-tgl 17 7 0 10 -262144
-1 -1 0 1;
#X obj 542 630 hsl 128 15 0 255 0 0 empty empty empty -2 -8 0 10 -262144
-1 -1 0 1;
#X obj 539 763 s CTRL;
#X floatatom 549 650 5 0 0 0 - - -;
#X msg 539 731 127 \$1 \$2;
#X text 605 598 fishing-fly;
#X obj 744 326 s CTRL;
#X obj 271 709 metro 1000;
#X obj 271 687 tgl 15 0 empty empty empty 17 7 0 10 -262144 -1 -1 0
1;
#X text 270 657 auto play;
#X msg 134 711 100 100 1;
#X msg 136 766 101 100 1;
#X text 145 690 gastank;
#X text 140 741 float;
#X msg 313 637 0;
#X msg 355 659 1000;
#X obj 704 705 metro 1000;
#X obj 704 683 tgl 15 0 empty empty empty 17 7 0 10 -262144 -1 -1 0
1;
#X floatatom 783 690 5 0 0 0 - - -;
#X text 703 653 auto play;
#X msg 746 633 0;
#X msg 788 655 1000;
#X msg 704 727 101 127 1;
#X msg 271 731 100 127 1;
#X msg 350 630 500;
#X msg 386 628 2000;
#X msg 374 604 300;
#X msg 404 584 3000;
#X obj 271 755 s CTRL;
#X obj 704 751 s CTRL;
#X text 767 30 cricket drummers;
#X obj 834 118 tgl 15 0 \$0-c-tgl empty s:0-c-tgl 17 7 0 10 -262144
-1 -1 0 1;
#X floatatom 539 389 5 0 0 0 r:0-c-sld #0-c-sld -;
#X floatatom 389 389 5 0 0 0 r:0-c-sld #0-c-sld -;
#X floatatom 239 389 5 0 0 0 r:0-c-sld #0-c-sld -;
#X floatatom 89 389 5 0 0 0 r:0-c-sld #0-c-sld -;
#X floatatom 797 118 5 0 0 0 s:0-c-sld - #0-c-sld;
#X floatatom 539 599 5 0 0 0 r:0-c-sld #0-c-sld -;
#X obj 20 50 arduino;
#X msg 147 51 devices;
#X msg 215 68 close;
#X msg 20 12 devicename /dev/tty.HC-06-DevB \, baud 57600 \, pollintervall
1 \, verbose 1;
#X obj 20 71 route analog;
#X obj 20 92 route 0 1 2 3 4 5;
#X floatatom 110 147 5 0 0 3 top/right - -;
#X floatatom 73 167 5 0 0 3 top/center - -;
#X floatatom 33 184 5 0 0 3 top/left - -;
#X floatatom 149 253 5 0 0 3 BROKEN!!_bottom/right - -;
#X floatatom 87 212 5 0 0 3 bottom/center - -;
#X floatatom 33 230 5 0 0 3 bottom/left - -;
#X obj 378 152 * -1;
#X floatatom 378 173 5 0 0 0 - - -;
#X obj 378 131 - 1;
#X floatatom 378 235 5 0 0 0 - - -;
#X floatatom 378 282 5 0 0 0 s:0-vol - #0-vol;
#X msg 744 294 105 100 1;
#X obj 378 193 * 0;
#X text 22 585 manually send 'play stop' messages;
#X obj 89 553 s CTRL;
#X obj 239 553 s CTRL;
#X obj 389 553 s CTRL;
#X obj 539 553 s CTRL;
#X text 337 149 still there is issue about non-linearity cut off lower
region stretch range etc.;
#X floatatom 991 178 5 0 0 0 slider? - -;
#X floatatom 1051 178 5 0 0 0 - - -;
#X obj 1112 178 tgl 15 0 empty empty empty 17 7 0 10 -262144 -1 -1
0 1;
#X obj 1172 178 tgl 15 0 empty empty empty 17 7 0 10 -262144 -1 -1
0 1;
#X obj 1233 178 tgl 15 0 empty empty empty 17 7 0 10 -262144 -1 -1
0 1;
#X floatatom 991 348 5 0 0 0 - - -;
#X floatatom 1051 348 5 0 0 0 - - -;
#X obj 1112 348 tgl 15 0 empty empty empty 17 7 0 10 -262144 -1 -1
0 1;
#X obj 1172 348 tgl 15 0 empty empty empty 17 7 0 10 -262144 -1 -1
0 1;
#X obj 1233 348 tgl 15 0 empty empty empty 17 7 0 10 -262144 -1 -1
0 1;
#X floatatom 991 518 5 0 0 0 - - -;
#X floatatom 1051 518 5 0 0 0 - - -;
#X obj 1112 518 tgl 15 0 empty empty empty 17 7 0 10 -262144 -1 -1
0 1;
#X obj 1172 518 tgl 15 0 empty empty empty 17 7 0 10 -262144 -1 -1
0 1;
#X obj 1233 518 tgl 15 0 empty empty empty 17 7 0 10 -262144 -1 -1
0 1;
#X floatatom 991 688 5 0 0 0 - - -;
#X floatatom 1051 688 5 0 0 0 - - -;
#X obj 1112 688 tgl 15 0 empty empty empty 17 7 0 10 -262144 -1 -1
0 1;
#X obj 1172 688 tgl 15 0 empty empty empty 17 7 0 10 -262144 -1 -1
0 1;
#X obj 1233 688 tgl 15 0 empty empty empty 17 7 0 10 -262144 -1 -1
0 1;
#X obj 991 557 nanokontrol2-channel 4 13 3 13 3 23;
#X obj 991 47 nanokontrol2-channel 1 10 0 10 0 20;
#X obj 991 217 nanokontrol2-channel 2 11 1 11 1 21;
#X obj 991 387 nanokontrol2-channel 3 12 2 12 2 22;
#X obj 729 205 bng 35 250 50 0 empty empty BELL 4 7 0 10 -260097 -262144
-262144;
#X text 669 261 bell hitting angle need to be adjusted!;
#X obj 741 165 sel 1;
#X text 657 355 gastank head hitter support needed..;
#X connect 0 0 4 0;
#X connect 1 0 0 1;
#X connect 2 0 0 0;
#X connect 2 0 3 0;
#X connect 4 0 82 0;
#X connect 5 0 9 0;
#X connect 6 0 5 1;
#X connect 7 0 5 0;
#X connect 7 0 8 0;
#X connect 9 0 83 0;
#X connect 10 0 11 0;
#X connect 11 0 60 0;
#X connect 11 1 55 0;
#X connect 12 0 10 0;
#X connect 13 0 17 0;
#X connect 14 0 13 1;
#X connect 15 0 13 0;
#X connect 15 0 16 0;
#X connect 17 0 84 0;
#X connect 18 0 22 0;
#X connect 19 0 18 1;
#X connect 20 0 18 0;
#X connect 20 0 21 0;
#X connect 22 0 85 0;
#X connect 23 0 28 0;
#X connect 24 0 23 1;
#X connect 25 0 23 0;
#X connect 25 0 27 0;
#X connect 28 0 26 0;
#X connect 31 0 47 0;
#X connect 32 0 31 0;
#X connect 34 0 52 0;
#X connect 35 0 52 0;
#X connect 38 0 31 0;
#X connect 39 0 31 1;
#X connect 40 0 46 0;
#X connect 41 0 40 0;
#X connect 42 0 40 1;
#X connect 44 0 40 0;
#X connect 45 0 40 1;
#X connect 46 0 53 0;
#X connect 47 0 52 0;
#X connect 48 0 31 1;
#X connect 49 0 31 1;
#X connect 50 0 31 1;
#X connect 51 0 31 1;
#X connect 56 0 20 0;
#X connect 57 0 15 0;
#X connect 58 0 7 0;
#X connect 59 0 2 0;
#X connect 61 0 25 0;
#X connect 62 0 66 0;
#X connect 63 0 62 0;
#X connect 64 0 62 0;
#X connect 65 0 62 0;
#X connect 66 0 67 0;
#X connect 67 0 68 0;
#X connect 67 1 69 0;
#X connect 67 2 70 0;
#X connect 67 3 71 0;
#X connect 67 4 72 0;
#X connect 67 5 73 0;
#X connect 72 0 76 0;
#X connect 74 0 75 0;
#X connect 75 0 80 0;
#X connect 76 0 74 0;
#X connect 79 0 30 0;
#X connect 87 0 2 0;
#X connect 89 0 113 0;
#X connect 92 0 7 0;
#X connect 97 0 15 0;
#X connect 102 0 20 0;
#X connect 107 0 102 0;
#X connect 107 1 103 0;
#X connect 107 2 104 0;
#X connect 107 3 105 0;
#X connect 107 4 106 0;
#X connect 108 0 87 0;
#X connect 108 1 88 0;
#X connect 108 2 89 0;
#X connect 108 3 90 0;
#X connect 108 4 91 0;
#X connect 109 0 92 0;
#X connect 109 1 93 0;
#X connect 109 2 94 0;
#X connect 109 3 95 0;
#X connect 109 4 96 0;
#X connect 110 0 97 0;
#X connect 110 1 98 0;
#X connect 110 2 99 0;
#X connect 110 3 100 0;
#X connect 110 4 101 0;
#X connect 111 0 79 0;
#X connect 113 0 111 0;
#X restore 433 353 pd crickets nanokontrol2;
#X connect 0 0 3 0;
#X connect 2 0 7 1;
#X connect 3 0 11 0;
#X connect 4 0 9 0;
#X connect 5 0 9 1;
#X connect 6 0 9 2;
#X connect 6 0 34 0;
#X connect 7 0 0 0;
#X connect 8 0 7 1;
#X connect 9 0 10 0;
#X connect 11 0 4 0;
#X connect 11 1 5 0;
#X connect 11 2 6 0;
#X connect 11 3 12 0;
#X connect 14 0 13 1;
#X connect 15 0 13 1;
#X connect 22 0 16 0;
#X connect 22 0 37 0;
#X connect 22 1 23 0;
#X connect 23 0 32 0;
#X connect 24 0 13 0;
#X connect 25 0 32 0;
#X connect 26 0 25 0;
#X connect 26 1 31 0;
#X connect 27 0 28 0;
#X connect 28 0 26 0;
#X connect 28 1 41 0;
#X connect 28 2 22 0;
#X connect 30 0 32 0;
#X connect 31 0 32 0;
#X connect 33 0 24 0;
#X connect 35 0 34 0;
#X connect 36 0 69 0;
#X connect 37 0 32 0;
#X connect 38 0 30 0;
#X connect 39 0 40 0;
#X connect 40 0 38 0;
#X connect 41 0 38 0;
#X connect 43 0 42 0;
#X connect 45 0 53 0;
#X connect 45 1 46 0;
#X connect 46 0 78 0;
#X connect 47 0 78 0;
#X connect 48 0 47 0;
#X connect 48 1 52 0;
#X connect 49 0 48 0;
#X connect 49 1 54 0;
#X connect 49 2 45 0;
#X connect 51 0 78 0;
#X connect 52 0 78 0;
#X connect 53 0 78 0;
#X connect 54 0 60 0;
#X connect 56 0 64 0;
#X connect 57 0 49 0;
#X connect 60 0 51 0;
#X connect 62 0 61 0;
#X connect 63 0 7 1;
#X connect 64 0 55 0;
#X connect 65 0 64 1;
#X connect 66 0 59 0;
#X connect 67 0 66 1;
#X connect 68 0 13 1;
#X connect 69 0 44 0;
#X connect 70 0 69 1;
#X connect 71 0 97 0;
#X connect 73 0 72 1;
#X connect 74 0 72 1;
#X connect 75 0 72 0;
#X connect 76 0 72 1;
#X connect 77 0 75 0;
#X connect 79 0 13 1;
#X connect 81 0 91 0;
#X connect 82 0 91 0;
#X connect 83 0 91 0;
#X connect 84 0 91 0;
#X connect 85 0 91 0;
#X connect 86 0 91 0;
#X connect 87 0 91 0;
#X connect 90 0 91 0;
#X connect 92 0 95 0;
#X connect 93 0 92 1;
#X connect 94 0 92 0;
#X connect 96 0 66 0;
#X connect 97 0 38 0;
#X connect 99 0 98 0;
