#N canvas 89 89 1285 513 10;
#X obj 20 126 unpackOSC;
#X obj 107 18 loadbang;
#X msg 147 91 devices;
#X obj 20 147 routeOSC /note;
#X floatatom 20 189 5 0 0 0 - - -;
#X floatatom 77 189 5 0 0 0 - - -;
#X floatatom 135 189 5 0 0 0 - - -;
#X obj 20 105 o.io.slipserial;
#X msg 20 52 devicename /dev/tty.HC-06-DevB \, baud 57600 \, pollintervall
1 \, verbose 1;
#X msg 215 108 close;
#X obj 20 209 pack f f f;
#X obj 20 230 s NOTE;
#X obj 20 168 routeOSC /pitch /velocity /onoff /oncnt;
#X floatatom 193 189 5 0 0 0 - - -;
#X obj 451 140 o.io.slipserial;
#X msg 480 89 devices;
#X msg 557 94 close;
#X obj 1057 228 tgl 15 0 empty empty empty 17 7 0 10 -262144 -1 -1
1 1;
#X text 976 384 NOTE! -->;
#X obj 1039 376 cnv 15 100 60 empty empty empty 20 12 0 14 -261234
-66577 0;
#X msg 1046 399 /note 60 100 1;
#X text 1045 379 well.. if we do like..;
#X text 1045 419 w/o bundling.. why not?;
#X obj 1010 251 t a b;
#X msg 1037 272 [;
#X obj 451 63 packOSC;
#X msg 941 272 ];
#X obj 941 251 t b a;
#X obj 941 203 r NOTE;
#X obj 941 224 unpack f f f;
#X text 987 202 /pitch /velocity /onoff;
#X msg 975 318 /note/velocity \$1;
#X msg 968 339 /note/pitch \$1;
#X obj 902 308 s OSC;
#X obj 451 38 r OSC;
#X obj 86 245 tgl 125 0 empty empty empty 17 7 0 10 -262144 -1 -1 0
1;
#N canvas 0 23 255 233 midi-in 0;
#X obj 17 14 notein 1;
#X floatatom 17 35 5 0 0 0 - - -;
#X floatatom 55 35 5 0 0 0 - - -;
#X obj 55 55 t a a;
#X floatatom 17 113 5 0 0 0 - - -;
#X floatatom 55 113 5 0 0 0 - - -;
#X floatatom 89 113 5 0 0 0 - - -;
#X obj 17 133 pack f f f;
#X obj 17 154 s NOTE;
#X obj 89 76 != 0;
#X obj 89 154 outlet;
#X connect 0 0 1 0;
#X connect 0 1 2 0;
#X connect 1 0 4 0;
#X connect 2 0 3 0;
#X connect 3 0 5 0;
#X connect 3 1 9 0;
#X connect 4 0 7 0;
#X connect 5 0 7 1;
#X connect 6 0 7 2;
#X connect 6 0 10 0;
#X connect 7 0 8 0;
#X connect 9 0 6 0;
#X restore 156 222 pd midi-in;
#X obj 941 135 r NOTE;
#X msg 1010 297 /note/onoff \$1;
#X floatatom 975 272 5 0 0 0 - - -;
#X obj 1090 119 loadbang;
#X msg 1090 144 127;
#X text 1147 167 vol. override;
#X obj 979 246 bng 15 250 50 0 empty empty empty 17 7 0 10 -262144
-1 -1;
#X msg 1172 321 0;
#X msg 1172 300 10;
#X msg 1172 279 25;
#X msg 1172 258 50;
#X msg 1172 217 255;
#X msg 1172 197 500;
#X msg 1172 237 127;
#X text 1197 197 BIG;
#X text 1198 321 SMALL;
#X msg 1175 146 180;
#X obj 1107 72 s NOTE;
#X msg 1107 46 68 100 1;
#X obj 941 163 print NOTE;
#X obj 733 252 t a b;
#X msg 760 273 [;
#X msg 664 273 ];
#X obj 664 252 t b a;
#X obj 664 225 unpack f f f;
#X text 710 203 /pitch /velocity /onoff;
#X msg 698 349 /note/velocity \$1;
#X msg 691 370 /note/pitch \$1;
#X obj 625 309 s OSC;
#X msg 733 298 /note/onoff \$1;
#X floatatom 698 273 5 0 0 0 - - -;
#X obj 664 163 print CTRL;
#X obj 664 135 r CTRL;
#X obj 664 203 r CTRL;
#N canvas 423 89 853 810 crickets 1;
#X obj 89 292 pack f f;
#X obj 134 266 tgl 15 0 empty \$0-c-tgl r:0-c-tgl 17 7 0 10 -262144
-1 -1 0 1;
#X obj 92 220 hsl 128 15 50 300 0 0 empty empty empty -2 -8 0 10 -262144
-1 -1 0 1;
#X obj 89 353 s CTRL;
#X floatatom 99 240 5 0 0 0 - - -;
#X msg 89 321 120 \$1 \$2;
#X obj 239 292 pack f f;
#X obj 284 266 tgl 15 0 empty \$0-c-tgl r:0-c-tgl 17 7 0 10 -262144
-1 -1 0 1;
#X obj 242 220 hsl 128 15 50 300 0 0 empty empty empty -2 -8 0 10 -262144
-1 -1 0 1;
#X obj 239 353 s CTRL;
#X floatatom 249 240 5 0 0 0 - - -;
#X msg 239 321 121 \$1 \$2;
#X obj 371 56 tgl 15 0 empty empty empty 17 7 0 10 -262144 -1 -1 0
1;
#X obj 371 80 t b a;
#X msg 319 67 0;
#X obj 389 292 pack f f;
#X obj 434 266 tgl 15 0 empty \$0-c-tgl r:0-c-tgl 17 7 0 10 -262144
-1 -1 0 1;
#X obj 392 220 hsl 128 15 50 300 0 0 empty empty empty -2 -8 0 10 -262144
-1 -1 2500 1;
#X obj 389 353 s CTRL;
#X floatatom 399 240 5 0 0 0 - - -;
#X msg 389 321 122 \$1 \$2;
#X obj 539 292 pack f f;
#X obj 584 266 tgl 15 0 empty \$0-c-tgl r:0-c-tgl 17 7 0 10 -262144
-1 -1 0 1;
#X obj 542 220 hsl 128 15 50 300 0 0 empty empty empty -2 -8 0 10 -262144
-1 -1 900 1;
#X obj 539 353 s CTRL;
#X floatatom 549 240 5 0 0 0 - - -;
#X msg 539 321 123 \$1 \$2;
#X obj 539 502 pack f f;
#X obj 584 476 tgl 15 0 empty \$0-c-tgl r:0-c-tgl 17 7 0 10 -262144
-1 -1 0 1;
#X obj 542 430 hsl 128 15 0 255 0 0 empty empty empty -2 -8 0 10 -262144
-1 -1 0 1;
#X obj 539 563 s CTRL;
#X floatatom 549 450 5 0 0 0 - - -;
#X msg 539 531 127 \$1 \$2;
#X text 605 398 fishing-fly;
#X obj 689 292 pack f f;
#X obj 734 266 tgl 15 0 empty \$0-c-tgl r:0-c-tgl 17 7 0 10 -262144
-1 -1 0 1;
#X obj 692 220 hsl 128 15 50 300 0 0 empty empty empty -2 -8 0 10 -262144
-1 -1 0 1;
#X obj 689 353 s CTRL;
#X floatatom 699 240 5 0 0 0 - - -;
#X msg 689 321 105 \$1 \$2;
#X obj 299 635 metro 1000;
#X obj 299 613 tgl 15 0 empty empty empty 17 7 0 10 -262144 -1 -1 0
1;
#X text 298 583 auto play;
#X msg 162 637 100 100 1;
#X msg 164 692 101 100 1;
#X text 173 616 gastank;
#X text 168 667 float;
#X msg 341 563 0;
#X msg 383 585 1000;
#X obj 175 492 metro 1000;
#X obj 175 470 tgl 15 0 empty empty empty 17 7 0 10 -262144 -1 -1 0
1;
#X floatatom 254 477 5 0 0 0 - - -;
#X text 174 440 auto play;
#X msg 217 420 0;
#X msg 259 442 1000;
#X msg 175 514 101 127 1;
#X msg 299 657 100 127 1;
#X msg 378 556 500;
#X msg 414 554 2000;
#X msg 402 530 300;
#X msg 432 510 3000;
#X obj 299 681 s CTRL;
#X obj 175 538 s CTRL;
#X text 150 58 cricket drummers;
#X obj 408 109 tgl 15 0 \$0-c-tgl empty s:0-c-tgl 17 7 0 10 -262144
-1 -1 0 1;
#X floatatom 539 189 5 0 0 0 r:0-c-sld #0-c-sld -;
#X floatatom 389 189 5 0 0 0 r:0-c-sld #0-c-sld -;
#X floatatom 239 189 5 0 0 0 r:0-c-sld #0-c-sld -;
#X floatatom 89 189 5 0 0 0 r:0-c-sld #0-c-sld -;
#X floatatom 689 189 5 0 0 0 r:0-c-sld #0-c-sld -;
#X floatatom 371 109 5 0 0 0 s:0-c-sld - #0-c-sld;
#X floatatom 539 399 5 0 0 0 r:0-c-sld #0-c-sld -;
#X connect 0 0 5 0;
#X connect 1 0 0 1;
#X connect 2 0 0 0;
#X connect 2 0 4 0;
#X connect 5 0 3 0;
#X connect 6 0 11 0;
#X connect 7 0 6 1;
#X connect 8 0 6 0;
#X connect 8 0 10 0;
#X connect 11 0 9 0;
#X connect 12 0 13 0;
#X connect 13 0 70 0;
#X connect 13 1 64 0;
#X connect 14 0 12 0;
#X connect 15 0 20 0;
#X connect 16 0 15 1;
#X connect 17 0 15 0;
#X connect 17 0 19 0;
#X connect 20 0 18 0;
#X connect 21 0 26 0;
#X connect 22 0 21 1;
#X connect 23 0 21 0;
#X connect 23 0 25 0;
#X connect 26 0 24 0;
#X connect 27 0 32 0;
#X connect 28 0 27 1;
#X connect 29 0 27 0;
#X connect 29 0 31 0;
#X connect 32 0 30 0;
#X connect 34 0 39 0;
#X connect 35 0 34 1;
#X connect 36 0 34 0;
#X connect 36 0 38 0;
#X connect 39 0 37 0;
#X connect 40 0 56 0;
#X connect 41 0 40 0;
#X connect 43 0 61 0;
#X connect 44 0 61 0;
#X connect 47 0 40 0;
#X connect 48 0 40 1;
#X connect 49 0 55 0;
#X connect 50 0 49 0;
#X connect 51 0 49 1;
#X connect 53 0 49 0;
#X connect 54 0 49 1;
#X connect 55 0 62 0;
#X connect 56 0 61 0;
#X connect 57 0 40 1;
#X connect 58 0 40 1;
#X connect 59 0 40 1;
#X connect 60 0 40 1;
#X connect 65 0 23 0;
#X connect 66 0 17 0;
#X connect 67 0 8 0;
#X connect 68 0 2 0;
#X connect 69 0 36 0;
#X connect 71 0 29 0;
#X restore 651 467 pd crickets ctrl;
#X obj 382 106 print OSC;
#X obj 698 295 int;
#X msg 538 52 devicename /dev/portD \, baud 57600 \, pollintervall
1 \, verbose 1;
#X obj 1167 72 s NOTE;
#X msg 1167 46 62 100 1;
#X connect 0 0 3 0;
#X connect 2 0 7 1;
#X connect 3 0 12 0;
#X connect 4 0 10 0;
#X connect 5 0 10 1;
#X connect 6 0 10 2;
#X connect 6 0 35 0;
#X connect 7 0 0 0;
#X connect 8 0 7 1;
#X connect 9 0 7 1;
#X connect 10 0 11 0;
#X connect 12 0 4 0;
#X connect 12 1 5 0;
#X connect 12 2 6 0;
#X connect 12 3 13 0;
#X connect 15 0 14 1;
#X connect 16 0 14 1;
#X connect 23 0 17 0;
#X connect 23 0 38 0;
#X connect 23 1 24 0;
#X connect 24 0 33 0;
#X connect 25 0 14 0;
#X connect 26 0 33 0;
#X connect 27 0 26 0;
#X connect 27 1 32 0;
#X connect 28 0 29 0;
#X connect 29 0 27 0;
#X connect 29 1 43 0;
#X connect 29 2 23 0;
#X connect 31 0 33 0;
#X connect 32 0 33 0;
#X connect 34 0 25 0;
#X connect 34 0 72 0;
#X connect 36 0 35 0;
#X connect 37 0 56 0;
#X connect 38 0 33 0;
#X connect 39 0 31 0;
#X connect 40 0 41 0;
#X connect 41 0 39 0;
#X connect 43 0 39 0;
#X connect 44 0 39 0;
#X connect 45 0 39 0;
#X connect 46 0 39 0;
#X connect 47 0 39 0;
#X connect 48 0 39 0;
#X connect 49 0 39 0;
#X connect 50 0 39 0;
#X connect 53 0 39 0;
#X connect 55 0 54 0;
#X connect 57 0 66 0;
#X connect 57 1 58 0;
#X connect 58 0 65 0;
#X connect 59 0 65 0;
#X connect 60 0 59 0;
#X connect 60 1 64 0;
#X connect 61 0 60 0;
#X connect 61 1 67 0;
#X connect 61 2 57 0;
#X connect 63 0 65 0;
#X connect 64 0 65 0;
#X connect 66 0 65 0;
#X connect 67 0 73 0;
#X connect 69 0 68 0;
#X connect 70 0 61 0;
#X connect 73 0 63 0;
#X connect 74 0 14 1;
#X connect 76 0 75 0;
