#N canvas 503 89 623 470 10;
#X obj 328 198 spigot;
#X obj 377 183 tgl 15 0 empty empty empty 17 7 0 10 -262144 -1 -1 0
1;
#X text 11 12 <<<;
#X text 581 12 >>>;
#N canvas 676 408 512 395 buildOSC 0;
#X obj 319 66 t a b;
#X msg 456 84 [;
#X msg 34 327 ];
#X obj 68 236 r X1;
#X obj 98 236 r X2;
#X obj 128 236 r X3;
#X obj 158 236 r X4;
#X obj 53 266 f;
#X obj 34 126 t b b a;
#X obj 254 345 outlet;
#X obj 140 17 inlet;
#X obj 188 236 r PS;
#X obj 88 284 pack f f f f f;
#X msg 319 112 sendtyped /note/onoff f \$1;
#X msg 254 141 sendtyped /note/velocity f \$1;
#X msg 88 307 sendtyped /note/x fffff \$1 \$2 \$3 \$4 \$5;
#X msg 73 199 sendtyped /note/id i \$1;
#X msg 167 170 sendtyped /note/pitch f \$1;
#X obj 140 39 unpack f f f f;
#X connect 0 0 13 0;
#X connect 0 1 1 0;
#X connect 1 0 9 0;
#X connect 2 0 9 0;
#X connect 3 0 7 1;
#X connect 4 0 12 1;
#X connect 5 0 12 2;
#X connect 6 0 12 3;
#X connect 7 0 12 0;
#X connect 8 0 2 0;
#X connect 8 1 7 0;
#X connect 8 2 16 0;
#X connect 10 0 18 0;
#X connect 11 0 12 4;
#X connect 12 0 15 0;
#X connect 13 0 9 0;
#X connect 14 0 9 0;
#X connect 15 0 9 0;
#X connect 16 0 9 0;
#X connect 17 0 9 0;
#X connect 18 0 8 0;
#X connect 18 1 17 0;
#X connect 18 2 14 0;
#X connect 18 3 0 0;
#X restore 418 194 pd buildOSC for all;
#X obj 123 121 o.io.slipserial;
#X msg 249 142 devices;
#X msg 249 165 close;
#X obj 123 80 packOSC;
#X obj 123 55 r OSC;
#X obj 123 144 unpackOSC;
#X obj 123 167 routeOSC /hello;
#X obj 123 190 s HELLO;
#X obj 40 120 print OSC;
#X obj 40 93 spigot;
#X obj 89 58 tgl 15 0 empty empty empty 17 7 0 10 -262144 -1 -1 0 1
;
#X obj 418 217 s OSC;
#X obj 418 155 r NOTE;
#X obj 328 225 print NOTE;
#X text 419 134 /id /pitch /velocity /onoff;
#X text 11 442 <<<;
#X text 581 442 >>>;
#X text 292 283 * sub-patches;
#X floatatom 549 325 5 0 0 0 - - -;
#X obj 549 347 s PS;
#X obj 500 236 tgl 25 0 empty empty hello 32 7 0 15 -159808 -257985
-159808 1 1;
#X obj 549 263 loadbang;
#X msg 549 286 1;
#X obj 500 286 sel 1;
#X obj 40 163 spigot;
#X obj 89 148 tgl 15 0 empty empty empty 17 7 0 10 -262144 -1 -1 0
1;
#X obj 40 190 print HELLO;
#N canvas 521 447 706 244 samplers 0;
#X obj 35 142 spigot;
#X obj 84 127 tgl 15 0 empty empty empty 17 7 0 10 -262144 -1 -1 0
1;
#X text 11 12 <<<;
#X text 671 12 >>>;
#X text 155 34 /pitch /velocity /onoff;
#X obj 59 93 s OSC;
#X obj 365 32 loadbang;
#X text 489 93 BIG;
#X text 327 93 SMALL;
#X obj 365 94 hradio 15 1 0 8 empty empty vol._override 0 -8 0 10 -257985
-1 -1 4;
#X obj 365 117 tabread \$0-volume-list;
#N canvas 763 340 501 420 volume-list 0;
#X msg 146 359 \; \$1-volume-list 0 0 10 25 50 127 180 255 500;
#X obj 146 336 f \$0;
#X obj 146 316 bng 15 250 50 0 empty empty empty 17 7 0 10 -262144
-1 -1;
#X obj 146 276 loadbang;
#N canvas 0 50 450 250 (subpatch) 0;
#X array \$0-volume-list 20 float 3;
#A 0 0 10 25 50 127 180 255 500 0 0 0 0 0 0 0 0 0 0 0 0;
#X coords 0 1000 20 0 200 140 1 0 0;
#X restore 227 181 graph;
#X text 441 311 0;
#X text 445 172 1000;
#X obj 100 169 bng 15 250 50 0 empty empty v+ 17 7 0 10 -262144 -1
-1;
#X obj 31 169 bng 15 250 50 0 empty empty v- 17 7 0 10 -262144 -1 -1
;
#X obj 31 64 unpack f f f;
#X text 127 42 /pitch /velocity /onoff;
#X obj 100 92 tgl 15 0 empty empty empty 17 7 0 10 -262144 -1 -1 0
1;
#X obj 31 107 spigot;
#X text 104 128 keys for volume control: vol+ / vol-;
#X text 45 16 volume control w/ keyboard;
#X obj 31 128 sel 38 40;
#X floatatom 71 288 5 0 0 0 s:0-vol - #0-vol;
#X obj 31 250 tabread \$0-volume-list;
#X floatatom 31 228 5 0 0 0 - - -;
#X obj 31 205 limitcnt 0 7;
#X obj 31 43 r SAMPLER_NOTE;
#X connect 1 0 0 0;
#X connect 2 0 1 0;
#X connect 7 0 19 1;
#X connect 8 0 19 0;
#X connect 9 0 12 0;
#X connect 9 2 11 0;
#X connect 11 0 12 1;
#X connect 12 0 15 0;
#X connect 15 0 8 0;
#X connect 15 1 7 0;
#X connect 17 0 16 0;
#X connect 18 0 17 0;
#X connect 19 0 18 0;
#X connect 20 0 9 0;
#X restore 413 146 pd volume-list;
#X floatatom 365 146 5 0 0 0 s:0-vol - #0-vol;
#X msg 365 55 4;
#X text 11 212 <<<;
#X text 671 212 >>>;
#X floatatom 586 120 5 0 0 3 r:0-vol #0-vol -;
#X obj 546 67 nbx 5 25 -1e+37 1e+37 0 0 empty empty volume-now 0 -12
0 20 -262130 -159808 -159808 127 256;
#X obj 177 110 tgl 15 0 empty empty empty 17 7 0 10 -262144 -1 -1 0
1;
#X floatatom 222 108 5 0 0 0 - - -;
#X obj 177 136 pack f f;
#X msg 177 159 \$2 100 \$1;
#N canvas 113 357 512 395 buildOSC 0;
#X obj 319 76 t a b;
#X msg 456 94 [;
#X msg 34 327 ];
#X obj 140 39 unpack f f f;
#X obj 66 226 r X1;
#X obj 96 226 r X2;
#X obj 126 226 r X3;
#X obj 156 226 r X4;
#X obj 51 256 f;
#X obj 254 345 outlet;
#X obj 140 17 inlet;
#X obj 186 226 r PS;
#X obj 86 274 pack f f f f f;
#X msg 319 122 sendtyped /note/onoff f \$1;
#X msg 85 150 sendtyped /note/pitch f \$1;
#X msg 254 150 sendtyped /note/velocity f \$1;
#X msg 86 297 sendtyped /note/x fffff \$1 \$2 \$3 \$4 \$5;
#X floatatom 174 82 5 0 0 0 - - -;
#X obj 174 62 bng 15 250 50 0 empty empty empty 17 7 0 10 -262144 -1
-1;
#X floatatom 315 19 5 0 0 0 r:0-vol #0-vol -;
#X msg 315 41 set \$1;
#X msg 68 179 sendtyped /note/id i 5000;
#X obj 34 121 t b b b a;
#X connect 0 0 13 0;
#X connect 0 1 1 0;
#X connect 1 0 9 0;
#X connect 2 0 9 0;
#X connect 3 0 22 0;
#X connect 3 1 18 0;
#X connect 3 2 0 0;
#X connect 4 0 8 1;
#X connect 5 0 12 1;
#X connect 6 0 12 2;
#X connect 7 0 12 3;
#X connect 8 0 12 0;
#X connect 10 0 3 0;
#X connect 11 0 12 4;
#X connect 12 0 16 0;
#X connect 13 0 9 0;
#X connect 14 0 9 0;
#X connect 15 0 9 0;
#X connect 16 0 9 0;
#X connect 17 0 15 0;
#X connect 18 0 17 0;
#X connect 19 0 20 0;
#X connect 20 0 17 0;
#X connect 21 0 9 0;
#X connect 22 0 2 0;
#X connect 22 1 8 0;
#X connect 22 2 21 0;
#X connect 22 3 14 0;
#X restore 59 64 pd buildOSC id 5000;
#X text 183 64 id == 5000 FIXED;
#X text 236 130 TESTER;
#X obj 59 35 r SAMPLER_NOTE;
#X obj 35 169 print SAMPLER_NOTE;
#X obj 177 182 s SAMPLER_NOTE;
#X connect 0 0 26 0;
#X connect 1 0 0 1;
#X connect 6 0 13 0;
#X connect 9 0 10 0;
#X connect 10 0 12 0;
#X connect 13 0 9 0;
#X connect 16 0 17 0;
#X connect 18 0 20 0;
#X connect 19 0 20 1;
#X connect 20 0 21 0;
#X connect 21 0 27 0;
#X connect 22 0 5 0;
#X connect 25 0 22 0;
#X connect 25 0 0 0;
#X coords 0 244 1 243 200 200 0;
#X restore 287 370 pd samplers;
#N canvas 1 89 425 447 bt-keyboard 0;
#X obj 20 126 unpackOSC;
#X obj 107 18 loadbang;
#X msg 147 91 devices;
#X obj 20 147 routeOSC /note;
#X floatatom 20 189 5 0 0 0 - - -;
#X floatatom 77 189 5 0 0 0 - - -;
#X floatatom 135 189 5 0 0 0 - - -;
#X obj 20 105 o.io.slipserial;
#X msg 215 108 close;
#X obj 20 209 pack f f f;
#X obj 20 168 routeOSC /pitch /velocity /onoff /oncnt;
#X floatatom 193 189 5 0 0 0 - - -;
#X obj 135 245 tgl 100 0 empty empty empty 17 7 0 10 -262144 -1 -1
0 1;
#N canvas 1 119 255 233 midi-in 0;
#X obj 17 14 notein 1;
#X floatatom 17 35 5 0 0 0 - - -;
#X floatatom 55 35 5 0 0 0 - - -;
#X obj 55 55 t a a;
#X floatatom 17 113 5 0 0 0 - - -;
#X floatatom 55 113 5 0 0 0 - - -;
#X floatatom 89 113 5 0 0 0 - - -;
#X obj 17 133 pack f f f;
#X obj 17 154 s NOTE;
#X obj 89 76 != 0;
#X obj 89 154 outlet;
#X connect 0 0 1 0;
#X connect 0 1 2 0;
#X connect 1 0 4 0;
#X connect 2 0 3 0;
#X connect 3 0 5 0;
#X connect 3 1 9 0;
#X connect 4 0 7 0;
#X connect 5 0 7 1;
#X connect 6 0 7 2;
#X connect 6 0 10 0;
#X connect 7 0 8 0;
#X connect 9 0 6 0;
#X restore 172 223 pd midi-in;
#X msg 20 52 devicename /dev/tty.HC-06-DevB-1 \, baud 57600 \, pollintervall
1 \, verbose 1;
#X text 1 2 <<<;
#X text 401 2 >>>;
#X text 1 422 <<<;
#X text 401 422 >>>;
#X obj 20 230 s SAMPLER_NOTE;
#X floatatom 185 349 8 0 0 0 pitch - -;
#X floatatom 185 369 8 0 0 0 velocity - -;
#X connect 0 0 3 0;
#X connect 2 0 7 1;
#X connect 3 0 10 0;
#X connect 4 0 9 0;
#X connect 4 0 20 0;
#X connect 5 0 9 1;
#X connect 5 0 21 0;
#X connect 6 0 9 2;
#X connect 6 0 12 0;
#X connect 7 0 0 0;
#X connect 8 0 7 1;
#X connect 9 0 19 0;
#X connect 10 0 4 0;
#X connect 10 1 5 0;
#X connect 10 2 6 0;
#X connect 10 3 11 0;
#X connect 13 0 12 0;
#X connect 14 0 7 1;
#X coords 0 -1 1 1 110 170 1 130 220;
#X restore 76 246 pd bt-keyboard;
#X text 109 24 * a wireless "field synth" - based on 'esp now' protocol
;
#N canvas 527 163 766 615 crickets 1;
#N canvas 0 23 450 278 (subpatch) 0;
#X array riff11 10 float 3;
#A 0 0.342857 0.67619 0.371429 0.685714 0.352381 0.638095 0.352381
0.609524 0.333333 0.0285714;
#X coords 0 1 10 0 150 105 1 0 0;
#X restore 382 205 graph;
#N canvas 0 23 450 278 (subpatch) 0;
#X array riff10 50 float 3;
#A 0 0.809524 0.809524 0.819048 0.819048 0.819048 0.809524 0.7 0.695239
0.695239 0.695239 0.695239 0.438095 0.695239 0.690477 0.685715 0.447619
0.680952 0.680952 0.680952 0.680952 0.680952 0.82381 0.82381 0.666666
0.666666 0.671429 0.671429 0.814286 0.814286 0.657142 0.657142 0.657142
0.642856 0.623807 0.623807 0.623807 0.809524 0.361905 0.809524 0.361905
0.714285 0.714285 0.723809 0.761905 0.761905 0.771429 0.771429 0.771429
0.771429 0.800001;
#X coords 0 1 50 0 150 105 1 0 0;
#X restore 222 205 graph;
#X obj 222 337 tgl 20 0 empty empty empty 17 7 0 10 -262130 -1 -1 0
1;
#X obj 335 347 tgl 20 0 empty empty 3001 17 7 0 10 -257985 -1 -1 0
1;
#X obj 222 362 metro 2000;
#X obj 382 337 tgl 20 0 empty empty empty 17 7 0 10 -262130 -1 -1 0
1;
#X obj 495 347 tgl 20 0 empty empty 3001 17 7 0 10 -257985 -1 -1 0
1;
#X obj 382 362 metro 2000;
#X obj 542 337 tgl 20 0 empty empty empty 17 7 0 10 -262130 -1 -1 0
1;
#X obj 655 347 tgl 20 0 empty empty 3001 17 7 0 10 -257985 -1 -1 0
1;
#X obj 275 316 tgl 20 0 empty empty 102 17 7 0 10 -159808 -1 -1 0 1
;
#X obj 502 320 tgl 20 0 empty empty 103 17 7 0 10 -159808 -1 -1 0 1
;
#X obj 222 396 riff riff10 170 3001;
#X obj 382 396 riff riff11 200 3001;
#X text 722 577 >>>;
#N canvas 0 23 450 278 (subpatch) 0;
#X array riff15 30 float 3;
#A 0 0.578571 0.864285 1.39286 0.00952381 0.00952375 0.428571 0.542857
0.878573 0.00952381 0.00952387 1.1 0.12381 0 0 0 0 0 0 0.152381 0.152381
0 0 0 0.495238 0 0.685714 0.514286 0 0.238095 0;
#X coords 0 1 30 0 150 105 1 0 0;
#X restore 542 205 graph;
#X text 630 323 157;
#X obj 542 396 riff riff15 300 3001;
#X obj 542 362 metro 1000;
#X obj 222 501 s NOTE;
#X obj 382 501 s NOTE;
#X obj 542 501 s NOTE;
#X floatatom 322 521 5 0 0 0 - - -;
#X obj 322 543 s X3;
#X floatatom 482 521 5 0 0 0 - - -;
#X obj 482 543 s X3;
#N canvas 460 301 517 427 buoyfly 0;
#N canvas 0 23 450 278 (subpatch) 0;
#X array riff2 50 float 3;
#A 0 0.285714 0.304762 0.328572 0.457144 0.504763 0.514287 0.542858
0.542858 0.533335 0.533335 0.514287 0.495239 0.476191 0.428572 0.380953
0.361905 0.342857 0.333333 0.333333 0.361905 0.4 0.466667 0.466667
0.552382 0.57143 0.580954 0.590478 0.590478 0.580954 0.523811 0.457144
0.409524 0.361905 0.304762 0.27619 0.266666 0.257142 0.180951 0.123808
0.0761888 0.0571411 0.0571411 0.0571411 0.0476172 0.0476172 0.0380933
0.0380933 0.0380937 0.0380937 0.333333;
#X coords 0 1 50 0 150 105 1 0 0;
#X restore 180 84 graph;
#N canvas 0 23 450 278 (subpatch) 0;
#X array riff3 50 float 3;
#A 0 0.295238 0.361905 0.380952 0.380952 0.380952 0.380952 0.390476
0.495237 0.514285 0.571428 0.676191 0.714287 0.752382 0.780954 0.857145
0.904764 0.819049 0.695239 0.580953 0.342857 0.361905 0.352381 0.352381
0.323809 0.295238 0.257142 0.180951 0.171427 0.171427 0.257143 0.304762
0.352382 0.361906 0.380953 0.37143 0.342858 0.295239 0.266667 0.190476
0.161904 0.123809 0.104761 0.0285701 0.0190462 -0.00952387 -0.00952387
-0.00952387 -0.00952387 -0.00952387 -0.00952387;
#X coords 0 1 50 0 150 105 1 0 0;
#X restore 340 84 graph;
#X obj 180 216 tgl 20 0 empty empty empty 17 7 0 10 -262130 -1 -1 0
1;
#X obj 310 244 tgl 20 0 empty empty empty 17 7 0 10 -257985 -1 -1 0
1;
#X obj 180 241 metro 2000;
#X obj 340 216 tgl 20 0 empty empty empty 17 7 0 10 -262130 -1 -1 0
1;
#X obj 470 244 tgl 20 0 empty empty empty 17 7 0 10 -257985 -1 -1 0
1;
#X obj 340 241 metro 2000;
#X obj 180 380 s NOTE;
#X obj 340 380 s NOTE;
#X floatatom 289 383 5 0 0 0 - - -;
#N canvas 0 23 450 278 (subpatch) 0;
#X array riff1 50 float 3;
#A 0 0.2 0.304762 0.333334 0.419049 0.44762 0.504763 0.571431 0.61905
0.666669 0.723812 0.838099 1.14286 0.952385 0.74286 0.666669 0.533335
0.419049 0.380953 0.266667 0.219047 0.171428 0.104761 0.0857133 0.0666667
0.0190476 0.0285714 0.0285714 0.0285714 0.0285714 0.0190476 0.0190476
0.0190476 0.847619 0.847619 0.847619 0.847619 0.847619 0.12381 0.12381
0.12381 0.12381 0.12381 0.828571 0.828571 0.828571 0.828571 0.828571
0.152381 0.152381 0.152381;
#X coords 0 1 50 0 150 105 1 0 0;
#X restore 20 84 graph;
#X obj 20 216 tgl 20 0 empty empty empty 17 7 0 10 -262130 -1 -1 0
1;
#X obj 150 244 tgl 20 0 empty empty empty 17 7 0 10 -257985 -1 -1 0
1;
#X obj 20 241 metro 2000;
#X obj 20 380 s NOTE;
#X text 23 27 * buoy-fly;
#X obj 20 275 riff riff1 800 3051;
#X obj 180 275 riff riff2 800 3052;
#X obj 340 275 riff riff3 200 3053;
#X connect 2 0 4 0;
#X connect 3 0 18 1;
#X connect 4 0 18 0;
#X connect 5 0 7 0;
#X connect 6 0 19 1;
#X connect 7 0 19 0;
#X connect 12 0 14 0;
#X connect 13 0 17 1;
#X connect 14 0 17 0;
#X connect 17 0 15 0;
#X connect 18 0 8 0;
#X connect 18 1 10 0;
#X connect 19 0 9 0;
#X restore 284 93 pd buoyfly;
#N canvas 133 370 368 400 yellow 0;
#N canvas 0 23 450 278 (subpatch) 0;
#X array riff5 50 float 3;
#A 0 0.32381 0.409525 0.361906 0.333334 0.266667 0.219048 0.142857
0.190477 0.342858 0.419049 0.419049 0.314287 0.24762 0.152381 0.0952379
0.200001 0.323811 0.37143 0.361906 0.219048 0.161905 0.895239 0.876191
0.876191 0.876191 0.8 0.8 0.8 0.390477 0.409524 0.419048 0.104762 0.104762
0.114286 0.133334 0.161905 0.180953 0.209524 0.24762 0.304763 0.333335
0.37143 0.409526 0.457145 0.514288 0.54286 0.571431 0.600003 0.628575
0.638099;
#X coords 0 1 50 0 150 105 1 0 0;
#X restore 29 61 graph;
#N canvas 0 23 450 278 (subpatch) 0;
#X array riff6 50 float 3;
#A 0 0.104762 0.104762 0.12381 0.161905 0.190477 0.209524 0.219048
0.200001 0.171429 0.152379 0.161903 0.180951 0.199998 0.266665 0.314285
0.323809 0.371429 0.380953 0.380953 0.380953 0.390476 0.133334 0.133334
0.133334 0.133334 0.142857 0.219048 0.247619 0.266667 0.266667 0.228572
0.2 0.180952 0.123809 0.133333 0.190476 0.228572 0.247619 0.247619
0.219048 0.161905 0.180951 0.190475 0.257142 0.304761 0.352381 0.504764
0.609527 0.66667 0.733337;
#X coords 0 1 50 0 150 105 1 0 0;
#X restore 189 61 graph;
#X obj 29 193 tgl 20 0 empty empty empty 17 7 0 10 -204786 -1 -1 0
1;
#X obj 159 221 tgl 20 0 empty empty empty 17 7 0 10 -4034 -1 -1 0 1
;
#X obj 29 218 metro 2000;
#X obj 189 193 tgl 20 0 empty empty empty 17 7 0 10 -204786 -1 -1 0
1;
#X obj 319 221 tgl 20 0 empty empty empty 17 7 0 10 -4034 -1 -1 0 1
;
#X obj 189 218 metro 2000;
#X text 105 189 yellow1;
#X text 268 187 yellow 2;
#X obj 29 252 riff riff5 600 3020;
#X obj 189 252 riff riff6 1200 3021;
#X obj 29 357 s NOTE;
#X obj 189 357 s NOTE;
#X text 26 15 * yellow;
#X connect 2 0 4 0;
#X connect 3 0 10 1;
#X connect 4 0 10 0;
#X connect 5 0 7 0;
#X connect 6 0 11 1;
#X connect 7 0 11 0;
#X connect 10 0 12 0;
#X connect 11 0 13 0;
#X restore 94 74 pd yellow;
#N canvas 347 346 526 412 blue 0;
#N canvas 0 23 450 278 (subpatch) 0;
#X array riff0 50 float 3;
#A 0 0.371428 0.352381 0.323809 0.295237 0.247618 0.180951 0.142856
0.104762 0.104762 0.104762 0.0952383 0.104762 0.114286 0.142855 0.152379
0.171427 0.209522 0.238094 0.285713 0.333333 0.390476 0.466667 0.552381
0.638095 0.342855 0.238093 0.180949 0.142854 0.142854 0.142854 0.142854
0.142854 0.142854 0.171429 0.219048 0.238096 0.238096 0.219048 0.190476
0.152381 0.152381 0.161905 0.171429 0.238096 0.276191 0.295239 0.276191
0.209524 0.171429 0.390478;
#X coords 0 1 50 0 150 105 1 0 0;
#X restore 27 58 graph;
#X obj 27 190 tgl 20 0 empty empty empty 17 7 0 10 -262130 -1 -1 0
1;
#X obj 157 218 tgl 20 0 empty empty empty 17 7 0 10 -257985 -1 -1 0
1;
#X obj 27 215 metro 2000;
#X obj 27 249 riff riff0 400 3001;
#X obj 27 354 s NOTE;
#N canvas 0 23 450 278 (subpatch) 0;
#X array riff12 30 float 3;
#A 0 0.578571 0.864285 1.39286 0.00952381 0.00952375 0.428571 0.542857
0.878573 0.00952381 0.00952387 1.1 0.12381 0 0 0 0 0 0 0.152381 0.152381
0 0 0 0.495238 0 0.685714 0.514286 0 0.238095 0;
#X coords 0 1 30 0 150 105 1 0 0;
#X restore 187 58 graph;
#N canvas 0 23 450 278 (subpatch) 0;
#X array riff13 10 float 3;
#A 0 0.00952369 1.02858 0.0190476 1.0381 0 1.04763 0 1.05714 0.00952303
0.285711;
#X coords 0 1 10 0 150 105 1 0 0;
#X restore 347 58 graph;
#X obj 187 190 tgl 20 0 empty empty empty 17 7 0 10 -262130 -1 -1 0
1;
#X obj 317 218 tgl 20 0 empty empty empty 17 7 0 10 -257985 -1 -1 0
1;
#X obj 187 215 metro 2000;
#X obj 347 190 tgl 20 0 empty empty empty 17 7 0 10 -262130 -1 -1 0
1;
#X obj 477 218 tgl 20 0 empty empty empty 17 7 0 10 -257985 -1 -1 0
1;
#X obj 347 215 metro 2000;
#X obj 187 249 riff riff12 300 3001;
#X obj 347 249 riff riff13 50 3001;
#X obj 187 354 s NOTE;
#X obj 347 354 s NOTE;
#X text 29 9 * blue drummer;
#X connect 1 0 3 0;
#X connect 2 0 4 1;
#X connect 3 0 4 0;
#X connect 4 0 5 0;
#X connect 8 0 10 0;
#X connect 9 0 14 1;
#X connect 10 0 14 0;
#X connect 11 0 13 0;
#X connect 12 0 15 1;
#X connect 13 0 15 0;
#X connect 14 0 16 0;
#X connect 15 0 17 0;
#X restore 94 103 pd blue drummer;
#N canvas 626 319 377 403 green 0;
#N canvas 0 23 450 278 (subpatch) 0;
#X array riff4 50 float 3;
#A 0 0.133333 0.171428 0.266667 0.295239 0.285715 0.276191 0.266667
0.247619 0.209524 0.180952 0.142857 0.0857136 0.0952386 0.0952386 0.114286
0.209525 0.247621 0.247621 0.161904 0.142856 0.114285 0.114285 0.142856
0.180952 0.238095 0.257143 0.257143 0.257143 0.257143 0.24762 0.295239
0.304763 0.304763 0.304763 0.266667 0.2 0.152381 0.123809 0.123809
0.123809 0.133333 0.2 0.276191 0.304763 0.342858 0.361906 0.37143 0.37143
0.37143 0.304763;
#X coords 0 1 50 0 150 105 1 0 0;
#X restore 26 60 graph;
#N canvas 0 23 450 278 (subpatch) 0;
#X array riff7 50 float 3;
#A 0 0.2 0.228571 0.228571 0.228571 0.228571 0.221429 0.214286 0.207143
0.2 0.178571 0.164286 0.157143 0.142857 0.121428 0.0928566 0.0785708
0.0499989 0.142857 0.185714 0.242857 0.3 0.328572 0.385715 0.42143
0.442859 0.442859 0.400001 0.364287 0.300001 0.278572 0.214286 0.142857
0.164286 0.185714 0.242858 0.264286 0.300001 0.307144 0.342858 0.378573
0.407144 0.435716 0.457145 0.414287 0.37143 0.321429 0.292858 0.242858
0.164286 -0.0928589;
#X coords 0 1 50 0 150 105 1 0 0;
#X restore 186 60 graph;
#X obj 26 192 tgl 20 0 empty empty empty 17 7 0 10 -262130 -1 -1 0
1;
#X obj 26 217 metro 2000;
#X obj 186 192 tgl 20 0 empty empty empty 17 7 0 10 -262130 -1 -1 0
1;
#X obj 186 217 metro 2000;
#X obj 26 356 s NOTE;
#X obj 186 356 s NOTE;
#X obj 156 222 tgl 20 0 empty empty empty 17 7 0 10 -257985 -1 -1 0
1;
#X obj 316 222 tgl 20 0 empty empty empty 17 7 0 10 -257985 -1 -1 0
1;
#X text 24 13 * green suitcase;
#X obj 26 251 riff riff4 400 3011;
#X obj 186 251 riff riff7 400 3012;
#X connect 2 0 3 0;
#X connect 3 0 11 0;
#X connect 4 0 5 0;
#X connect 5 0 12 0;
#X connect 8 0 11 1;
#X connect 9 0 12 1;
#X connect 11 0 6 0;
#X connect 12 0 7 0;
#X restore 94 45 pd green suitcase;
#N canvas 1 89 500 611 pingpong 0;
#N canvas 0 23 450 278 (subpatch) 0;
#X array riff14 10 float 3;
#A 0 20.1904 0 11.9049 5.9524 0 0 14.5238 28.0955 23.0955 3.57126;
#X coords 0 25 10 0 150 105 1 0 0;
#X restore 191 37 graph;
#X obj 191 169 tgl 20 0 empty empty empty 17 7 0 10 -262130 -1 -1 0
1;
#X obj 304 179 tgl 20 0 empty empty 3001 17 7 0 10 -257985 -1 -1 0
1;
#X obj 191 194 metro 200;
#X obj 191 228 riff riff14 1 3001;
#X obj 260 158 tgl 20 0 empty empty pingpong 17 7 0 10 -232576 -1 -1
0 1;
#X obj 97 401 until;
#X msg 33 400 100;
#X obj 97 424 f;
#X obj 130 424 + 1;
#X floatatom 97 471 5 0 0 0 - - -;
#X obj 43 568 tabwrite riff14;
#X obj 97 540 t b a;
#X floatatom 97 516 5 0 0 0 - - -;
#X obj 33 423 t a b;
#X msg 60 452 0;
#X obj 97 493 + 1;
#X msg 43 527 0;
#X obj 191 333 s NOTE;
#X obj 261 562 dac~ 1;
#X obj 261 425 mx~;
#X obj 261 378 >~ 0.01;
#X obj 261 355 phasor~ 2;
#X floatatom 261 333 5 0 0 0 - - -;
#X text 37 372 fill array with a number;
#X text 26 506 with '0';
#X text 125 494 from 1 \, 100 times;
#X obj 328 423 scope~ 136 120 256 3 128 -1 1 0 0 0 0 0 0 0 223 223
223 255 255 255 0 empty;
#X connect 1 0 3 0;
#X connect 2 0 4 1;
#X connect 3 0 4 0;
#X connect 4 0 18 0;
#X connect 4 1 23 0;
#X connect 6 0 8 0;
#X connect 7 0 14 0;
#X connect 8 0 9 0;
#X connect 8 0 10 0;
#X connect 9 0 8 1;
#X connect 10 0 16 0;
#X connect 12 0 17 0;
#X connect 12 1 11 1;
#X connect 13 0 12 0;
#X connect 14 0 6 0;
#X connect 14 1 15 0;
#X connect 15 0 8 0;
#X connect 16 0 13 0;
#X connect 17 0 11 0;
#X connect 20 0 19 0;
#X connect 21 0 20 0;
#X connect 21 0 27 0;
#X connect 22 0 21 0;
#X connect 23 0 22 0;
#X restore 509 55 pd pingpong drummer;
#X text 251 158 gonggong;
#X text 411 162 red funnel;
#X text 608 163 tambourine;
#X text 281 49 gastank;
#X text 422 55 frog;
#X text 580 98 beak;
#N canvas 322 411 1133 383 roundly 0;
#X msg 364 139 \$1 5000;
#X obj 364 162 unpack f f;
#X obj 364 185 s X1;
#X obj 421 185 s X2;
#X obj 54 208 r HELLO;
#X obj 54 254 unpack f f f f;
#X floatatom 54 283 5 0 0 0 - - -;
#X obj 107 311 hsl 1000 15 -50000 50000 0 0 empty empty empty -2 -8
0 10 -260097 -262144 -1 0 1;
#X obj 107 331 hsl 1000 15 -50000 50000 0 0 empty empty empty -2 -8
0 10 -13381 -262144 -1 0 1;
#X obj 164 254 unpack f f f f;
#X floatatom 164 283 5 0 0 0 - - -;
#X floatatom 263 99 5 0 0 0 target_pos - -;
#X obj 107 31 hsl 1000 15 -50000 50000 0 0 empty empty empty -2 -8
0 10 -260097 -262144 -1 49950 1;
#X obj 107 51 hsl 1000 15 -50000 50000 0 0 empty empty empty -2 -8
0 10 -13381 -262144 -1 49950 1;
#X obj 263 121 t b a;
#X msg 714 139 \$1 5000;
#X obj 714 162 unpack f f;
#X obj 714 185 s X1;
#X obj 771 185 s X2;
#X floatatom 613 99 5 0 0 0 target_pos - -;
#X obj 613 121 t b a;
#X obj 16 26 loadbang;
#X msg 16 49 0;
#X obj 104 81 skip 500;
#X obj 358 81 skip 500;
#X obj 263 209 s NOTE;
#X obj 613 209 s NOTE;
#X msg 263 150 20001 0 0 1;
#X msg 613 150 20002 0 0 1;
#X obj 54 231 route 20001 20002;
#X connect 0 0 1 0;
#X connect 1 0 2 0;
#X connect 1 1 3 0;
#X connect 4 0 29 0;
#X connect 5 0 6 0;
#X connect 6 0 7 0;
#X connect 9 0 10 0;
#X connect 10 0 8 0;
#X connect 11 0 14 0;
#X connect 12 0 23 0;
#X connect 13 0 24 0;
#X connect 14 0 27 0;
#X connect 14 1 0 0;
#X connect 15 0 16 0;
#X connect 16 0 17 0;
#X connect 16 1 18 0;
#X connect 19 0 20 0;
#X connect 20 0 28 0;
#X connect 20 1 15 0;
#X connect 21 0 22 0;
#X connect 22 0 12 0;
#X connect 22 0 13 0;
#X connect 23 0 11 0;
#X connect 24 0 19 0;
#X connect 27 0 25 0;
#X connect 28 0 26 0;
#X connect 29 0 5 0;
#X connect 29 1 9 0;
#X restore 428 99 pd roundly;
#X text 722 17 >>>;
#X text 12 17 <<<;
#X text 12 577 <<<;
#N canvas 0 23 450 278 (subpatch) 0;
#X array riff8 12 float 3;
#A 0 0.578571 0.864285 1.39286 0.557143 0.557143 0.885714 1.39286 0.878573
0.535715 0.535715 1.1 0.542857;
#X coords 0 1 12 0 150 105 1 0 0;
#X restore 62 205 graph;
#X obj 62 337 tgl 20 0 empty empty empty 17 7 0 10 -262130 -1 -1 0
1;
#X obj 62 362 metro 2000;
#X obj 62 396 riff riff8 400 3001;
#X obj 62 501 s NOTE;
#X obj 192 367 tgl 20 0 empty empty empty 17 7 0 10 -257985 -1 -1 0
1;
#X connect 2 0 4 0;
#X connect 3 0 12 1;
#X connect 4 0 12 0;
#X connect 5 0 7 0;
#X connect 6 0 13 1;
#X connect 7 0 13 0;
#X connect 8 0 18 0;
#X connect 9 0 17 1;
#X connect 12 0 19 0;
#X connect 12 1 22 0;
#X connect 13 0 20 0;
#X connect 13 1 24 0;
#X connect 17 0 21 0;
#X connect 18 0 17 0;
#X connect 22 0 23 0;
#X connect 24 0 25 0;
#X connect 42 0 43 0;
#X connect 43 0 44 0;
#X connect 44 0 45 0;
#X connect 46 0 44 1;
#X restore 341 325 pd crickets;
#X msg 249 98 devicename /dev/ttyACM0 \, baud 57600 \, pollintervall
1 \, verbose 1;
#X msg 210 58 devicename /dev/tty.usbmodem4871051 \, baud 57600 \,
pollintervall 1 \, verbose 1;
#X msg 500 315 2000;
#X connect 0 0 18 0;
#X connect 1 0 0 1;
#X connect 4 0 16 0;
#X connect 5 0 10 0;
#X connect 6 0 5 1;
#X connect 7 0 5 1;
#X connect 8 0 5 0;
#X connect 9 0 8 0;
#X connect 9 0 14 0;
#X connect 10 0 11 0;
#X connect 11 0 12 0;
#X connect 11 0 29 0;
#X connect 14 0 13 0;
#X connect 15 0 14 1;
#X connect 17 0 0 0;
#X connect 17 0 4 0;
#X connect 23 0 24 0;
#X connect 25 0 28 0;
#X connect 26 0 27 0;
#X connect 27 0 25 0;
#X connect 28 0 38 0;
#X connect 28 1 23 0;
#X connect 29 0 31 0;
#X connect 30 0 29 1;
#X connect 36 0 5 1;
#X connect 37 0 5 1;
#X connect 38 0 23 0;
