#N canvas 89 89 1285 513 10;
#X obj 20 126 unpackOSC;
#X obj 107 18 loadbang;
#X msg 147 91 devices;
#X obj 20 147 routeOSC /note;
#X floatatom 20 189 5 0 0 0 - - -;
#X floatatom 77 189 5 0 0 0 - - -;
#X floatatom 135 189 5 0 0 0 - - -;
#X obj 20 105 o.io.slipserial;
#X msg 20 52 devicename /dev/tty.HC-06-DevB \, baud 57600 \, pollintervall
1 \, verbose 1;
#X msg 215 108 close;
#X obj 20 209 pack f f f;
#X obj 20 230 s NOTE;
#X obj 20 168 routeOSC /pitch /velocity /onoff /oncnt;
#X floatatom 193 189 5 0 0 0 - - -;
#X obj 451 140 o.io.slipserial;
#X msg 480 89 devices;
#X msg 557 94 close;
#X obj 1057 228 tgl 15 0 empty empty empty 17 7 0 10 -262144 -1 -1
1 1;
#X text 976 384 NOTE! -->;
#X obj 1039 376 cnv 15 100 60 empty empty empty 20 12 0 14 -261234
-66577 0;
#X msg 1046 399 /note 60 100 1;
#X text 1045 379 well.. if we do like..;
#X text 1045 419 w/o bundling.. why not?;
#X obj 1010 251 t a b;
#X msg 1037 272 [;
#X obj 451 63 packOSC;
#X msg 941 272 ];
#X obj 941 251 t b a;
#X obj 941 203 r NOTE;
#X obj 941 224 unpack f f f;
#X text 987 202 /pitch /velocity /onoff;
#X msg 975 318 /note/velocity \$1;
#X msg 968 339 /note/pitch \$1;
#X obj 902 308 s OSC;
#X obj 451 38 r OSC;
#X obj 86 245 tgl 125 0 empty empty empty 17 7 0 10 -262144 -1 -1 0
1;
#N canvas 0 23 255 233 midi-in 0;
#X obj 17 14 notein 1;
#X floatatom 17 35 5 0 0 0 - - -;
#X floatatom 55 35 5 0 0 0 - - -;
#X obj 55 55 t a a;
#X floatatom 17 113 5 0 0 0 - - -;
#X floatatom 55 113 5 0 0 0 - - -;
#X floatatom 89 113 5 0 0 0 - - -;
#X obj 17 133 pack f f f;
#X obj 17 154 s NOTE;
#X obj 89 76 != 0;
#X obj 89 154 outlet;
#X connect 0 0 1 0;
#X connect 0 1 2 0;
#X connect 1 0 4 0;
#X connect 2 0 3 0;
#X connect 3 0 5 0;
#X connect 3 1 9 0;
#X connect 4 0 7 0;
#X connect 5 0 7 1;
#X connect 6 0 7 2;
#X connect 6 0 10 0;
#X connect 7 0 8 0;
#X connect 9 0 6 0;
#X restore 156 222 pd midi-in;
#X obj 941 135 r NOTE;
#X msg 1010 297 /note/onoff \$1;
#X obj 418 386 metro 1000;
#X obj 418 364 tgl 15 0 empty empty empty 17 7 0 10 -262144 -1 -1 0
1;
#X text 417 334 auto play;
#X floatatom 975 272 5 0 0 0 - - -;
#X obj 1090 119 loadbang;
#X msg 1090 144 127;
#X text 1147 167 vol. override;
#X obj 979 246 bng 15 250 50 0 empty empty empty 17 7 0 10 -262144
-1 -1;
#X msg 1172 321 0;
#X msg 1172 300 10;
#X msg 1172 279 25;
#X msg 1172 258 50;
#X msg 1172 217 255;
#X msg 1172 197 500;
#X msg 1172 237 127;
#X text 1197 197 BIG;
#X text 1198 321 SMALL;
#X msg 1175 146 180;
#X msg 281 388 100 100 1;
#X msg 283 443 101 100 1;
#X text 292 367 gastank;
#X text 287 418 float;
#X msg 460 314 0;
#X msg 502 336 1000;
#X obj 314 253 metro 1000;
#X obj 314 231 tgl 15 0 empty empty empty 17 7 0 10 -262144 -1 -1 0
1;
#X floatatom 393 238 5 0 0 0 - - -;
#X text 313 201 auto play;
#X msg 356 181 0;
#X msg 398 203 1000;
#X msg 314 275 101 127 1;
#X msg 418 408 100 127 1;
#X msg 497 307 500;
#X msg 533 305 2000;
#X msg 521 281 300;
#X msg 551 261 3000;
#X msg 538 52 devicename /dev/ttyACM0 \, baud 57600 \, pollintervall
1 \, verbose 1;
#X obj 1107 72 s NOTE;
#X msg 1107 46 68 100 1;
#X obj 941 163 print NOTE;
#X obj 733 252 t a b;
#X msg 760 273 [;
#X msg 664 273 ];
#X obj 664 252 t b a;
#X obj 664 225 unpack f f f;
#X text 710 203 /pitch /velocity /onoff;
#X msg 698 349 /note/velocity \$1;
#X msg 691 370 /note/pitch \$1;
#X obj 625 309 s OSC;
#X msg 733 298 /note/onoff \$1;
#X floatatom 698 273 5 0 0 0 - - -;
#X obj 664 163 print CTRL;
#X obj 664 135 r CTRL;
#X obj 664 203 r CTRL;
#X obj 418 432 s CTRL;
#X obj 314 299 s CTRL;
#N canvas 569 297 358 255 crickets 1;
#X msg 31 159 120 \$1 \$2;
#X obj 31 130 pack f f;
#X obj 76 104 tgl 15 0 empty empty empty 17 7 0 10 -262144 -1 -1 0
1;
#X obj 34 58 hsl 128 15 50 300 0 0 empty empty empty -2 -8 0 10 -262144
-1 -1 400 1;
#X floatatom 31 27 5 0 0 0 - - -;
#X obj 31 191 s CTRL;
#X floatatom 31 78 5 0 0 0 - - -;
#X connect 0 0 5 0;
#X connect 1 0 0 0;
#X connect 2 0 1 1;
#X connect 3 0 1 0;
#X connect 3 0 6 0;
#X connect 4 0 3 0;
#X restore 651 467 pd crickets ctrl;
#X obj 382 106 print OSC;
#X obj 698 295 int;
#X connect 0 0 3 0;
#X connect 2 0 7 1;
#X connect 3 0 12 0;
#X connect 4 0 10 0;
#X connect 5 0 10 1;
#X connect 6 0 10 2;
#X connect 6 0 35 0;
#X connect 7 0 0 0;
#X connect 8 0 7 1;
#X connect 9 0 7 1;
#X connect 10 0 11 0;
#X connect 12 0 4 0;
#X connect 12 1 5 0;
#X connect 12 2 6 0;
#X connect 12 3 13 0;
#X connect 15 0 14 1;
#X connect 16 0 14 1;
#X connect 23 0 17 0;
#X connect 23 0 38 0;
#X connect 23 1 24 0;
#X connect 24 0 33 0;
#X connect 25 0 14 0;
#X connect 26 0 33 0;
#X connect 27 0 26 0;
#X connect 27 1 32 0;
#X connect 28 0 29 0;
#X connect 29 0 27 0;
#X connect 29 1 46 0;
#X connect 29 2 23 0;
#X connect 31 0 33 0;
#X connect 32 0 33 0;
#X connect 34 0 25 0;
#X connect 34 0 96 0;
#X connect 36 0 35 0;
#X connect 37 0 78 0;
#X connect 38 0 33 0;
#X connect 39 0 70 0;
#X connect 40 0 39 0;
#X connect 42 0 31 0;
#X connect 43 0 44 0;
#X connect 44 0 42 0;
#X connect 46 0 42 0;
#X connect 47 0 42 0;
#X connect 48 0 42 0;
#X connect 49 0 42 0;
#X connect 50 0 42 0;
#X connect 51 0 42 0;
#X connect 52 0 42 0;
#X connect 53 0 42 0;
#X connect 56 0 42 0;
#X connect 57 0 93 0;
#X connect 58 0 93 0;
#X connect 61 0 39 0;
#X connect 62 0 39 1;
#X connect 63 0 69 0;
#X connect 64 0 63 0;
#X connect 65 0 63 1;
#X connect 67 0 63 0;
#X connect 68 0 63 1;
#X connect 69 0 94 0;
#X connect 70 0 93 0;
#X connect 71 0 39 1;
#X connect 72 0 39 1;
#X connect 73 0 39 1;
#X connect 74 0 39 1;
#X connect 75 0 14 1;
#X connect 77 0 76 0;
#X connect 79 0 88 0;
#X connect 79 1 80 0;
#X connect 80 0 87 0;
#X connect 81 0 87 0;
#X connect 82 0 81 0;
#X connect 82 1 86 0;
#X connect 83 0 82 0;
#X connect 83 1 89 0;
#X connect 83 2 79 0;
#X connect 85 0 87 0;
#X connect 86 0 87 0;
#X connect 88 0 87 0;
#X connect 89 0 97 0;
#X connect 91 0 90 0;
#X connect 92 0 83 0;
#X connect 97 0 85 0;
