#N canvas 240 89 574 378 12;
#X obj 390 43 hradio 15 1 0 5 empty empty sound_select 0 -8 0 10 -262130
-1 -1 4;
#X obj 390 63 hradio 15 1 0 10 empty empty empty 0 -8 0 10 -262130
-1 -1 0;
#X floatatom 438 83 5 0 0 0 - - -;
#X floatatom 390 83 5 0 0 0 - - -;
#X obj 438 107 * 10;
#X obj 390 127 +;
#X floatatom 390 152 5 0 0 0 sampleN - -;
#X obj 41 252 pack f f f;
#X obj 200 43 hradio 15 1 0 3 empty empty speaker_select 0 -8 0 10
-204800 -1 -1 0;
#X obj 200 63 hradio 15 1 0 10 empty empty empty 0 -8 0 10 -204800
-1 -1 1;
#X floatatom 248 83 5 0 0 0 - - -;
#X floatatom 200 83 5 0 0 0 - - -;
#X obj 248 107 * 10;
#X obj 200 127 +;
#X floatatom 200 152 5 0 0 0 speakerID - -;
#X obj 40 64 bng 15 250 50 0 empty empty group_announcement 17 7 0
10 -261234 -1 -1;
#X msg 40 84 0;
#X obj 41 219 tgl 22 0 empty empty start/stop 24 7 0 14 -159808 -1
-1 1 1;
#X msg 41 293 \$3 \$2 127 \$1;
#X obj 41 318 s NOTE;
#N canvas 1 89 450 300 archived 0;
#X obj 134 95 s NOTE;
#X obj 134 31 tgl 15 0 empty empty empty 17 7 0 10 -262144 -1 -1 0
1;
#X msg 134 54 20000 30 127 \$1;
#X obj 284 95 s NOTE;
#X obj 284 31 tgl 15 0 empty empty empty 17 7 0 10 -262144 -1 -1 1
1;
#X msg 284 54 20000 31 127 \$1;
#X obj 134 225 s NOTE;
#X obj 134 161 tgl 15 0 empty empty empty 17 7 0 10 -262144 -1 -1 0
1;
#X obj 284 225 s NOTE;
#X obj 284 161 tgl 15 0 empty empty empty 17 7 0 10 -262144 -1 -1 0
1;
#X msg 134 184 20000 40 127 \$1;
#X msg 284 184 20000 41 127 \$1;
#X obj 31 63 tgl 15 0 empty empty empty 17 7 0 10 -262144 -1 -1 0 1
;
#X obj 38 99 metro 15000;
#X connect 1 0 2 0;
#X connect 2 0 0 0;
#X connect 4 0 5 0;
#X connect 5 0 3 0;
#X connect 7 0 10 0;
#X connect 9 0 11 0;
#X connect 10 0 6 0;
#X connect 11 0 8 0;
#X connect 12 0 13 0;
#X connect 13 0 4 0;
#X restore 318 291 pd archived;
#X obj 159 325 print;
#X obj 200 175 + 20000;
#X obj 41 154 tgl 15 0 empty empty empty 17 7 0 10 -262144 -1 -1 1
1;
#X obj 41 178 metro 15000;
#X connect 0 0 2 0;
#X connect 1 0 3 0;
#X connect 2 0 4 0;
#X connect 3 0 5 0;
#X connect 4 0 5 1;
#X connect 5 0 6 0;
#X connect 6 0 7 1;
#X connect 7 0 18 0;
#X connect 8 0 10 0;
#X connect 9 0 11 0;
#X connect 10 0 12 0;
#X connect 11 0 13 0;
#X connect 12 0 13 1;
#X connect 13 0 14 0;
#X connect 14 0 22 0;
#X connect 15 0 16 0;
#X connect 16 0 14 0;
#X connect 17 0 7 0;
#X connect 18 0 19 0;
#X connect 18 0 21 0;
#X connect 22 0 7 2;
#X connect 23 0 24 0;
#X connect 24 0 17 0;
