#N canvas 503 89 677 602 12;
#N canvas 240 89 701 438 wireless 0;
#X obj 359 305 spigot;
#X obj 408 290 tgl 15 0 empty empty empty 17 7 0 10 -262144 -1 -1 1
1;
#N canvas 676 408 512 395 buildOSC 0;
#X obj 319 66 t a b;
#X msg 456 84 [;
#X msg 34 327 ];
#X obj 68 236 r X1;
#X obj 98 236 r X2;
#X obj 128 236 r X3;
#X obj 158 236 r X4;
#X obj 53 266 f;
#X obj 34 126 t b b a;
#X obj 254 345 outlet;
#X obj 140 17 inlet;
#X obj 188 236 r PS;
#X obj 88 284 pack f f f f f;
#X msg 319 112 sendtyped /note/onoff f \$1;
#X msg 254 141 sendtyped /note/velocity f \$1;
#X msg 88 307 sendtyped /note/x fffff \$1 \$2 \$3 \$4 \$5;
#X msg 73 199 sendtyped /note/id i \$1;
#X msg 167 170 sendtyped /note/pitch f \$1;
#X obj 140 39 unpack f f f f;
#X connect 0 0 13 0;
#X connect 0 1 1 0;
#X connect 1 0 9 0;
#X connect 2 0 9 0;
#X connect 3 0 7 1;
#X connect 4 0 12 1;
#X connect 5 0 12 2;
#X connect 6 0 12 3;
#X connect 7 0 12 0;
#X connect 8 0 2 0;
#X connect 8 1 7 0;
#X connect 8 2 16 0;
#X connect 10 0 18 0;
#X connect 11 0 12 4;
#X connect 12 0 15 0;
#X connect 13 0 9 0;
#X connect 14 0 9 0;
#X connect 15 0 9 0;
#X connect 16 0 9 0;
#X connect 17 0 9 0;
#X connect 18 0 8 0;
#X connect 18 1 17 0;
#X connect 18 2 14 0;
#X connect 18 3 0 0;
#X restore 449 301 pd buildOSC for all;
#X obj 134 258 o.io.slipserial;
#X msg 302 238 devices;
#X msg 236 188 close;
#X obj 134 217 packOSC;
#X obj 134 192 r OSC;
#X obj 134 281 unpackOSC;
#X obj 134 304 routeOSC /hello;
#X obj 134 327 s HELLO;
#X obj 51 257 print OSC;
#X obj 51 230 spigot;
#X obj 100 195 tgl 15 0 empty empty empty 17 7 0 10 -262144 -1 -1 0
1;
#X obj 449 324 s OSC;
#X obj 449 262 r NOTE;
#X obj 359 332 print NOTE;
#X text 450 241 /id /pitch /velocity /onoff;
#X obj 51 300 spigot;
#X obj 100 285 tgl 15 0 empty empty empty 17 7 0 10 -262144 -1 -1 0
1;
#X obj 51 327 print HELLO;
#X text 133 53 * a wireless "field synth" - based on 'esp now' protocol
;
#X obj 254 304 tgl 15 0 empty empty connected? 17 7 0 10 -262144 -1
-1 1 1;
#X obj 213 97 inlet;
#X obj 213 122 sel 1 0;
#X obj 254 324 outlet;
#X msg 213 147 verbose 1 \, devicename /dev/ttyUSB0 \, baud 57600 \,
pollintervall 1;
#X connect 0 0 16 0;
#X connect 1 0 0 1;
#X connect 2 0 14 0;
#X connect 3 0 8 0;
#X connect 3 1 22 0;
#X connect 4 0 3 1;
#X connect 5 0 3 1;
#X connect 6 0 3 0;
#X connect 7 0 6 0;
#X connect 7 0 12 0;
#X connect 8 0 9 0;
#X connect 9 0 10 0;
#X connect 9 0 18 0;
#X connect 12 0 11 0;
#X connect 13 0 12 1;
#X connect 15 0 0 0;
#X connect 15 0 2 0;
#X connect 18 0 20 0;
#X connect 19 0 18 1;
#X connect 22 0 25 0;
#X connect 23 0 24 0;
#X connect 24 0 26 0;
#X connect 24 1 5 0;
#X connect 24 2 3 1;
#X connect 26 0 3 1;
#X restore 578 67 pd wireless;
#N canvas 1 89 997 775 floors 0;
#X msg 356 87 40;
#X floatatom 356 112 5 0 0 0 vol - -;
#N canvas 843 285 450 405 send 0;
#X obj 56 228 metro;
#X obj 44 364 s NOTE;
#X obj 24 273 tgl 15 0 empty empty start/stop 17 7 0 10 -262144 -1
-1 0 1;
#X obj 128 134 tabread length;
#X obj 128 109 - 1;
#X floatatom 128 159 5 0 0 0 - - -;
#X obj 128 208 * 1000;
#X msg 56 253 1;
#X obj 44 313 pack f f f f;
#X obj 128 183 +;
#X obj 91 53 inlet;
#X obj 24 22 inlet;
#X msg 44 338 \$4 \$3 \$2 \$1;
#X text 69 21 1 enable;
#X text 137 50 2 vol;
#X obj 24 47 t a a;
#X floatatom 162 294 5 0 0 1 speakerID - -;
#X msg 162 269 20003;
#X msg 257 274 30;
#X obj 257 249 loadbang;
#X floatatom 257 90 5 0 0 1 sampleN - -;
#X msg 257 65 22;
#X obj 257 40 loadbang;
#X connect 0 0 7 0;
#X connect 2 0 8 0;
#X connect 3 0 5 0;
#X connect 4 0 3 0;
#X connect 5 0 9 0;
#X connect 6 0 0 1;
#X connect 7 0 2 0;
#X connect 8 0 12 0;
#X connect 9 0 6 0;
#X connect 10 0 8 1;
#X connect 11 0 15 0;
#X connect 12 0 1 0;
#X connect 15 0 2 0;
#X connect 15 1 0 0;
#X connect 16 0 8 3;
#X connect 17 0 16 0;
#X connect 18 0 9 1;
#X connect 19 0 18 0;
#X connect 19 0 17 0;
#X connect 20 0 4 0;
#X connect 20 0 8 2;
#X connect 21 0 20 0;
#X connect 22 0 21 0;
#X restore 316 136 pd send NOTE;
#X obj 316 36 tgl 15 0 empty ENABLE r:ENABLE 17 7 0 10 -261234 -1 -1
0 1;
#X floatatom 766 362 5 0 0 0 vol - -;
#N canvas 303 322 450 405 send 0;
#X obj 56 228 metro;
#X obj 44 364 s NOTE;
#X obj 24 273 tgl 15 0 empty empty start/stop 17 7 0 10 -262144 -1
-1 0 1;
#X obj 128 134 tabread length;
#X obj 128 109 - 1;
#X floatatom 128 159 5 0 0 0 - - -;
#X obj 128 208 * 1000;
#X msg 56 253 1;
#X obj 44 313 pack f f f f;
#X obj 128 183 +;
#X obj 91 53 inlet;
#X obj 24 22 inlet;
#X msg 44 338 \$4 \$3 \$2 \$1;
#X text 69 21 1 enable;
#X text 137 50 2 vol;
#X obj 24 47 t a a;
#X floatatom 162 294 5 0 0 1 speakerID - -;
#X msg 257 274 30;
#X obj 257 249 loadbang;
#X msg 162 269 20017;
#X floatatom 257 90 5 0 0 1 sampleN - -;
#X obj 257 40 loadbang;
#X msg 257 65 15;
#X connect 0 0 7 0;
#X connect 2 0 8 0;
#X connect 3 0 5 0;
#X connect 4 0 3 0;
#X connect 5 0 9 0;
#X connect 6 0 0 1;
#X connect 7 0 2 0;
#X connect 8 0 12 0;
#X connect 9 0 6 0;
#X connect 10 0 8 1;
#X connect 11 0 15 0;
#X connect 12 0 1 0;
#X connect 15 0 2 0;
#X connect 15 1 0 0;
#X connect 16 0 8 3;
#X connect 17 0 9 1;
#X connect 18 0 17 0;
#X connect 18 0 19 0;
#X connect 19 0 16 0;
#X connect 20 0 4 0;
#X connect 20 0 8 2;
#X connect 21 0 22 0;
#X connect 22 0 20 0;
#X restore 726 386 pd send NOTE;
#X obj 726 286 tgl 15 0 empty ENABLE r:ENABLE 17 7 0 10 -261234 -1
-1 0 1;
#X floatatom 106 612 5 0 0 0 vol - -;
#N canvas 843 285 450 405 send 0;
#X obj 56 228 metro;
#X obj 44 364 s NOTE;
#X obj 24 273 tgl 15 0 empty empty start/stop 17 7 0 10 -262144 -1
-1 0 1;
#X obj 128 134 tabread length;
#X obj 128 109 - 1;
#X floatatom 128 159 5 0 0 0 - - -;
#X obj 128 208 * 1000;
#X msg 56 253 1;
#X obj 44 313 pack f f f f;
#X obj 128 183 +;
#X obj 91 53 inlet;
#X obj 24 22 inlet;
#X msg 44 338 \$4 \$3 \$2 \$1;
#X text 69 21 1 enable;
#X text 137 50 2 vol;
#X obj 24 47 t a a;
#X floatatom 162 294 5 0 0 1 speakerID - -;
#X msg 257 274 30;
#X obj 257 249 loadbang;
#X msg 162 269 20007;
#X floatatom 257 90 5 0 0 1 sampleN - -;
#X obj 257 40 loadbang;
#X msg 257 65 25;
#X connect 0 0 7 0;
#X connect 2 0 8 0;
#X connect 3 0 5 0;
#X connect 4 0 3 0;
#X connect 5 0 9 0;
#X connect 6 0 0 1;
#X connect 7 0 2 0;
#X connect 8 0 12 0;
#X connect 9 0 6 0;
#X connect 10 0 8 1;
#X connect 11 0 15 0;
#X connect 12 0 1 0;
#X connect 15 0 2 0;
#X connect 15 1 0 0;
#X connect 16 0 8 3;
#X connect 17 0 9 1;
#X connect 18 0 17 0;
#X connect 18 0 19 0;
#X connect 19 0 16 0;
#X connect 20 0 4 0;
#X connect 20 0 8 2;
#X connect 21 0 22 0;
#X connect 22 0 20 0;
#X restore 66 636 pd send NOTE;
#X obj 66 536 tgl 15 0 empty ENABLE r:ENABLE 17 7 0 10 -261234 -1 -1
0 1;
#X text 833 293 food tray;
#X obj 316 286 tgl 15 0 empty ENABLE r:ENABLE 17 7 0 10 -261234 -1
-1 0 1;
#X msg 356 337 40;
#X floatatom 356 362 5 0 0 0 vol - -;
#X msg 397 337 40;
#X floatatom 397 362 5 0 0 1 vol - -;
#X obj 526 286 tgl 15 0 empty ENABLE r:ENABLE 17 7 0 10 -261234 -1
-1 0 1;
#X msg 566 337 40;
#X floatatom 566 362 5 0 0 0 vol - -;
#X msg 607 337 40;
#X floatatom 607 362 5 0 0 1 vol - -;
#X text 423 304 headphone;
#X text 423 318 20 -> 19;
#X text 633 304 headphone;
#X text 633 318 20 -> 19;
#N canvas 497 89 942 665 send 0;
#X obj 63 376 metro;
#X obj 31 574 s NOTE;
#X obj 31 443 tgl 15 0 empty empty start/stop 17 7 0 10 -262144 -1
-1 0 1;
#X msg 63 401 1;
#X obj 31 523 pack f f f f;
#X obj 138 311 inlet;
#X obj 31 32 inlet;
#X msg 31 548 \$4 \$3 \$2 \$1;
#X text 76 31 1 enable;
#X obj 31 77 t a a;
#X floatatom 85 489 5 0 0 2 sampleN - -;
#X floatatom 155 547 5 0 0 1 speakerID - -;
#X obj 155 482 loadbang;
#X obj 431 187 tabread length;
#X obj 431 162 - 1;
#X floatatom 431 212 5 0 0 0 - - -;
#X obj 574 316 * 1000;
#X obj 556 266 +;
#X obj 574 187 tabread length;
#X obj 574 162 - 1;
#X floatatom 574 212 5 0 0 0 - - -;
#X floatatom 574 138 5 0 0 1 sampleN - -;
#X obj 574 291 +;
#X floatatom 431 138 5 0 0 1 sampleN - -;
#X obj 511 37 loadbang;
#X obj 511 62 bng 15 250 50 0 empty empty empty 17 7 0 10 -262144 -1
-1;
#X obj 511 82 t b b b;
#X obj 431 316 * 1000;
#X obj 299 478 delay;
#X obj 458 394 inlet;
#X text 154 288 2 vol1;
#X msg 299 503 1;
#X floatatom 485 489 5 0 0 2 sampleN - -;
#X floatatom 555 547 5 0 0 1 speakerID - -;
#X obj 555 482 loadbang;
#X obj 431 574 s NOTE;
#X obj 431 523 pack f f f f;
#X msg 431 548 \$4 \$3 \$2 \$1;
#X msg 431 113 20;
#X msg 574 113 19;
#X text 474 371 3 vol2;
#X obj 431 291 +;
#X text 695 92 between delay (sec);
#X text 695 142 between delay + gap delay (sec);
#X obj 289 559 sel 0;
#X msg 289 584 0;
#X msg 339 534 stop;
#X msg 155 522 20014;
#X msg 555 522 20014;
#X obj 279 478 bng 15 250 50 0 empty empty empty 17 7 0 10 -262144
-1 -1;
#X floatatom 574 341 10 0 0 0 - - -;
#X floatatom 431 341 10 0 0 0 - - -;
#X obj 189 122 timer;
#X obj 189 97 b;
#X obj 221 97 metro 50;
#X obj 221 77 bng 15 250 50 0 empty empty empty 17 7 0 10 -262144 -1
-1;
#X obj 189 172 int;
#X floatatom 189 197 5 0 0 0 - - -;
#X obj 189 147 / 1000;
#X obj 299 453 b;
#X obj 43 376 bng 15 250 50 0 empty empty empty 17 7 0 10 -262144 -1
-1;
#X obj 31 57 tgl 15 0 empty empty empty 17 7 0 10 -262144 -1 -1 0 1
;
#X msg 697 113 4;
#X msg 731 164 8;
#X connect 0 0 3 0;
#X connect 0 0 59 0;
#X connect 0 0 60 0;
#X connect 2 0 4 0;
#X connect 3 0 2 0;
#X connect 4 0 7 0;
#X connect 5 0 4 1;
#X connect 6 0 61 0;
#X connect 7 0 1 0;
#X connect 9 0 2 0;
#X connect 9 0 44 0;
#X connect 9 1 0 0;
#X connect 9 1 53 0;
#X connect 10 0 4 2;
#X connect 11 0 4 3;
#X connect 12 0 47 0;
#X connect 13 0 15 0;
#X connect 14 0 13 0;
#X connect 15 0 17 0;
#X connect 15 0 41 0;
#X connect 16 0 0 1;
#X connect 16 0 50 0;
#X connect 17 0 22 0;
#X connect 18 0 20 0;
#X connect 19 0 18 0;
#X connect 20 0 17 1;
#X connect 21 0 19 0;
#X connect 21 0 32 0;
#X connect 22 0 16 0;
#X connect 23 0 14 0;
#X connect 23 0 10 0;
#X connect 24 0 25 0;
#X connect 25 0 26 0;
#X connect 26 0 38 0;
#X connect 26 1 39 0;
#X connect 26 2 63 0;
#X connect 26 2 62 0;
#X connect 27 0 28 1;
#X connect 27 0 51 0;
#X connect 28 0 31 0;
#X connect 28 0 49 0;
#X connect 29 0 36 1;
#X connect 31 0 36 0;
#X connect 32 0 36 2;
#X connect 33 0 36 3;
#X connect 34 0 48 0;
#X connect 36 0 37 0;
#X connect 37 0 35 0;
#X connect 38 0 23 0;
#X connect 39 0 21 0;
#X connect 41 0 27 0;
#X connect 44 0 45 0;
#X connect 44 0 46 0;
#X connect 45 0 36 0;
#X connect 46 0 28 0;
#X connect 47 0 11 0;
#X connect 48 0 33 0;
#X connect 52 0 58 0;
#X connect 53 0 52 0;
#X connect 54 0 52 1;
#X connect 55 0 54 0;
#X connect 56 0 57 0;
#X connect 58 0 56 0;
#X connect 59 0 28 0;
#X connect 61 0 9 0;
#X connect 62 0 41 1;
#X connect 63 0 22 1;
#X restore 316 386 pd send NOTE;
#N canvas 497 166 942 665 send 0;
#X obj 63 376 metro;
#X obj 31 574 s NOTE;
#X obj 31 443 tgl 15 0 empty empty start/stop 17 7 0 10 -262144 -1
-1 0 1;
#X msg 63 401 1;
#X obj 31 523 pack f f f f;
#X obj 138 311 inlet;
#X obj 31 32 inlet;
#X msg 31 548 \$4 \$3 \$2 \$1;
#X text 76 31 1 enable;
#X obj 31 77 t a a;
#X floatatom 85 489 5 0 0 2 sampleN - -;
#X floatatom 155 547 5 0 0 1 speakerID - -;
#X obj 155 482 loadbang;
#X obj 431 187 tabread length;
#X obj 431 162 - 1;
#X floatatom 431 212 5 0 0 0 - - -;
#X obj 574 316 * 1000;
#X obj 556 266 +;
#X obj 574 187 tabread length;
#X obj 574 162 - 1;
#X floatatom 574 212 5 0 0 0 - - -;
#X floatatom 574 138 5 0 0 1 sampleN - -;
#X obj 574 291 +;
#X floatatom 431 138 5 0 0 1 sampleN - -;
#X obj 511 37 loadbang;
#X obj 511 62 bng 15 250 50 0 empty empty empty 17 7 0 10 -262144 -1
-1;
#X obj 511 82 t b b b;
#X obj 431 316 * 1000;
#X obj 299 478 delay;
#X obj 458 394 inlet;
#X text 154 288 2 vol1;
#X msg 299 503 1;
#X floatatom 485 489 5 0 0 2 sampleN - -;
#X floatatom 555 547 5 0 0 1 speakerID - -;
#X obj 555 482 loadbang;
#X obj 431 574 s NOTE;
#X obj 431 523 pack f f f f;
#X msg 431 548 \$4 \$3 \$2 \$1;
#X msg 431 113 20;
#X msg 574 113 19;
#X text 474 371 3 vol2;
#X obj 431 291 +;
#X text 695 92 between delay (sec);
#X text 695 142 between delay + gap delay (sec);
#X obj 289 559 sel 0;
#X msg 289 584 0;
#X msg 339 534 stop;
#X obj 279 478 bng 15 250 50 0 empty empty empty 17 7 0 10 -262144
-1 -1;
#X floatatom 574 341 10 0 0 0 - - -;
#X floatatom 431 341 10 0 0 0 - - -;
#X obj 189 122 timer;
#X obj 189 97 b;
#X obj 221 97 metro 50;
#X obj 221 77 bng 15 250 50 0 empty empty empty 17 7 0 10 -262144 -1
-1;
#X obj 189 172 int;
#X floatatom 189 197 5 0 0 0 - - -;
#X obj 189 147 / 1000;
#X obj 299 453 b;
#X obj 43 376 bng 15 250 50 0 empty empty empty 17 7 0 10 -262144 -1
-1;
#X obj 31 57 tgl 15 0 empty empty empty 17 7 0 10 -262144 -1 -1 0 1
;
#X msg 697 113 4;
#X msg 731 164 8;
#X msg 155 522 20015;
#X msg 555 522 20015;
#X connect 0 0 3 0;
#X connect 0 0 57 0;
#X connect 0 0 58 0;
#X connect 2 0 4 0;
#X connect 3 0 2 0;
#X connect 4 0 7 0;
#X connect 5 0 4 1;
#X connect 6 0 59 0;
#X connect 7 0 1 0;
#X connect 9 0 2 0;
#X connect 9 0 44 0;
#X connect 9 1 0 0;
#X connect 9 1 51 0;
#X connect 10 0 4 2;
#X connect 11 0 4 3;
#X connect 12 0 62 0;
#X connect 13 0 15 0;
#X connect 14 0 13 0;
#X connect 15 0 17 0;
#X connect 15 0 41 0;
#X connect 16 0 0 1;
#X connect 16 0 48 0;
#X connect 17 0 22 0;
#X connect 18 0 20 0;
#X connect 19 0 18 0;
#X connect 20 0 17 1;
#X connect 21 0 19 0;
#X connect 21 0 32 0;
#X connect 22 0 16 0;
#X connect 23 0 14 0;
#X connect 23 0 10 0;
#X connect 24 0 25 0;
#X connect 25 0 26 0;
#X connect 26 0 38 0;
#X connect 26 1 39 0;
#X connect 26 2 61 0;
#X connect 26 2 60 0;
#X connect 27 0 28 1;
#X connect 27 0 49 0;
#X connect 28 0 31 0;
#X connect 28 0 47 0;
#X connect 29 0 36 1;
#X connect 31 0 36 0;
#X connect 32 0 36 2;
#X connect 33 0 36 3;
#X connect 34 0 63 0;
#X connect 36 0 37 0;
#X connect 37 0 35 0;
#X connect 38 0 23 0;
#X connect 39 0 21 0;
#X connect 41 0 27 0;
#X connect 44 0 45 0;
#X connect 44 0 46 0;
#X connect 45 0 36 0;
#X connect 46 0 28 0;
#X connect 50 0 56 0;
#X connect 51 0 50 0;
#X connect 52 0 50 1;
#X connect 53 0 52 0;
#X connect 54 0 55 0;
#X connect 56 0 54 0;
#X connect 57 0 28 0;
#X connect 59 0 9 0;
#X connect 60 0 41 1;
#X connect 61 0 22 1;
#X connect 62 0 11 0;
#X connect 63 0 33 0;
#X restore 526 386 pd send NOTE;
#X text 423 290 20014;
#X text 633 290 20015;
#X obj 66 286 tgl 15 0 empty ENABLE r:ENABLE 17 7 0 10 -261682 -1 -1
0 1;
#X floatatom 106 362 5 0 0 0 vol - -;
#X floatatom 147 362 5 0 0 1 vol - -;
#N canvas 497 89 942 665 send 0;
#X obj 63 376 metro;
#X obj 31 574 s NOTE;
#X obj 31 443 tgl 15 0 empty empty start/stop 17 7 0 10 -262144 -1
-1 0 1;
#X msg 63 401 1;
#X obj 31 523 pack f f f f;
#X obj 138 311 inlet;
#X obj 31 32 inlet;
#X msg 31 548 \$4 \$3 \$2 \$1;
#X text 76 31 1 enable;
#X obj 31 77 t a a;
#X floatatom 85 489 5 0 0 2 sampleN - -;
#X floatatom 155 547 5 0 0 1 speakerID - -;
#X obj 155 482 loadbang;
#X obj 431 187 tabread length;
#X obj 431 162 - 1;
#X floatatom 431 212 5 0 0 0 - - -;
#X obj 574 316 * 1000;
#X obj 556 266 +;
#X obj 574 187 tabread length;
#X obj 574 162 - 1;
#X floatatom 574 212 5 0 0 0 - - -;
#X floatatom 574 138 5 0 0 1 sampleN - -;
#X obj 574 291 +;
#X floatatom 431 138 5 0 0 1 sampleN - -;
#X obj 511 37 loadbang;
#X obj 511 62 bng 15 250 50 0 empty empty empty 17 7 0 10 -262144 -1
-1;
#X obj 511 82 t b b b;
#X obj 431 316 * 1000;
#X obj 299 478 delay;
#X obj 458 394 inlet;
#X text 154 288 2 vol1;
#X msg 299 503 1;
#X floatatom 485 489 5 0 0 2 sampleN - -;
#X floatatom 555 547 5 0 0 1 speakerID - -;
#X obj 555 482 loadbang;
#X obj 431 574 s NOTE;
#X obj 431 523 pack f f f f;
#X msg 431 548 \$4 \$3 \$2 \$1;
#X text 474 371 3 vol2;
#X obj 431 291 +;
#X text 695 92 between delay (sec);
#X text 695 142 between delay + gap delay (sec);
#X obj 289 559 sel 0;
#X msg 289 584 0;
#X msg 339 534 stop;
#X obj 279 478 bng 15 250 50 0 empty empty empty 17 7 0 10 -262144
-1 -1;
#X floatatom 574 341 10 0 0 0 - - -;
#X floatatom 431 341 10 0 0 0 - - -;
#X obj 189 122 timer;
#X obj 189 97 b;
#X obj 221 97 metro 50;
#X obj 221 77 bng 15 250 50 0 empty empty empty 17 7 0 10 -262144 -1
-1;
#X obj 189 172 int;
#X floatatom 189 197 5 0 0 0 - - -;
#X obj 189 147 / 1000;
#X obj 299 453 b;
#X obj 43 376 bng 15 250 50 0 empty empty empty 17 7 0 10 -262144 -1
-1;
#X obj 31 57 tgl 15 0 empty empty empty 17 7 0 10 -262144 -1 -1 0 1
;
#X msg 155 522 20018;
#X msg 555 522 20004;
#X msg 431 113 13;
#X msg 574 113 21;
#X msg 697 113 1;
#X msg 731 164 1;
#X connect 0 0 3 0;
#X connect 0 0 55 0;
#X connect 0 0 56 0;
#X connect 2 0 4 0;
#X connect 3 0 2 0;
#X connect 4 0 7 0;
#X connect 5 0 4 1;
#X connect 6 0 57 0;
#X connect 7 0 1 0;
#X connect 9 0 2 0;
#X connect 9 0 42 0;
#X connect 9 1 0 0;
#X connect 9 1 49 0;
#X connect 10 0 4 2;
#X connect 11 0 4 3;
#X connect 12 0 58 0;
#X connect 13 0 15 0;
#X connect 14 0 13 0;
#X connect 15 0 17 0;
#X connect 15 0 39 0;
#X connect 16 0 0 1;
#X connect 16 0 46 0;
#X connect 17 0 22 0;
#X connect 18 0 20 0;
#X connect 19 0 18 0;
#X connect 20 0 17 1;
#X connect 21 0 19 0;
#X connect 21 0 32 0;
#X connect 22 0 16 0;
#X connect 23 0 14 0;
#X connect 23 0 10 0;
#X connect 24 0 25 0;
#X connect 25 0 26 0;
#X connect 26 0 60 0;
#X connect 26 1 61 0;
#X connect 26 2 63 0;
#X connect 26 2 62 0;
#X connect 27 0 28 1;
#X connect 27 0 47 0;
#X connect 28 0 31 0;
#X connect 28 0 45 0;
#X connect 29 0 36 1;
#X connect 31 0 36 0;
#X connect 32 0 36 2;
#X connect 33 0 36 3;
#X connect 34 0 59 0;
#X connect 36 0 37 0;
#X connect 37 0 35 0;
#X connect 39 0 27 0;
#X connect 42 0 43 0;
#X connect 42 0 44 0;
#X connect 43 0 36 0;
#X connect 44 0 28 0;
#X connect 48 0 54 0;
#X connect 49 0 48 0;
#X connect 50 0 48 1;
#X connect 51 0 50 0;
#X connect 52 0 53 0;
#X connect 54 0 52 0;
#X connect 55 0 28 0;
#X connect 57 0 9 0;
#X connect 58 0 11 0;
#X connect 59 0 33 0;
#X connect 60 0 23 0;
#X connect 61 0 21 0;
#X connect 62 0 39 1;
#X connect 63 0 22 1;
#X restore 66 386 pd send NOTE;
#X text 173 290 20018 20004;
#X text 191 546 floor3 room;
#X text 431 46 room size;
#X obj 66 36 tgl 15 0 empty ENABLE r:ENABLE 17 7 0 10 -261234 -1 -1
0 1;
#X floatatom 106 112 5 0 0 0 vol - -;
#X floatatom 147 112 5 0 0 1 vol - -;
#N canvas 216 194 942 665 send 0;
#X obj 63 376 metro;
#X obj 31 574 s NOTE;
#X obj 31 443 tgl 15 0 empty empty start/stop 17 7 0 10 -262144 -1
-1 0 1;
#X msg 63 401 1;
#X obj 31 523 pack f f f f;
#X obj 138 311 inlet;
#X obj 31 32 inlet;
#X msg 31 548 \$4 \$3 \$2 \$1;
#X text 76 31 1 enable;
#X obj 31 77 t a a;
#X floatatom 85 489 5 0 0 2 sampleN - -;
#X floatatom 155 547 5 0 0 1 speakerID - -;
#X obj 155 482 loadbang;
#X obj 431 187 tabread length;
#X obj 431 162 - 1;
#X floatatom 431 212 5 0 0 0 - - -;
#X obj 574 316 * 1000;
#X obj 556 266 +;
#X obj 574 187 tabread length;
#X obj 574 162 - 1;
#X floatatom 574 212 5 0 0 0 - - -;
#X floatatom 574 138 5 0 0 1 sampleN - -;
#X obj 574 291 +;
#X floatatom 431 138 5 0 0 1 sampleN - -;
#X obj 511 37 loadbang;
#X obj 511 62 bng 15 250 50 0 empty empty empty 17 7 0 10 -262144 -1
-1;
#X obj 511 82 t b b b;
#X obj 431 316 * 1000;
#X obj 299 478 delay;
#X obj 458 394 inlet;
#X text 154 288 2 vol1;
#X msg 299 503 1;
#X floatatom 485 489 5 0 0 2 sampleN - -;
#X floatatom 555 547 5 0 0 1 speakerID - -;
#X obj 555 482 loadbang;
#X obj 431 574 s NOTE;
#X obj 431 523 pack f f f f;
#X msg 431 548 \$4 \$3 \$2 \$1;
#X text 474 371 3 vol2;
#X obj 431 291 +;
#X text 695 92 between delay (sec);
#X text 695 142 between delay + gap delay (sec);
#X obj 289 559 sel 0;
#X msg 289 584 0;
#X msg 339 534 stop;
#X obj 279 478 bng 15 250 50 0 empty empty empty 17 7 0 10 -262144
-1 -1;
#X floatatom 574 341 10 0 0 0 - - -;
#X floatatom 431 341 10 0 0 0 - - -;
#X obj 189 122 timer;
#X obj 189 97 b;
#X obj 221 97 metro 50;
#X obj 221 77 bng 15 250 50 0 empty empty empty 17 7 0 10 -262144 -1
-1;
#X obj 189 172 int;
#X floatatom 189 197 5 0 0 0 - - -;
#X obj 189 147 / 1000;
#X obj 299 453 b;
#X obj 43 376 bng 15 250 50 0 empty empty empty 17 7 0 10 -262144 -1
-1;
#X obj 31 57 tgl 15 0 empty empty empty 17 7 0 10 -262144 -1 -1 0 1
;
#X msg 431 113 8;
#X msg 574 113 27;
#X msg 155 522 20002;
#X msg 555 522 20011;
#X msg 697 113 4;
#X msg 731 164 8;
#X connect 0 0 3 0;
#X connect 0 0 55 0;
#X connect 0 0 56 0;
#X connect 2 0 4 0;
#X connect 3 0 2 0;
#X connect 4 0 7 0;
#X connect 5 0 4 1;
#X connect 6 0 57 0;
#X connect 7 0 1 0;
#X connect 9 0 2 0;
#X connect 9 0 42 0;
#X connect 9 1 0 0;
#X connect 9 1 49 0;
#X connect 10 0 4 2;
#X connect 11 0 4 3;
#X connect 12 0 60 0;
#X connect 13 0 15 0;
#X connect 14 0 13 0;
#X connect 15 0 17 0;
#X connect 15 0 39 0;
#X connect 16 0 0 1;
#X connect 16 0 46 0;
#X connect 17 0 22 0;
#X connect 18 0 20 0;
#X connect 19 0 18 0;
#X connect 20 0 17 1;
#X connect 21 0 19 0;
#X connect 21 0 32 0;
#X connect 22 0 16 0;
#X connect 23 0 14 0;
#X connect 23 0 10 0;
#X connect 24 0 25 0;
#X connect 25 0 26 0;
#X connect 26 0 58 0;
#X connect 26 1 59 0;
#X connect 26 2 63 0;
#X connect 26 2 62 0;
#X connect 27 0 28 1;
#X connect 27 0 47 0;
#X connect 28 0 31 0;
#X connect 28 0 45 0;
#X connect 29 0 36 1;
#X connect 31 0 36 0;
#X connect 32 0 36 2;
#X connect 33 0 36 3;
#X connect 34 0 61 0;
#X connect 36 0 37 0;
#X connect 37 0 35 0;
#X connect 39 0 27 0;
#X connect 42 0 43 0;
#X connect 42 0 44 0;
#X connect 43 0 36 0;
#X connect 44 0 28 0;
#X connect 48 0 54 0;
#X connect 49 0 48 0;
#X connect 50 0 48 1;
#X connect 51 0 50 0;
#X connect 52 0 53 0;
#X connect 54 0 52 0;
#X connect 55 0 28 0;
#X connect 57 0 9 0;
#X connect 58 0 23 0;
#X connect 59 0 21 0;
#X connect 60 0 11 0;
#X connect 61 0 33 0;
#X connect 62 0 39 1;
#X connect 63 0 22 1;
#X restore 66 136 pd send NOTE;
#X text 195 35 floor1;
#X text 195 49 corridor +;
#X text 195 63 center room;
#X msg 106 87 35;
#X msg 147 87 75;
#X msg 106 337 55;
#X msg 147 337 55;
#X msg 106 587 70;
#X text 770 602 <-- comm. chk;
#X obj 66 161 tgl 15 0 empty ENABLE_LOW r:ENABLE_LOW 17 7 0 10 -257985
-1 -1 0 1;
#X obj 316 161 tgl 15 0 empty ENABLE_LOW r:ENABLE_LOW 17 7 0 10 -257985
-1 -1 0 1;
#X obj 66 411 tgl 15 0 empty ENABLE_LOW r:ENABLE_LOW 17 7 0 10 -257985
-1 -1 0 1;
#X obj 66 661 tgl 15 0 empty ENABLE_LOW r:ENABLE_LOW 17 7 0 10 -257985
-1 -1 0 1;
#X obj 316 411 tgl 15 0 empty ENABLE_LOW r:ENABLE_LOW 17 7 0 10 -257985
-1 -1 0 1;
#X obj 526 411 tgl 15 0 empty ENABLE_LOW r:ENABLE_LOW 17 7 0 10 -257985
-1 -1 0 1;
#X obj 726 411 tgl 15 0 empty ENABLE_LOW r:ENABLE_LOW 17 7 0 10 -257985
-1 -1 0 1;
#X obj 66 56 t a b b;
#X obj 66 181 t a b b;
#X obj 66 306 t a b b;
#X obj 316 306 t a b b;
#X obj 526 306 t a b b;
#X obj 66 431 t a b b;
#X obj 316 431 t a b b;
#X obj 526 431 t a b b;
#X obj 66 681 t a b;
#X obj 66 556 t a b;
#X obj 316 56 t a b;
#X obj 316 181 t a b;
#X obj 726 306 t a b;
#X obj 726 431 t a b;
#X text 673 543 f2.annex;
#X text 673 557 gate;
#X text 703 603 f2.annex;
#X text 703 617 toilet;
#X msg 356 462 15;
#X msg 397 462 15;
#X msg 566 462 15;
#X msg 607 462 15;
#X obj 526 536 tgl 15 0 empty ENABLE r:ENABLE 17 7 0 10 -261682 -1
-1 0 1;
#X floatatom 566 612 5 0 0 0 vol - -;
#X floatatom 607 612 5 0 0 1 vol - -;
#N canvas 58 124 942 665 send 0;
#X obj 63 376 metro;
#X obj 31 574 s NOTE;
#X obj 31 443 tgl 15 0 empty empty start/stop 17 7 0 10 -262144 -1
-1 0 1;
#X msg 63 401 1;
#X obj 31 523 pack f f f f;
#X obj 138 311 inlet;
#X obj 31 32 inlet;
#X msg 31 548 \$4 \$3 \$2 \$1;
#X text 76 31 1 enable;
#X obj 31 77 t a a;
#X floatatom 85 489 5 0 0 2 sampleN - -;
#X floatatom 155 547 5 0 0 1 speakerID - -;
#X obj 155 482 loadbang;
#X obj 431 187 tabread length;
#X obj 431 162 - 1;
#X floatatom 431 212 5 0 0 0 - - -;
#X obj 574 316 * 1000;
#X obj 556 266 +;
#X obj 574 187 tabread length;
#X obj 574 162 - 1;
#X floatatom 574 212 5 0 0 0 - - -;
#X floatatom 574 138 5 0 0 1 sampleN - -;
#X obj 574 291 +;
#X floatatom 431 138 5 0 0 1 sampleN - -;
#X obj 511 37 loadbang;
#X obj 511 62 bng 15 250 50 0 empty empty empty 17 7 0 10 -262144 -1
-1;
#X obj 511 82 t b b b;
#X obj 431 316 * 1000;
#X obj 299 478 delay;
#X obj 458 394 inlet;
#X text 154 288 2 vol1;
#X msg 299 503 1;
#X floatatom 485 489 5 0 0 2 sampleN - -;
#X floatatom 555 547 5 0 0 1 speakerID - -;
#X obj 555 482 loadbang;
#X obj 431 574 s NOTE;
#X obj 431 523 pack f f f f;
#X msg 431 548 \$4 \$3 \$2 \$1;
#X text 474 371 3 vol2;
#X obj 431 291 +;
#X text 695 92 between delay (sec);
#X text 695 142 between delay + gap delay (sec);
#X obj 289 559 sel 0;
#X msg 289 584 0;
#X msg 339 534 stop;
#X obj 279 478 bng 15 250 50 0 empty empty empty 17 7 0 10 -262144
-1 -1;
#X floatatom 574 341 10 0 0 0 - - -;
#X floatatom 431 341 10 0 0 0 - - -;
#X obj 189 122 timer;
#X obj 189 97 b;
#X obj 221 97 metro 50;
#X obj 221 77 bng 15 250 50 0 empty empty empty 17 7 0 10 -262144 -1
-1;
#X obj 189 172 int;
#X floatatom 189 197 5 0 0 0 - - -;
#X obj 189 147 / 1000;
#X obj 299 453 b;
#X obj 43 376 bng 15 250 50 0 empty empty empty 17 7 0 10 -262144 -1
-1;
#X obj 31 57 tgl 15 0 empty empty empty 17 7 0 10 -262144 -1 -1 0 1
;
#X msg 155 522 20009;
#X msg 555 522 20016;
#X msg 574 113 26;
#X msg 431 113 18;
#X msg 697 113 1;
#X msg 731 164 2;
#X connect 0 0 3 0;
#X connect 0 0 55 0;
#X connect 0 0 56 0;
#X connect 2 0 4 0;
#X connect 3 0 2 0;
#X connect 4 0 7 0;
#X connect 5 0 4 1;
#X connect 6 0 57 0;
#X connect 7 0 1 0;
#X connect 9 0 2 0;
#X connect 9 0 42 0;
#X connect 9 1 0 0;
#X connect 9 1 49 0;
#X connect 10 0 4 2;
#X connect 11 0 4 3;
#X connect 12 0 58 0;
#X connect 13 0 15 0;
#X connect 14 0 13 0;
#X connect 15 0 17 0;
#X connect 15 0 39 0;
#X connect 16 0 0 1;
#X connect 16 0 46 0;
#X connect 17 0 22 0;
#X connect 18 0 20 0;
#X connect 19 0 18 0;
#X connect 20 0 17 1;
#X connect 21 0 19 0;
#X connect 21 0 32 0;
#X connect 22 0 16 0;
#X connect 23 0 14 0;
#X connect 23 0 10 0;
#X connect 24 0 25 0;
#X connect 25 0 26 0;
#X connect 26 0 61 0;
#X connect 26 1 60 0;
#X connect 26 2 63 0;
#X connect 26 2 62 0;
#X connect 27 0 28 1;
#X connect 27 0 47 0;
#X connect 28 0 31 0;
#X connect 28 0 45 0;
#X connect 29 0 36 1;
#X connect 31 0 36 0;
#X connect 32 0 36 2;
#X connect 33 0 36 3;
#X connect 34 0 59 0;
#X connect 36 0 37 0;
#X connect 37 0 35 0;
#X connect 39 0 27 0;
#X connect 42 0 43 0;
#X connect 42 0 44 0;
#X connect 43 0 36 0;
#X connect 44 0 28 0;
#X connect 48 0 54 0;
#X connect 49 0 48 0;
#X connect 50 0 48 1;
#X connect 51 0 50 0;
#X connect 52 0 53 0;
#X connect 54 0 52 0;
#X connect 55 0 28 0;
#X connect 57 0 9 0;
#X connect 58 0 11 0;
#X connect 59 0 33 0;
#X connect 60 0 21 0;
#X connect 61 0 23 0;
#X connect 62 0 39 1;
#X connect 63 0 22 1;
#X restore 526 636 pd send NOTE;
#X obj 526 661 tgl 15 0 empty ENABLE_LOW r:ENABLE_LOW 17 7 0 10 -257985
-1 -1 0 1;
#X obj 526 556 t a b b;
#X obj 526 681 t a b b;
#X msg 607 587 45;
#X msg 607 712 15;
#X msg 566 587 35;
#X msg 106 712 10;
#X msg 106 462 15;
#X msg 147 462 10;
#X msg 147 212 15;
#X msg 566 712 5;
#X msg 106 212 8;
#X msg 356 212 10;
#X msg 766 462 5;
#X floatatom 356 612 5 0 0 0 vol - -;
#N canvas 843 285 450 405 send 0;
#X obj 56 228 metro;
#X obj 44 364 s NOTE;
#X obj 24 273 tgl 15 0 empty empty start/stop 17 7 0 10 -262144 -1
-1 0 1;
#X obj 128 134 tabread length;
#X obj 128 109 - 1;
#X floatatom 128 159 5 0 0 0 - - -;
#X obj 128 208 * 1000;
#X msg 56 253 1;
#X obj 44 313 pack f f f f;
#X obj 128 183 +;
#X obj 91 53 inlet;
#X obj 24 22 inlet;
#X msg 44 338 \$4 \$3 \$2 \$1;
#X text 69 21 1 enable;
#X text 137 50 2 vol;
#X obj 24 47 t a a;
#X floatatom 162 294 5 0 0 1 speakerID - -;
#X obj 257 249 loadbang;
#X floatatom 257 90 5 0 0 1 sampleN - -;
#X obj 257 40 loadbang;
#X msg 257 65 6;
#X msg 162 269 20019;
#X msg 257 274 30;
#X connect 0 0 7 0;
#X connect 2 0 8 0;
#X connect 3 0 5 0;
#X connect 4 0 3 0;
#X connect 5 0 9 0;
#X connect 6 0 0 1;
#X connect 7 0 2 0;
#X connect 8 0 12 0;
#X connect 9 0 6 0;
#X connect 10 0 8 1;
#X connect 11 0 15 0;
#X connect 12 0 1 0;
#X connect 15 0 2 0;
#X connect 15 1 0 0;
#X connect 16 0 8 3;
#X connect 17 0 22 0;
#X connect 17 0 21 0;
#X connect 18 0 4 0;
#X connect 18 0 8 2;
#X connect 19 0 20 0;
#X connect 20 0 18 0;
#X connect 21 0 16 0;
#X connect 22 0 9 1;
#X restore 316 636 pd send NOTE;
#X obj 316 536 tgl 15 0 empty ENABLE r:ENABLE 17 7 0 10 -261234 -1
-1 0 1;
#X obj 316 661 tgl 15 0 empty ENABLE_LOW r:ENABLE_LOW 17 7 0 10 -257985
-1 -1 0 1;
#X obj 316 556 t a b;
#X obj 316 681 t a b;
#X msg 356 712 10;
#X text 401 556 floor2 cantin &;
#X text 401 570 r.i.p.;
#X msg 766 337 30;
#X msg 356 587 40;
#X connect 0 0 1 0;
#X connect 1 0 2 1;
#X connect 3 0 66 0;
#X connect 4 0 5 1;
#X connect 6 0 68 0;
#X connect 7 0 8 1;
#X connect 9 0 65 0;
#X connect 11 0 59 0;
#X connect 12 0 13 0;
#X connect 13 0 25 1;
#X connect 14 0 15 0;
#X connect 15 0 25 2;
#X connect 16 0 60 0;
#X connect 17 0 18 0;
#X connect 18 0 26 1;
#X connect 19 0 20 0;
#X connect 20 0 26 2;
#X connect 29 0 58 0;
#X connect 30 0 32 1;
#X connect 31 0 32 2;
#X connect 36 0 56 0;
#X connect 37 0 39 1;
#X connect 38 0 39 2;
#X connect 43 0 37 0;
#X connect 44 0 38 0;
#X connect 45 0 30 0;
#X connect 46 0 31 0;
#X connect 47 0 7 0;
#X connect 49 0 57 0;
#X connect 50 0 67 0;
#X connect 51 0 61 0;
#X connect 52 0 64 0;
#X connect 53 0 62 0;
#X connect 54 0 63 0;
#X connect 55 0 69 0;
#X connect 56 0 39 0;
#X connect 56 1 43 0;
#X connect 56 2 44 0;
#X connect 57 0 39 0;
#X connect 57 1 93 0;
#X connect 57 2 91 0;
#X connect 58 0 32 0;
#X connect 58 1 45 0;
#X connect 58 2 46 0;
#X connect 59 0 25 0;
#X connect 59 1 12 0;
#X connect 59 2 14 0;
#X connect 60 0 26 0;
#X connect 60 1 17 0;
#X connect 60 2 19 0;
#X connect 61 0 32 0;
#X connect 61 1 89 0;
#X connect 61 2 90 0;
#X connect 62 0 25 0;
#X connect 62 1 74 0;
#X connect 62 2 75 0;
#X connect 63 0 26 0;
#X connect 63 1 76 0;
#X connect 63 2 77 0;
#X connect 64 0 8 0;
#X connect 64 1 88 0;
#X connect 65 0 8 0;
#X connect 65 1 47 0;
#X connect 66 0 2 0;
#X connect 66 1 0 0;
#X connect 67 0 2 0;
#X connect 67 1 94 0;
#X connect 68 0 5 0;
#X connect 68 1 105 0;
#X connect 69 0 5 0;
#X connect 69 1 95 0;
#X connect 74 0 13 0;
#X connect 75 0 15 0;
#X connect 76 0 18 0;
#X connect 77 0 20 0;
#X connect 78 0 83 0;
#X connect 79 0 81 1;
#X connect 80 0 81 2;
#X connect 82 0 84 0;
#X connect 83 0 81 0;
#X connect 83 1 87 0;
#X connect 83 2 85 0;
#X connect 84 0 81 0;
#X connect 84 1 92 0;
#X connect 84 2 86 0;
#X connect 85 0 80 0;
#X connect 86 0 80 0;
#X connect 87 0 79 0;
#X connect 88 0 7 0;
#X connect 89 0 30 0;
#X connect 90 0 31 0;
#X connect 91 0 38 0;
#X connect 92 0 79 0;
#X connect 93 0 37 0;
#X connect 94 0 1 0;
#X connect 95 0 4 0;
#X connect 96 0 97 1;
#X connect 98 0 100 0;
#X connect 99 0 101 0;
#X connect 100 0 97 0;
#X connect 100 1 106 0;
#X connect 101 0 97 0;
#X connect 101 1 102 0;
#X connect 102 0 96 0;
#X connect 105 0 4 0;
#X connect 106 0 96 0;
#X restore 497 66 pd floors;
#N canvas 1 89 679 487 tb-lgth 0;
#N canvas 0 50 450 250 (subpatch) 0;
#X array length 100 float 3;
#A 0 4 6 184 385 81 38 42 41 58 5 11 62 225 210 219 61 41 43 70 56
218 137 88 33 68 53 152 30 9 259 293 0 0 0 0 0 0 0 0 0 0 0 0 0 0 0
0 0 0 0 0 0 0 0 0 0 0 0 0 0 0 0 0 0 0 0 0 0 0 0 0 0 0 0 0 0 0 0 0 0
0 0 0 0 0 0 0 0 0 0 0 0 0 0 0 0 0 0 0 0;
#X coords 0 1 100 -1 200 140 1 0 0;
#X restore 72 78 graph;
#X msg 64 311 \; length 0 4 6 184 385 81 38 42 41 58 5 11 62 225 210
219 61 41 43 70 56 218 137 88 33 68 53 152 30 9 259 293;
#X restore 490 41 pd tb-lgth;
#X obj 578 92 tgl 15 0 empty empty connected? 17 7 0 10 -203904 -1
-1 1 1;
#X obj 578 47 tgl 15 0 empty empty open/close 17 7 0 10 -203904 -1
-1 1 1;
#X obj 578 22 loadbang;
#X obj 38 250 s NOTE;
#N canvas 1 89 500 364 manual 0;
#X floatatom 150 214 5 0 0 1 sampleN - -;
#X floatatom 287 136 5 0 0 0 spkN - -;
#X obj 212 86 bng 22 250 50 0 empty empty EVERYONE_in_GRP -110 7 0
12 -257985 -4160 -203904;
#X msg 212 116 0;
#X obj 53 128 tgl 22 0 empty empty start/stop 24 7 0 14 -204800 -4160
-4160 0 1;
#X obj 287 166 + 20000;
#X floatatom 267 244 5 0 0 3 speakerID - -;
#X obj 290 25 hsl 128 22 0 20 0 0 empty empty spkN -2 -8 0 10 -261682
-1 -1 0 1;
#X obj 287 95 int;
#X obj 340 75 hsl 128 22 0 20 0 0 empty empty sampleN -2 -8 0 10 -203904
-1 -1 0 1;
#X obj 337 105 int;
#X obj 53 314 s NOTE;
#X obj 53 263 pack f f f f;
#X msg 53 288 \$4 \$3 \$2 \$1;
#X floatatom 80 214 5 0 0 1 vol - -;
#X obj 80 158 loadbang;
#X msg 80 189 40;
#X msg 14 243 1;
#X connect 0 0 12 2;
#X connect 1 0 5 0;
#X connect 2 0 3 0;
#X connect 3 0 1 0;
#X connect 4 0 12 0;
#X connect 5 0 6 0;
#X connect 6 0 12 3;
#X connect 7 0 8 0;
#X connect 8 0 1 0;
#X connect 9 0 10 0;
#X connect 10 0 0 0;
#X connect 12 0 13 0;
#X connect 13 0 11 0;
#X connect 14 0 12 1;
#X connect 15 0 16 0;
#X connect 16 0 14 0;
#X connect 17 0 12 0;
#X restore 442 16 pd manual message;
#X obj 87 380 s NOTE;
#X msg 38 225 20000 30 60 1;
#X obj 396 91 s NOTE;
#X msg 396 66 20000 0 0 0;
#X obj 38 205 bng 15 250 50 0 empty empty tour_start 17 7 0 10 -204786
-1 -1;
#X obj 87 335 bng 15 250 50 0 empty empty tour_end 17 7 0 10 -203904
-1 -1;
#X obj 495 146 bng 15 250 50 0 empty empty FLOOR_VOLUME_FULL_(touring)
17 7 0 10 -261234 -1 -1;
#X msg 495 191 1;
#X msg 87 355 20000 31 70 1;
#X obj 495 256 bng 15 250 50 0 empty empty FLOOR_VOLUME_LOW_(guide1)
17 7 0 10 -257985 -1 -1;
#X msg 495 301 1;
#X obj 495 326 tgl 15 0 ENABLE_LOW empty s:ENABLE_LOW 17 7 0 10 -262144
-1 -1 0 1;
#X obj 495 216 tgl 15 0 ENABLE empty s:ENABLE 17 7 0 10 -262144 -1
-1 0 1;
#X obj 396 46 bng 15 250 50 0 empty STOPALL stop 17 7 0 14 -258113
-262144 -258113;
#X obj 194 317 cnv 15 290 130 empty empty guide_A_DongRim 20 12 0 14
-232576 -66577 0;
#X obj 194 449 cnv 15 290 130 empty empty guide_B_GyuSun 20 12 0 14
-261682 -66577 0;
#X obj 225 417 s NOTE;
#X obj 225 547 s NOTE;
#X msg 225 392 20000 40 60 1;
#X msg 225 522 20000 41 60 1;
#X obj 225 347 bng 15 250 50 0 empty empty start_music_A 17 7 0 10
-232576 -1 -1;
#X obj 225 477 bng 15 250 50 0 empty empty start_music_B 17 7 0 10
-261682 -1 -1;
#X obj 495 559 s NOTE;
#X obj 365 347 bng 15 250 50 0 empty empty end_music_A 17 7 0 10 -159808
-1 -1;
#X obj 365 477 bng 15 250 50 0 empty empty end_music_B 17 7 0 10 -260097
-1 -1;
#X msg 365 392 20000 50 60 1;
#X msg 365 522 20000 51 60 1;
#N canvas 1 89 450 300 archive 0;
#X obj 47 166 del 4000;
#X obj 468 86 del 4000;
#X obj 48 306 del 4000;
#X obj 468 196 del 4000;
#X obj 468 306 del 4000;
#X obj 188 166 del 4000;
#X obj 188 306 del 4000;
#X obj 328 166 del 4000;
#X obj 328 306 del 4000;
#X restore 490 91 pd archive;
#X obj 495 166 del 1000;
#X obj 597 211 bng 15 250 50 0 STOPALL empty s:STOPALL 17 7 0 10 -262144
-1 -1;
#X obj 495 276 del 1000;
#X obj 597 311 bng 15 250 50 0 STOPALL empty s:STOPALL 17 7 0 10 -262144
-1 -1;
#X obj 38 151 tgl 15 0 empty empty empty 17 7 0 10 -262144 -1 -1 0
1;
#X obj 38 174 metro 40000;
#X obj 87 281 tgl 15 0 empty empty empty 17 7 0 10 -262144 -1 -1 0
1;
#X obj 87 304 metro 15000;
#X obj 38 22 key;
#X floatatom 38 47 5 0 0 0 - - -;
#X msg 38 96 1;
#X msg 64 121 0;
#X msg 90 96 1;
#X msg 116 121 0;
#X msg 268 121 0;
#X msg 319 121 0;
#X obj 38 71 sel 113 97 119 115 49 50 51 52 111 108 112 59 32;
#X obj 495 509 unpack f f f f;
#X obj 495 534 pack f f f f;
#X obj 525 367 key;
#X msg 525 420 60;
#X msg 549 445 70;
#X msg 574 420 80;
#X msg 598 445 90;
#X msg 623 420 100;
#X obj 525 479 t b a;
#X obj 525 392 sel 54 55 56 57 48;
#X connect 0 0 3 0;
#X connect 4 0 0 0;
#X connect 5 0 4 0;
#X connect 9 0 6 0;
#X connect 11 0 10 0;
#X connect 12 0 9 0;
#X connect 13 0 16 0;
#X connect 14 0 36 0;
#X connect 14 0 37 0;
#X connect 15 0 20 0;
#X connect 16 0 8 0;
#X connect 17 0 38 0;
#X connect 17 0 39 0;
#X connect 18 0 19 0;
#X connect 21 0 11 0;
#X connect 26 0 24 0;
#X connect 27 0 25 0;
#X connect 28 0 26 0;
#X connect 29 0 27 0;
#X connect 31 0 33 0;
#X connect 32 0 34 0;
#X connect 33 0 53 0;
#X connect 34 0 53 0;
#X connect 36 0 15 0;
#X connect 38 0 18 0;
#X connect 40 0 41 0;
#X connect 41 0 12 0;
#X connect 42 0 43 0;
#X connect 43 0 13 0;
#X connect 44 0 45 0;
#X connect 45 0 52 0;
#X connect 46 0 40 0;
#X connect 47 0 40 0;
#X connect 48 0 42 0;
#X connect 49 0 42 0;
#X connect 50 0 20 0;
#X connect 51 0 19 0;
#X connect 52 0 46 0;
#X connect 52 1 47 0;
#X connect 52 2 48 0;
#X connect 52 3 49 0;
#X connect 52 4 28 0;
#X connect 52 5 31 0;
#X connect 52 6 29 0;
#X connect 52 7 32 0;
#X connect 52 8 14 0;
#X connect 52 9 50 0;
#X connect 52 10 17 0;
#X connect 52 11 51 0;
#X connect 52 12 21 0;
#X connect 53 0 54 0;
#X connect 53 1 54 1;
#X connect 53 2 54 2;
#X connect 53 3 54 3;
#X connect 54 0 30 0;
#X connect 55 0 62 0;
#X connect 56 0 61 0;
#X connect 57 0 61 0;
#X connect 58 0 61 0;
#X connect 59 0 61 0;
#X connect 60 0 61 0;
#X connect 61 0 54 0;
#X connect 61 1 54 2;
#X connect 62 0 56 0;
#X connect 62 1 57 0;
#X connect 62 2 58 0;
#X connect 62 3 59 0;
#X connect 62 4 60 0;
