#N canvas 437 95 568 438 12;
#N canvas 78 143 1133 383 roundly 1;
#X msg 364 139 \$1 5000;
#X obj 364 162 unpack f f;
#X obj 364 185 s X1;
#X obj 421 185 s X2;
#X obj 54 208 r HELLO;
#X obj 54 254 unpack f f f f;
#X floatatom 85 283 5 0 0 0 - - -;
#X obj 107 311 hsl 1000 15 -50000 50000 0 0 empty empty empty -2 -8
0 10 -260097 -262144 -1 0 1;
#X obj 107 331 hsl 1000 15 -50000 50000 0 0 empty empty empty -2 -8
0 10 -13381 -262144 -1 0 1;
#X obj 164 254 unpack f f f f;
#X floatatom 195 283 5 0 0 0 - - -;
#X floatatom 263 99 5 0 0 0 target_pos - -;
#X obj 107 31 hsl 1000 15 -50000 50000 0 0 empty empty empty -2 -8
0 10 -260097 -262144 -1 49950 1;
#X obj 107 51 hsl 1000 15 -50000 50000 0 0 empty empty empty -2 -8
0 10 -13381 -262144 -1 49950 1;
#X obj 263 121 t b a;
#X msg 714 139 \$1 5000;
#X obj 714 162 unpack f f;
#X obj 714 185 s X1;
#X obj 771 185 s X2;
#X floatatom 613 99 5 0 0 0 target_pos - -;
#X obj 613 121 t b a;
#X obj 16 26 loadbang;
#X msg 16 49 0;
#X obj 104 81 skip 500;
#X obj 358 81 skip 500;
#X obj 263 209 s NOTE;
#X obj 613 209 s NOTE;
#X msg 832 97 1.2e+06;
#X msg 613 150 20200 0 0 1;
#X msg 915 112 0;
#X msg 263 150 20100 0 0 1;
#X obj 54 231 route 20100 20200;
#X connect 0 0 1 0;
#X connect 1 0 2 0;
#X connect 1 1 3 0;
#X connect 4 0 31 0;
#X connect 5 1 6 0;
#X connect 6 0 7 0;
#X connect 9 1 10 0;
#X connect 10 0 8 0;
#X connect 11 0 14 0;
#X connect 12 0 23 0;
#X connect 13 0 24 0;
#X connect 14 0 30 0;
#X connect 14 1 0 0;
#X connect 15 0 16 0;
#X connect 16 0 17 0;
#X connect 16 1 18 0;
#X connect 19 0 20 0;
#X connect 20 0 28 0;
#X connect 20 1 15 0;
#X connect 21 0 22 0;
#X connect 22 0 12 0;
#X connect 22 0 13 0;
#X connect 23 0 11 0;
#X connect 24 0 19 0;
#X connect 27 0 19 0;
#X connect 28 0 26 0;
#X connect 29 0 19 0;
#X connect 30 0 25 0;
#X connect 31 0 5 0;
#X connect 31 1 9 0;
#X restore 425 68 pd roundly;
#N canvas 0 23 450 278 (subpatch) 0;
#X array riff11 10 float 3;
#A 0 0.342857 0.67619 0.371429 0.685714 0.352381 0.638095 0.352381
0.609524 0.333333 0.0285714;
#X coords 0 1 10 0 150 105 1 0 0;
#X restore 222 47 graph;
#N canvas 0 23 450 278 (subpatch) 0;
#X array riff10 50 float 3;
#A 0 0.809524 0.809524 0.819048 0.819048 0.819048 0.809524 0.7 0.695239
0.695239 0.695239 0.695239 0.438095 0.695239 0.690477 0.685715 0.447619
0.680952 0.680952 0.680952 0.680952 0.680952 0.82381 0.82381 0.666666
0.666666 0.671429 0.671429 0.814286 0.814286 0.657142 0.657142 0.657142
0.642856 0.623807 0.623807 0.623807 0.809524 0.361905 0.809524 0.361905
0.714285 0.714285 0.723809 0.761905 0.761905 0.771429 0.771429 0.771429
0.771429 0.800001;
#X coords 0 1 50 0 150 105 1 0 0;
#X restore 62 47 graph;
#X obj 62 179 tgl 20 0 empty empty empty 17 7 0 10 -262130 -1 -1 0
1;
#X obj 175 189 tgl 20 0 empty empty 3001 17 7 0 10 -257985 -1 -1 0
1;
#X obj 62 204 metro 2000;
#X obj 222 179 tgl 20 0 empty empty empty 17 7 0 10 -262130 -1 -1 0
1;
#X obj 335 189 tgl 20 0 empty empty 3001 17 7 0 10 -257985 -1 -1 0
1;
#X obj 222 204 metro 2000;
#X obj 62 343 s NOTE;
#X obj 222 343 s NOTE;
#X obj 222 238 riff 200 3001;
#X msg 127 157 symbol riff10;
#X msg 287 157 symbol riff11;
#X obj 62 238 riff 170 3120;
#X connect 3 0 5 0;
#X connect 4 0 14 3;
#X connect 5 0 14 0;
#X connect 6 0 8 0;
#X connect 7 0 11 3;
#X connect 8 0 11 0;
#X connect 11 0 10 0;
#X connect 12 0 14 1;
#X connect 13 0 11 1;
#X connect 14 0 9 0;
