#N canvas 485 95 461 502 10;
#X msg 37 337 0;
#X obj 349 303 loadbang;
#X obj 302 406 bng 15 250 50 0 empty empty empty 17 7 0 10 -262144
-1 -1;
#X text 35 318 stop!;
#X obj 167 249 bng 15 250 50 0 empty empty motivated! 17 7 0 10 -262144
-1 -1;
#X msg 322 406 0;
#X obj 322 429 v \$0-STATE;
#X msg 164 44 1;
#X obj 164 67 v \$0-STATE;
#N canvas 651 95 533 644 world 0;
#X floatatom 16 94 5 0 0 0 - - -;
#X obj 16 293 t a b;
#X obj 16 372 spigot;
#X obj 67 357 tgl 15 0 empty empty free_:) 17 7 0 10 -262144 -1 -1
1 1;
#X obj 67 334 == 0;
#X obj 16 316 sel 1;
#X text 41 402 think;
#X obj 16 428 gauss 1 0;
#X floatatom 16 474 5 0 0 0 - - -;
#X obj 16 544 sel 1;
#X obj 65 562 tgl 15 0 empty empty empty 17 7 0 10 -262144 -1 -1 0
1;
#X floatatom 110 504 5 0 0 0 stress - -;
#X obj 238 555 +;
#X obj 238 502 t a b;
#X obj 238 326 tgl 15 0 empty empty empty 17 7 0 10 -262144 -1 -1 1
1;
#X floatatom 238 480 8 0 0 0 - - -;
#X obj 16 521 >;
#X floatatom 16 137 5 0 0 0 - - -;
#X obj 238 375 t b b;
#X obj 285 416 sel 1 0;
#X obj 64 164 bng 15 250 50 0 empty empty listen 17 7 0 10 -191407
-257985 -1;
#X obj 238 578 max 0;
#X text 109 114 listening speed;
#X text 56 93 speed of happenings;
#X text 69 210 world is quiet?;
#X text 90 285 status of me;
#X obj 147 329 tgl 15 0 empty empty busy. 17 7 0 10 -262144 -1 -1 0
1;
#X obj 16 451 abs;
#N canvas 0 50 450 250 (subpatch) 0;
#X array \$0-stress 100 float 2;
#X coords 0 100 100 0 200 150 1 0 0;
#X restore 295 45 graph;
#X obj 238 303 loadbang;
#X text 78 227 condition of state change;
#X obj 238 346 metro 100;
#N canvas 1 89 319 212 (subpatch) 0;
#X obj 12 54 metro 100;
#X obj 12 34 tgl 15 0 empty empty empty 17 7 0 10 -262144 -1 -1 1 1
;
#X obj 12 100 t a b;
#X obj 117 77 f;
#X obj 144 77 + 1;
#X obj 117 100 mod 100;
#X obj 12 11 loadbang;
#X obj 12 77 v \$0-STRESS;
#X obj 12 123 tabwrite \$0-stress;
#X msg 78 11 0;
#X connect 0 0 7 0;
#X connect 1 0 0 0;
#X connect 2 0 8 0;
#X connect 2 1 3 0;
#X connect 3 0 4 0;
#X connect 3 0 5 0;
#X connect 4 0 3 1;
#X connect 5 0 8 1;
#X connect 6 0 1 0;
#X connect 7 0 2 0;
#X connect 9 0 7 0;
#X restore 473 200 pd;
#X obj 285 393 v \$0-STATE;
#X obj 265 525 v \$0-STRESS;
#X obj 238 601 v \$0-STRESS;
#X obj 67 311 v \$0-STATE;
#X obj 16 597 outlet;
#X obj 373 235 tgl 15 0 empty empty empty 17 7 0 10 -262144 -1 -1 1
1;
#X obj 373 255 metro 50;
#X obj 373 212 loadbang;
#X obj 373 278 v \$0-STATE;
#X obj 373 301 s \$0-status-now;
#X obj 16 39 r WORLD_ENERGY;
#X text 378 440 working stress;
#X text 378 460 resting relax;
#X obj 16 66 +;
#X obj 43 66 tgl 15 0 empty ONOFF r:ONOFF 17 7 0 10 -262144 -1 -1 0
1;
#X obj 16 114 resample 100;
#X msg 304 462 -0.05;
#X obj 16 210 < 0.65;
#X msg 285 439 0.25;
#X connect 0 0 48 0;
#X connect 1 0 5 0;
#X connect 1 1 36 0;
#X connect 2 0 7 0;
#X connect 3 0 2 1;
#X connect 4 0 3 0;
#X connect 5 0 2 0;
#X connect 7 0 27 0;
#X connect 8 0 16 0;
#X connect 9 0 37 0;
#X connect 11 0 16 1;
#X connect 12 0 21 0;
#X connect 13 0 12 0;
#X connect 13 1 34 0;
#X connect 14 0 31 0;
#X connect 15 0 13 0;
#X connect 16 0 9 0;
#X connect 16 0 10 0;
#X connect 17 0 20 0;
#X connect 17 0 50 0;
#X connect 18 0 15 0;
#X connect 18 1 33 0;
#X connect 19 0 51 0;
#X connect 19 1 49 0;
#X connect 21 0 11 0;
#X connect 21 0 35 0;
#X connect 27 0 8 0;
#X connect 29 0 14 0;
#X connect 31 0 18 0;
#X connect 33 0 19 0;
#X connect 34 0 12 1;
#X connect 36 0 4 0;
#X connect 36 0 26 0;
#X connect 38 0 39 0;
#X connect 39 0 41 0;
#X connect 40 0 38 0;
#X connect 41 0 42 0;
#X connect 43 0 46 0;
#X connect 46 0 0 0;
#X connect 47 0 46 1;
#X connect 48 0 17 0;
#X connect 49 0 15 0;
#X connect 50 0 1 0;
#X connect 51 0 15 0;
#X restore 167 226 pd world and me;
#N canvas 548 100 682 544 expressions 0;
#N canvas 0 23 450 278 (subpatch) 0;
#X array copper1 50 float 3;
#A 0 0.161905 0.171429 0.190476 0.209524 0.24762 0.323809 0.361904
0.390476 0.428571 0.438094 0.419047 0.371428 0.333333 0.257144 0.190476
0.161905 0.133333 0.12381 0.12381 0.133333 0.190476 0.2 0.266667 0.352381
0.390476 0.419045 0.409522 0.371429 0.333334 0.266667 0.219049 0.228571
0.161905 0.133334 0.142857 0.152381 0.209525 0.238096 0.333331 0.4
0.419047 0.419047 0.380952 0.314286 0.266667 0.238096 0.209525 0.200001
0.190477 0.190477;
#X coords 0 1 50 0 150 105 1 0 0;
#X restore 26 68 graph;
#N canvas 0 23 450 278 (subpatch) 0;
#X array copper4 25 float 3;
#A 0 0.314285 0.314285 0.314285 0.00952381 0.00952387 0.00952387 0.314286
0.314285 0.304762 0.0190476 0.0190476 0.0190476 0.314286 0.314286 0.314286
0.304762 0.0190476 0.0190476 0.0190476 0.314285 0.314285 0.323809 0.323809
0.0190476 0.0190476;
#X coords 0 1 25 0 150 105 1 0 0;
#X restore 504 68 graph;
#N canvas 0 23 450 278 (subpatch) 0;
#X array copper3 40 float 3;
#A 0 1 1.18095 0.980948 0.77143 0.609526 0.485717 0.361908 0.304766
0.00952375 0.00952375 0.00952375 1.08571 0.990476 0.838095 0.857142
0.552383 0.438098 0.314289 0.209528 0.171429 0.00952482 0.0190476 0.00952482
1.12381 0.971429 0.819044 0.73333 0.552379 0.399999 0.266666 0.00952399
0.00952399 0.00952381 1.07619 1.02857 0.828572 0.733335 0.714287 0.428572
0.266668;
#X coords 0 1 40 0 150 105 1 0 0;
#X restore 346 68 graph;
#N canvas 84 25 450 278 (subpatch) 0;
#X array copper2 15 float 3;
#A 0 0.380952 0.428575 0.447622 0.485717 0.523812 0.580955 0.61905
0.657145 0.714287 0.780954 0.800001 0.857144 0.895239 0.933334 0.971429
;
#X coords 0 1 15 0 150 105 1 0 0;
#X restore 186 68 graph;
#X obj 38 195 inlet;
#X obj 38 276 outlet;
#X obj 38 247 t b a;
#X obj 240 242 s \$0-word;
#X obj 148 333 bng 15 250 50 0 \$0-reload empty s:reload 17 7 0 10
-262144 -1 -1;
#X obj 148 265 + 1;
#X floatatom 148 288 5 0 0 0 - - -;
#X obj 148 310 array_copier copper;
#N canvas 84 25 450 278 (subpatch) 0;
#X array copper0 10 float 3;
#A 0 0.352379 0.361903 0.371427 0.399998 0.409522 0.419046 0.438094
0.457142 0.476189 0.495237;
#X coords 0 1 10 0 150 105 1 0 0;
#X restore 327 397 graph;
#X obj 197 474 bng 15 250 50 0 \$0-reload empty s:reload 17 7 0 10
-262144 -1 -1;
#X obj 197 451 array_copier copper;
#X obj 170 409 t b b;
#X msg 197 430 0;
#X obj 170 389 bng 15 250 50 0 empty ACT0 r:ACT0 17 7 0 10 -262144
-1 -1;
#N canvas 0 23 450 278 (subpatch) 0;
#X array copper5 5 float 3;
#A 0 1.18095 1.3238 1.41904 1.37142 1.17143;
#X coords 0 1 5 0 150 105 1 0 0;
#X restore 505 199 graph;
#X obj 38 224 count 5;
#X connect 4 0 19 0;
#X connect 6 0 5 0;
#X connect 6 1 9 0;
#X connect 9 0 10 0;
#X connect 10 0 11 0;
#X connect 11 0 8 0;
#X connect 14 0 13 0;
#X connect 15 0 5 0;
#X connect 15 1 16 0;
#X connect 16 0 14 0;
#X connect 17 0 15 0;
#X connect 19 0 6 0;
#X connect 19 0 7 0;
#X restore 48 226 pd expressions;
#N canvas 0 23 450 278 (subpatch) 0;
#X array copper 25 float 3;
#A 0 0.314285 0.314285 0.314285 0.00952381 0.00952387 0.00952387 0.314286
0.314285 0.304762 0.0190476 0.0190476 0.0190476 0.314286 0.314286 0.314286
0.304762 0.0190476 0.0190476 0.0190476 0.314285 0.314285 0.323809 0.323809
0.0190476 0.0190476;
#X coords 0 1 25 0 50 50 1 0 0;
#X restore 29 76 graph;
#X obj 24 138 hradio 15 1 0 4 empty \$0-word empty 0 -8 0 10 -83269
-262144 -1 3;
#X obj 88 7 bng 15 250 50 0 empty empty empty 17 7 0 10 -83269 -262144
-1;
#X obj 88 24 tgl 15 0 empty \$0-status-now empty 17 7 0 10 -83269 -262144
-1 0 1;
#X obj 88 429 s NOTE;
#X obj 88 406 spigot;
#X obj 7 420 tgl 15 0 empty empty empty 17 7 0 10 -262144 -1 -1 1 1
;
#X obj 7 397 loadbang;
#X obj 164 21 r COPPER;
#X obj 167 279 s COPPER;
#X obj 48 188 r COPPER;
#X obj 302 452 s COPPER_DONE;
#X msg 349 326 copper;
#X obj 369 349 bng 15 250 50 0 empty \$0-reload r:reload 17 7 0 10
-262144 -1 -1;
#X obj 302 112 metro 2000;
#X obj 302 92 bng 15 250 50 0 empty empty empty 17 7 0 10 -262144 -1
-1;
#X obj 377 140 r E_SEQ;
#X obj 302 135 v \$0-STRESS;
#X obj 302 158 *;
#X obj 302 181 v \$0-STRESS;
#X obj 88 306 riff1_random 900 3204 1000 1300;
#X obj 302 59 loadbang;
#X connect 0 0 31 0;
#X connect 1 0 23 0;
#X connect 2 0 5 0;
#X connect 2 0 22 0;
#X connect 4 0 20 0;
#X connect 5 0 6 0;
#X connect 7 0 8 0;
#X connect 9 0 4 0;
#X connect 10 0 31 0;
#X connect 16 0 15 0;
#X connect 17 0 16 1;
#X connect 18 0 17 0;
#X connect 19 0 7 0;
#X connect 19 0 13 0;
#X connect 21 0 10 0;
#X connect 23 0 31 1;
#X connect 24 0 23 0;
#X connect 25 0 28 0;
#X connect 26 0 25 0;
#X connect 27 0 29 1;
#X connect 28 0 29 0;
#X connect 29 0 30 0;
#X connect 31 0 16 0;
#X connect 31 3 2 0;
#X coords 0 -1 1 1 100 150 2 5 5;
