#N canvas 503 89 602 428 12;
#N canvas 240 89 701 438 wireless 0;
#X obj 359 305 spigot;
#X obj 408 290 tgl 15 0 empty empty empty 17 7 0 10 -262144 -1 -1 0
1;
#N canvas 676 408 512 395 buildOSC 0;
#X obj 319 66 t a b;
#X msg 456 84 [;
#X msg 34 327 ];
#X obj 68 236 r X1;
#X obj 98 236 r X2;
#X obj 128 236 r X3;
#X obj 158 236 r X4;
#X obj 53 266 f;
#X obj 34 126 t b b a;
#X obj 254 345 outlet;
#X obj 140 17 inlet;
#X obj 188 236 r PS;
#X obj 88 284 pack f f f f f;
#X msg 319 112 sendtyped /note/onoff f \$1;
#X msg 254 141 sendtyped /note/velocity f \$1;
#X msg 88 307 sendtyped /note/x fffff \$1 \$2 \$3 \$4 \$5;
#X msg 73 199 sendtyped /note/id i \$1;
#X msg 167 170 sendtyped /note/pitch f \$1;
#X obj 140 39 unpack f f f f;
#X connect 0 0 13 0;
#X connect 0 1 1 0;
#X connect 1 0 9 0;
#X connect 2 0 9 0;
#X connect 3 0 7 1;
#X connect 4 0 12 1;
#X connect 5 0 12 2;
#X connect 6 0 12 3;
#X connect 7 0 12 0;
#X connect 8 0 2 0;
#X connect 8 1 7 0;
#X connect 8 2 16 0;
#X connect 10 0 18 0;
#X connect 11 0 12 4;
#X connect 12 0 15 0;
#X connect 13 0 9 0;
#X connect 14 0 9 0;
#X connect 15 0 9 0;
#X connect 16 0 9 0;
#X connect 17 0 9 0;
#X connect 18 0 8 0;
#X connect 18 1 17 0;
#X connect 18 2 14 0;
#X connect 18 3 0 0;
#X restore 449 301 pd buildOSC for all;
#X obj 134 258 o.io.slipserial;
#X msg 302 238 devices;
#X msg 236 188 close;
#X obj 134 217 packOSC;
#X obj 134 192 r OSC;
#X obj 134 281 unpackOSC;
#X obj 134 304 routeOSC /hello;
#X obj 134 327 s HELLO;
#X obj 51 257 print OSC;
#X obj 51 230 spigot;
#X obj 100 195 tgl 15 0 empty empty empty 17 7 0 10 -262144 -1 -1 0
1;
#X obj 449 324 s OSC;
#X obj 449 262 r NOTE;
#X obj 359 332 print NOTE;
#X text 450 241 /id /pitch /velocity /onoff;
#X obj 51 300 spigot;
#X obj 100 285 tgl 15 0 empty empty empty 17 7 0 10 -262144 -1 -1 0
1;
#X obj 51 327 print HELLO;
#X text 133 53 * a wireless "field synth" - based on 'esp now' protocol
;
#X obj 254 304 tgl 15 0 empty empty connected? 17 7 0 10 -262144 -1
-1 1 1;
#X obj 213 97 inlet;
#X obj 213 122 sel 1 0;
#X obj 254 324 outlet;
#X msg 213 147 verbose 1 \, devicename /dev/ttyUSB0 \, baud 57600 \,
pollintervall 1;
#X connect 0 0 16 0;
#X connect 1 0 0 1;
#X connect 2 0 14 0;
#X connect 3 0 8 0;
#X connect 3 1 22 0;
#X connect 4 0 3 1;
#X connect 5 0 3 1;
#X connect 6 0 3 0;
#X connect 7 0 6 0;
#X connect 7 0 12 0;
#X connect 8 0 9 0;
#X connect 9 0 10 0;
#X connect 9 0 18 0;
#X connect 12 0 11 0;
#X connect 13 0 12 1;
#X connect 15 0 0 0;
#X connect 15 0 2 0;
#X connect 18 0 20 0;
#X connect 19 0 18 1;
#X connect 22 0 25 0;
#X connect 23 0 24 0;
#X connect 24 0 26 0;
#X connect 24 1 5 0;
#X connect 24 2 3 1;
#X connect 26 0 3 1;
#X restore 38 68 pd wireless;
#N canvas 1 89 1023 683 floors 0;
#X floatatom 366 103 5 0 0 1 sampleN - -;
#X floatatom 466 103 5 0 0 1 speakerID - -;
#X obj 276 36 t a b b b;
#X msg 296 78 40;
#X floatatom 296 103 5 0 0 1 vol - -;
#X msg 466 162 30;
#X obj 466 137 loadbang;
#N canvas 843 285 450 405 send 0;
#X obj 56 228 metro;
#X obj 44 364 s NOTE;
#X obj 24 273 tgl 15 0 empty empty start/stop 17 7 0 10 -262144 -1
-1 0 1;
#X obj 128 134 tabread length;
#X obj 128 109 - 1;
#X floatatom 128 159 5 0 0 0 - - -;
#X obj 128 208 * 1000;
#X msg 56 253 1;
#X obj 44 313 pack f f f f;
#X obj 128 183 +;
#X obj 91 53 inlet;
#X obj 174 72 inlet;
#X obj 214 172 inlet;
#X obj 274 232 inlet;
#X obj 24 22 inlet;
#X msg 44 338 \$4 \$3 \$2 \$1;
#X text 69 21 1 enable;
#X text 137 50 2 vol;
#X text 222 73 3 sampleN;
#X text 224 193 4 spkID;
#X text 289 256 5 delay (seconds);
#X obj 24 47 t a a;
#X connect 0 0 7 0;
#X connect 2 0 8 0;
#X connect 3 0 5 0;
#X connect 4 0 3 0;
#X connect 5 0 9 0;
#X connect 6 0 0 1;
#X connect 7 0 2 0;
#X connect 8 0 15 0;
#X connect 9 0 6 0;
#X connect 10 0 8 1;
#X connect 11 0 4 0;
#X connect 11 0 8 2;
#X connect 12 0 8 3;
#X connect 13 0 9 1;
#X connect 14 0 21 0;
#X connect 15 0 1 0;
#X connect 21 0 2 0;
#X connect 21 1 0 0;
#X restore 276 182 pd send NOTE;
#X msg 366 78 22;
#X msg 466 78 20003;
#X obj 276 16 tgl 15 0 empty ENABLE r:ENABLE 17 7 0 10 -262144 -1 -1
0 1;
#X floatatom 776 323 5 0 0 1 sampleN - -;
#X floatatom 876 323 5 0 0 1 speakerID - -;
#X obj 686 256 t a b b b;
#X floatatom 706 323 5 0 0 1 vol - -;
#X msg 876 382 30;
#X obj 876 357 loadbang;
#N canvas 843 285 450 405 send 0;
#X obj 56 228 metro;
#X obj 44 364 s NOTE;
#X obj 24 273 tgl 15 0 empty empty start/stop 17 7 0 10 -262144 -1
-1 0 1;
#X obj 128 134 tabread length;
#X obj 128 109 - 1;
#X floatatom 128 159 5 0 0 0 - - -;
#X obj 128 208 * 1000;
#X msg 56 253 1;
#X obj 44 313 pack f f f f;
#X obj 128 183 +;
#X obj 91 53 inlet;
#X obj 174 72 inlet;
#X obj 214 172 inlet;
#X obj 274 232 inlet;
#X obj 24 22 inlet;
#X msg 44 338 \$4 \$3 \$2 \$1;
#X text 69 21 1 enable;
#X text 137 50 2 vol;
#X text 222 73 3 sampleN;
#X text 224 193 4 spkID;
#X text 289 256 5 delay (seconds);
#X obj 24 47 t a a;
#X connect 0 0 7 0;
#X connect 2 0 8 0;
#X connect 3 0 5 0;
#X connect 4 0 3 0;
#X connect 5 0 9 0;
#X connect 6 0 0 1;
#X connect 7 0 2 0;
#X connect 8 0 15 0;
#X connect 9 0 6 0;
#X connect 10 0 8 1;
#X connect 11 0 4 0;
#X connect 11 0 8 2;
#X connect 12 0 8 3;
#X connect 13 0 9 1;
#X connect 14 0 21 0;
#X connect 15 0 1 0;
#X connect 21 0 2 0;
#X connect 21 1 0 0;
#X restore 686 402 pd send NOTE;
#X obj 686 236 tgl 15 0 empty ENABLE r:ENABLE 17 7 0 10 -262144 -1
-1 0 1;
#X floatatom 116 533 5 0 0 1 sampleN - -;
#X floatatom 216 533 5 0 0 1 speakerID - -;
#X obj 26 466 t a b b b;
#X floatatom 46 533 5 0 0 1 vol - -;
#X msg 216 592 30;
#X obj 216 567 loadbang;
#N canvas 843 285 450 405 send 0;
#X obj 56 228 metro;
#X obj 44 364 s NOTE;
#X obj 24 273 tgl 15 0 empty empty start/stop 17 7 0 10 -262144 -1
-1 0 1;
#X obj 128 134 tabread length;
#X obj 128 109 - 1;
#X floatatom 128 159 5 0 0 0 - - -;
#X obj 128 208 * 1000;
#X msg 56 253 1;
#X obj 44 313 pack f f f f;
#X obj 128 183 +;
#X obj 91 53 inlet;
#X obj 174 72 inlet;
#X obj 214 172 inlet;
#X obj 274 232 inlet;
#X obj 24 22 inlet;
#X msg 44 338 \$4 \$3 \$2 \$1;
#X text 69 21 1 enable;
#X text 137 50 2 vol;
#X text 222 73 3 sampleN;
#X text 224 193 4 spkID;
#X text 289 256 5 delay (seconds);
#X obj 24 47 t a a;
#X connect 0 0 7 0;
#X connect 2 0 8 0;
#X connect 3 0 5 0;
#X connect 4 0 3 0;
#X connect 5 0 9 0;
#X connect 6 0 0 1;
#X connect 7 0 2 0;
#X connect 8 0 15 0;
#X connect 9 0 6 0;
#X connect 10 0 8 1;
#X connect 11 0 4 0;
#X connect 11 0 8 2;
#X connect 12 0 8 3;
#X connect 13 0 9 1;
#X connect 14 0 21 0;
#X connect 15 0 1 0;
#X connect 21 0 2 0;
#X connect 21 1 0 0;
#X restore 26 612 pd send NOTE;
#X msg 216 508 20007;
#X msg 116 508 25;
#X obj 26 446 tgl 15 0 empty ENABLE r:ENABLE 17 7 0 10 -262144 -1 -1
0 1;
#X msg 776 298 15;
#X text 793 243 food tray;
#X floatatom 776 523 5 0 0 1 sampleN - -;
#X floatatom 876 523 5 0 0 1 speakerID - -;
#X obj 686 456 t a b b b;
#X floatatom 706 523 5 0 0 1 vol - -;
#X obj 876 557 loadbang;
#N canvas 843 285 450 405 send 0;
#X obj 56 228 metro;
#X obj 44 364 s NOTE;
#X obj 24 273 tgl 15 0 empty empty start/stop 17 7 0 10 -262144 -1
-1 0 1;
#X obj 128 134 tabread length;
#X obj 128 109 - 1;
#X floatatom 128 159 5 0 0 0 - - -;
#X obj 128 208 * 1000;
#X msg 56 253 1;
#X obj 44 313 pack f f f f;
#X obj 128 183 +;
#X obj 91 53 inlet;
#X obj 174 72 inlet;
#X obj 214 172 inlet;
#X obj 274 232 inlet;
#X obj 24 22 inlet;
#X msg 44 338 \$4 \$3 \$2 \$1;
#X text 69 21 1 enable;
#X text 137 50 2 vol;
#X text 222 73 3 sampleN;
#X text 224 193 4 spkID;
#X text 289 256 5 delay (seconds);
#X obj 24 47 t a a;
#X connect 0 0 7 0;
#X connect 2 0 8 0;
#X connect 3 0 5 0;
#X connect 4 0 3 0;
#X connect 5 0 9 0;
#X connect 6 0 0 1;
#X connect 7 0 2 0;
#X connect 8 0 15 0;
#X connect 9 0 6 0;
#X connect 10 0 8 1;
#X connect 11 0 4 0;
#X connect 11 0 8 2;
#X connect 12 0 8 3;
#X connect 13 0 9 1;
#X connect 14 0 21 0;
#X connect 15 0 1 0;
#X connect 21 0 2 0;
#X connect 21 1 0 0;
#X restore 686 602 pd send NOTE;
#X obj 686 436 tgl 15 0 empty ENABLE r:ENABLE 17 7 0 10 -262144 -1
-1 0 1;
#X msg 876 498 20009;
#X text 793 443 f2.annex gate;
#X msg 776 498 18;
#X msg 876 298 20017;
#X obj 276 236 tgl 15 0 empty ENABLE r:ENABLE 17 7 0 10 -262144 -1
-1 0 1;
#X msg 316 319 40;
#X floatatom 316 344 5 0 0 1 vol - -;
#X obj 276 256 t a b b b;
#X msg 396 319 40;
#X floatatom 396 344 5 0 0 1 vol - -;
#X obj 486 236 tgl 15 0 empty ENABLE r:ENABLE 17 7 0 10 -262144 -1
-1 0 1;
#X msg 526 319 40;
#X floatatom 526 344 5 0 0 1 vol - -;
#X obj 486 256 t a b b b;
#X msg 606 319 40;
#X floatatom 606 344 5 0 0 1 vol - -;
#X text 383 254 headphone;
#X text 383 268 20 -> 19;
#X text 593 254 headphone;
#X text 593 268 20 -> 19;
#N canvas 497 89 942 665 send 0;
#X obj 63 376 metro;
#X obj 31 574 s NOTE;
#X obj 31 443 tgl 15 0 empty empty start/stop 17 7 0 10 -262144 -1
-1 0 1;
#X msg 63 401 1;
#X obj 31 523 pack f f f f;
#X obj 138 311 inlet;
#X obj 31 32 inlet;
#X msg 31 548 \$4 \$3 \$2 \$1;
#X text 76 31 1 enable;
#X obj 31 77 t a a;
#X floatatom 85 489 5 0 0 2 sampleN - -;
#X floatatom 155 547 5 0 0 1 speakerID - -;
#X obj 155 482 loadbang;
#X obj 431 187 tabread length;
#X obj 431 162 - 1;
#X floatatom 431 212 5 0 0 0 - - -;
#X obj 574 316 * 1000;
#X obj 556 266 +;
#X obj 574 187 tabread length;
#X obj 574 162 - 1;
#X floatatom 574 212 5 0 0 0 - - -;
#X floatatom 574 138 5 0 0 1 sampleN - -;
#X obj 574 291 +;
#X floatatom 431 138 5 0 0 1 sampleN - -;
#X obj 511 37 loadbang;
#X obj 511 62 bng 15 250 50 0 empty empty empty 17 7 0 10 -262144 -1
-1;
#X obj 511 82 t b b b;
#X obj 431 316 * 1000;
#X obj 299 478 delay;
#X obj 458 394 inlet;
#X text 154 288 2 vol1;
#X msg 299 503 1;
#X floatatom 485 489 5 0 0 2 sampleN - -;
#X floatatom 555 547 5 0 0 1 speakerID - -;
#X obj 555 482 loadbang;
#X obj 431 574 s NOTE;
#X obj 431 523 pack f f f f;
#X msg 431 548 \$4 \$3 \$2 \$1;
#X msg 431 113 20;
#X msg 574 113 19;
#X text 474 371 3 vol2;
#X obj 431 291 +;
#X text 695 92 between delay (sec);
#X text 695 142 between delay + gap delay (sec);
#X obj 289 559 sel 0;
#X msg 289 584 0;
#X msg 339 534 stop;
#X msg 155 522 20014;
#X msg 555 522 20014;
#X obj 279 478 bng 15 250 50 0 empty empty empty 17 7 0 10 -262144
-1 -1;
#X floatatom 574 341 10 0 0 0 - - -;
#X floatatom 431 341 10 0 0 0 - - -;
#X obj 189 122 timer;
#X obj 189 97 b;
#X obj 221 97 metro 50;
#X obj 221 77 bng 15 250 50 0 empty empty empty 17 7 0 10 -262144 -1
-1;
#X obj 189 172 int;
#X floatatom 189 197 5 0 0 0 - - -;
#X obj 189 147 / 1000;
#X obj 299 453 b;
#X obj 43 376 bng 15 250 50 0 empty empty empty 17 7 0 10 -262144 -1
-1;
#X obj 31 57 tgl 15 0 empty empty empty 17 7 0 10 -262144 -1 -1 0 1
;
#X msg 697 113 4;
#X msg 731 164 8;
#X connect 0 0 3 0;
#X connect 0 0 59 0;
#X connect 0 0 60 0;
#X connect 2 0 4 0;
#X connect 3 0 2 0;
#X connect 4 0 7 0;
#X connect 5 0 4 1;
#X connect 6 0 61 0;
#X connect 7 0 1 0;
#X connect 9 0 2 0;
#X connect 9 0 44 0;
#X connect 9 1 0 0;
#X connect 9 1 53 0;
#X connect 10 0 4 2;
#X connect 11 0 4 3;
#X connect 12 0 47 0;
#X connect 13 0 15 0;
#X connect 14 0 13 0;
#X connect 15 0 17 0;
#X connect 15 0 41 0;
#X connect 16 0 0 1;
#X connect 16 0 50 0;
#X connect 17 0 22 0;
#X connect 18 0 20 0;
#X connect 19 0 18 0;
#X connect 20 0 17 1;
#X connect 21 0 19 0;
#X connect 21 0 32 0;
#X connect 22 0 16 0;
#X connect 23 0 14 0;
#X connect 23 0 10 0;
#X connect 24 0 25 0;
#X connect 25 0 26 0;
#X connect 26 0 38 0;
#X connect 26 1 39 0;
#X connect 26 2 63 0;
#X connect 26 2 62 0;
#X connect 27 0 28 1;
#X connect 27 0 51 0;
#X connect 28 0 31 0;
#X connect 28 0 49 0;
#X connect 29 0 36 1;
#X connect 31 0 36 0;
#X connect 32 0 36 2;
#X connect 33 0 36 3;
#X connect 34 0 48 0;
#X connect 36 0 37 0;
#X connect 37 0 35 0;
#X connect 38 0 23 0;
#X connect 39 0 21 0;
#X connect 41 0 27 0;
#X connect 44 0 45 0;
#X connect 44 0 46 0;
#X connect 45 0 36 0;
#X connect 46 0 28 0;
#X connect 47 0 11 0;
#X connect 48 0 33 0;
#X connect 52 0 58 0;
#X connect 53 0 52 0;
#X connect 54 0 52 1;
#X connect 55 0 54 0;
#X connect 56 0 57 0;
#X connect 58 0 56 0;
#X connect 59 0 28 0;
#X connect 61 0 9 0;
#X connect 62 0 41 1;
#X connect 63 0 22 1;
#X restore 276 402 pd send NOTE;
#N canvas 497 166 942 665 send 0;
#X obj 63 376 metro;
#X obj 31 574 s NOTE;
#X obj 31 443 tgl 15 0 empty empty start/stop 17 7 0 10 -262144 -1
-1 0 1;
#X msg 63 401 1;
#X obj 31 523 pack f f f f;
#X obj 138 311 inlet;
#X obj 31 32 inlet;
#X msg 31 548 \$4 \$3 \$2 \$1;
#X text 76 31 1 enable;
#X obj 31 77 t a a;
#X floatatom 85 489 5 0 0 2 sampleN - -;
#X floatatom 155 547 5 0 0 1 speakerID - -;
#X obj 155 482 loadbang;
#X obj 431 187 tabread length;
#X obj 431 162 - 1;
#X floatatom 431 212 5 0 0 0 - - -;
#X obj 574 316 * 1000;
#X obj 556 266 +;
#X obj 574 187 tabread length;
#X obj 574 162 - 1;
#X floatatom 574 212 5 0 0 0 - - -;
#X floatatom 574 138 5 0 0 1 sampleN - -;
#X obj 574 291 +;
#X floatatom 431 138 5 0 0 1 sampleN - -;
#X obj 511 37 loadbang;
#X obj 511 62 bng 15 250 50 0 empty empty empty 17 7 0 10 -262144 -1
-1;
#X obj 511 82 t b b b;
#X obj 431 316 * 1000;
#X obj 299 478 delay;
#X obj 458 394 inlet;
#X text 154 288 2 vol1;
#X msg 299 503 1;
#X floatatom 485 489 5 0 0 2 sampleN - -;
#X floatatom 555 547 5 0 0 1 speakerID - -;
#X obj 555 482 loadbang;
#X obj 431 574 s NOTE;
#X obj 431 523 pack f f f f;
#X msg 431 548 \$4 \$3 \$2 \$1;
#X msg 431 113 20;
#X msg 574 113 19;
#X text 474 371 3 vol2;
#X obj 431 291 +;
#X text 695 92 between delay (sec);
#X text 695 142 between delay + gap delay (sec);
#X obj 289 559 sel 0;
#X msg 289 584 0;
#X msg 339 534 stop;
#X obj 279 478 bng 15 250 50 0 empty empty empty 17 7 0 10 -262144
-1 -1;
#X floatatom 574 341 10 0 0 0 - - -;
#X floatatom 431 341 10 0 0 0 - - -;
#X obj 189 122 timer;
#X obj 189 97 b;
#X obj 221 97 metro 50;
#X obj 221 77 bng 15 250 50 0 empty empty empty 17 7 0 10 -262144 -1
-1;
#X obj 189 172 int;
#X floatatom 189 197 5 0 0 0 - - -;
#X obj 189 147 / 1000;
#X obj 299 453 b;
#X obj 43 376 bng 15 250 50 0 empty empty empty 17 7 0 10 -262144 -1
-1;
#X obj 31 57 tgl 15 0 empty empty empty 17 7 0 10 -262144 -1 -1 0 1
;
#X msg 697 113 4;
#X msg 731 164 8;
#X msg 155 522 20015;
#X msg 555 522 20015;
#X connect 0 0 3 0;
#X connect 0 0 57 0;
#X connect 0 0 58 0;
#X connect 2 0 4 0;
#X connect 3 0 2 0;
#X connect 4 0 7 0;
#X connect 5 0 4 1;
#X connect 6 0 59 0;
#X connect 7 0 1 0;
#X connect 9 0 2 0;
#X connect 9 0 44 0;
#X connect 9 1 0 0;
#X connect 9 1 51 0;
#X connect 10 0 4 2;
#X connect 11 0 4 3;
#X connect 12 0 62 0;
#X connect 13 0 15 0;
#X connect 14 0 13 0;
#X connect 15 0 17 0;
#X connect 15 0 41 0;
#X connect 16 0 0 1;
#X connect 16 0 48 0;
#X connect 17 0 22 0;
#X connect 18 0 20 0;
#X connect 19 0 18 0;
#X connect 20 0 17 1;
#X connect 21 0 19 0;
#X connect 21 0 32 0;
#X connect 22 0 16 0;
#X connect 23 0 14 0;
#X connect 23 0 10 0;
#X connect 24 0 25 0;
#X connect 25 0 26 0;
#X connect 26 0 38 0;
#X connect 26 1 39 0;
#X connect 26 2 61 0;
#X connect 26 2 60 0;
#X connect 27 0 28 1;
#X connect 27 0 49 0;
#X connect 28 0 31 0;
#X connect 28 0 47 0;
#X connect 29 0 36 1;
#X connect 31 0 36 0;
#X connect 32 0 36 2;
#X connect 33 0 36 3;
#X connect 34 0 63 0;
#X connect 36 0 37 0;
#X connect 37 0 35 0;
#X connect 38 0 23 0;
#X connect 39 0 21 0;
#X connect 41 0 27 0;
#X connect 44 0 45 0;
#X connect 44 0 46 0;
#X connect 45 0 36 0;
#X connect 46 0 28 0;
#X connect 50 0 56 0;
#X connect 51 0 50 0;
#X connect 52 0 50 1;
#X connect 53 0 52 0;
#X connect 54 0 55 0;
#X connect 56 0 54 0;
#X connect 57 0 28 0;
#X connect 59 0 9 0;
#X connect 60 0 41 1;
#X connect 61 0 22 1;
#X connect 62 0 11 0;
#X connect 63 0 33 0;
#X restore 486 402 pd send NOTE;
#X text 383 240 20014;
#X text 593 240 20015;
#X msg 706 298 40;
#X obj 26 236 tgl 15 0 empty ENABLE r:ENABLE 17 7 0 10 -262144 -1 -1
0 1;
#X floatatom 66 344 5 0 0 1 vol - -;
#X obj 26 256 t a b b b;
#X floatatom 146 344 5 0 0 1 vol - -;
#N canvas 497 89 942 665 send 0;
#X obj 63 376 metro;
#X obj 31 574 s NOTE;
#X obj 31 443 tgl 15 0 empty empty start/stop 17 7 0 10 -262144 -1
-1 0 1;
#X msg 63 401 1;
#X obj 31 523 pack f f f f;
#X obj 138 311 inlet;
#X obj 31 32 inlet;
#X msg 31 548 \$4 \$3 \$2 \$1;
#X text 76 31 1 enable;
#X obj 31 77 t a a;
#X floatatom 85 489 5 0 0 2 sampleN - -;
#X floatatom 155 547 5 0 0 1 speakerID - -;
#X obj 155 482 loadbang;
#X obj 431 187 tabread length;
#X obj 431 162 - 1;
#X floatatom 431 212 5 0 0 0 - - -;
#X obj 574 316 * 1000;
#X obj 556 266 +;
#X obj 574 187 tabread length;
#X obj 574 162 - 1;
#X floatatom 574 212 5 0 0 0 - - -;
#X floatatom 574 138 5 0 0 1 sampleN - -;
#X obj 574 291 +;
#X floatatom 431 138 5 0 0 1 sampleN - -;
#X obj 511 37 loadbang;
#X obj 511 62 bng 15 250 50 0 empty empty empty 17 7 0 10 -262144 -1
-1;
#X obj 511 82 t b b b;
#X obj 431 316 * 1000;
#X obj 299 478 delay;
#X obj 458 394 inlet;
#X text 154 288 2 vol1;
#X msg 299 503 1;
#X floatatom 485 489 5 0 0 2 sampleN - -;
#X floatatom 555 547 5 0 0 1 speakerID - -;
#X obj 555 482 loadbang;
#X obj 431 574 s NOTE;
#X obj 431 523 pack f f f f;
#X msg 431 548 \$4 \$3 \$2 \$1;
#X text 474 371 3 vol2;
#X obj 431 291 +;
#X text 695 92 between delay (sec);
#X text 695 142 between delay + gap delay (sec);
#X obj 289 559 sel 0;
#X msg 289 584 0;
#X msg 339 534 stop;
#X obj 279 478 bng 15 250 50 0 empty empty empty 17 7 0 10 -262144
-1 -1;
#X floatatom 574 341 10 0 0 0 - - -;
#X floatatom 431 341 10 0 0 0 - - -;
#X obj 189 122 timer;
#X obj 189 97 b;
#X obj 221 97 metro 50;
#X obj 221 77 bng 15 250 50 0 empty empty empty 17 7 0 10 -262144 -1
-1;
#X obj 189 172 int;
#X floatatom 189 197 5 0 0 0 - - -;
#X obj 189 147 / 1000;
#X obj 299 453 b;
#X obj 43 376 bng 15 250 50 0 empty empty empty 17 7 0 10 -262144 -1
-1;
#X obj 31 57 tgl 15 0 empty empty empty 17 7 0 10 -262144 -1 -1 0 1
;
#X msg 155 522 20018;
#X msg 555 522 20004;
#X msg 431 113 13;
#X msg 574 113 21;
#X msg 697 113 1;
#X msg 731 164 1;
#X connect 0 0 3 0;
#X connect 0 0 55 0;
#X connect 0 0 56 0;
#X connect 2 0 4 0;
#X connect 3 0 2 0;
#X connect 4 0 7 0;
#X connect 5 0 4 1;
#X connect 6 0 57 0;
#X connect 7 0 1 0;
#X connect 9 0 2 0;
#X connect 9 0 42 0;
#X connect 9 1 0 0;
#X connect 9 1 49 0;
#X connect 10 0 4 2;
#X connect 11 0 4 3;
#X connect 12 0 58 0;
#X connect 13 0 15 0;
#X connect 14 0 13 0;
#X connect 15 0 17 0;
#X connect 15 0 39 0;
#X connect 16 0 0 1;
#X connect 16 0 46 0;
#X connect 17 0 22 0;
#X connect 18 0 20 0;
#X connect 19 0 18 0;
#X connect 20 0 17 1;
#X connect 21 0 19 0;
#X connect 21 0 32 0;
#X connect 22 0 16 0;
#X connect 23 0 14 0;
#X connect 23 0 10 0;
#X connect 24 0 25 0;
#X connect 25 0 26 0;
#X connect 26 0 60 0;
#X connect 26 1 61 0;
#X connect 26 2 63 0;
#X connect 26 2 62 0;
#X connect 27 0 28 1;
#X connect 27 0 47 0;
#X connect 28 0 31 0;
#X connect 28 0 45 0;
#X connect 29 0 36 1;
#X connect 31 0 36 0;
#X connect 32 0 36 2;
#X connect 33 0 36 3;
#X connect 34 0 59 0;
#X connect 36 0 37 0;
#X connect 37 0 35 0;
#X connect 39 0 27 0;
#X connect 42 0 43 0;
#X connect 42 0 44 0;
#X connect 43 0 36 0;
#X connect 44 0 28 0;
#X connect 48 0 54 0;
#X connect 49 0 48 0;
#X connect 50 0 48 1;
#X connect 51 0 50 0;
#X connect 52 0 53 0;
#X connect 54 0 52 0;
#X connect 55 0 28 0;
#X connect 57 0 9 0;
#X connect 58 0 11 0;
#X connect 59 0 33 0;
#X connect 60 0 23 0;
#X connect 61 0 21 0;
#X connect 62 0 39 1;
#X connect 63 0 22 1;
#X restore 26 402 pd send NOTE;
#X text 133 240 20018 20004;
#X text 151 456 floor3 room;
#X text 391 26 room size;
#X obj 26 16 tgl 15 0 empty ENABLE r:ENABLE 17 7 0 10 -262144 -1 -1
0 1;
#X floatatom 66 124 5 0 0 1 vol - -;
#X obj 26 36 t a b b b;
#X floatatom 146 124 5 0 0 1 vol - -;
#N canvas 216 194 942 665 send 0;
#X obj 63 376 metro;
#X obj 31 574 s NOTE;
#X obj 31 443 tgl 15 0 empty empty start/stop 17 7 0 10 -262144 -1
-1 0 1;
#X msg 63 401 1;
#X obj 31 523 pack f f f f;
#X obj 138 311 inlet;
#X obj 31 32 inlet;
#X msg 31 548 \$4 \$3 \$2 \$1;
#X text 76 31 1 enable;
#X obj 31 77 t a a;
#X floatatom 85 489 5 0 0 2 sampleN - -;
#X floatatom 155 547 5 0 0 1 speakerID - -;
#X obj 155 482 loadbang;
#X obj 431 187 tabread length;
#X obj 431 162 - 1;
#X floatatom 431 212 5 0 0 0 - - -;
#X obj 574 316 * 1000;
#X obj 556 266 +;
#X obj 574 187 tabread length;
#X obj 574 162 - 1;
#X floatatom 574 212 5 0 0 0 - - -;
#X floatatom 574 138 5 0 0 1 sampleN - -;
#X obj 574 291 +;
#X floatatom 431 138 5 0 0 1 sampleN - -;
#X obj 511 37 loadbang;
#X obj 511 62 bng 15 250 50 0 empty empty empty 17 7 0 10 -262144 -1
-1;
#X obj 511 82 t b b b;
#X obj 431 316 * 1000;
#X obj 299 478 delay;
#X obj 458 394 inlet;
#X text 154 288 2 vol1;
#X msg 299 503 1;
#X floatatom 485 489 5 0 0 2 sampleN - -;
#X floatatom 555 547 5 0 0 1 speakerID - -;
#X obj 555 482 loadbang;
#X obj 431 574 s NOTE;
#X obj 431 523 pack f f f f;
#X msg 431 548 \$4 \$3 \$2 \$1;
#X text 474 371 3 vol2;
#X obj 431 291 +;
#X text 695 92 between delay (sec);
#X text 695 142 between delay + gap delay (sec);
#X obj 289 559 sel 0;
#X msg 289 584 0;
#X msg 339 534 stop;
#X obj 279 478 bng 15 250 50 0 empty empty empty 17 7 0 10 -262144
-1 -1;
#X floatatom 574 341 10 0 0 0 - - -;
#X floatatom 431 341 10 0 0 0 - - -;
#X obj 189 122 timer;
#X obj 189 97 b;
#X obj 221 97 metro 50;
#X obj 221 77 bng 15 250 50 0 empty empty empty 17 7 0 10 -262144 -1
-1;
#X obj 189 172 int;
#X floatatom 189 197 5 0 0 0 - - -;
#X obj 189 147 / 1000;
#X obj 299 453 b;
#X obj 43 376 bng 15 250 50 0 empty empty empty 17 7 0 10 -262144 -1
-1;
#X obj 31 57 tgl 15 0 empty empty empty 17 7 0 10 -262144 -1 -1 0 1
;
#X msg 431 113 8;
#X msg 574 113 27;
#X msg 155 522 20002;
#X msg 555 522 20011;
#X msg 697 113 4;
#X msg 731 164 8;
#X connect 0 0 3 0;
#X connect 0 0 55 0;
#X connect 0 0 56 0;
#X connect 2 0 4 0;
#X connect 3 0 2 0;
#X connect 4 0 7 0;
#X connect 5 0 4 1;
#X connect 6 0 57 0;
#X connect 7 0 1 0;
#X connect 9 0 2 0;
#X connect 9 0 42 0;
#X connect 9 1 0 0;
#X connect 9 1 49 0;
#X connect 10 0 4 2;
#X connect 11 0 4 3;
#X connect 12 0 60 0;
#X connect 13 0 15 0;
#X connect 14 0 13 0;
#X connect 15 0 17 0;
#X connect 15 0 39 0;
#X connect 16 0 0 1;
#X connect 16 0 46 0;
#X connect 17 0 22 0;
#X connect 18 0 20 0;
#X connect 19 0 18 0;
#X connect 20 0 17 1;
#X connect 21 0 19 0;
#X connect 21 0 32 0;
#X connect 22 0 16 0;
#X connect 23 0 14 0;
#X connect 23 0 10 0;
#X connect 24 0 25 0;
#X connect 25 0 26 0;
#X connect 26 0 58 0;
#X connect 26 1 59 0;
#X connect 26 2 63 0;
#X connect 26 2 62 0;
#X connect 27 0 28 1;
#X connect 27 0 47 0;
#X connect 28 0 31 0;
#X connect 28 0 45 0;
#X connect 29 0 36 1;
#X connect 31 0 36 0;
#X connect 32 0 36 2;
#X connect 33 0 36 3;
#X connect 34 0 61 0;
#X connect 36 0 37 0;
#X connect 37 0 35 0;
#X connect 39 0 27 0;
#X connect 42 0 43 0;
#X connect 42 0 44 0;
#X connect 43 0 36 0;
#X connect 44 0 28 0;
#X connect 48 0 54 0;
#X connect 49 0 48 0;
#X connect 50 0 48 1;
#X connect 51 0 50 0;
#X connect 52 0 53 0;
#X connect 54 0 52 0;
#X connect 55 0 28 0;
#X connect 57 0 9 0;
#X connect 58 0 23 0;
#X connect 59 0 21 0;
#X connect 60 0 11 0;
#X connect 61 0 33 0;
#X connect 62 0 39 1;
#X connect 63 0 22 1;
#X restore 26 182 pd send NOTE;
#X text 133 20 floor1;
#X text 133 34 corridor +;
#X text 133 48 center room;
#X msg 66 99 35;
#X msg 146 99 75;
#X msg 66 319 55;
#X msg 146 319 55;
#X msg 876 582 10;
#X msg 706 498 45;
#X msg 46 508 70;
#X text 407 554 blue spk. change;
#X text 407 494 green table add spk 1;
#X text 623 62 <-- comm. chk;
#X text 719 129 basement bluetooth comm chk;
#X connect 0 0 7 2;
#X connect 1 0 7 3;
#X connect 2 0 7 0;
#X connect 2 1 3 0;
#X connect 2 2 8 0;
#X connect 2 3 9 0;
#X connect 3 0 4 0;
#X connect 4 0 7 1;
#X connect 5 0 7 4;
#X connect 6 0 5 0;
#X connect 8 0 0 0;
#X connect 9 0 1 0;
#X connect 10 0 2 0;
#X connect 11 0 17 2;
#X connect 12 0 17 3;
#X connect 13 0 17 0;
#X connect 13 1 62 0;
#X connect 13 2 29 0;
#X connect 13 3 41 0;
#X connect 14 0 17 1;
#X connect 15 0 17 4;
#X connect 16 0 15 0;
#X connect 18 0 13 0;
#X connect 19 0 25 2;
#X connect 20 0 25 3;
#X connect 21 0 25 0;
#X connect 21 1 85 0;
#X connect 21 2 27 0;
#X connect 21 3 26 0;
#X connect 22 0 25 1;
#X connect 23 0 25 4;
#X connect 24 0 23 0;
#X connect 26 0 20 0;
#X connect 27 0 19 0;
#X connect 28 0 21 0;
#X connect 29 0 11 0;
#X connect 31 0 36 2;
#X connect 32 0 36 3;
#X connect 33 0 36 0;
#X connect 33 1 84 0;
#X connect 33 2 40 0;
#X connect 33 3 38 0;
#X connect 34 0 36 1;
#X connect 35 0 83 0;
#X connect 37 0 33 0;
#X connect 38 0 32 0;
#X connect 40 0 31 0;
#X connect 41 0 12 0;
#X connect 42 0 45 0;
#X connect 43 0 44 0;
#X connect 44 0 58 1;
#X connect 45 0 58 0;
#X connect 45 1 43 0;
#X connect 45 2 46 0;
#X connect 46 0 47 0;
#X connect 47 0 58 2;
#X connect 48 0 51 0;
#X connect 49 0 50 0;
#X connect 50 0 59 1;
#X connect 51 0 59 0;
#X connect 51 1 49 0;
#X connect 51 2 52 0;
#X connect 52 0 53 0;
#X connect 53 0 59 2;
#X connect 62 0 14 0;
#X connect 63 0 65 0;
#X connect 64 0 67 1;
#X connect 65 0 67 0;
#X connect 65 1 81 0;
#X connect 65 2 82 0;
#X connect 66 0 67 2;
#X connect 71 0 73 0;
#X connect 72 0 75 1;
#X connect 73 0 75 0;
#X connect 73 1 79 0;
#X connect 73 2 80 0;
#X connect 74 0 75 2;
#X connect 79 0 72 0;
#X connect 80 0 74 0;
#X connect 81 0 64 0;
#X connect 82 0 66 0;
#X connect 83 0 36 4;
#X connect 84 0 34 0;
#X connect 85 0 22 0;
#X restore 414 290 pd floors;
#N canvas 1 89 679 487 tb-lgth 0;
#N canvas 0 50 450 250 (subpatch) 0;
#X array length 100 float 3;
#A 0 4 6 184 385 81 95 42 41 58 5 11 62 225 210 219 61 41 43 70 56
218 137 88 33 68 77 152 30 9 259 293 0 0 0 0 0 0 0 0 0 0 0 0 0 0 0
0 0 0 0 0 0 0 0 0 0 0 0 0 0 0 0 0 0 0 0 0 0 0 0 0 0 0 0 0 0 0 0 0 0
0 0 0 0 0 0 0 0 0 0 0 0 0 0 0 0 0 0 0 0;
#X coords 0 1 100 -1 200 140 1 0 0;
#X restore 72 78 graph;
#X msg 64 311 \; length 0 4 6 184 385 81 95 42 41 58 5 11 62 225 210
219 61 41 43 70 56 218 137 88 33 68 77 152 30 9 259 293;
#X restore 478 41 pd tb-lgth;
#X obj 424 221 tgl 22 0 ENABLE empty ENABLE_floor 25 10 0 14 -204786
-13381 -13381 1 1;
#X obj 38 93 tgl 15 0 empty empty connected? 17 7 0 10 -203904 -1 -1
1 1;
#X obj 38 48 tgl 15 0 empty empty open/close 17 7 0 10 -203904 -1 -1
1 1;
#X obj 38 23 loadbang;
#X obj 37 259 s NOTE;
#X obj 248 259 s NOTE;
#X obj 248 389 s NOTE;
#N canvas 1 89 500 364 manual 0;
#X floatatom 150 214 5 0 0 1 sampleN - -;
#X floatatom 287 136 5 0 0 0 spkN - -;
#X obj 212 86 bng 22 250 50 0 empty empty EVERYONE_in_GRP -110 7 0
12 -257985 -4160 -203904;
#X msg 212 116 0;
#X obj 53 128 tgl 22 0 empty empty start/stop 24 7 0 14 -204800 -4160
-4160 0 1;
#X obj 287 166 + 20000;
#X floatatom 267 244 5 0 0 3 speakerID - -;
#X obj 290 25 hsl 128 22 0 20 0 0 empty empty spkN -2 -8 0 10 -261682
-1 -1 0 1;
#X obj 287 95 int;
#X obj 340 75 hsl 128 22 0 20 0 0 empty empty sampleN -2 -8 0 10 -203904
-1 -1 0 1;
#X obj 337 105 int;
#X obj 53 314 s NOTE;
#X obj 53 263 pack f f f f;
#X msg 53 288 \$4 \$3 \$2 \$1;
#X floatatom 80 214 5 0 0 1 vol - -;
#X obj 80 158 loadbang;
#X msg 80 189 40;
#X msg 14 243 1;
#X connect 0 0 12 2;
#X connect 1 0 5 0;
#X connect 2 0 3 0;
#X connect 3 0 1 0;
#X connect 4 0 12 0;
#X connect 5 0 6 0;
#X connect 6 0 12 3;
#X connect 7 0 8 0;
#X connect 8 0 1 0;
#X connect 9 0 10 0;
#X connect 10 0 0 0;
#X connect 12 0 13 0;
#X connect 13 0 11 0;
#X connect 14 0 12 1;
#X connect 15 0 16 0;
#X connect 16 0 14 0;
#X connect 17 0 12 0;
#X restore 200 31 pd manual message;
#X obj 38 389 s NOTE;
#X text 52 134 announcements;
#X text 282 134 music;
#X msg 248 234 20000 40 60 1;
#X msg 248 364 20000 41 60 1;
#X msg 37 234 20000 30 60 1;
#X obj 498 389 s NOTE;
#X msg 498 364 20000 0 0 0;
#X text 511 334 stop all;
#X obj 37 162 bng 15 250 50 0 empty empty empty 17 7 0 10 -262144 -1
-1;
#X obj 47 182 del 1000;
#X obj 57 207 del 1000;
#X obj 248 162 bng 15 250 50 0 empty empty empty 17 7 0 10 -262144
-1 -1;
#X obj 258 182 del 1000;
#X obj 268 207 del 1000;
#X obj 38 292 bng 15 250 50 0 empty empty empty 17 7 0 10 -262144 -1
-1;
#X obj 48 312 del 1000;
#X obj 58 337 del 1000;
#X obj 248 292 bng 15 250 50 0 empty empty empty 17 7 0 10 -262144
-1 -1;
#X obj 258 312 del 1000;
#X obj 268 337 del 1000;
#X obj 424 112 bng 15 250 50 0 empty empty empty 17 7 0 10 -262144
-1 -1;
#X obj 434 132 del 1000;
#X obj 444 157 del 1000;
#X msg 424 186 1;
#X text 458 89 pause 3sec;
#X msg 38 364 20000 31 70 1;
#X connect 0 0 4 0;
#X connect 5 0 0 0;
#X connect 6 0 5 0;
#X connect 14 0 8 0;
#X connect 15 0 9 0;
#X connect 16 0 7 0;
#X connect 18 0 17 0;
#X connect 20 0 21 0;
#X connect 20 0 16 0;
#X connect 21 0 22 0;
#X connect 21 0 16 0;
#X connect 22 0 16 0;
#X connect 23 0 24 0;
#X connect 23 0 14 0;
#X connect 24 0 25 0;
#X connect 24 0 14 0;
#X connect 25 0 14 0;
#X connect 26 0 27 0;
#X connect 26 0 37 0;
#X connect 27 0 28 0;
#X connect 27 0 37 0;
#X connect 28 0 37 0;
#X connect 29 0 30 0;
#X connect 29 0 15 0;
#X connect 30 0 31 0;
#X connect 30 0 15 0;
#X connect 31 0 15 0;
#X connect 32 0 33 0;
#X connect 32 0 35 0;
#X connect 33 0 34 0;
#X connect 33 0 35 0;
#X connect 34 0 35 0;
#X connect 35 0 3 0;
#X connect 37 0 11 0;
