#N canvas 255 324 509 414 12;
#X obj 193 118 f;
#X obj 229 118 + 1;
#X floatatom 193 168 5 0 0 0 - - -;
#X floatatom 193 217 5 0 0 0 - - -;
#X floatatom 193 266 5 0 0 0 - - -;
#X obj 28 66 hsl 110 20 0 300 0 0 empty \$0-val empty -2 -8 0 10 -262130
-1 -1 0 1;
#X obj 193 18 inlet;
#X obj 399 122 inlet;
#X obj 193 95 bng 15 250 50 0 empty empty empty 17 7 0 10 -262144 -1
-1;
#X obj 54 148 loadbang;
#X msg 54 198 range 0 \$1;
#X obj 25 41 bng 14 250 50 0 empty empty empty 17 7 0 10 -159808 -261234
-1;
#X floatatom 142 41 3 0 0 0 i #0-i -;
#X floatatom 50 91 7 0 0 0 val #0-val -;
#X obj 417 154 loadbang;
#X floatatom 298 124 5 0 0 0 - - -;
#X obj 193 143 mod;
#X obj 412 306 outlet;
#X obj 315 203 pack f f f f;
#X floatatom 129 91 5 0 0 0 key #0-key -;
#X obj 315 306 outlet;
#X obj 275 18 inlet;
#X obj 193 192 tabread;
#X obj 417 183 f \$2;
#X obj 193 241 * \$1;
#X obj 298 99 array size;
#X msg 275 154 set \$1;
#X obj 54 173 f \$1;
#X obj 342 172 inlet;
#X obj 275 68 t a b a;
#X obj 225 315 s \$0-val;
#X obj 412 275 r \$0-val;
#X text 201 38 1-bng;
#X text 321 18 2-array name;
#X text 341 149 3-key;
#X text 400 98 4-onoff;
#X text 314 329 1#msg;
#X obj 145 66 tgl 20 0 empty \$0-onoff empty 17 7 0 8 -257985 -1 -1
0 1;
#X obj 249 192 s \$0-key;
#X obj 415 68 s \$0-onoff;
#X symbolatom 42 41 12 0 0 0 - - -;
#X msg 18 254 symbol no-array;
#X obj 18 229 loadbang;
#X obj 426 43 s \$0-an;
#X obj 119 288 r \$0-an;
#X msg 315 244 \$4 \$2 \$1 \$3;
#X obj 136 168 s \$0-i;
#X obj 193 290 t a a;
#X obj 364 342 outlet;
#X obj 364 275 r \$0-i;
#X text 414 329 3#val;
#X text 358 360 2#idx;
#X obj 275 43 list split 1;
#X connect 0 0 1 0;
#X connect 0 0 16 0;
#X connect 1 0 0 1;
#X connect 2 0 22 0;
#X connect 2 0 46 0;
#X connect 3 0 24 0;
#X connect 4 0 47 0;
#X connect 6 0 8 0;
#X connect 7 0 18 2;
#X connect 7 0 39 0;
#X connect 8 0 0 0;
#X connect 8 0 11 0;
#X connect 9 0 27 0;
#X connect 10 0 5 0;
#X connect 14 0 23 0;
#X connect 15 0 16 1;
#X connect 16 0 2 0;
#X connect 18 0 45 0;
#X connect 21 0 52 0;
#X connect 22 0 3 0;
#X connect 23 0 18 3;
#X connect 24 0 4 0;
#X connect 25 0 15 0;
#X connect 26 0 22 0;
#X connect 27 0 10 0;
#X connect 28 0 18 1;
#X connect 28 0 38 0;
#X connect 29 0 26 0;
#X connect 29 1 25 0;
#X connect 29 2 25 1;
#X connect 31 0 17 0;
#X connect 41 0 40 0;
#X connect 42 0 41 0;
#X connect 44 0 40 0;
#X connect 45 0 20 0;
#X connect 47 0 18 0;
#X connect 47 1 30 0;
#X connect 49 0 48 0;
#X connect 52 0 43 0;
#X connect 52 0 29 0;
#X coords 0 -1 1 1 150 95 1 20 20;
