#N canvas 1 89 500 333 12;
#X obj 223 134 f;
#X obj 259 134 + 1;
#X floatatom 223 241 5 0 0 0 - - -;
#X floatatom 223 290 5 0 0 0 - - -;
#X floatatom 315 105 5 0 0 0 - - -;
#X obj 29 66 hsl 134 20 0 400 0 0 empty empty empty -2 -8 0 10 -262130
-1 -1 0 1;
#X obj 223 265 tabread \$1;
#X obj 223 38 inlet;
#X obj 378 38 inlet;
#X obj 223 91 bng 15 250 50 0 empty empty empty 17 7 0 10 -262144 -1
-1;
#X obj 64 194 loadbang;
#X msg 64 247 range 0 \$1;
#X obj 26 41 bng 20 250 50 0 empty empty empty 17 7 0 10 -159808 -261234
-1;
#X floatatom 142 41 3 0 0 0 idx - -;
#X floatatom 79 91 12 0 0 0 val - -;
#X obj 417 150 loadbang;
#X obj 375 261 array size \$1;
#X floatatom 375 286 5 0 0 0 - - -;
#X obj 223 216 mod;
#X obj 375 236 loadbang;
#X obj 64 219 f \$2;
#X obj 315 80 * \$2;
#X obj 417 179 f \$3;
#X obj 405 209 outlet;
#X obj 378 69 unpack f f;
#X obj 315 129 pack f f f f;
#X floatatom 76 41 5 0 0 0 key - -;
#X msg 315 170 \$4 \$3 \$1 \$2;
#X obj 315 209 outlet;
#X connect 0 0 1 0;
#X connect 0 0 18 0;
#X connect 1 0 0 1;
#X connect 2 0 6 0;
#X connect 3 0 21 0;
#X connect 4 0 5 0;
#X connect 4 0 14 0;
#X connect 4 0 25 0;
#X connect 4 0 23 0;
#X connect 6 0 3 0;
#X connect 7 0 9 0;
#X connect 8 0 24 0;
#X connect 9 0 0 0;
#X connect 9 0 12 0;
#X connect 10 0 20 0;
#X connect 11 0 5 0;
#X connect 15 0 22 0;
#X connect 16 0 17 0;
#X connect 17 0 18 1;
#X connect 18 0 2 0;
#X connect 18 0 13 0;
#X connect 19 0 16 0;
#X connect 20 0 11 0;
#X connect 21 0 4 0;
#X connect 22 0 25 3;
#X connect 24 0 25 1;
#X connect 24 1 25 2;
#X connect 24 1 26 0;
#X connect 25 0 27 0;
#X connect 27 0 28 0;
#X coords 0 -1 1 1 150 100 1 20 20;
