#N canvas 355 364 551 449 12;
#X floatatom 193 170 5 0 0 0 - - -;
#X floatatom 193 239 5 0 0 0 - - -;
#X floatatom 193 288 5 0 0 0 - - -;
#X obj 28 66 hsl 110 20 0 800 0 0 empty \$0-val empty -2 -8 0 10 -262130
-1 -1 4049 1;
#X obj 193 18 inlet;
#X obj 157 144 bng 15 250 50 0 empty empty empty 17 7 0 10 -262144
-1 -1;
#X obj 54 148 loadbang;
#X msg 54 198 range 0 \$1;
#X obj 25 41 bng 14 250 50 0 empty empty empty 17 7 0 10 -4034 -261234
-1;
#X floatatom 142 41 3 0 0 0 i #0-i -;
#X floatatom 50 91 7 0 0 0 val #0-val -;
#X obj 426 192 loadbang;
#X floatatom 369 124 5 0 0 0 - - -;
#X obj 421 344 outlet;
#X obj 324 241 pack f f f f;
#X floatatom 129 91 5 0 0 0 key #0-key -;
#X obj 324 344 outlet;
#X obj 346 18 inlet;
#X obj 193 214 tabread;
#X obj 426 221 f \$2;
#X obj 193 263 * \$1;
#X obj 369 99 array size;
#X msg 346 154 set \$1;
#X obj 54 173 f \$1;
#X obj 351 210 inlet;
#X obj 346 68 t a b a;
#X obj 225 337 s \$0-val;
#X obj 421 313 r \$0-val;
#X text 392 18 2-array name;
#X text 350 187 3-key;
#X text 323 367 1#msg;
#X obj 145 66 tgl 20 0 empty \$0-onoff empty 17 7 0 8 -257985 -1 -1
1 1;
#X obj 249 214 s \$0-key;
#X obj 453 112 s \$0-onoff;
#X symbolatom 42 41 12 0 0 0 - - -;
#X msg 18 254 symbol no-array;
#X obj 18 229 loadbang;
#X obj 451 63 s \$0-an;
#X obj 119 288 r \$0-an;
#X msg 324 282 \$4 \$2 \$1 \$3;
#X obj 136 170 s \$0-i;
#X obj 193 312 t a a;
#X obj 373 380 outlet;
#X obj 373 313 r \$0-i;
#X text 423 367 3#val;
#X text 367 398 2#idx;
#X obj 346 43 list split 1;
#X obj 193 120 f;
#X text 201 38 1-cmd for scan;
#X obj 193 65 route bang;
#X obj 260 90 route 0;
#X msg 260 115 0;
#X obj 193 145 scan \$3;
#X obj 193 92 t b b;
#X msg 426 167 1;
#X obj 257 145 t b b;
#X msg 426 142 0;
#X obj 257 170 del \$3;
#X obj 483 313 outlet;
#X text 483 335 4#done;
#X connect 0 0 18 0;
#X connect 0 0 40 0;
#X connect 0 0 5 0;
#X connect 1 0 20 0;
#X connect 2 0 41 0;
#X connect 4 0 49 0;
#X connect 5 0 8 0;
#X connect 6 0 23 0;
#X connect 7 0 3 0;
#X connect 11 0 19 0;
#X connect 12 0 47 1;
#X connect 14 0 39 0;
#X connect 17 0 46 0;
#X connect 18 0 1 0;
#X connect 19 0 14 3;
#X connect 20 0 2 0;
#X connect 21 0 12 0;
#X connect 22 0 18 0;
#X connect 23 0 7 0;
#X connect 24 0 14 1;
#X connect 24 0 32 0;
#X connect 25 0 22 0;
#X connect 25 1 21 0;
#X connect 25 2 21 1;
#X connect 27 0 13 0;
#X connect 35 0 34 0;
#X connect 36 0 35 0;
#X connect 38 0 34 0;
#X connect 39 0 16 0;
#X connect 41 0 14 0;
#X connect 41 1 26 0;
#X connect 43 0 42 0;
#X connect 46 0 37 0;
#X connect 46 0 25 0;
#X connect 47 0 52 0;
#X connect 49 0 53 0;
#X connect 49 1 50 0;
#X connect 50 0 51 0;
#X connect 51 0 52 0;
#X connect 52 0 0 0;
#X connect 52 1 55 0;
#X connect 53 0 47 0;
#X connect 53 1 54 0;
#X connect 54 0 14 2;
#X connect 54 0 33 0;
#X connect 55 0 57 0;
#X connect 55 1 56 0;
#X connect 56 0 14 2;
#X connect 56 0 33 0;
#X connect 57 0 14 0;
#X connect 57 0 58 0;
#X coords 0 -1 1 1 150 95 1 20 20;
