#N canvas 251 23 1189 769 10;
#X text 7 10 .anchor.;
#X text 1113 734 .anchor.;
#X obj 71 123 arduino;
#X msg 85 96 devices;
#X msg 21 69 close;
#X obj 71 151 route analog;
#X obj 21 41 loadbang;
#X obj 209 283 scope;
#X obj 71 431 sigcnd;
#X obj 95 365 loadbang;
#X floatatom 71 518 5 0 0 0 - - -;
#X obj 22 532 scope;
#X obj 71 638 *;
#X obj 71 660 +;
#X obj 71 580 min 1;
#X obj 71 602 max 0;
#X floatatom 104 624 5 0 0 1 range - -;
#X floatatom 104 646 5 0 0 1 start - -;
#X obj 116 558 loadbang;
#X floatatom 317 537 5 0 0 0 s:poy-avg - poy-avg;
#X obj 285 481 t a a;
#X floatatom 285 617 5 0 0 0 s:diff - diff;
#X obj 317 509 mavg 300;
#X obj 285 561 -;
#X obj 355 594 spigot;
#X obj 328 234 tgl 25 0 empty empty calibration_onoff 27 7 0 12 -262130
-1 -1 0 1;
#X msg 116 602 300;
#X msg 116 580 500;
#X obj 328 179 loadbang;
#X msg 328 207 1;
#X msg 240 220 0;
#X obj 240 192 bng 15 250 50 0 empty start r:start 17 7 0 10 -262144
-1 -1;
#X floatatom 71 688 5 0 0 0 - - -;
#X obj 218 679 * 8;
#X obj 683 498 *~;
#X floatatom 933 453 5 0 0 0 r:diff diff -;
#X obj 933 476 abs;
#X obj 933 610 *;
#X floatatom 933 638 5 0 0 0 - - -;
#X floatatom 998 596 5 0 0 0 - - -;
#X obj 862 157 noise~;
#X obj 863 279 hip~ 50;
#X obj 863 299 hip~ 50;
#X obj 863 319 hip~ 50;
#X obj 863 339 hip~ 50;
#X obj 494 365 *~;
#X floatatom 561 351 5 0 0 0 - - -;
#X obj 863 189 lop~ 250;
#X obj 863 209 lop~ 250;
#X obj 863 229 lop~ 250;
#X obj 863 249 lop~ 250;
#X floatatom 494 132 5 0 0 0 r:diff diff -;
#X obj 494 157 t b a;
#X obj 546 174 *;
#X floatatom 546 202 5 0 0 0 - - -;
#X obj 494 243 +;
#X floatatom 494 285 5 0 0 0 - - -;
#X msg 509 37 660;
#X obj 684 365 *~;
#X floatatom 751 351 5 0 0 0 - - -;
#X floatatom 684 132 5 0 0 0 r:diff diff -;
#X obj 684 157 t b a;
#X obj 736 174 *;
#X floatatom 736 202 5 0 0 0 - - -;
#X obj 684 243 +;
#X floatatom 684 285 5 0 0 0 - - -;
#X obj 494 320 osc~;
#X obj 684 320 osc~;
#X obj 863 369 *~;
#X msg 564 111 500;
#X msg 754 111 200;
#X floatatom 933 585 5 0 0 0 - - -;
#X obj 933 557 max 0;
#X floatatom 869 490 5 0 0 0 - - -;
#X obj 933 529 - 0.1;
#X obj 683 698 dac~;
#X obj 684 638 fdn~ 64 40000;
#X msg 711 555 4;
#X msg 782 555 1;
#X obj 784 247 loadbang;
#X msg 941 302 2;
#X msg 998 562 0.8;
#X obj 998 532 bng 15 250 50 0 empty start r:start 17 7 0 10 -262144
-1 -1;
#X msg 521 579 exponential 32 10 50000;
#X msg 561 323 0.1;
#X msg 751 323 0.08;
#X msg 347 91 \; pd dsp 1;
#X obj 339 46 bng 25 250 50 0 empty empty START(poy) 29 7 0 12 -128992
-1 -1;
#X obj 240 152 bng 15 250 50 0 start empty s:start 17 7 0 10 -262144
-1 -1;
#X obj 285 589 mavg 10;
#X obj 322 724 scope;
#X obj 869 512 scope;
#X msg 1006 448 0.01;
#X obj 1006 420 loadbang;
#X obj 71 713 puremapping/resample 3000;
#X msg 521 558 exponential 64 1000 10;
#X obj 71 179 route 0 1 2 3 4 5;
#X obj 71 204 vsl 10 64 0 1 0 0 empty empty empty 0 -9 0 10 -261234
-1 -1 2537 1;
#X floatatom 71 310 5 0 0 0 signal - -;
#X obj 87 204 vsl 10 64 0 1 0 0 empty empty empty 0 -9 0 10 -261682
-1 -1 1466 1;
#X obj 104 204 vsl 10 64 0 1 0 0 empty empty empty 0 -9 0 10 -262130
-1 -1 1022 1;
#X obj 120 204 vsl 10 64 0 1 0 0 empty empty empty 0 -9 0 10 -204786
-1 -1 1004 1;
#X obj 137 204 vsl 10 64 0 1 0 0 empty empty empty 0 -9 0 10 -204800
-1 -1 1681 1;
#X obj 153 204 vsl 10 64 0 1 0 0 empty empty empty 0 -9 0 10 -203904
-1 -1 973 1;
#X obj 219 303 scope;
#X obj 229 323 scope;
#X obj 239 343 scope;
#X obj 249 363 scope;
#X obj 259 383 scope;
#X msg 119 387 1;
#X msg 95 409 0;
#X text 61 492 (unused);
#X floatatom 1006 469 5 0 0 3 noise_level_(remove) - -;
#X text 602 405 2 sine-wave + 1 colored noise;
#X text 874 418 volume_controlled;
#X obj 564 148 nbx 5 14 -1e+37 1e+37 0 0 empty empty mod1 0 -8 0 10
-4034 -1 -1 874.016 256;
#X obj 754 148 nbx 5 14 -1e+37 1e+37 0 0 empty empty tone2 0 -8 0 10
-4034 -1 -1 874.016 256;
#X obj 941 357 nbx 5 14 -1e+37 1e+37 0 0 empty empty noise_level 0
-8 0 10 -4034 -1 -1 0 256;
#X obj 721 595 nbx 5 14 -1e+37 1e+37 0 0 empty empty feedback_1 0 -8
0 10 -4032 -1 -1 0 256;
#X obj 792 595 nbx 5 14 -1e+37 1e+37 0 0 empty empty feedback_2 0 -8
0 10 -4032 -1 -1 0 256;
#X obj 494 205 f;
#X obj 509 74 nbx 5 14 -1e+37 1e+37 0 0 empty empty base1 0 -8 0 10
-4034 -1 -1 1118.11 256;
#X msg 699 37 660;
#X obj 684 205 f;
#X obj 699 74 nbx 5 14 -1e+37 1e+37 0 0 empty empty base1 0 -8 0 10
-4034 -1 -1 0 256;
#X floatatom 755 35 5 0 0 0 - - -;
#X floatatom 961 253 5 0 0 0 - - -;
#X floatatom 786 94 5 0 0 0 - - -;
#X floatatom 965 197 5 0 0 0 - - -;
#X obj 961 232 * 5000;
#X obj 755 14 * 2000;
#X obj 786 73 * 1000;
#X obj 965 176 * 1000;
#X floatatom 1054 206 5 0 0 0 - - -;
#X obj 1054 185 * 10;
#X msg 71 69 devicename /dev/tty.HC-06-DevB;
#X obj 1005 14 inlet;
#X obj 1045 14 inlet;
#X obj 1085 14 inlet;
#X obj 1125 14 inlet;
#X obj 925 14 inlet;
#X obj 965 14 inlet;
#X obj 1109 349 nbx 5 14 -1e+37 1e+37 0 0 empty empty gain 0 -8 0 10
-4034 -1 -1 0 256;
#X obj 699 93 skip 500;
#X obj 509 93 skip 1500;
#X obj 1109 292 * 1.2;
#X connect 2 0 5 0;
#X connect 3 0 2 0;
#X connect 4 0 2 0;
#X connect 5 0 96 0;
#X connect 6 0 4 0;
#X connect 8 0 20 0;
#X connect 9 0 110 0;
#X connect 9 0 109 0;
#X connect 10 0 11 0;
#X connect 10 0 14 0;
#X connect 12 0 13 0;
#X connect 13 0 32 0;
#X connect 14 0 15 0;
#X connect 15 0 12 0;
#X connect 16 0 12 1;
#X connect 17 0 13 1;
#X connect 18 0 27 0;
#X connect 18 0 26 0;
#X connect 20 0 23 0;
#X connect 20 1 22 0;
#X connect 22 0 19 0;
#X connect 22 0 24 0;
#X connect 23 0 89 0;
#X connect 24 0 23 1;
#X connect 25 0 24 1;
#X connect 26 0 17 0;
#X connect 27 0 16 0;
#X connect 28 0 29 0;
#X connect 29 0 25 0;
#X connect 30 0 25 0;
#X connect 31 0 30 0;
#X connect 32 0 33 0;
#X connect 32 0 94 0;
#X connect 33 0 94 1;
#X connect 34 0 76 0;
#X connect 35 0 36 0;
#X connect 36 0 73 0;
#X connect 36 0 74 0;
#X connect 37 0 38 0;
#X connect 38 0 34 1;
#X connect 39 0 37 1;
#X connect 40 0 47 0;
#X connect 41 0 42 0;
#X connect 42 0 43 0;
#X connect 43 0 44 0;
#X connect 44 0 68 0;
#X connect 45 0 34 0;
#X connect 46 0 45 1;
#X connect 47 0 48 0;
#X connect 48 0 49 0;
#X connect 49 0 50 0;
#X connect 50 0 41 0;
#X connect 51 0 52 0;
#X connect 52 0 120 0;
#X connect 52 1 53 0;
#X connect 53 0 54 0;
#X connect 54 0 55 1;
#X connect 55 0 56 0;
#X connect 56 0 66 0;
#X connect 57 0 121 0;
#X connect 58 0 34 0;
#X connect 59 0 58 1;
#X connect 60 0 61 0;
#X connect 61 0 123 0;
#X connect 61 1 62 0;
#X connect 62 0 63 0;
#X connect 63 0 64 1;
#X connect 64 0 65 0;
#X connect 65 0 67 0;
#X connect 66 0 45 0;
#X connect 67 0 58 0;
#X connect 68 0 34 0;
#X connect 69 0 115 0;
#X connect 70 0 116 0;
#X connect 71 0 37 0;
#X connect 72 0 71 0;
#X connect 73 0 91 0;
#X connect 74 0 72 0;
#X connect 76 0 75 0;
#X connect 76 1 75 1;
#X connect 77 0 118 0;
#X connect 78 0 119 0;
#X connect 79 0 69 0;
#X connect 79 0 70 0;
#X connect 79 0 80 0;
#X connect 79 0 84 0;
#X connect 79 0 85 0;
#X connect 80 0 117 0;
#X connect 81 0 39 0;
#X connect 82 0 81 0;
#X connect 83 0 76 0;
#X connect 84 0 46 0;
#X connect 85 0 59 0;
#X connect 87 0 86 0;
#X connect 87 0 88 0;
#X connect 89 0 21 0;
#X connect 89 0 90 0;
#X connect 92 0 112 0;
#X connect 93 0 92 0;
#X connect 95 0 76 0;
#X connect 96 0 97 0;
#X connect 96 1 99 0;
#X connect 96 2 100 0;
#X connect 96 3 101 0;
#X connect 96 4 102 0;
#X connect 96 5 103 0;
#X connect 97 0 98 0;
#X connect 97 0 7 0;
#X connect 98 0 8 0;
#X connect 99 0 104 0;
#X connect 100 0 105 0;
#X connect 101 0 106 0;
#X connect 102 0 107 0;
#X connect 103 0 108 0;
#X connect 109 0 8 2;
#X connect 110 0 8 1;
#X connect 112 0 74 1;
#X connect 115 0 53 1;
#X connect 116 0 62 1;
#X connect 117 0 68 1;
#X connect 118 0 76 1;
#X connect 119 0 76 2;
#X connect 120 0 55 0;
#X connect 121 0 144 0;
#X connect 122 0 124 0;
#X connect 123 0 64 0;
#X connect 124 0 143 0;
#X connect 125 0 121 0;
#X connect 126 0 124 0;
#X connect 127 0 115 0;
#X connect 128 0 116 0;
#X connect 129 0 126 0;
#X connect 130 0 125 0;
#X connect 131 0 127 0;
#X connect 132 0 128 0;
#X connect 133 0 117 0;
#X connect 134 0 133 0;
#X connect 135 0 2 0;
#X connect 136 0 129 0;
#X connect 137 0 132 0;
#X connect 138 0 134 0;
#X connect 139 0 145 0;
#X connect 140 0 130 0;
#X connect 141 0 131 0;
#X connect 142 0 39 0;
#X connect 143 0 123 1;
#X connect 144 0 120 1;
#X connect 145 0 142 0;
