#N canvas 503 95 623 400 10;
#X obj 322 198 spigot;
#X obj 371 183 tgl 15 0 empty empty empty 17 7 0 10 -262144 -1 -1 0
1;
#N canvas 676 408 512 395 buildOSC 0;
#X obj 319 66 t a b;
#X msg 456 84 [;
#X msg 34 327 ];
#X obj 68 236 r X1;
#X obj 98 236 r X2;
#X obj 128 236 r X3;
#X obj 158 236 r X4;
#X obj 53 266 f;
#X obj 34 126 t b b a;
#X obj 254 345 outlet;
#X obj 140 17 inlet;
#X obj 188 236 r PS;
#X obj 88 284 pack f f f f f;
#X msg 319 112 sendtyped /note/onoff f \$1;
#X msg 254 141 sendtyped /note/velocity f \$1;
#X msg 88 307 sendtyped /note/x fffff \$1 \$2 \$3 \$4 \$5;
#X msg 73 199 sendtyped /note/id i \$1;
#X msg 167 170 sendtyped /note/pitch f \$1;
#X obj 140 39 unpack f f f f;
#X connect 0 0 13 0;
#X connect 0 1 1 0;
#X connect 1 0 9 0;
#X connect 2 0 9 0;
#X connect 3 0 7 1;
#X connect 4 0 12 1;
#X connect 5 0 12 2;
#X connect 6 0 12 3;
#X connect 7 0 12 0;
#X connect 8 0 2 0;
#X connect 8 1 7 0;
#X connect 8 2 16 0;
#X connect 10 0 18 0;
#X connect 11 0 12 4;
#X connect 12 0 15 0;
#X connect 13 0 9 0;
#X connect 14 0 9 0;
#X connect 15 0 9 0;
#X connect 16 0 9 0;
#X connect 17 0 9 0;
#X connect 18 0 8 0;
#X connect 18 1 17 0;
#X connect 18 2 14 0;
#X connect 18 3 0 0;
#X restore 412 194 pd buildOSC for all;
#X obj 117 121 o.io.slipserial;
#X msg 243 142 devices;
#X msg 243 165 close;
#X obj 117 80 packOSC;
#X obj 117 55 r OSC;
#X obj 117 144 unpackOSC;
#X obj 117 167 routeOSC /hello;
#X obj 117 190 s HELLO;
#X obj 34 120 print OSC;
#X obj 34 93 spigot;
#X obj 83 58 tgl 15 0 empty empty empty 17 7 0 10 -262144 -1 -1 0 1
;
#X obj 412 217 s OSC;
#X obj 412 155 r NOTE;
#X obj 322 225 print NOTE;
#X text 413 134 /id /pitch /velocity /onoff;
#X floatatom 543 325 5 0 0 0 - - -;
#X obj 543 347 s PS;
#X obj 494 236 tgl 25 0 empty empty hello 32 7 0 15 -159808 -257985
-159808 1 1;
#X obj 543 263 loadbang;
#X msg 543 286 1;
#X obj 494 286 sel 1;
#X obj 34 163 spigot;
#X obj 83 148 tgl 15 0 empty empty empty 17 7 0 10 -262144 -1 -1 0
1;
#X obj 34 190 print HELLO;
#X text 103 24 * a wireless "field synth" - based on 'esp now' protocol
;
#X msg 243 98 devicename /dev/ttyACM0 \, baud 57600 \, pollintervall
1 \, verbose 1;
#X msg 494 315 2000;
#X obj 230 203 tgl 15 0 empty empty connected? 17 7 0 10 -262144 -1
-1 1 1;
#X msg 204 58 devicename /dev/tty.usbmodem32177401 \, baud 57600 \,
pollintervall 1 \, verbose 1;
#X connect 0 0 16 0;
#X connect 1 0 0 1;
#X connect 2 0 14 0;
#X connect 3 0 8 0;
#X connect 3 1 30 0;
#X connect 4 0 3 1;
#X connect 5 0 3 1;
#X connect 6 0 3 0;
#X connect 7 0 6 0;
#X connect 7 0 12 0;
#X connect 8 0 9 0;
#X connect 9 0 10 0;
#X connect 9 0 24 0;
#X connect 12 0 11 0;
#X connect 13 0 12 1;
#X connect 15 0 0 0;
#X connect 15 0 2 0;
#X connect 18 0 19 0;
#X connect 20 0 23 0;
#X connect 21 0 22 0;
#X connect 22 0 20 0;
#X connect 23 0 29 0;
#X connect 23 1 18 0;
#X connect 24 0 26 0;
#X connect 25 0 24 1;
#X connect 28 0 3 1;
#X connect 29 0 18 0;
#X connect 31 0 3 1;
