#N canvas 625 33 450 324 12;
#X obj 74 276 s NOTE;
#X floatatom 291 201 5 0 0 0 release\ angle - - 0;
#X floatatom 279 97 5 0 0 2 stabilizing\ angle - - 0;
#X obj 291 225 s X1;
#X obj 279 121 s X2;
#X floatatom 137 70 5 0 0 2 hitting\ angle - - 0;
#X obj 137 131 t b a b b;
#X obj 74 235 pack 11001 105 f 1;
#X obj 76 197 bng 15 250 50 0 empty empty empty 17 7 0 10 #fcfcfc #000000
#000000;
#X obj 163 281 print;
#X obj 137 100 f;
#X obj 16 63 bng 15 250 50 0 empty empty empty 17 7 0 10 #fcfcfc #000000
#000000;
#X obj 138 7 inlet;
#X obj 254 52 init 55;
#X obj 303 161 init 55;
#X obj 138 32 f 92;
#X connect 1 0 3 0;
#X connect 2 0 4 0;
#X connect 5 0 10 0;
#X connect 6 0 8 0;
#X connect 6 1 7 2;
#X connect 6 2 1 0;
#X connect 6 3 2 0;
#X connect 7 0 0 0;
#X connect 7 0 9 0;
#X connect 8 0 7 0;
#X connect 10 0 6 0;
#X connect 11 0 5 0;
#X connect 12 0 15 0;
#X connect 13 0 2 0;
#X connect 14 0 1 0;
#X connect 15 0 5 0;
