#N canvas 659 78 379 517 10;
#X obj 217 189 symbol \$1;
#X obj 217 239 makefilename %s%%d;
#X obj 217 299 makefilename;
#X msg 217 264 set \$1;
#X obj 52 310 array get;
#X msg 247 81 \; \$1 const 0;
#X obj 72 227 f;
#X obj 108 227 + 1;
#X obj 52 335 list-math *;
#X obj 173 375 array get;
#X obj 92 466 array set;
#X obj 92 400 list-emath +;
#X obj 227 214 s \$0-out-an;
#X obj 233 350 r \$0-out-an;
#X obj 152 441 r \$0-out-an;
#X obj 52 149 t b b a b;
#X obj 52 78 inlet;
#X obj 167 78 inlet;
#X text 153 15 argument 1: array name;
#X text 21 48 1-ratios \, comma separated;
#X msg 167 128 0;
#X msg 167 103 bang;
#X obj 247 56 symbol \$1;
#X obj 217 167 bng 15 250 50 0 empty empty empty 17 7 0 10 #fcfcfc
#000000 #000000;
#X obj 217 144 loadbang;
#X connect 0 0 1 0;
#X connect 0 0 12 0;
#X connect 1 0 3 0;
#X connect 2 0 4 2;
#X connect 3 0 2 0;
#X connect 4 0 8 0;
#X connect 6 0 7 0;
#X connect 7 0 6 1;
#X connect 7 0 2 0;
#X connect 8 0 11 0;
#X connect 9 0 11 1;
#X connect 11 0 10 0;
#X connect 13 0 9 2;
#X connect 14 0 10 2;
#X connect 15 0 4 0;
#X connect 15 1 6 0;
#X connect 15 2 8 1;
#X connect 15 3 9 0;
#X connect 15 3 23 0;
#X connect 16 0 15 0;
#X connect 17 0 21 0;
#X connect 20 0 6 1;
#X connect 21 0 20 0;
#X connect 21 0 22 0;
#X connect 22 0 5 0;
#X connect 23 0 0 0;
#X connect 24 0 23 0;
