#N canvas 75 195 694 483 12;
#X obj 204 133 env~;
#X floatatom 204 158 5 0 0 0 - - - 0;
#X floatatom 204 207 5 0 0 0 - - - 0;
#X obj 204 231 max 0;
#X floatatom 204 256 5 0 0 0 - - - 0;
#X floatatom 204 305 5 0 0 0 - - - 0;
#X obj 324 429 s NOTE;
#X floatatom 324 248 5 0 0 0 - - - 0;
#X floatatom 324 297 5 0 0 0 - - - 0;
#X obj 324 272 * 3;
#X obj 26 141 out~;
#X obj 324 223 skip 50;
#X msg 324 386 4841 0 \$1 1;
#X obj 204 182 - 70;
#X obj 204 280 * 2;
#X obj 382 27 radio_mote_random6;
#A saved 0 1 0 1 0 1 0 1 0 1 0 1 0 0 0 0 60 yellowball world 0.5 0.2 0.1 0.05;
#X obj 382 154 sel 1;
#X msg 204 68 open 005.wav;
#X obj 204 98 player~;
#X msg 26 111 mute;
#X obj 26 87 loadbang;
#X connect 0 0 1 0;
#X connect 1 0 13 0;
#X connect 2 0 3 0;
#X connect 3 0 4 0;
#X connect 4 0 14 0;
#X connect 5 0 11 0;
#X connect 7 0 9 0;
#X connect 8 0 12 0;
#X connect 9 0 8 0;
#X connect 11 0 7 0;
#X connect 12 0 6 0;
#X connect 13 0 2 0;
#X connect 14 0 5 0;
#X connect 15 0 16 0;
#X connect 16 0 17 0;
#X connect 17 0 18 0;
#X connect 18 0 0 0;
#X connect 18 0 10 0;
#X connect 19 0 10 0;
#X connect 20 0 19 0;
