#N canvas 146 350 1042 528 10;
#X obj 8 32 tgl 15 0 empty \$0-status-now empty 17 7 0 10 #c6ffc7 #000000
#000000 0 1;
#X obj 88 191 bng 15 250 50 0 empty empty motivated! 17 7 0 10 #fcfcfc
#000000 #000000;
#X msg 187 224 1;
#X obj 187 277 v \$0-STATE;
#N canvas 322 23 785 806 world 0;
#X floatatom 16 194 5 0 0 0 - - - 0;
#X obj 16 397 t a b;
#X obj 16 476 spigot;
#X obj 67 461 tgl 15 0 empty empty free_:) 17 7 0 10 #fcfcfc #000000
#000000 0 1;
#X obj 67 438 == 0;
#X obj 16 420 sel 1;
#X text 41 552 think;
#X obj 16 578 gauss 1 0;
#X floatatom 16 624 5 0 0 0 - - - 0;
#X obj 16 694 sel 1;
#X obj 65 712 tgl 15 0 empty empty empty 17 7 0 10 #fcfcfc #000000
#000000 0 1;
#X floatatom 110 654 5 0 0 0 stress - - 0;
#X obj 16 671 >;
#X obj 34 224 bng 15 250 50 0 empty empty listen 17 7 0 10 #b8b8b8
#f8fc00 #000000;
#X text 69 314 world is quiet?;
#X text 90 389 status of me;
#X obj 147 433 tgl 15 0 empty empty busy. 17 7 0 10 #fcfcfc #000000
#000000 0 1;
#X obj 16 601 abs;
#X text 78 331 condition of state change;
#X obj 67 415 v \$0-STATE;
#X obj 16 747 outlet;
#X obj 16 166 +;
#X obj 49 166 tgl 15 0 empty \$0-SLEEP r:0-SLEEP 17 7 0 10 #fcfcfc
#000000 #000000 0 1;
#X obj 266 124 tgl 15 0 empty empty empty 17 7 0 10 #fcfcfc #000000
#000000 0 1;
#X obj 266 144 s \$0-SLEEP;
#X obj 16 101 v;
#X obj 86 60 symbol;
#X obj 119 37 r \$0-group;
#X obj 86 14 loadbang;
#X floatatom 16 124 5 0 0 0 - - - 0;
#X obj 86 83 makefilename %s_energy_sum;
#X obj 266 101 v;
#X obj 336 60 symbol;
#X obj 369 37 r \$0-group;
#X obj 336 14 loadbang;
#X obj 336 83 makefilename %s_sleep;
#X obj 266 60 metro 200;
#X obj 16 60 metro 100;
#X obj 16 14 bng 15 250 50 0 empty empty empty 17 7 0 10 #fcfcfc #000000
#000000;
#X obj 266 14 bng 15 250 50 0 empty empty empty 17 7 0 10 #fcfcfc #000000
#000000;
#X obj 16 314 <;
#X obj 31 265 r \$0-cond;
#X floatatom 31 288 5 0 0 0 - - - 0;
#X obj 146 503 r \$0-stress;
#X msg 146 526 set \$1;
#X msg 199 549 set \$1;
#X obj 199 526 r \$0-relax;
#X obj 67 111 r world_run_step;
#X obj 282 687 +;
#X obj 282 634 t a b;
#X obj 282 428 tgl 15 0 empty empty empty 17 7 0 10 #fcfcfc #000000
#000000 0 1;
#X floatatom 282 612 8 0 0 0 - - - 0;
#X obj 282 477 t b b;
#X obj 329 518 sel 1 0;
#X obj 282 710 max 0;
#N canvas 0 50 450 250 (subpatch) 0;
#X array \$0-stress 100 float 2;
#X coords 0 100 100 0 200 200 1 0 0;
#X restore 531 557 graph;
#X obj 282 405 loadbang;
#X obj 282 448 metro 100;
#N canvas 84 95 319 212 (subpatch) 0;
#X obj 12 54 metro 100;
#X obj 12 34 tgl 15 0 empty empty empty 17 7 0 10 #fcfcfc #000000 #000000
0 1;
#X obj 12 100 t a b;
#X obj 117 77 f;
#X obj 144 77 + 1;
#X obj 117 100 mod 100;
#X obj 12 11 loadbang;
#X obj 12 77 v \$0-STRESS;
#X obj 12 123 tabwrite \$0-stress;
#X msg 78 11 0;
#X obj 122 38 r world_run_step;
#X connect 0 0 7 0;
#X connect 1 0 0 0;
#X connect 2 0 8 0;
#X connect 2 1 3 0;
#X connect 3 0 4 0;
#X connect 3 0 5 0;
#X connect 4 0 3 1;
#X connect 5 0 8 1;
#X connect 6 0 1 0;
#X connect 7 0 2 0;
#X connect 9 0 7 0;
#X connect 10 0 0 1;
#X restore 739 741 pd;
#X obj 329 495 v \$0-STATE;
#X obj 309 657 v \$0-STRESS;
#X obj 282 733 v \$0-STRESS;
#X obj 382 336 tgl 15 0 empty empty empty 17 7 0 10 #fcfcfc #000000
#000000 0 1;
#X obj 382 356 metro 50;
#X obj 382 313 loadbang;
#X obj 382 379 v \$0-STATE;
#X obj 382 402 s \$0-status-now;
#X floatatom 329 542 5 0 0 1 working\ stress - - 0;
#X floatatom 348 565 5 0 0 1 resting\ relax - - 0;
#X obj 382 432 r world_run_step;
#X obj 348 591 * 1;
#X obj 393 614 r world_relax_x;
#X connect 0 0 13 0;
#X connect 0 0 40 0;
#X connect 1 0 5 0;
#X connect 1 1 19 0;
#X connect 2 0 7 0;
#X connect 3 0 2 1;
#X connect 4 0 3 0;
#X connect 5 0 2 0;
#X connect 7 0 17 0;
#X connect 8 0 12 0;
#X connect 9 0 20 0;
#X connect 11 0 12 1;
#X connect 12 0 9 0;
#X connect 12 0 10 0;
#X connect 17 0 8 0;
#X connect 19 0 4 0;
#X connect 19 0 16 0;
#X connect 21 0 0 0;
#X connect 22 0 21 1;
#X connect 23 0 24 0;
#X connect 25 0 29 0;
#X connect 26 0 30 0;
#X connect 27 0 26 1;
#X connect 28 0 26 0;
#X connect 28 0 37 0;
#X connect 29 0 21 0;
#X connect 30 0 25 1;
#X connect 31 0 23 0;
#X connect 32 0 35 0;
#X connect 33 0 32 1;
#X connect 34 0 32 0;
#X connect 34 0 36 0;
#X connect 35 0 31 1;
#X connect 37 0 25 0;
#X connect 38 0 37 0;
#X connect 39 0 36 0;
#X connect 40 0 1 0;
#X connect 41 0 42 0;
#X connect 42 0 40 1;
#X connect 43 0 44 0;
#X connect 44 0 67 0;
#X connect 45 0 68 0;
#X connect 46 0 45 0;
#X connect 47 0 37 1;
#X connect 48 0 54 0;
#X connect 49 0 48 0;
#X connect 49 1 60 0;
#X connect 50 0 57 0;
#X connect 51 0 49 0;
#X connect 52 0 51 0;
#X connect 52 1 59 0;
#X connect 53 0 67 0;
#X connect 53 1 68 0;
#X connect 54 0 61 0;
#X connect 54 0 11 0;
#X connect 56 0 50 0;
#X connect 57 0 52 0;
#X connect 59 0 53 0;
#X connect 60 0 48 1;
#X connect 62 0 63 0;
#X connect 63 0 65 0;
#X connect 64 0 62 0;
#X connect 65 0 66 0;
#X connect 67 0 51 0;
#X connect 68 0 70 0;
#X connect 69 0 57 1;
#X connect 70 0 51 0;
#X connect 71 0 70 1;
#X restore 105 149 pd world and me;
#N canvas 582 334 712 447 expressions 0;
#X obj 24 211 inlet;
#X obj 24 292 outlet;
#X obj 24 263 t b a;
#X obj 226 258 s \$0-word;
#X obj 134 392 bng 15 250 50 0 \$0-reload empty s:reload 17 7 0 10
#fcfcfc #000000 #000000;
#X floatatom 134 347 5 0 0 0 - - - 0;
#X obj 134 281 t a a;
#X obj 24 240 count 4;
#X obj 157 184 loadbang;
#X obj 157 230 s \$0-word-max;
#X obj 63 195 r \$0-word-max;
#X floatatom 63 218 5 0 0 0 - - - 0;
#X msg 157 207 4;
#X obj 134 369 array_copier \$0-sign;
#N canvas 0 23 450 278 (subpatch) 0;
#X array \$0-sign1 50 float 2;
#X coords 0 1 50 0 150 105 1 0 0;
#X restore 196 45 graph;
#N canvas 0 23 450 278 (subpatch) 0;
#X array \$0-sign3 50 float 2;
#X coords 0 1 50 0 150 105 1 0 0;
#X restore 536 45 graph;
#N canvas 84 25 450 278 (subpatch) 0;
#X array \$0-sign2 50 float 2;
#X coords 0 1 50 0 150 105 1 0 0;
#X restore 366 45 graph;
#N canvas 0 23 450 278 (subpatch) 0;
#X array \$0-sign0 50 float 2;
#X coords 0 1 50 0 150 105 1 0 0;
#X restore 26 45 graph;
#X connect 0 0 7 0;
#X connect 2 0 1 0;
#X connect 2 1 6 0;
#X connect 5 0 13 0;
#X connect 6 0 5 0;
#X connect 7 0 2 0;
#X connect 7 0 3 0;
#X connect 8 0 12 0;
#X connect 10 0 11 0;
#X connect 11 0 7 1;
#X connect 12 0 9 0;
#X connect 13 0 4 0;
#X restore 88 307 pd expressions;
#N canvas 0 23 450 278 (subpatch) 0;
#X array \$0-sign 50 float 2;
#X coords 0 1 50 0 25 25 1 0 0;
#X restore 26 42 graph;
#X obj 112 52 hradio 15 1 0 4 empty \$0-word empty 0 -8 0 10 #c6ffc7
#9c00ff #000000 0;
#X obj 8 50 bng 15 250 50 0 empty empty empty 17 7 0 10 #c6ffc7 #9c00ff
#000000;
#X msg 37 379 0;
#X obj 319 346 loadbang;
#X obj 301 446 bng 15 250 50 0 empty empty empty 17 7 0 10 #fcfcfc
#000000 #000000;
#X text 35 360 stop!;
#X msg 321 446 0;
#X obj 321 469 v \$0-STATE;
#X obj 88 469 s NOTE;
#X obj 358 369 bng 15 250 50 0 empty \$0-reload r:reload 17 7 0 10
#fcfcfc #000000 #000000;
#X obj 432 101 v \$0-STRESS;
#X obj 432 147 v \$0-STRESS;
#X obj 432 81 bng 15 250 50 0 empty WORLD_evt_half r:WORLD_evt_half
17 7 0 10 #fcfcfc #000000 #000000;
#X obj 432 124 * 0.5;
#X obj 72 53 nbx 2 14 -1e+37 1e+37 0 0 \$0-word-max \$0-word-max-set
w 0 -8 0 10 #b8b8b8 #202020 #000000 0 256;
#X obj 432 271 r \$0-word-max;
#X obj 432 317 s \$0-word-max-set;
#X msg 432 294 set \$1;
#X obj 54 52 tgl 15 0 \$0-SLEEP \$0-SLEEP-set s 3 -7 0 10 #404040 #f8fc00
#000000 0 1;
#X msg 432 209 set \$1;
#X obj 432 186 r \$0-SLEEP;
#X obj 432 232 s \$0-SLEEP-set;
#X obj 319 369 f \$0;
#X obj 319 392 makefilename %d-sign;
#N canvas 70 273 585 334 statesave 0;
#X obj 60 72 savestate;
#X obj 60 48 list store;
#X obj 60 25 r \$0-save;
#N canvas 0 0 426 370 save-sign 0;
#X obj 58 168 makefilename;
#X obj 27 73 until;
#X obj 27 96 f, f 8;
#X obj 90 106 + 1;
#X obj 27 50 t a b, f 8;
#X msg 72 73 0;
#X obj 58 191 t b a b a;
#X obj 77 279 list prepend append;
#X obj 77 302 list trim;
#X obj 58 145 r \$0-signname_set;
#X obj 77 325 s \$0-save;
#X obj 27 27 inlet;
#X obj 36 220 array size;
#X obj 105 220 array get;
#X connect 0 0 6 0;
#X connect 1 0 2 0;
#X connect 2 0 3 0;
#X connect 2 0 0 0;
#X connect 3 0 2 1;
#X connect 4 0 1 0;
#X connect 4 1 5 0;
#X connect 5 0 2 1;
#X connect 6 0 12 0;
#X connect 6 1 12 1;
#X connect 6 2 13 0;
#X connect 6 3 13 2;
#X connect 7 0 8 0;
#X connect 8 0 10 0;
#X connect 9 0 0 0;
#X connect 11 0 4 0;
#X connect 12 0 7 0;
#X connect 13 0 7 0;
#X restore 293 146 pd save-sign;
#X msg 293 123 4;
#N canvas 102 423 357 236 save-riff 0;
#X obj 75 23 r \$0-riff-para;
#X obj 75 115 list store;
#X obj 75 69 list prepend append;
#X obj 75 92 list trim;
#X obj 75 46 t a b;
#X obj 75 138 list prepend append;
#X obj 75 161 list trim;
#X obj 75 184 s \$0-save;
#X obj 22 72 inlet;
#X connect 0 0 4 0;
#X connect 1 0 5 0;
#X connect 2 0 3 0;
#X connect 3 0 1 0;
#X connect 4 0 2 0;
#X connect 4 1 1 1;
#X connect 5 0 6 0;
#X connect 6 0 7 0;
#X connect 8 0 1 0;
#X restore 279 169 pd save-riff;
#N canvas 0 0 394 201 save-name 0;
#X obj 21 89 list prepend append;
#X obj 21 112 list trim;
#X obj 21 135 s \$0-save;
#X obj 21 66 symbol;
#X obj 54 43 r \$0-name;
#X obj 21 21 inlet;
#X connect 0 0 1 0;
#X connect 1 0 2 0;
#X connect 3 0 0 0;
#X connect 4 0 3 1;
#X connect 5 0 3 0;
#X restore 264 192 pd save-name;
#X msg 60 264 4;
#N canvas 0 0 386 217 loaded 0;
#X obj 16 15 inlet;
#X obj 222 111 list store;
#X obj 222 59 r \$0-loaded;
#X obj 222 82 route clear;
#X obj 16 54 t a b;
#X obj 16 146 s \$0-loaded;
#X msg 43 77 clear;
#X obj 16 100 list prepend append;
#X obj 16 123 list trim;
#X text 60 42 'set';
#X connect 0 0 4 0;
#X connect 2 0 3 0;
#X connect 3 0 1 1;
#X connect 3 1 1 0;
#X connect 4 0 7 0;
#X connect 4 1 6 0;
#X connect 6 0 5 0;
#X connect 7 0 8 0;
#X connect 8 0 5 0;
#X restore 135 149 pd loaded;
#N canvas 543 33 591 665 load-sign 0;
#X obj 181 378 array size;
#X obj 274 360 makefilename;
#X obj 274 337 r \$0-signname_set;
#X obj 240 308 v \$0-signname_idx;
#X obj 181 494 array set;
#X obj 240 282 bng 15 250 50 0 empty empty empty 17 7 0 10 #fcfcfc
#000000 #000000;
#X obj 285 139 v \$0-signname_idx;
#X obj 99 265 - 1;
#X obj 42 288 list split;
#X obj 61 222 v \$0-split-idx;
#X obj 70 374 v \$0-split-idx;
#X obj 99 345 -;
#X obj 70 311 t b a a;
#X obj 42 417 list split;
#X obj 81 193 v \$0-split-idx;
#X obj 81 170 list length;
#X obj 42 147 t a b a;
#X obj 42 520 t a b;
#X obj 213 125 until;
#X obj 213 243 s \$0-loaded;
#X msg 213 220 send \$1;
#X obj 213 177 bng 15 250 50 0 empty empty empty 17 7 0 10 #fcfcfc
#000000 #000000;
#X obj 42 612 s \$0-loaded;
#X msg 69 543 clear;
#X obj 42 566 list prepend append;
#X obj 42 589 list trim;
#X obj 213 154 t b b;
#X obj 213 32 inlet;
#X obj 213 197 symbol \$0-load-sign;
#X obj 42 124 r \$0-load-sign;
#X obj 432 108 makefilename %s%%d;
#X msg 432 131 set \$1;
#X obj 432 85 symbol \$0-sign;
#X obj 432 154 s \$0-signname_set;
#X obj 432 65 bng 15 250 50 0 empty empty empty 17 7 0 10 #fcfcfc #000000
#000000;
#X obj 432 42 loadbang;
#X obj 213 69 t a a b;
#X obj 285 116 - 1;
#X obj 207 308 - 1;
#X connect 1 0 4 2;
#X connect 1 0 0 1;
#X connect 2 0 1 0;
#X connect 3 0 1 0;
#X connect 3 0 38 0;
#X connect 5 0 3 0;
#X connect 7 0 8 1;
#X connect 7 0 9 0;
#X connect 8 0 13 0;
#X connect 8 1 12 0;
#X connect 9 0 7 0;
#X connect 10 0 11 0;
#X connect 11 0 10 0;
#X connect 11 0 13 1;
#X connect 12 0 10 0;
#X connect 12 1 11 1;
#X connect 12 2 0 0;
#X connect 13 0 17 0;
#X connect 13 1 4 0;
#X connect 15 0 14 0;
#X connect 16 0 8 0;
#X connect 16 1 9 0;
#X connect 16 2 15 0;
#X connect 17 0 24 0;
#X connect 17 1 23 0;
#X connect 18 0 26 0;
#X connect 20 0 19 0;
#X connect 21 0 28 0;
#X connect 23 0 22 0;
#X connect 24 0 25 0;
#X connect 25 0 22 0;
#X connect 26 0 21 0;
#X connect 26 1 5 0;
#X connect 27 0 36 0;
#X connect 28 0 20 0;
#X connect 29 0 16 0;
#X connect 30 0 31 0;
#X connect 31 0 33 0;
#X connect 32 0 30 0;
#X connect 34 0 32 0;
#X connect 35 0 34 0;
#X connect 36 0 18 0;
#X connect 36 1 37 0;
#X connect 36 2 34 0;
#X connect 37 0 6 0;
#X connect 38 0 3 0;
#X restore 60 287 pd load-sign;
#N canvas 22 33 382 405 load-name 0;
#X obj 223 28 inlet;
#X obj 52 257 t a b;
#X obj 223 143 s \$0-loaded;
#X msg 223 120 send \$1;
#X obj 223 77 bng 15 250 50 0 empty empty empty 17 7 0 10 #fcfcfc #000000
#000000;
#X obj 52 349 s \$0-loaded;
#X msg 79 280 clear;
#X obj 52 303 list prepend append;
#X obj 52 326 list trim;
#X obj 223 97 symbol \$0-load-name;
#X obj 52 24 r \$0-load-name;
#X obj 109 165 - 1;
#X obj 52 188 list split;
#X obj 71 122 v \$0-split-idx;
#X obj 91 93 v \$0-split-idx;
#X obj 91 70 list length;
#X obj 52 47 t a b a;
#X obj 80 217 s \$0-name-set;
#X connect 0 0 4 0;
#X connect 1 0 7 0;
#X connect 1 1 6 0;
#X connect 3 0 2 0;
#X connect 4 0 9 0;
#X connect 6 0 5 0;
#X connect 7 0 8 0;
#X connect 8 0 5 0;
#X connect 9 0 3 0;
#X connect 10 0 16 0;
#X connect 11 0 12 1;
#X connect 11 0 13 0;
#X connect 12 0 1 0;
#X connect 12 1 17 0;
#X connect 13 0 11 0;
#X connect 15 0 14 0;
#X connect 16 0 12 0;
#X connect 16 1 13 0;
#X connect 16 2 15 0;
#X restore 90 218 pd load-name;
#N canvas 0 0 561 478 load-riff 0;
#X obj 223 28 inlet;
#X obj 52 367 t a b;
#X obj 223 143 s \$0-loaded;
#X msg 223 120 send \$1;
#X obj 223 77 bng 15 250 50 0 empty empty empty 17 7 0 10 #fcfcfc #000000
#000000;
#X obj 52 459 s \$0-loaded;
#X msg 79 390 clear;
#X obj 52 413 list prepend append;
#X obj 52 436 list trim;
#X obj 52 188 list split;
#X obj 71 122 v \$0-split-idx;
#X obj 91 93 v \$0-split-idx;
#X obj 91 70 list length;
#X obj 52 47 t a b a;
#X obj 52 24 r \$0-load-riff;
#X obj 223 97 symbol \$0-load-riff;
#X obj 80 340 s \$0-id-set;
#X obj 103 317 s \$0-key-set;
#X obj 126 294 s \$0-range-set;
#X obj 80 218 unpack f f f f f;
#X obj 173 248 s \$0-sdelay-rend-set;
#X obj 149 271 s \$0-sdelay-rstart-set;
#X obj 109 165 - 5;
#X connect 0 0 4 0;
#X connect 1 0 7 0;
#X connect 1 1 6 0;
#X connect 3 0 2 0;
#X connect 4 0 15 0;
#X connect 6 0 5 0;
#X connect 7 0 8 0;
#X connect 8 0 5 0;
#X connect 9 0 1 0;
#X connect 9 1 19 0;
#X connect 10 0 22 0;
#X connect 12 0 11 0;
#X connect 13 0 9 0;
#X connect 13 1 10 0;
#X connect 13 2 12 0;
#X connect 14 0 13 0;
#X connect 15 0 3 0;
#X connect 19 0 16 0;
#X connect 19 1 17 0;
#X connect 19 2 18 0;
#X connect 19 3 21 0;
#X connect 19 4 20 0;
#X connect 22 0 9 1;
#X connect 22 0 10 0;
#X restore 75 241 pd load-riff;
#X obj 415 114 list store;
#X obj 415 163 print;
#X obj 385 99 bng 15 250 50 0 empty empty empty 17 7 0 10 #fcfcfc #000000
#000000;
#X obj 415 75 t a b;
#X obj 415 29 list prepend append;
#X obj 415 52 list trim;
#N canvas 0 0 394 201 save-group 0;
#X obj 21 89 list prepend append;
#X obj 21 112 list trim;
#X obj 21 135 s \$0-save;
#X obj 21 66 symbol;
#X obj 21 21 inlet;
#X obj 54 43 r \$0-group;
#X connect 0 0 1 0;
#X connect 1 0 2 0;
#X connect 3 0 0 0;
#X connect 4 0 3 0;
#X connect 5 0 3 1;
#X restore 250 215 pd save-group;
#N canvas 22 33 382 405 load-group 0;
#X obj 223 28 inlet;
#X obj 52 257 t a b;
#X obj 223 143 s \$0-loaded;
#X msg 223 120 send \$1;
#X obj 223 77 bng 15 250 50 0 empty empty empty 17 7 0 10 #fcfcfc #000000
#000000;
#X obj 52 349 s \$0-loaded;
#X msg 79 280 clear;
#X obj 52 303 list prepend append;
#X obj 52 326 list trim;
#X obj 109 165 - 1;
#X obj 52 188 list split;
#X obj 71 122 v \$0-split-idx;
#X obj 91 93 v \$0-split-idx;
#X obj 91 70 list length;
#X obj 52 47 t a b a;
#X obj 223 97 symbol \$0-load-group;
#X obj 52 24 r \$0-load-group;
#X obj 80 217 s \$0-group-set;
#X connect 0 0 4 0;
#X connect 1 0 7 0;
#X connect 1 1 6 0;
#X connect 3 0 2 0;
#X connect 4 0 15 0;
#X connect 6 0 5 0;
#X connect 7 0 8 0;
#X connect 8 0 5 0;
#X connect 9 0 10 1;
#X connect 9 0 11 0;
#X connect 10 0 1 0;
#X connect 10 1 17 0;
#X connect 11 0 9 0;
#X connect 13 0 12 0;
#X connect 14 0 10 0;
#X connect 14 1 11 0;
#X connect 14 2 13 0;
#X connect 15 0 3 0;
#X connect 16 0 14 0;
#X restore 105 195 pd load-group;
#X obj 221 90 t b b b b b b b;
#N canvas 417 223 349 308 save-world 0;
#X obj 21 189 list prepend append;
#X obj 21 212 list trim;
#X obj 21 235 s \$0-save;
#X obj 21 21 inlet;
#X obj 36 44 r \$0-cond;
#X obj 21 67 f;
#X obj 21 166 pack f f f f;
#X obj 44 90 r \$0-level;
#X obj 90 136 r \$0-relax;
#X obj 67 113 r \$0-stress;
#X connect 0 0 1 0;
#X connect 1 0 2 0;
#X connect 3 0 5 0;
#X connect 4 0 5 1;
#X connect 5 0 6 0;
#X connect 6 0 0 0;
#X connect 7 0 6 1;
#X connect 8 0 6 3;
#X connect 9 0 6 2;
#X restore 235 238 pd save-world;
#X obj 60 111 t b b b b b a;
#N canvas 84 297 417 482 load-world 0;
#X obj 223 28 inlet;
#X obj 52 337 t a b;
#X obj 223 143 s \$0-loaded;
#X msg 223 120 send \$1;
#X obj 223 77 bng 15 250 50 0 empty empty empty 17 7 0 10 #fcfcfc #000000
#000000;
#X obj 52 429 s \$0-loaded;
#X msg 79 360 clear;
#X obj 52 383 list prepend append;
#X obj 52 406 list trim;
#X obj 52 188 list split;
#X obj 71 122 v \$0-split-idx;
#X obj 91 93 v \$0-split-idx;
#X obj 91 70 list length;
#X obj 52 47 t a b a;
#X obj 223 97 symbol \$0-load-world;
#X obj 52 24 r \$0-load-world;
#X obj 80 310 s \$0-cond-set;
#X obj 80 218 unpack f f f f;
#X obj 161 241 s \$0-relax-set;
#X obj 134 264 s \$0-stress-set;
#X obj 107 287 s \$0-level-set;
#X obj 109 165 - 4;
#X connect 0 0 4 0;
#X connect 1 0 7 0;
#X connect 1 1 6 0;
#X connect 3 0 2 0;
#X connect 4 0 14 0;
#X connect 6 0 5 0;
#X connect 7 0 8 0;
#X connect 8 0 5 0;
#X connect 9 0 1 0;
#X connect 9 1 17 0;
#X connect 10 0 21 0;
#X connect 12 0 11 0;
#X connect 13 0 9 0;
#X connect 13 1 10 0;
#X connect 13 2 12 0;
#X connect 14 0 3 0;
#X connect 15 0 13 0;
#X connect 17 0 16 0;
#X connect 17 1 20 0;
#X connect 17 2 19 0;
#X connect 17 3 18 0;
#X connect 21 0 9 1;
#X connect 21 0 10 0;
#X restore 120 172 pd load-world;
#X connect 0 0 16 0;
#X connect 0 0 22 0;
#X connect 0 1 20 0;
#X connect 1 0 0 0;
#X connect 2 0 1 0;
#X connect 4 0 3 0;
#X connect 7 0 9 0;
#X connect 12 0 13 0;
#X connect 14 0 12 0;
#X connect 15 0 12 0;
#X connect 15 1 12 1;
#X connect 16 0 17 0;
#X connect 17 0 15 0;
#X connect 20 0 1 0;
#X connect 20 1 21 0;
#X connect 20 2 18 0;
#X connect 20 3 6 0;
#X connect 20 4 5 0;
#X connect 20 5 4 0;
#X connect 20 6 1 1;
#X connect 22 0 7 0;
#X connect 22 1 11 0;
#X connect 22 2 10 0;
#X connect 22 3 19 0;
#X connect 22 4 23 0;
#X connect 22 5 8 0;
#X restore 458 444 pd statesave;
#X obj 338 92 pack s f;
#X obj 338 46 t b f;
#X obj 338 26 tgl 15 0 empty \$0-feed r:0-feed 17 7 0 10 #fcfcfc #000000
#000000 0 1;
#X obj 338 138 s FEED;
#X obj 197 252 tgl 15 0 \$0-feed empty s:0-feed 17 7 0 10 #fcfcfc #000000
#000000 0 1;
#X obj 373 433 tgl 15 0 \$0-feed empty s:0-feed 17 7 0 10 #fcfcfc #000000
#000000 0 1;
#X obj 338 115 list trim;
#X obj 166 31 nbx 3 14 -1e+37 1e+37 0 0 empty empty ! -8 7 0 10 #feffc6
#606060 #000000 0 256;
#X obj 7 195 loadbang;
#X obj 7 241 v \$0-STRESS;
#X obj 7 218 metro 100;
#X obj 7 264 int;
#X obj 112 36 nbx 2 14 -1e+37 1e+37 0 0 empty \$0-word empty -8 7 0
10 #ffffff #000000 #000000 0 256;
#X obj 24 72 nbx 4 14 -1e+37 1e+37 0 0 \$0-id \$0-id-set id -14 7 0
10 #ffffff #000000 #000000 0 256;
#X obj 81 72 nbx 4 14 -1e+37 1e+37 0 0 \$0-range \$0-range-set r -8
7 0 10 #ffffff #000000 #000000 0 256;
#X obj 144 72 nbx 4 14 -1e+37 1e+37 0 0 \$0-sdelay-rstart \$0-sdelay-rstart-set
d1 -14 7 0 10 #ffffff #000000 #000000 0 256;
#X symbolatom 128 10 15 0 0 0 @ \$0-name-set \$0-name 0;
#X obj 416 35 r \$0-name;
#X obj 265 72 nbx 1 14 -1e+37 1e+37 0 0 \$0-key \$0-key-set k -7 7
0 10 #ffffff #000000 #000000 0 256;
#X obj 338 69 symbol;
#N canvas 0 0 369 268 riffpara 0;
#X obj 74 18 r \$0-key;
#X obj 152 87 t b a;
#X obj 113 64 t b a;
#X obj 74 41 t b a;
#X obj 23 41 r \$0-id;
#X obj 113 41 r \$0-range;
#X obj 43 190 s \$0-riff-para;
#X obj 23 213 outlet;
#X obj 152 64 r \$0-sdelay-rstart;
#X obj 191 110 t b a;
#X obj 23 167 pack f f f f f;
#X obj 191 87 r \$0-sdelay-rend;
#X connect 0 0 3 0;
#X connect 1 0 10 0;
#X connect 1 1 10 3;
#X connect 2 0 10 0;
#X connect 2 1 10 2;
#X connect 3 0 10 0;
#X connect 3 1 10 1;
#X connect 4 0 10 0;
#X connect 5 0 2 0;
#X connect 8 0 1 0;
#X connect 9 0 10 0;
#X connect 9 1 10 4;
#X connect 10 0 6 0;
#X connect 10 0 7 0;
#X connect 11 0 9 0;
#X restore 301 307 pd riffpara;
#X symbolatom 22 10 15 0 0 0 & \$0-group-set \$0-group 0;
#X obj 8 136 v \$0-STATE;
#X obj 8 159 sel 1 0;
#X obj 632 158 symbol;
#X obj 665 135 r \$0-group;
#X obj 611 204 send;
#X obj 611 62 bng 15 250 50 0 empty empty register\\\ me\\\ :) 17 7
0 10 #fcfcfc #000000 #000000;
#X obj 632 112 loadbang;
#X text 804 90 on 'connect';
#X obj 638 279 print \$0-myplace;
#X obj 752 415 pack f f;
#X obj 659 341 loadbang;
#X obj 752 341 snapshot~;
#X msg 752 287 start;
#X msg 802 287 stop;
#X obj 659 364 tgl 15 0 empty empty empty 17 7 0 10 #fcfcfc #000000
#000000 0 1;
#X floatatom 752 366 5 0 0 0 - - - 0;
#X obj 659 384 metro 50;
#X obj 752 316 ear~ 2000 10000;
#X obj 752 256 sel 1 0;
#X obj 828 428 symbol;
#X obj 861 405 r \$0-group;
#X obj 807 474 send;
#X obj 828 382 loadbang;
#X obj 828 451 makefilename %s_status;
#X obj 752 230 tgl 15 0 empty \$0-feed r:0-feed 17 7 0 10 #fcfcfc #000000
#000000 0 1;
#X obj 752 438 spigot;
#X obj 705 456 tgl 15 0 empty empty empty 17 7 0 10 #fcfcfc #000000
#000000 0 1;
#X msg 611 438 1;
#X obj 611 227 r \$0-onconnect-listen;
#X obj 611 82 symbol \$0-onconnect-listen;
#X text 862 13 * group interactions;
#X obj 611 23 loadbang;
#X obj 632 181 makefilename %s_onconnect;
#X obj 611 250 t b a;
#X obj 57 90 nbx 5 14 -1e+37 1e+37 0 0 \$0-cond \$0-cond-set condi
-33 7 0 10 #ffffff #000000 #000000 0 256;
#X obj 49 108 nbx 6 14 -1e+37 1e+37 0 0 \$0-stress \$0-stress-set stress
-38 7 0 10 #ffffff #000000 #000000 0 256;
#X obj 157 108 nbx 6 14 -1e+37 1e+37 0 0 \$0-relax \$0-relax-set relax
-33 7 0 10 #ffffff #000000 #000000 0 256;
#X obj 165 90 nbx 5 14 -1e+37 1e+37 0 0 \$0-level \$0-level-set level
-33 7 0 10 #ffffff #000000 #000000 0 256;
#X obj 752 390 *;
#X obj 871 326 r \$0-level;
#X floatatom 871 349 5 0 0 0 - - - 0;
#X text 866 282 feedback to 'world';
#X obj 917 179 loadbang;
#X msg 917 204 \; pd dsp 1;
#X obj 88 346 riff2_random;
#X obj 208 72 nbx 4 14 -1e+37 1e+37 0 0 \$0-sdelay-rend \$0-sdelay-rend-set
d2 -14 7 0 10 #ffffff #000000 #000000 0 256;
#X obj 294 55 outlet;
#X obj 292 5 inlet;
#X obj 105 130 tgl 15 0 empty WORLD_SLEEP WORLD_SLEEP 17 7 0 10 #ff0400
#ffffff #000000 0 1;
#X connect 1 0 5 0;
#X connect 1 0 2 0;
#X connect 2 0 3 0;
#X connect 2 0 36 0;
#X connect 4 0 1 0;
#X connect 5 0 98 0;
#X connect 8 0 54 0;
#X connect 9 0 98 0;
#X connect 10 0 29 0;
#X connect 11 0 13 0;
#X connect 13 0 14 0;
#X connect 13 0 37 0;
#X connect 16 0 29 0;
#X connect 17 0 20 0;
#X connect 19 0 17 0;
#X connect 20 0 18 0;
#X connect 22 0 24 0;
#X connect 24 0 23 0;
#X connect 26 0 28 0;
#X connect 27 0 26 0;
#X connect 29 0 30 0;
#X connect 30 0 98 1;
#X connect 32 0 38 0;
#X connect 33 0 51 0;
#X connect 33 1 32 1;
#X connect 34 0 33 0;
#X connect 34 0 100 0;
#X connect 38 0 35 0;
#X connect 40 0 42 0;
#X connect 41 0 43 0;
#X connect 42 0 41 0;
#X connect 43 0 39 0;
#X connect 49 0 51 1;
#X connect 51 0 32 0;
#X connect 52 0 98 2;
#X connect 54 0 55 0;
#X connect 55 0 9 0;
#X connect 55 1 1 0;
#X connect 56 0 86 0;
#X connect 57 0 56 1;
#X connect 59 0 83 0;
#X connect 60 0 56 0;
#X connect 63 0 79 0;
#X connect 64 0 68 0;
#X connect 65 0 69 0;
#X connect 66 0 71 0;
#X connect 67 0 71 0;
#X connect 68 0 70 0;
#X connect 69 0 92 0;
#X connect 70 0 65 0;
#X connect 71 0 65 0;
#X connect 72 0 66 0;
#X connect 72 1 67 0;
#X connect 73 0 77 0;
#X connect 74 0 73 1;
#X connect 76 0 73 0;
#X connect 77 0 75 1;
#X connect 78 0 72 0;
#X connect 79 0 75 0;
#X connect 80 0 79 1;
#X connect 81 0 80 0;
#X connect 82 0 87 0;
#X connect 83 0 58 0;
#X connect 85 0 59 0;
#X connect 86 0 58 1;
#X connect 87 0 81 0;
#X connect 87 1 63 1;
#X connect 87 1 62 0;
#X connect 92 0 63 0;
#X connect 93 0 94 0;
#X connect 94 0 92 1;
#X connect 96 0 97 0;
#X connect 98 0 15 0;
#X connect 98 3 11 0;
#X connect 101 0 8 0;
#X connect 102 0 25 0;
#X coords 0 -1 1 1 285 122 2 5 5;
