#N canvas 1 23 863 855 10;
#X obj 445 648 s YHOSE_SLEEP;
#X obj 641 632 s YHOSE_STOP;
#X obj 458 732 s YHOSE;
#X text 36 17 # scenes;
#X obj 107 61 bng 15 250 50 0 empty empty next!>>>> 17 7 0 10 #00ff04
#000000 #000000;
#X obj 648 786 s TIKA;
#X msg 643 737 1 trigger;
#X msg 756 783 2 sleep \$1;
#X obj 796 743 tgl 15 0 empty empty empty 17 7 0 10 #fcfcfc #000000
#000000 0 1;
#X msg 707 708 1 sleep \$1;
#X obj 709 687 tgl 15 0 empty empty empty 17 7 0 10 #fcfcfc #000000
#000000 0 1;
#X obj 215 99 hradio 15 1 0 8 empty empty empty 0 -8 0 10 #fcfcfc #000000
#000000 0;
#X obj 92 119 f;
#X obj 129 113 + 1;
#X floatatom 95 156 5 0 0 1 sceneN - - 0;
#X obj 215 119 sel 0 1 2 3 4 5 6 7 8 9 10;
#X msg 26 85 0;
#X obj 26 59 bng 15 250 50 0 empty empty restart 17 7 0 10 #ff0400
#000000 #000000;
#X msg 61 85 set 0;
#X obj 6 150 tgl 15 0 WORLD_SLEEP empty WORLD_SLEEP 12 7 0 10 #fc0400
#fcfcfc #fc0400 0 1;
#X msg 20 121 1;
#N canvas 277 201 450 412 (subpatch) 1;
#X obj 178 286 s TIKA;
#X obj 168 185 bng 15 250 50 0 empty empty empty 17 7 0 10 #fcfcfc
#000000 #000000;
#X obj 18 274 s YELLOW_SLEEP;
#X msg 17 240 0;
#X msg 186 231 1 sleep 0;
#X msg 130 252 2 sleep 0;
#X msg 228 259 3 sleep 0;
#X obj 31 349 s VINYL;
#X msg 30 320 toggle 1;
#X obj 108 46 inlet;
#X connect 1 0 3 0;
#X connect 1 0 4 0;
#X connect 1 0 5 0;
#X connect 1 0 6 0;
#X connect 1 0 8 0;
#X connect 3 0 2 0;
#X connect 4 0 0 0;
#X connect 5 0 0 0;
#X connect 6 0 0 0;
#X connect 8 0 7 0;
#X connect 9 0 1 0;
#X restore 78 270 pd 0;
#N canvas 122 113 608 670 (subpatch) 1;
#X obj 168 185 bng 15 250 50 0 empty empty empty 17 7 0 10 #fcfcfc
#000000 #000000;
#X obj 108 46 inlet;
#X msg 195 239 0;
#X obj 196 273 s YHOSE_SLEEP;
#X obj 269 222 s FLAGA_SLEEP;
#X msg 269 190 0;
#X obj 102 381 s TIKA;
#X msg 101 347 3 sleep 1;
#X msg 166 353 1 sleep 1;
#X connect 0 0 2 0;
#X connect 0 0 5 0;
#X connect 0 0 7 0;
#X connect 1 0 0 0;
#X connect 2 0 3 0;
#X connect 5 0 4 0;
#X connect 7 0 6 0;
#X connect 8 0 6 0;
#X restore 86 389 pd 1;
#X text 73 358 엄마전화를받으면;
#X text 115 249 프리셋;
#N canvas 280 86 608 670 (subpatch) 1;
#X obj 96 178 bng 15 250 50 0 empty empty empty 17 7 0 10 #fcfcfc #000000
#000000;
#X msg 30 320 toggle 1;
#X obj 108 46 inlet;
#X obj 31 349 s FRIDGE;
#X obj 226 227 s YHOSE_SLEEP;
#X msg 225 193 1;
#X msg 208 334 toggle 1;
#X obj 209 363 s HARMOB;
#X msg 300 348 toggle 1;
#X obj 301 377 s HARMOC;
#X connect 0 0 1 0;
#X connect 0 0 5 0;
#X connect 0 0 6 0;
#X connect 1 0 3 0;
#X connect 2 0 0 0;
#X connect 5 0 4 0;
#X connect 6 0 7 0;
#X connect 8 0 9 0;
#X restore 156 422 pd 2;
#N canvas 280 86 608 670 (subpatch) 0;
#X obj 96 178 bng 15 250 50 0 empty empty empty 17 7 0 10 #fcfcfc #000000
#000000;
#X msg 30 320 toggle 1;
#X obj 108 46 inlet;
#X obj 31 349 s FRIDGE;
#X obj 226 227 s YHOSE_SLEEP;
#X msg 225 193 1;
#X connect 0 0 1 0;
#X connect 0 0 5 0;
#X connect 1 0 3 0;
#X connect 2 0 0 0;
#X connect 5 0 4 0;
#X restore 286 508 pd 4;
#N canvas 280 86 608 670 (subpatch) 0;
#X obj 96 178 bng 15 250 50 0 empty empty empty 17 7 0 10 #fcfcfc #000000
#000000;
#X msg 30 320 toggle 1;
#X obj 108 46 inlet;
#X obj 31 349 s FRIDGE;
#X obj 226 227 s YHOSE_SLEEP;
#X msg 225 193 1;
#X connect 0 0 1 0;
#X connect 0 0 5 0;
#X connect 1 0 3 0;
#X connect 2 0 0 0;
#X connect 5 0 4 0;
#X restore 356 409 pd 5;
#N canvas 280 86 608 670 (subpatch) 0;
#X obj 96 178 bng 15 250 50 0 empty empty empty 17 7 0 10 #fcfcfc #000000
#000000;
#X msg 30 320 toggle 1;
#X obj 108 46 inlet;
#X obj 31 349 s FRIDGE;
#X obj 226 227 s YHOSE_SLEEP;
#X msg 225 193 1;
#X connect 0 0 1 0;
#X connect 0 0 5 0;
#X connect 1 0 3 0;
#X connect 2 0 0 0;
#X connect 5 0 4 0;
#X restore 386 439 pd 6;
#N canvas 280 86 608 670 (subpatch) 0;
#X obj 96 178 bng 15 250 50 0 empty empty empty 17 7 0 10 #fcfcfc #000000
#000000;
#X msg 30 320 toggle 1;
#X obj 108 46 inlet;
#X obj 31 349 s FRIDGE;
#X obj 226 227 s YHOSE_SLEEP;
#X msg 225 193 1;
#X connect 0 0 1 0;
#X connect 0 0 5 0;
#X connect 1 0 3 0;
#X connect 2 0 0 0;
#X connect 5 0 4 0;
#X restore 416 469 pd 7;
#N canvas 280 86 608 670 (subpatch) 0;
#X obj 96 178 bng 15 250 50 0 empty empty empty 17 7 0 10 #fcfcfc #000000
#000000;
#X msg 30 320 toggle 1;
#X obj 108 46 inlet;
#X obj 31 349 s FRIDGE;
#X obj 226 227 s YHOSE_SLEEP;
#X msg 225 193 1;
#X connect 0 0 1 0;
#X connect 0 0 5 0;
#X connect 1 0 3 0;
#X connect 2 0 0 0;
#X connect 5 0 4 0;
#X restore 446 499 pd 8;
#N canvas 280 86 608 670 (subpatch) 0;
#X obj 96 178 bng 15 250 50 0 empty empty empty 17 7 0 10 #fcfcfc #000000
#000000;
#X msg 30 320 toggle 1;
#X obj 108 46 inlet;
#X obj 31 349 s FRIDGE;
#X obj 226 227 s YHOSE_SLEEP;
#X msg 225 193 1;
#X connect 0 0 1 0;
#X connect 0 0 5 0;
#X connect 1 0 3 0;
#X connect 2 0 0 0;
#X connect 5 0 4 0;
#X restore 496 509 pd 9;
#X text 164 394 차에물을부으면;
#X text 220 436 차를마시던중에;
#N canvas 280 86 608 670 (subpatch) 1;
#X obj 96 178 bng 15 250 50 0 empty empty empty 17 7 0 10 #fcfcfc #000000
#000000;
#X msg 30 320 toggle 1;
#X obj 108 46 inlet;
#X obj 31 349 s FRIDGE;
#X obj 226 227 s YHOSE_SLEEP;
#X msg 225 193 1;
#X msg 208 334 toggle 1;
#X msg 300 348 toggle 1;
#X obj 209 363 s HARMOB_SLEEP;
#X obj 301 377 s HARMOC_SLEEP;
#X connect 0 0 1 0;
#X connect 0 0 5 0;
#X connect 0 0 6 0;
#X connect 1 0 3 0;
#X connect 2 0 0 0;
#X connect 5 0 4 0;
#X connect 6 0 8 0;
#X connect 7 0 9 0;
#X restore 222 458 pd 3;
#X text 290 475 화장실에감;
#X connect 4 0 12 0;
#X connect 6 0 5 0;
#X connect 7 0 5 0;
#X connect 8 0 7 0;
#X connect 9 0 5 0;
#X connect 10 0 9 0;
#X connect 11 0 15 0;
#X connect 12 0 13 0;
#X connect 12 0 14 0;
#X connect 13 0 12 1;
#X connect 14 0 11 0;
#X connect 15 0 21 0;
#X connect 15 1 22 0;
#X connect 15 2 25 0;
#X connect 15 3 34 0;
#X connect 15 4 26 0;
#X connect 15 5 27 0;
#X connect 15 6 28 0;
#X connect 15 7 29 0;
#X connect 15 8 30 0;
#X connect 15 9 31 0;
#X connect 16 0 12 1;
#X connect 17 0 16 0;
#X connect 17 0 18 0;
#X connect 17 0 20 0;
#X connect 18 0 11 0;
#X connect 20 0 19 0;
