#N canvas 136 328 385 426 12;
#X obj 120 295 f;
#X obj 84 295 + 1;
#X obj 218 270 sel 1;
#X msg 138 270 0;
#X obj 218 245 ==;
#X obj 236 195 - 1;
#X obj 39 71 inlet;
#X msg 179 215 0;
#X msg 106 214 1;
#X obj 106 245 metro \$1;
#X obj 106 155 t b b a;
#X msg 39 215 0;
#X obj 236 220 max 0;
#X text 5 4 <<<;
#X text 345 4 >>>;
#X text 5 394 <<<;
#X text 345 394 >>>;
#X text 39 22 generate numbers from 0 to given (inlet-1);
#X text 39 38 argument: delay amount (ms) between counts;
#X text 84 72 1-command:;
#X text 124 88 - number-> target value;
#X obj 169 134 inlet;
#X text 211 134 2-delay amount (ms);
#X text 124 102 - if <= 0 \, stop immediately;
#X obj 39 125 moses 1;
#X obj 278 315 outlet;
#X text 278 294 2#end bng;
#X msg 39 240 bang;
#X obj 120 320 t a a;
#X floatatom 152 345 5 0 0 0 - - -;
#X obj 152 369 outlet;
#X text 202 369 1#values;
#X connect 0 0 1 0;
#X connect 0 0 28 0;
#X connect 1 0 0 1;
#X connect 2 0 7 0;
#X connect 2 0 25 0;
#X connect 3 0 0 1;
#X connect 4 0 2 0;
#X connect 5 0 12 0;
#X connect 6 0 24 0;
#X connect 7 0 9 0;
#X connect 8 0 9 0;
#X connect 9 0 0 0;
#X connect 10 0 8 0;
#X connect 10 1 3 0;
#X connect 10 2 5 0;
#X connect 11 0 9 0;
#X connect 11 0 27 0;
#X connect 12 0 4 1;
#X connect 21 0 9 1;
#X connect 24 0 11 0;
#X connect 24 1 10 0;
#X connect 27 0 25 0;
#X connect 28 0 4 0;
#X connect 28 1 29 0;
#X connect 29 0 30 0;
